<svg width="16" height="16" viewBox="0 0 16 16" fill="none" xmlns="http://www.w3.org/2000/svg">
<path d="M0.439118 0.439118C0.720401 0.158184 1.10169 0.000386283 1.49924 0.000386283C1.89679 0.000386283 2.27808 0.158184 2.55937 0.439118L8 5.87775L13.4406 0.439118C13.5799 0.2999 13.7451 0.189467 13.927 0.114123C14.1089 0.0387789 14.3039 3.88104e-09 14.5008 0C14.6976 -3.88104e-09 14.8926 0.0387789 15.0745 0.114123C15.2564 0.189467 15.4217 0.2999 15.5609 0.439118C15.7001 0.578335 15.8105 0.74361 15.8859 0.925506C15.9612 1.1074 16 1.30236 16 1.49924C16 1.69612 15.9612 1.89108 15.8859 2.07298C15.8105 2.25487 15.7001 2.42015 15.5609 2.55937L10.1222 8L15.5609 13.4406C15.842 13.7218 16 14.1031 16 14.5008C16 14.8984 15.842 15.2797 15.5609 15.5609C15.2797 15.842 14.8984 16 14.5008 16C14.1031 16 13.7218 15.842 13.4406 15.5609L8 10.1222L2.55937 15.5609C2.2782 15.842 1.89686 16 1.49924 16C1.10162 16 0.72028 15.842 0.439118 15.5609C0.157955 15.2797 0 14.8984 0 14.5008C0 14.1031 0.157955 13.7218 0.439118 13.4406L5.87775 8L0.439118 2.55937C0.158184 2.27808 0.000386283 1.89679 0.000386283 1.49924C0.000386283 1.10169 0.158184 0.720401 0.439118 0.439118Z" fill="#222222"/>
</svg>
