<svg width="27" height="30" viewBox="0 0 27 30" fill="none" xmlns="http://www.w3.org/2000/svg">
<path d="M16.5154 1H10.4846C5.24642 1 1 5.24642 1 10.4846V19.8217C1 25.0599 5.24642 29.3063 10.4846 29.3063H16.5154C21.7536 29.3063 26 25.0599 26 19.8217V10.4846C26 5.24642 21.7536 1 16.5154 1Z" fill="#FFF4BA" stroke="black" stroke-width="0.421727" stroke-miterlimit="10"/>
<path d="M9.04664 14.8537C9.65921 14.8537 10.1558 14.1418 10.1558 13.2637C10.1558 12.3857 9.65921 11.6738 9.04664 11.6738C8.43408 11.6738 7.9375 12.3857 7.9375 13.2637C7.9375 14.1418 8.43408 14.8537 9.04664 14.8537Z" fill="black"/>
<path d="M17.24 14.8537C17.8526 14.8537 18.3491 14.1418 18.3491 13.2637C18.3491 12.3857 17.8526 11.6738 17.24 11.6738C16.6274 11.6738 16.1309 12.3857 16.1309 13.2637C16.1309 14.1418 16.6274 14.8537 17.24 14.8537Z" fill="black"/>
<path d="M9.95703 17.0679C9.95703 17.0679 12.344 25.0174 16.6583 17.4727" stroke="black" stroke-width="0.421727" stroke-miterlimit="10" stroke-linecap="round"/>
<path d="M4.95703 6.76526C4.95703 6.76526 12.3052 11.57 21.5989 6.19678" stroke="#0C0C0C" stroke-width="0.421101" stroke-miterlimit="10" stroke-linecap="round"/>
</svg>
