<svg width="54" height="54" viewBox="0 0 54 54" fill="none" xmlns="http://www.w3.org/2000/svg">
<path fill-rule="evenodd" clip-rule="evenodd" d="M32.6654 22.7487C32.6654 24.2516 32.0683 25.6929 31.0056 26.7556C29.9429 27.8183 28.5016 28.4154 26.9987 28.4154C25.4958 28.4154 24.0545 27.8183 22.9918 26.7556C21.9291 25.6929 21.332 24.2516 21.332 22.7487C21.332 21.2458 21.9291 19.8045 22.9918 18.7418C24.0545 17.6791 25.4958 17.082 26.9987 17.082C28.5016 17.082 29.9429 17.6791 31.0056 18.7418C32.0683 19.8045 32.6654 21.2458 32.6654 22.7487ZM29.832 22.7487C29.832 23.5001 29.5335 24.2208 29.0022 24.7522C28.4708 25.2835 27.7501 25.582 26.9987 25.582C26.2473 25.582 25.5266 25.2835 24.9952 24.7522C24.4639 24.2208 24.1654 23.5001 24.1654 22.7487C24.1654 21.9973 24.4639 21.2766 24.9952 20.7452C25.5266 20.2139 26.2473 19.9154 26.9987 19.9154C27.7501 19.9154 28.4708 20.2139 29.0022 20.7452C29.5335 21.2766 29.832 21.9973 29.832 22.7487Z" fill="white"/>
<path fill-rule="evenodd" clip-rule="evenodd" d="M26.9993 11.416C18.3931 11.416 11.416 18.3931 11.416 26.9993C11.416 35.6056 18.3931 42.5827 26.9993 42.5827C35.6056 42.5827 42.5827 35.6056 42.5827 26.9993C42.5827 18.3931 35.6056 11.416 26.9993 11.416ZM14.2493 26.9993C14.2493 29.9602 15.2594 32.6858 16.9523 34.8505C18.1413 33.2892 19.675 32.0239 21.4339 31.1535C23.1927 30.283 25.129 29.831 27.0914 29.8327C29.0285 29.8308 30.9404 30.2712 32.6815 31.1201C34.4226 31.9691 35.947 33.2042 37.1384 34.7315C38.3659 33.1216 39.1924 31.2426 39.5494 29.2499C39.9065 27.2571 39.784 25.208 39.1919 23.2721C38.5998 21.3361 37.5552 19.569 36.1446 18.1169C34.734 16.6648 32.9979 15.5695 31.0799 14.9216C29.1619 14.2737 27.1172 14.0918 25.115 14.391C23.1128 14.6902 21.2106 15.4619 19.5658 16.6422C17.921 17.8225 16.5809 19.3775 15.6564 21.1785C14.7319 22.9796 14.2496 24.9749 14.2493 26.9993ZM26.9993 39.7493C24.0724 39.7537 21.2339 38.7468 18.964 36.899C19.8777 35.5911 21.0937 34.5231 22.5088 33.7862C23.9238 33.0492 25.496 32.6649 27.0914 32.666C28.667 32.6648 30.2201 33.0394 31.6218 33.7589C33.0235 34.4783 34.2334 35.5218 35.1508 36.8027C32.8634 38.7105 29.978 39.7535 26.9993 39.7493Z" fill="white"/>
</svg>
