<svg width="27" height="30" viewBox="0 0 27 30" fill="none" xmlns="http://www.w3.org/2000/svg">
<path d="M16.5154 1H10.4846C5.24642 1 1 5.24642 1 10.4846V19.8217C1 25.0599 5.24642 29.3063 10.4846 29.3063H16.5154C21.7536 29.3063 26 25.0599 26 19.8217V10.4846C26 5.24642 21.7536 1 16.5154 1Z" fill="#E2E2E2" stroke="black" stroke-width="0.427987" stroke-miterlimit="10"/>
<path d="M5.16602 5.4663C5.16602 5.4663 12.5252 10.2782 21.8327 4.89697" stroke="#0C0C0C" stroke-width="0.427987" stroke-miterlimit="10" stroke-linecap="round"/>
<path d="M8.12286 14.9045C8.414 14.9045 8.65002 14.3229 8.65002 13.6056C8.65002 12.8882 8.414 12.3066 8.12286 12.3066C7.83172 12.3066 7.5957 12.8882 7.5957 13.6056C7.5957 14.3229 7.83172 14.9045 8.12286 14.9045Z" fill="black"/>
<path d="M6.97266 12.4033H9.41446" stroke="black" stroke-width="0.213994" stroke-miterlimit="10" stroke-linecap="round"/>
<path d="M6.97266 19.1011H18.4943" stroke="black" stroke-width="0.427987" stroke-miterlimit="10" stroke-linecap="round"/>
<path d="M16.9549 14.9045C17.246 14.9045 17.4821 14.3229 17.4821 13.6056C17.4821 12.8882 17.246 12.3066 16.9549 12.3066C16.6638 12.3066 16.4277 12.8882 16.4277 13.6056C16.4277 14.3229 16.6638 14.9045 16.9549 14.9045Z" fill="black"/>
<path d="M15.7988 12.4033H18.2448" stroke="black" stroke-width="0.213994" stroke-miterlimit="10" stroke-linecap="round"/>
</svg>
