<svg width="27" height="30" viewBox="0 0 27 30" fill="none" xmlns="http://www.w3.org/2000/svg">
<path d="M16.5154 1H10.4846C5.24642 1 1 5.24642 1 10.4846V19.8217C1 25.0599 5.24642 29.3063 10.4846 29.3063H16.5154C21.7536 29.3063 26 25.0599 26 19.8217V10.4846C26 5.24642 21.7536 1 16.5154 1Z" fill="#FFABAB" stroke="black" stroke-width="0.421727" stroke-miterlimit="10"/>
<path d="M4.95898 6.76526C4.95898 6.76526 12.3072 11.57 21.6009 6.19678" stroke="#0C0C0C" stroke-width="0.421101" stroke-miterlimit="10" stroke-linecap="round"/>
<path d="M11.143 13.8918C11.143 13.8918 10.326 13.5002 9.57227 11.2642" stroke="black" stroke-width="0.421101" stroke-miterlimit="10" stroke-linecap="round"/>
<path d="M13.5859 13.816C13.5859 13.816 13.826 12.4895 16.5715 10.5903" stroke="black" stroke-width="0.421101" stroke-miterlimit="10" stroke-linecap="round"/>
<path d="M15.1013 15.4244C15.4269 15.4244 15.6908 15.1265 15.6908 14.7591C15.6908 14.3916 15.4269 14.0938 15.1013 14.0938C14.7757 14.0938 14.5117 14.3916 14.5117 14.7591C14.5117 15.1265 14.7757 15.4244 15.1013 15.4244Z" fill="black"/>
<path d="M10.1657 15.673C10.4913 15.673 10.7553 15.3751 10.7553 15.0076C10.7553 14.6402 10.4913 14.3423 10.1657 14.3423C9.84012 14.3423 9.57617 14.6402 9.57617 15.0076C9.57617 15.3751 9.84012 15.673 10.1657 15.673Z" fill="black"/>
<path d="M9.12695 21.6907C9.12695 21.6907 13.3548 18.6798 18.7323 18.1787" stroke="black" stroke-width="0.421101" stroke-miterlimit="10" stroke-linecap="round"/>
</svg>
