<svg width="20" height="18" viewBox="0 0 20 18" fill="none" xmlns="http://www.w3.org/2000/svg">
<path d="M2.22087 7C3.44743 7 4.44175 5.433 4.44175 3.5C4.44175 1.567 3.44743 0 2.22087 0C0.994319 0 0 1.567 0 3.5C0 5.433 0.994319 7 2.22087 7Z" fill="black"/>
<path d="M17.0265 7C18.2531 7 19.2474 5.433 19.2474 3.5C19.2474 1.567 18.2531 0 17.0265 0C15.8 0 14.8057 1.567 14.8057 3.5C14.8057 5.433 15.8 7 17.0265 7Z" fill="black"/>
<path d="M3 16.9998C3 16.9998 9.5 1 16 16.9996" stroke="black" stroke-width="0.261858" stroke-miterlimit="10" stroke-linecap="round"/>
</svg>
