<svg width="21" height="21" viewBox="0 0 21 21" fill="none" xmlns="http://www.w3.org/2000/svg">
<path d="M3.20915 7C4.43571 7 5.43003 5.433 5.43003 3.5C5.43003 1.567 4.43571 0 3.20915 0C1.9826 0 0.988281 1.567 0.988281 3.5C0.988281 5.433 1.9826 7 3.20915 7Z" fill="black"/>
<path d="M18.0148 7C19.2414 7 20.2357 5.433 20.2357 3.5C20.2357 1.567 19.2414 0 18.0148 0C16.7883 0 15.7939 1.567 15.7939 3.5C15.7939 5.433 16.7883 7 18.0148 7Z" fill="black"/>
<path d="M4 12C4 12 9.90909 30 17 12" stroke="black" stroke-width="0.261858" stroke-miterlimit="10" stroke-linecap="round"/>
</svg>
