<svg width="427" height="425" viewBox="0 0 427 425" fill="none" xmlns="http://www.w3.org/2000/svg">
<g filter="url(#filter0_d_533_1156)">
<g clip-path="url(#clip0_533_1156)">
<rect x="17.9395" y="17.0781" width="381.93" height="379.902" rx="16.3528" fill="white"/>
<g filter="url(#filter1_d_533_1156)">
<g clip-path="url(#clip1_533_1156)">
<rect x="43.627" y="177.286" width="342.047" height="184.543" rx="13.5196" fill="white"/>
<path d="M61.5636 244.591V252.398H60.6368V244.591H61.5636ZM61.8963 254.133V254.917H54.743V251.673H55.6699V254.133H61.8963ZM56.6799 247.051C56.6799 248.453 57.8087 249.689 59.3891 250.176L58.9257 250.925C57.684 250.527 56.7036 249.683 56.2283 248.584C55.7649 249.766 54.7906 250.681 53.531 251.115L53.0557 250.378C54.6361 249.867 55.753 248.536 55.753 247.051V246.766H53.3171V246.017H55.753V244.639H56.6918V246.017H59.1039V246.766H56.6799V247.051ZM71.7112 245.269V246.196C71.7112 247.2 71.7112 248.287 71.4142 249.808H72.9827V250.58H68.6218V255.167H67.6831V250.58H63.3578V249.808H70.4636C70.7844 248.287 70.7844 247.176 70.7844 246.196V246.041H64.5699V245.269H71.7112ZM82.049 244.58V248.881H83.7601V249.665H82.049V255.143H81.1222V244.58H82.049ZM79.316 245.72C79.316 248.715 77.9139 251.436 74.468 253.135L73.9452 252.398C76.6781 251.038 78.1634 249.006 78.3773 246.505H74.4323V245.72H79.316ZM95.6188 244.58V248.94H97.3893V249.713H95.6188V255.143H94.692V244.58H95.6188ZM93.6701 246.279V247.051H87.3843V246.279H90.1054V244.71H91.0322V246.279H93.6701ZM90.5807 247.93C92.0779 247.93 93.1592 248.929 93.171 250.354C93.1592 251.78 92.0779 252.779 90.5807 252.779C89.0716 252.779 87.9784 251.78 87.9903 250.354C87.9784 248.929 89.0716 247.93 90.5807 247.93ZM90.5807 248.715C89.5944 248.715 88.8696 249.404 88.8815 250.354C88.8696 251.317 89.5944 251.994 90.5807 251.982C91.555 251.994 92.268 251.317 92.2799 250.354C92.268 249.404 91.555 248.715 90.5807 248.715ZM101.144 245.269C102.772 245.281 103.948 246.279 103.96 247.752C103.948 249.077 102.998 250.022 101.62 250.188V251.994C102.606 251.947 103.598 251.875 104.519 251.757L104.578 252.458C102.344 252.838 99.8371 252.862 97.9835 252.85L97.829 252.066C98.6786 252.06 99.6648 252.054 100.681 252.018V250.188C99.2786 250.028 98.3162 249.083 98.328 247.752C98.3162 246.279 99.4925 245.281 101.144 245.269ZM101.144 246.077C100.039 246.077 99.2311 246.766 99.243 247.752C99.2311 248.738 100.039 249.428 101.144 249.428C102.237 249.428 103.034 248.738 103.045 247.752C103.034 246.766 102.237 246.077 101.144 246.077ZM106.123 244.58V248.94H107.846V249.748H106.123V255.143H105.196V244.58H106.123ZM117.186 244.58V255.167H116.247V244.58H117.186ZM111.565 245.399C113.134 245.411 114.262 246.837 114.262 249.083C114.262 251.329 113.134 252.755 111.565 252.755C109.985 252.755 108.868 251.329 108.868 249.083C108.868 246.837 109.985 245.411 111.565 245.399ZM111.565 246.231C110.508 246.243 109.771 247.36 109.771 249.083C109.771 250.806 110.508 251.923 111.565 251.923C112.623 251.923 113.359 250.806 113.359 249.083C113.359 247.36 112.623 246.243 111.565 246.231ZM127.25 244.58V247.8H128.842V248.584H127.25V252.375H126.323V244.58H127.25ZM127.737 254.133V254.917H120.643V251.567H121.558V254.133H127.737ZM121.962 245.328C123.543 245.328 124.731 246.398 124.743 247.93C124.731 249.463 123.543 250.533 121.962 250.533C120.382 250.533 119.182 249.463 119.194 247.93C119.182 246.398 120.382 245.328 121.962 245.328ZM121.962 246.148C120.917 246.148 120.097 246.885 120.109 247.93C120.097 248.976 120.917 249.713 121.962 249.713C123.032 249.713 123.828 248.976 123.828 247.93C123.828 246.885 123.032 246.148 121.962 246.148ZM141.295 244.58V255.143H140.356V244.58H141.295ZM138.859 245.732V246.505H137.659V251.59C138.253 251.549 138.841 251.495 139.406 251.424L139.465 252.125C137.16 252.481 134.617 252.517 132.657 252.529L132.55 251.733L134.011 251.721V246.505H132.823V245.732H138.859ZM134.926 251.709C135.52 251.697 136.132 251.673 136.744 251.638V246.505H134.926V251.709ZM146.654 247.824C146.642 249.523 147.866 251.388 149.399 252.113L148.864 252.85C147.676 252.274 146.672 251.014 146.203 249.582C145.715 251.139 144.652 252.505 143.47 253.111L142.899 252.375C144.42 251.638 145.727 249.63 145.739 247.824V246.445H143.28V245.673H149.031V246.445H146.654V247.824ZM151.253 244.58V248.857H153.023V249.653H151.253V255.143H150.326V244.58H151.253ZM163.254 249.487V250.224H153.582V249.487H163.254ZM162.042 251.067V253.313H155.697V254.323H162.387V255.001H154.758V252.672H161.115V251.769H154.746V251.067H162.042ZM162.006 244.9V247.087H155.768V248.014H162.196V248.691H154.841V246.445H161.068V245.578H154.806V244.9H162.006ZM175.921 251.412V255.167H174.982V252.161H168.815V251.412H175.921ZM175.921 244.58V250.806H174.982V248.014H172.511V250.093H167.662V245.376H172.511V247.241H174.982V244.58H175.921ZM168.589 246.136V249.344H171.596V246.136H168.589ZM181.256 247.824C181.244 249.523 182.468 251.388 184.001 252.113L183.466 252.85C182.278 252.274 181.274 251.014 180.804 249.582C180.317 251.139 179.254 252.505 178.072 253.111L177.501 252.375C179.022 251.638 180.329 249.63 180.341 247.824V246.445H177.881V245.673H183.633V246.445H181.256V247.824ZM185.855 244.58V248.857H187.625V249.653H185.855V255.143H184.928V244.58H185.855ZM196.668 245.649V246.707C196.656 248.002 196.656 249.451 196.276 251.578L195.325 251.471C195.729 249.451 195.729 247.966 195.729 246.707V246.421H189.217V245.649H196.668ZM197.82 252.874V253.646H188.195V252.874H191.974V249.095H192.889V252.874H197.82ZM207.041 246.41V247.17H201.741V246.41H203.94V244.9H204.867V246.41H207.041ZM204.391 247.883C205.722 247.883 206.673 248.881 206.685 250.283C206.673 251.697 205.722 252.707 204.391 252.707C203.072 252.707 202.122 251.697 202.122 250.283C202.122 248.881 203.072 247.883 204.391 247.883ZM204.391 248.667C203.559 248.679 202.953 249.356 202.953 250.283C202.953 251.222 203.559 251.899 204.391 251.887C205.235 251.899 205.853 251.222 205.853 250.283C205.853 249.356 205.235 248.679 204.391 248.667ZM210.76 244.58V255.143H209.869V249.808H208.467V254.62H207.588V244.841H208.467V249.036H209.869V244.58H210.76ZM216 247.42C216 249.333 217.224 251.258 218.757 251.959L218.199 252.719C216.999 252.101 216.006 250.836 215.537 249.333C215.068 250.913 214.075 252.268 212.875 252.909L212.269 252.161C213.814 251.4 215.05 249.368 215.05 247.42V245.495H216V247.42ZM221.039 244.58V255.167H220.112V248.952H217.605V248.192H220.112V244.58H221.039ZM234.608 251.186V255.001H227.764V251.186H234.608ZM228.679 251.935V254.24H233.694V251.935H228.679ZM227.42 245.221V249.178C229.071 249.184 230.467 249.077 232.006 248.762L232.125 249.558C230.485 249.891 229.047 249.986 227.289 249.986H226.481V245.221H227.42ZM234.608 244.58V250.675H233.67V247.348H230.628V246.588H233.67V244.58H234.608ZM244.685 247.728V248.976H249.081V249.748H239.409V248.976H243.77V247.728H244.685ZM248.19 244.912V245.649H244.851C244.928 246.73 246.699 247.521 248.535 247.669L248.226 248.37C246.467 248.204 244.81 247.521 244.245 246.41C243.669 247.521 242.011 248.204 240.241 248.37L239.932 247.669C241.756 247.521 243.526 246.73 243.627 245.649H240.3V244.912H248.19ZM248.166 251.151V251.887H240.324V251.151H243.77V250.152H244.697V251.151H248.166ZM244.233 252.41C246.265 252.41 247.43 252.885 247.43 253.8C247.43 254.727 246.265 255.203 244.233 255.203C242.178 255.203 241.049 254.727 241.049 253.8C241.049 252.885 242.178 252.41 244.233 252.41ZM244.233 253.064C242.807 253.076 241.987 253.313 241.987 253.8C241.987 254.288 242.807 254.561 244.233 254.549C245.671 254.561 246.467 254.288 246.479 253.8C246.467 253.313 245.671 253.076 244.233 253.064ZM252.908 245.209C254.512 245.209 255.676 246.219 255.688 247.693C255.676 249.166 254.512 250.176 252.908 250.176C251.303 250.176 250.127 249.166 250.139 247.693C250.127 246.219 251.303 245.209 252.908 245.209ZM252.908 246.006C251.838 245.994 251.042 246.707 251.054 247.693C251.042 248.691 251.838 249.38 252.908 249.392C253.989 249.38 254.773 248.691 254.773 247.693C254.773 246.707 253.989 245.994 252.908 246.006ZM258.195 244.58V247.134H259.787V247.907H258.195V250.604H257.268V244.58H258.195ZM253.407 251.662C253.395 252.606 253.9 253.598 254.916 254.181C255.926 253.545 256.437 252.476 256.449 251.662V251.067H257.363V251.662C257.363 252.755 258.148 253.848 259.514 254.311L259.039 255.024C257.987 254.638 257.257 253.895 256.9 253.004C256.561 253.866 255.92 254.698 254.928 255.107C253.906 254.709 253.264 253.931 252.955 253.04C252.563 253.901 251.838 254.638 250.84 255.024L250.365 254.311C251.696 253.824 252.515 252.683 252.515 251.662V251.067H253.407V251.662ZM268.628 244.58V248.762H270.399V249.546H268.628V255.167H267.701V244.58H268.628ZM265.848 245.613V246.386H261.843V251.733C263.756 251.733 265.111 251.644 266.679 251.353L266.798 252.161C265.146 252.458 263.756 252.517 261.748 252.517H260.916V245.613H265.848ZM272.086 254.252C271.67 254.252 271.314 253.907 271.325 253.48C271.314 253.064 271.67 252.719 272.086 252.719C272.502 252.719 272.846 253.064 272.846 253.48C272.846 253.907 272.502 254.252 272.086 254.252ZM62.5142 268.004V268.789H52.8418V268.004H55.2421V265.152C54.339 264.683 53.7924 263.923 53.7924 262.966C53.7924 261.326 55.3966 260.257 57.6542 260.245C59.9119 260.257 61.5161 261.326 61.5161 262.966C61.5161 263.905 60.9873 264.659 60.1139 265.129V268.004H62.5142ZM57.6542 261.017C55.9194 261.006 54.6955 261.79 54.6955 262.966C54.6955 264.142 55.9194 264.939 57.6542 264.939C59.3772 264.939 60.613 264.142 60.613 262.966C60.613 261.79 59.3772 261.006 57.6542 261.017ZM56.1571 268.004H59.1752V265.485C58.7177 265.61 58.2068 265.675 57.6542 265.675C57.1136 265.675 56.6086 265.616 56.1571 265.497V268.004ZM72.1271 260.055V260.815H68.7763C68.8 262.021 70.5646 262.954 72.448 263.156L72.1034 263.893C70.3745 263.685 68.7584 262.907 68.1703 261.73C67.594 262.919 65.9779 263.685 64.2372 263.893L63.9044 263.156C65.7522 262.954 67.5286 262.033 67.5643 260.815H64.2372V260.055H72.1271ZM71.8063 266.436V270.001H64.5342V266.436H71.8063ZM65.461 267.184V269.24H70.8914V267.184H65.461ZM72.9827 264.546V265.295H63.3578V264.546H72.9827ZM85.1028 259.58V263.94H86.8733V264.713H85.1028V270.143H84.176V259.58H85.1028ZM83.1541 261.279V262.051H76.8683V261.279H79.5893V259.71H80.5162V261.279H83.1541ZM80.0646 262.93C81.5618 262.93 82.6431 263.929 82.655 265.354C82.6431 266.78 81.5618 267.779 80.0646 267.779C78.5556 267.779 77.4624 266.78 77.4743 265.354C77.4624 263.929 78.5556 262.93 80.0646 262.93ZM80.0646 263.715C79.0784 263.715 78.3536 264.404 78.3654 265.354C78.3536 266.317 79.0784 266.994 80.0646 266.982C81.039 266.994 81.752 266.317 81.7638 265.354C81.752 264.404 81.039 263.715 80.0646 263.715ZM90.6282 260.269C92.2561 260.281 93.4325 261.279 93.4443 262.752C93.4325 264.077 92.4819 265.022 91.1035 265.188V266.994C92.0897 266.947 93.0819 266.875 94.0028 266.757L94.0622 267.458C91.8283 267.838 89.3211 267.862 87.4674 267.85L87.313 267.066C88.1626 267.06 89.1488 267.054 90.1648 267.018V265.188C88.7626 265.028 87.8002 264.083 87.812 262.752C87.8002 261.279 88.9765 260.281 90.6282 260.269ZM90.6282 261.077C89.5231 261.077 88.7151 261.766 88.727 262.752C88.7151 263.738 89.5231 264.428 90.6282 264.428C91.7214 264.428 92.5175 263.738 92.5294 262.752C92.5175 261.766 91.7214 261.077 90.6282 261.077ZM95.607 259.58V263.94H97.3299V264.748H95.607V270.143H94.6801V259.58H95.607ZM106.67 259.58V270.167H105.731V259.58H106.67ZM101.049 260.399C102.618 260.411 103.746 261.837 103.746 264.083C103.746 266.329 102.618 267.755 101.049 267.755C99.4688 267.755 98.3518 266.329 98.3518 264.083C98.3518 261.837 99.4688 260.411 101.049 260.399ZM101.049 261.231C99.9916 261.243 99.2549 262.36 99.2549 264.083C99.2549 265.806 99.9916 266.923 101.049 266.923C102.107 266.923 102.843 265.806 102.843 264.083C102.843 262.36 102.107 261.243 101.049 261.231ZM116.734 259.58V262.8H118.326V263.584H116.734V267.375H115.807V259.58H116.734ZM117.221 269.133V269.917H110.127V266.567H111.042V269.133H117.221ZM111.446 260.328C113.027 260.328 114.215 261.398 114.227 262.93C114.215 264.463 113.027 265.533 111.446 265.533C109.866 265.533 108.666 264.463 108.678 262.93C108.666 261.398 109.866 260.328 111.446 260.328ZM111.446 261.148C110.401 261.148 109.581 261.885 109.593 262.93C109.581 263.976 110.401 264.713 111.446 264.713C112.516 264.713 113.312 263.976 113.312 262.93C113.312 261.885 112.516 261.148 111.446 261.148ZM130.779 259.58V270.143H129.84V259.58H130.779ZM128.343 260.732V261.505H127.143V266.59C127.737 266.549 128.325 266.495 128.89 266.424L128.949 267.125C126.644 267.481 124.101 267.517 122.141 267.529L122.034 266.733L123.495 266.721V261.505H122.307V260.732H128.343ZM124.41 266.709C125.004 266.697 125.616 266.673 126.228 266.638V261.505H124.41V266.709ZM136.138 262.824C136.126 264.523 137.35 266.388 138.883 267.113L138.348 267.85C137.16 267.274 136.156 266.014 135.687 264.582C135.199 266.139 134.136 267.505 132.954 268.111L132.383 267.375C133.904 266.638 135.211 264.63 135.223 262.824V261.445H132.764V260.673H138.515V261.445H136.138V262.824ZM140.737 259.58V263.857H142.507V264.653H140.737V270.143H139.81V259.58H140.737ZM151.395 262.728V263.976H155.792V264.748H146.119V263.976H150.48V262.728H151.395ZM154.901 259.912V260.649H151.562C151.639 261.73 153.409 262.521 155.245 262.669L154.936 263.37C153.178 263.204 151.52 262.521 150.956 261.41C150.379 262.521 148.722 263.204 146.951 263.37L146.642 262.669C148.466 262.521 150.237 261.73 150.338 260.649H147.011V259.912H154.901ZM154.877 266.151V266.887H147.034V266.151H150.48V265.152H151.407V266.151H154.877ZM150.944 267.41C152.976 267.41 154.14 267.885 154.14 268.8C154.14 269.727 152.976 270.203 150.944 270.203C148.888 270.203 147.759 269.727 147.759 268.8C147.759 267.885 148.888 267.41 150.944 267.41ZM150.944 268.064C149.518 268.076 148.698 268.313 148.698 268.8C148.698 269.288 149.518 269.561 150.944 269.549C152.382 269.561 153.178 269.288 153.19 268.8C153.178 268.313 152.382 268.076 150.944 268.064ZM159.475 260.399C161.032 260.411 162.137 261.837 162.149 264.083C162.137 266.329 161.032 267.755 159.475 267.755C157.907 267.755 156.814 266.329 156.814 264.083C156.814 261.837 157.907 260.411 159.475 260.399ZM159.475 261.231C158.43 261.243 157.693 262.36 157.693 264.083C157.693 265.806 158.43 266.923 159.475 266.923C160.533 266.923 161.246 265.806 161.246 264.083C161.246 262.36 160.533 261.243 159.475 261.231ZM164.823 259.58V263.798H166.593V264.606H164.823V270.143H163.896V259.58H164.823ZM175.339 259.58V263.94H177.109V264.713H175.339V270.143H174.412V259.58H175.339ZM173.39 261.279V262.051H167.104V261.279H169.825V259.71H170.752V261.279H173.39ZM170.3 262.93C171.798 262.93 172.879 263.929 172.891 265.354C172.879 266.78 171.798 267.779 170.3 267.779C168.791 267.779 167.698 266.78 167.71 265.354C167.698 263.929 168.791 262.93 170.3 262.93ZM170.3 263.715C169.314 263.715 168.589 264.404 168.601 265.354C168.589 266.317 169.314 266.994 170.3 266.982C171.275 266.994 171.988 266.317 172 265.354C171.988 264.404 171.275 263.715 170.3 263.715ZM186.223 262.788V263.536H178.986V259.972H179.913V262.788H186.223ZM187.34 264.974V265.735H177.668V264.974H187.34ZM186.282 269.109V269.882H178.927V266.816H179.854V269.109H186.282ZM194.79 262.42C194.79 264.285 196.026 266.198 197.523 266.935L196.953 267.683C195.788 267.072 194.814 265.824 194.351 264.356C193.875 265.919 192.877 267.25 191.689 267.885L191.095 267.137C192.639 266.376 193.863 264.344 193.875 262.42V260.495H194.79V262.42ZM199.424 259.58V263.869H201.195V264.677H199.424V270.143H198.498V259.58H199.424ZM210.024 259.591V262.301H211.628V263.097H210.024V265.889H209.097V259.591H210.024ZM210.024 266.412V270.001H203.334V266.412H210.024ZM204.249 267.137V269.24H209.121V267.137H204.249ZM207.005 260.162V263.049H203.155V264.546C205.033 264.546 206.393 264.493 208.039 264.226L208.134 264.974C206.435 265.271 205.021 265.331 203.06 265.331H202.241V262.324H206.09V260.934H202.217V260.162H207.005ZM218.935 261.79C218.935 263.049 220.005 264.214 221.561 264.677L221.122 265.39C219.904 265.028 218.953 264.243 218.496 263.228C218.032 264.344 217.052 265.194 215.798 265.604L215.335 264.867C216.904 264.392 218.02 263.18 218.02 261.79V261.588H215.632V260.815H218.02V259.532H218.959V260.815H221.324V261.588H218.935V261.79ZM223.593 259.58V262.194H225.186V262.978H223.593V265.723H222.667V259.58H223.593ZM223.784 266.293V267.054H220.789C220.944 268.159 222.494 269.109 224.188 269.383L223.843 270.107C222.292 269.852 220.89 269.086 220.29 268.028C219.684 269.08 218.294 269.828 216.761 270.096L216.404 269.383C218.11 269.109 219.642 268.177 219.803 267.054H216.82V266.293H223.784ZM234.585 259.58V270.143H233.646V259.58H234.585ZM231.46 260.732C231.448 263.774 230.034 266.46 226.493 268.159L225.982 267.398C228.84 266.044 230.295 264.018 230.509 261.493H226.469V260.732H231.46ZM242.261 260.399C243.699 260.411 244.732 261.641 244.887 263.62H247.251V259.58H248.178V270.167H247.251V264.392H244.899C244.786 266.46 243.734 267.755 242.261 267.755C240.704 267.755 239.611 266.329 239.611 264.083C239.611 261.837 240.704 260.411 242.261 260.399ZM242.261 261.231C241.215 261.243 240.502 262.36 240.502 264.083C240.502 265.806 241.215 266.923 242.261 266.923C243.295 266.923 244.019 265.806 244.019 264.083C244.019 262.36 243.295 261.243 242.261 261.231ZM258.682 259.58V270.167H257.756V265.663H255.557V264.879H257.756V262.776H255.64V261.992H257.756V259.58H258.682ZM254.951 260.542V264.297H251.268V266.899C252.854 266.893 254.167 266.834 255.771 266.59L255.854 267.375C254.167 267.636 252.812 267.695 251.125 267.695H250.341V263.536H254.036V261.314H250.305V260.542H254.951ZM270.113 264.95V265.723H265.824V267.885H264.885V265.723H260.441V264.95H270.113ZM269.032 269.121V269.917H261.689V266.828H262.627V269.121H269.032ZM265.265 259.853C267.523 259.865 268.985 260.673 268.985 261.98C268.985 263.287 267.523 264.083 265.265 264.083C263.008 264.083 261.534 263.287 261.534 261.98C261.534 260.673 263.008 259.865 265.265 259.853ZM265.265 260.613C263.626 260.613 262.52 261.136 262.532 261.98C262.52 262.8 263.626 263.323 265.265 263.323C266.905 263.323 267.998 262.8 267.998 261.98C267.998 261.136 266.905 260.613 265.265 260.613ZM280.012 259.58V270.143H279.108V259.58H280.012ZM277.849 259.841V269.597H276.958V264.404H274.652V263.62H276.958V259.841H277.849ZM275.365 260.887V261.659H272.288V266.816C273.809 266.81 274.771 266.745 275.912 266.495L276.007 267.291C274.783 267.541 273.749 267.588 272.05 267.6H271.385V260.887H275.365ZM283.22 268.385L282.293 271.617H281.414L282.067 268.385H283.22ZM59.9238 274.782V277.289H61.1239V274.58H62.0151V280.842H61.1239V278.073H59.9238V280.699H59.0564V274.782H59.9238ZM54.9213 276.54C54.9213 277.182 55.0163 278.513 55.7649 279.44C56.4838 278.566 56.5967 277.319 56.5967 276.54V276.136H55.9313V275.364H58.4504V276.136H57.4285V276.54C57.4166 277.538 57.7493 279 58.89 279.737L58.3791 280.354C57.678 279.915 57.2681 279.19 57.0482 278.406C56.8522 279.226 56.4779 280.034 55.753 280.521C55.0401 280.028 54.6717 279.196 54.4816 278.37C54.2559 279.16 53.8459 279.909 53.1508 280.354L52.6517 279.737C53.7806 278.976 54.0895 277.479 54.0895 276.54V276.136H53.0082V275.364H55.5986V276.136H54.9213V276.54ZM56.5848 281.662C56.5848 282.464 57.1017 283.509 58.1177 284.109C59.1039 283.497 59.6267 282.458 59.6267 281.662V281.186H60.5417V281.662C60.5417 282.648 61.3735 283.765 62.7043 284.252L62.2409 284.941C61.2131 284.555 60.4645 283.8 60.0902 282.945C59.7634 283.8 59.1158 284.614 58.1058 285.024C57.1077 284.62 56.4601 283.818 56.1452 282.969C55.759 283.818 55.0223 284.561 54.0063 284.941L53.531 284.252C54.8619 283.765 55.6936 282.648 55.6936 281.662V281.186H56.5848V281.662ZM72.9946 279.915V280.675H63.3578V279.915H72.9946ZM71.8895 277.978V278.75H64.5817V275.043H71.7944V275.804H65.5086V277.978H71.8895ZM71.9727 284.121V284.905H64.6055V281.816H65.5323V284.121H71.9727ZM85.6851 274.591V282.375H84.7463V278.299H82.5362C82.3283 279.6 81.2351 280.485 79.8389 280.485C78.2585 280.485 77.094 279.404 77.094 277.871C77.094 276.338 78.2585 275.269 79.8389 275.269C81.2648 275.269 82.3758 276.178 82.5481 277.526H84.7463V274.591H85.6851ZM85.9821 284.133V284.917H78.9002V281.578H79.8389V284.133H85.9821ZM79.8389 276.089C78.7813 276.101 77.9852 276.825 77.9852 277.871C77.9852 278.917 78.7813 279.665 79.8389 279.677C80.8727 279.665 81.6688 278.917 81.6688 277.871C81.6688 276.825 80.8727 276.101 79.8389 276.089ZM96.4744 274.58V285.143H95.5832V274.58H96.4744ZM94.3355 274.841V284.597H93.4562V279.154H91.6738V278.394H93.4562V274.841H94.3355ZM90.545 277.598C90.545 279.428 91.3649 281.246 92.8265 282.089L92.2561 282.779C91.2164 282.155 90.4797 281.014 90.1172 279.665C89.7311 281.121 88.9646 282.363 87.9071 283.028L87.313 282.327C88.7864 281.448 89.6419 279.523 89.6419 277.598V276.6H87.61V275.827H92.4819V276.6H90.545V277.598ZM109.771 281.412V285.167H108.832V282.161H102.665V281.412H109.771ZM109.771 274.58V280.806H108.832V278.014H106.361V280.093H101.513V275.376H106.361V277.241H108.832V274.58H109.771ZM102.439 276.136V279.344H105.446V276.136H102.439ZM114.369 275.399C115.807 275.411 116.841 276.641 116.995 278.62H119.36V274.58H120.287V285.167H119.36V279.392H117.007C116.894 281.46 115.843 282.755 114.369 282.755C112.813 282.755 111.72 281.329 111.72 279.083C111.72 276.837 112.813 275.411 114.369 275.399ZM114.369 276.231C113.324 276.243 112.611 277.36 112.611 279.083C112.611 280.806 113.324 281.923 114.369 281.923C115.403 281.923 116.128 280.806 116.128 279.083C116.128 277.36 115.403 276.243 114.369 276.231ZM130.577 279.535V280.295H127.309V283.028H131.718V283.812H122.046V283.028H126.395V280.295H123.281V275.447H130.47V276.208H124.22V279.535H130.577ZM144.325 274.58V280.057H143.41V274.58H144.325ZM144.337 280.592V283.123H138.408V284.264H144.717V285.024H137.493V282.398H143.41V281.341H137.469V280.592H144.337ZM139.358 275.697C139.346 277.194 140.487 278.513 142.056 279.024L141.592 279.748C140.356 279.327 139.37 278.441 138.895 277.301C138.42 278.531 137.427 279.499 136.174 279.95L135.687 279.214C137.279 278.655 138.408 277.253 138.408 275.697V274.889H139.358V275.697ZM155.186 274.58V285.143H154.283V279.63H152.845V284.597H151.954V274.817H152.845V278.845H154.283V274.58H155.186ZM151.17 275.922V276.695H150.255V281.59C150.653 281.567 151.033 281.531 151.383 281.483L151.431 282.173C149.756 282.481 147.522 282.529 146.131 282.529L146.013 281.733L147.165 281.721V276.695H146.238V275.922H151.17ZM148.033 281.709C148.478 281.697 148.936 281.679 149.387 281.65V276.695H148.033V281.709ZM164.823 274.58V278.94H166.593V279.713H164.823V285.143H163.896V274.58H164.823ZM162.874 276.279V277.051H156.588V276.279H159.309V274.71H160.236V276.279H162.874ZM159.784 277.93C161.282 277.93 162.363 278.929 162.375 280.354C162.363 281.78 161.282 282.779 159.784 282.779C158.275 282.779 157.182 281.78 157.194 280.354C157.182 278.929 158.275 277.93 159.784 277.93ZM159.784 278.715C158.798 278.715 158.073 279.404 158.085 280.354C158.073 281.317 158.798 281.994 159.784 281.982C160.759 281.994 161.472 281.317 161.484 280.354C161.472 279.404 160.759 278.715 159.784 278.715ZM170.942 277.824C170.942 279.618 172.249 281.436 173.806 282.113L173.283 282.85C172.047 282.285 170.978 281.067 170.49 279.606C169.991 281.157 168.928 282.505 167.722 283.111L167.163 282.375C168.672 281.65 169.991 279.653 170.003 277.824V276.445H167.508V275.673H173.461V276.445H170.942V277.824ZM175.873 274.58V285.143H174.935V274.58H175.873ZM183.68 275.186C185.26 275.186 186.425 276.196 186.425 277.622C186.425 279.059 185.26 280.057 183.68 280.069C182.1 280.057 180.923 279.059 180.935 277.622C180.923 276.196 182.1 275.186 183.68 275.186ZM183.68 275.97C182.646 275.97 181.838 276.671 181.85 277.622C181.838 278.596 182.646 279.297 183.68 279.297C184.726 279.297 185.51 278.596 185.51 277.622C185.51 276.671 184.726 275.97 183.68 275.97ZM188.992 274.58V276.968H190.584V277.74H188.992V279.867H188.065V274.58H188.992ZM182.765 281.008V284.086C183.377 284.068 184.191 283.979 184.94 283.729L185.082 284.478C184.048 284.822 183.05 284.858 182.361 284.858H181.862V281.008H182.765ZM190.049 281.056V281.78H184.714V281.056H186.936V280.117H187.851V281.056H190.049ZM187.376 282.137C188.528 282.137 189.348 282.719 189.36 283.634C189.348 284.549 188.528 285.119 187.376 285.119C186.211 285.119 185.403 284.549 185.415 283.634C185.403 282.719 186.211 282.137 187.376 282.137ZM187.376 282.814C186.722 282.814 186.247 283.147 186.247 283.634C186.247 284.133 186.722 284.454 187.376 284.454C188.041 284.454 188.504 284.133 188.504 283.634C188.504 283.147 188.041 282.814 187.376 282.814ZM199.793 277.788V278.536H192.556V274.972H193.483V277.788H199.793ZM200.91 279.974V280.735H191.237V279.974H200.91ZM199.852 284.109V284.882H192.497V281.816H193.424V284.109H199.852ZM214.456 279.689V280.461H204.819V279.689H214.456ZM213.363 277.835V278.596H206.043V274.972H213.256V275.744H206.97V277.835H213.363ZM210.119 281.614C210.119 283.028 211.782 284.074 213.707 284.359L213.351 285.084C211.747 284.816 210.279 284.068 209.643 282.909C209.008 284.068 207.54 284.816 205.936 285.084L205.58 284.359C207.493 284.074 209.168 283.028 209.168 281.614V281.269H210.119V281.614Z" fill="#434343"/>
</g>
<rect x="43.9649" y="177.624" width="341.371" height="183.867" rx="13.1817" stroke="black" stroke-width="0.675982"/>
</g>
<g filter="url(#filter2_d_533_1156)">
<rect x="258.588" y="52.2295" width="112.889" height="46.7127" rx="8.34155" fill="white" shape-rendering="crispEdges"/>
<g clip-path="url(#clip2_533_1156)">
<path d="M287.327 62.4316H281.837C277.067 62.4316 273.201 66.2978 273.201 71.067V79.568C273.201 84.3372 277.067 88.2034 281.837 88.2034H287.327C292.096 88.2034 295.963 84.3372 295.963 79.568V71.067C295.963 66.2978 292.096 62.4316 287.327 62.4316Z" fill="#FFF4BA" stroke="black" stroke-width="0.383965" stroke-miterlimit="10"/>
<path d="M280.527 75.0445C281.085 75.0445 281.537 74.3964 281.537 73.597C281.537 72.7975 281.085 72.1494 280.527 72.1494C279.97 72.1494 279.518 72.7975 279.518 73.597C279.518 74.3964 279.97 75.0445 280.527 75.0445Z" fill="black"/>
<path d="M287.988 75.0445C288.546 75.0445 288.998 74.3964 288.998 73.597C288.998 72.7975 288.546 72.1494 287.988 72.1494C287.431 72.1494 286.979 72.7975 286.979 73.597C286.979 74.3964 287.431 75.0445 287.988 75.0445Z" fill="black"/>
<path d="M281.357 77.0605C281.357 77.0605 283.531 84.2983 287.459 77.4292" stroke="black" stroke-width="0.383965" stroke-miterlimit="10" stroke-linecap="round"/>
<path d="M280.154 67.1885V64.9506H280.425V65.9471H281.618V64.9506H281.889V67.1885H281.618V66.1875H280.425V67.1885H280.154ZM282.891 67.2278C282.784 67.2278 282.688 67.2078 282.601 67.1677C282.514 67.1269 282.445 67.0683 282.394 66.9918C282.343 66.9146 282.318 66.8213 282.318 66.712C282.318 66.6159 282.337 66.5379 282.375 66.4782C282.413 66.4177 282.463 66.3704 282.527 66.3361C282.59 66.3019 282.66 66.2764 282.736 66.2597C282.814 66.2422 282.891 66.2283 282.969 66.2181C283.071 66.205 283.154 66.1952 283.217 66.1886C283.281 66.1813 283.328 66.1693 283.357 66.1526C283.387 66.1358 283.402 66.1067 283.402 66.0651V66.0564C283.402 65.9486 283.372 65.8648 283.313 65.8051C283.255 65.7453 283.167 65.7155 283.048 65.7155C282.925 65.7155 282.828 65.7424 282.758 65.7963C282.688 65.8502 282.639 65.9078 282.611 65.969L282.366 65.8816C282.41 65.7796 282.468 65.7002 282.541 65.6433C282.614 65.5858 282.695 65.5457 282.781 65.5231C282.869 65.4998 282.955 65.4882 283.039 65.4882C283.093 65.4882 283.155 65.4947 283.225 65.5079C283.296 65.5202 283.364 65.5461 283.429 65.5854C283.496 65.6248 283.551 65.6841 283.594 65.7636C283.638 65.843 283.66 65.9493 283.66 66.0826V67.1885H283.402V66.9612H283.389C283.371 66.9976 283.342 67.0366 283.301 67.0781C283.261 67.1196 283.206 67.155 283.139 67.1841C283.071 67.2132 282.988 67.2278 282.891 67.2278ZM282.93 66.9962C283.032 66.9962 283.118 66.9761 283.188 66.9361C283.258 66.896 283.312 66.8443 283.347 66.7809C283.384 66.7175 283.402 66.6509 283.402 66.5809V66.3449C283.391 66.358 283.367 66.37 283.33 66.3809C283.293 66.3911 283.251 66.4003 283.203 66.4083C283.156 66.4155 283.109 66.4221 283.064 66.4279C283.02 66.433 282.984 66.4374 282.956 66.441C282.889 66.4498 282.826 66.464 282.768 66.4837C282.711 66.5026 282.664 66.5314 282.628 66.57C282.593 66.6079 282.576 66.6596 282.576 66.7252C282.576 66.8148 282.609 66.8825 282.675 66.9284C282.742 66.9736 282.827 66.9962 282.93 66.9962ZM284.131 67.8179V65.51H284.38V65.7767H284.41C284.429 65.7475 284.455 65.7104 284.489 65.6652C284.523 65.6193 284.572 65.5785 284.635 65.5428C284.699 65.5064 284.786 65.4882 284.895 65.4882C285.037 65.4882 285.161 65.5235 285.269 65.5942C285.377 65.6648 285.461 65.765 285.522 65.8947C285.582 66.0243 285.612 66.1773 285.612 66.3536C285.612 66.5314 285.582 66.6855 285.522 66.8159C285.461 66.9455 285.377 67.0461 285.27 67.1174C285.163 67.1881 285.04 67.2234 284.9 67.2234C284.792 67.2234 284.706 67.2056 284.641 67.1699C284.576 67.1335 284.526 67.0923 284.491 67.0464C284.456 66.9998 284.429 66.9612 284.41 66.9306H284.388V67.8179H284.131ZM284.384 66.3493C284.384 66.476 284.403 66.5878 284.44 66.6847C284.477 66.7809 284.531 66.8563 284.603 66.9109C284.674 66.9648 284.761 66.9918 284.865 66.9918C284.973 66.9918 285.063 66.9634 285.135 66.9066C285.208 66.849 285.262 66.7718 285.299 66.6749C285.336 66.5773 285.354 66.4687 285.354 66.3493C285.354 66.2312 285.336 66.1249 285.3 66.0302C285.264 65.9347 285.21 65.8593 285.137 65.804C285.065 65.7479 284.974 65.7198 284.865 65.7198C284.76 65.7198 284.672 65.7464 284.6 65.7996C284.529 65.8521 284.475 65.9256 284.439 66.0203C284.402 66.1143 284.384 66.224 284.384 66.3493ZM286.006 67.8179V65.51H286.255V65.7767H286.285C286.304 65.7475 286.331 65.7104 286.364 65.6652C286.398 65.6193 286.447 65.5785 286.511 65.5428C286.575 65.5064 286.661 65.4882 286.771 65.4882C286.912 65.4882 287.036 65.5235 287.144 65.5942C287.252 65.6648 287.336 65.765 287.397 65.8947C287.457 66.0243 287.487 66.1773 287.487 66.3536C287.487 66.5314 287.457 66.6855 287.397 66.8159C287.336 66.9455 287.252 67.0461 287.145 67.1174C287.038 67.1881 286.915 67.2234 286.775 67.2234C286.667 67.2234 286.581 67.2056 286.516 67.1699C286.451 67.1335 286.401 67.0923 286.366 67.0464C286.331 66.9998 286.304 66.9612 286.285 66.9306H286.264V67.8179H286.006ZM286.259 66.3493C286.259 66.476 286.278 66.5878 286.315 66.6847C286.352 66.7809 286.406 66.8563 286.478 66.9109C286.549 66.9648 286.637 66.9918 286.74 66.9918C286.848 66.9918 286.938 66.9634 287.01 66.9066C287.083 66.849 287.137 66.7718 287.174 66.6749C287.211 66.5773 287.23 66.4687 287.23 66.3493C287.23 66.2312 287.211 66.1249 287.175 66.0302C287.139 65.9347 287.085 65.8593 287.012 65.804C286.94 65.7479 286.849 65.7198 286.74 65.7198C286.635 65.7198 286.547 65.7464 286.476 65.7996C286.404 65.8521 286.35 65.9256 286.314 66.0203C286.277 66.1143 286.259 66.224 286.259 66.3493ZM287.987 67.8179C287.943 67.8179 287.904 67.8142 287.87 67.807C287.836 67.8004 287.812 67.7939 287.799 67.7873L287.864 67.56C287.927 67.576 287.982 67.5819 288.031 67.5775C288.079 67.5731 288.121 67.5516 288.158 67.513C288.196 67.4751 288.231 67.4136 288.262 67.3283L288.31 67.1972L287.69 65.51H287.969L288.433 66.8475H288.45L288.913 65.51H289.193L288.481 67.4332C288.449 67.5199 288.409 67.5917 288.362 67.6485C288.314 67.7061 288.259 67.7487 288.197 67.7764C288.135 67.8041 288.065 67.8179 287.987 67.8179Z" fill="black"/>
<path d="M276.807 67.6807C276.807 67.6807 283.497 72.0552 291.958 67.1631" stroke="#0C0C0C" stroke-width="0.383395" stroke-miterlimit="10" stroke-linecap="round"/>
</g>
<path d="M322.116 69.9653V76.1346H320.965V73.4627H320.009V75.8088H318.88V70.1608H320.009V72.4852H320.965V69.9653H322.116ZM318.554 71.0298V71.9747H313.666V71.0298H315.523V70.0522H316.718V71.0298H318.554ZM316.121 72.3766C317.37 72.3766 318.25 73.05 318.26 74.071C318.25 75.0919 317.37 75.7653 316.121 75.7653C314.893 75.7653 314.003 75.0919 314.014 74.071C314.003 73.05 314.893 72.3766 316.121 72.3766ZM316.121 73.2455C315.513 73.2455 315.089 73.5605 315.089 74.071C315.089 74.5814 315.502 74.8964 316.121 74.8964C316.74 74.8964 317.163 74.5814 317.163 74.071C317.163 73.5605 316.74 73.2455 316.121 73.2455ZM318.804 76.2541C320.9 76.2541 322.16 76.8949 322.171 78.0245C322.16 79.1324 320.9 79.7732 318.804 79.7732C316.707 79.7732 315.436 79.1324 315.436 78.0245C315.436 76.8949 316.707 76.2541 318.804 76.2541ZM318.804 77.1773C317.402 77.1665 316.642 77.4488 316.642 78.0245C316.642 78.5676 317.402 78.85 318.804 78.85C320.194 78.85 320.954 78.5676 320.954 78.0245C320.954 77.4488 320.194 77.1665 318.804 77.1773ZM332.283 74.9073V75.8739H323.333V74.9073H327.189V73.9623H324.495V70.2043H325.69V71.1818H329.926V70.2043H331.12V73.9623H328.405V74.9073H332.283ZM331.186 76.656V79.784H329.98V77.6118H324.321V76.656H331.186ZM325.69 72.9957H329.926V72.0833H325.69V72.9957ZM337.735 71.5294V72.496H332.923V71.5294H334.748V70.2477H335.943V71.5294H337.735ZM335.345 73.0174C336.594 73.0174 337.485 73.9623 337.485 75.2983C337.485 76.656 336.594 77.6118 335.345 77.6118C334.107 77.6118 333.195 76.656 333.206 75.2983C333.195 73.9623 334.107 73.0174 335.345 73.0174ZM335.345 74.0166C334.705 74.0166 334.259 74.5271 334.27 75.2983C334.259 76.0912 334.705 76.5908 335.345 76.5799C335.975 76.5908 336.421 76.0912 336.421 75.2983C336.421 74.5271 335.975 74.0166 335.345 74.0166ZM341.384 69.9653V79.784H340.233V74.9833H339.277V79.3387H338.148V70.1717H339.277V74.0058H340.233V69.9653H341.384ZM351.529 77.6009V78.5893H342.557V77.6009H344.632V75.1136C343.85 74.6683 343.377 73.9678 343.383 73.0934C343.372 71.5294 344.914 70.4976 347.021 70.4976C349.139 70.4976 350.682 71.5294 350.682 73.0934C350.682 73.9515 350.226 74.6412 349.465 75.0919V77.6009H351.529ZM347.021 71.4534C345.555 71.4534 344.556 72.0725 344.567 73.0934C344.556 74.1035 345.555 74.7335 347.021 74.7335C348.488 74.7335 349.498 74.1035 349.498 73.0934C349.498 72.0725 348.488 71.4534 347.021 71.4534ZM345.827 77.6009H348.238V75.5481C347.863 75.635 347.456 75.6784 347.021 75.6784C346.598 75.6784 346.196 75.635 345.827 75.559V77.6009Z" fill="#222222"/>
</g>
<g filter="url(#filter3_d_533_1156)">
<g filter="url(#filter4_i_533_1156)">
<path d="M51.2581 98.6768V97.3116L54.976 93.7244C56.0362 92.6642 56.5881 92.0397 56.5881 91.1538C56.5881 90.1808 55.8183 89.5563 54.7872 89.5563C53.698 89.5563 53.0009 90.2389 53.0154 91.299H51.2145C51.2 89.3094 52.6959 88.0168 54.8017 88.0168C56.9511 88.0168 58.4034 89.2949 58.4034 91.0667C58.4034 92.2576 57.8225 93.2161 55.7602 95.1622L53.8868 97.0211V97.0937H58.5632V98.6768H51.2581ZM64.0965 98.822C61.5695 98.822 60.0591 96.8614 60.0591 93.4194C60.0591 89.992 61.5695 88.0168 64.0965 88.0168C66.609 88.0168 68.1339 89.992 68.1339 93.4194C68.1339 96.8614 66.6235 98.822 64.0965 98.822ZM64.0965 97.239C65.4181 97.239 66.2314 95.9464 66.2314 93.4194C66.2314 90.9069 65.4036 89.5853 64.0965 89.5853C62.7894 89.5853 61.9616 90.9069 61.9616 93.4194C61.9616 95.9464 62.7749 97.239 64.0965 97.239ZM69.7169 98.6768V97.3116L73.4348 93.7244C74.495 92.6642 75.0469 92.0397 75.0469 91.1538C75.0469 90.1808 74.2771 89.5563 73.246 89.5563C72.1568 89.5563 71.4597 90.2389 71.4742 91.299H69.6733C69.6588 89.3094 71.1547 88.0168 73.2605 88.0168C75.4099 88.0168 76.8623 89.2949 76.8623 91.0667C76.8623 92.2576 76.2813 93.2161 74.2191 95.1622L72.3456 97.0211V97.0937H77.022V98.6768H69.7169ZM78.2565 96.7161V95.2057L82.8022 88.1621H85.1549V95.1622H86.5346V96.7161H85.1549V98.6768H83.3541V96.7161H78.2565ZM80.188 95.1622H83.3831V90.3115H83.2669L80.188 95.0896V95.1622ZM98.6033 86.855V96.5273H96.9912V92.1559H93.5638V90.8779H96.9912V89.687H93.5638V88.409H96.9912V86.855H98.6033ZM98.9373 98.4008V99.7079H89.9766V95.6705H91.6032V98.4008H98.9373ZM89.962 87.7264V93.4049C91.6322 93.3831 93.208 93.2814 94.9725 92.9692L95.1323 94.2763C93.1136 94.6539 91.3417 94.7265 89.3956 94.741H88.3645V87.7264H89.962ZM108.363 98.822C106.315 98.8075 104.253 97.5875 104.267 93.7099C104.267 90.1082 105.908 88.0168 108.479 88.0168C110.512 88.0168 111.906 89.2949 112.139 90.9941H110.265C110.076 90.1953 109.437 89.6579 108.479 89.6579C106.954 89.6579 106.097 91.0086 106.097 93.2161H106.199C106.736 92.3157 107.753 91.7783 108.9 91.7783C110.788 91.7783 112.24 93.2016 112.24 95.1912C112.24 97.2825 110.686 98.8365 108.363 98.822ZM108.363 97.2971C109.539 97.2971 110.411 96.3821 110.411 95.2348C110.411 94.1165 109.554 93.2161 108.392 93.2161C107.215 93.2161 106.315 94.1456 106.3 95.2493C106.315 96.3531 107.172 97.2971 108.363 97.2971ZM124.411 86.855V94.5086H122.784V93.9713H120.33V92.9837H122.784V86.855H124.411ZM113.388 91.5895C115.929 91.5895 119.095 91.5605 121.913 91.2845L122 92.3011C120.802 92.4682 119.567 92.5698 118.355 92.6206V94.5232H116.757V92.6933C115.632 92.7223 114.55 92.7296 113.562 92.7223L113.388 91.5895ZM124.411 94.9153V97.8635H116.946V98.7058H124.759V99.8531H115.363V96.8033H122.813V96.019H115.305V94.9153H124.411ZM117.628 87.0583C119.575 87.0583 120.911 87.8426 120.911 89.0334C120.911 90.2534 119.575 90.9941 117.628 90.9941C115.639 90.9941 114.317 90.2534 114.317 89.0334C114.317 87.8426 115.639 87.0583 117.628 87.0583ZM117.628 88.133C116.525 88.133 115.842 88.4816 115.857 89.0334C115.842 89.5853 116.525 89.9194 117.628 89.9194C118.703 89.9194 119.4 89.5853 119.4 89.0334C119.4 88.4816 118.703 88.133 117.628 88.133ZM130.22 98.6768V97.3116L133.938 93.7244C134.998 92.6642 135.55 92.0397 135.55 91.1538C135.55 90.1808 134.78 89.5563 133.749 89.5563C132.66 89.5563 131.963 90.2389 131.977 91.299H130.176C130.162 89.3094 131.658 88.0168 133.764 88.0168C135.913 88.0168 137.365 89.2949 137.365 91.0667C137.365 92.2576 136.784 93.2161 134.722 95.1622L132.849 97.0211V97.0937H137.525V98.6768H130.22ZM143.116 98.822C141.069 98.8075 139.006 97.5875 139.021 93.7099C139.021 90.1082 140.662 88.0168 143.233 88.0168C145.266 88.0168 146.66 89.2949 146.892 90.9941H145.019C144.83 90.1953 144.191 89.6579 143.233 89.6579C141.708 89.6579 140.851 91.0086 140.851 93.2161H140.953C141.49 92.3157 142.506 91.7783 143.654 91.7783C145.542 91.7783 146.994 93.2016 146.994 95.1912C146.994 97.2825 145.44 98.8365 143.116 98.822ZM143.116 97.2971C144.293 97.2971 145.164 96.3821 145.164 95.2348C145.164 94.1165 144.307 93.2161 143.145 93.2161C141.969 93.2161 141.069 94.1456 141.054 95.2493C141.069 96.3531 141.926 97.2971 143.116 97.2971ZM151.874 87.2616C153.863 87.2616 155.345 88.4961 155.359 90.2243C155.345 91.9671 153.863 93.187 151.874 93.187C149.87 93.187 148.388 91.9671 148.388 90.2243C148.388 88.4961 149.87 87.2616 151.874 87.2616ZM151.874 88.5978C150.77 88.5978 149.957 89.2222 149.957 90.2243C149.957 91.241 150.77 91.88 151.874 91.88C152.978 91.88 153.791 91.241 153.791 90.2243C153.791 89.2222 152.978 88.5978 151.874 88.5978ZM159.092 86.8405V93.4775H157.465V86.8405H159.092ZM159.092 94.0439V97.4713H151.99V98.5315H159.484V99.8096H150.407V96.2805H157.48V95.3074H150.378V94.0439H159.092ZM171.378 87.9297C171.378 89.5853 173.223 91.2555 176.026 91.6186L175.387 92.9256C173.157 92.5916 171.386 91.4951 170.536 90.0065C169.672 91.4951 167.907 92.5916 165.7 92.9256L165.061 91.6186C167.835 91.2555 169.679 89.5853 169.679 87.9297V87.2616H171.378V87.9297ZM176.505 94.0584V95.3945H171.291V99.9693H169.694V95.3945H164.538V94.0584H176.505ZM189.387 97.0502V98.3718H177.391V97.0502H180.165V93.7244C179.119 93.1289 178.487 92.1922 178.495 91.0231C178.48 88.9318 180.542 87.5521 183.36 87.5521C186.192 87.5521 188.254 88.9318 188.254 91.0231C188.254 92.1704 187.644 93.0926 186.628 93.6953V97.0502H189.387ZM183.36 88.8301C181.399 88.8301 180.063 89.6579 180.078 91.0231C180.063 92.3738 181.399 93.2161 183.36 93.2161C185.32 93.2161 186.671 92.3738 186.671 91.0231C186.671 89.6579 185.32 88.8301 183.36 88.8301ZM181.762 97.0502H184.986V94.3053C184.485 94.4215 183.941 94.4796 183.36 94.4796C182.793 94.4796 182.256 94.4215 181.762 94.3198V97.0502ZM193.962 87.2616C195.951 87.2616 197.433 88.4961 197.447 90.2243C197.433 91.9671 195.951 93.187 193.962 93.187C191.957 93.187 190.476 91.9671 190.476 90.2243C190.476 88.4961 191.957 87.2616 193.962 87.2616ZM193.962 88.5978C192.858 88.5978 192.045 89.2222 192.045 90.2243C192.045 91.241 192.858 91.88 193.962 91.88C195.065 91.88 195.879 91.241 195.879 90.2243C195.879 89.2222 195.065 88.5978 193.962 88.5978ZM201.18 86.8405V93.4775H199.553V86.8405H201.18ZM201.18 94.0439V97.4713H194.078V98.5315H201.572V99.8096H192.495V96.2805H199.568V95.3074H192.466V94.0439H201.18Z" fill="#484848"/>
</g>
</g>
<g filter="url(#filter5_i_533_1156)">
<path d="M56.7914 122.834C57.716 122.839 58.5414 122.987 59.2676 123.277C59.9986 123.563 60.5698 123.967 60.9813 124.49C61.3928 125.008 61.5985 125.608 61.5985 126.291C61.5985 126.93 61.4242 127.498 61.0757 127.997C60.732 128.491 60.2479 128.888 59.6234 129.188C59.0037 129.483 58.2873 129.665 57.474 129.733V132.289H62.7749V133.436H50.866V132.289H56.1088V129.733C55.3004 129.665 54.5863 129.483 53.9667 129.188C53.347 128.888 52.8629 128.491 52.5143 127.997C52.1706 127.498 51.9988 126.93 51.9988 126.291C51.9988 125.608 52.2045 125.008 52.616 124.49C53.0275 123.967 53.5963 123.563 54.3225 123.277C55.0486 122.987 55.8716 122.839 56.7914 122.834ZM56.7914 123.967C56.1282 123.962 55.5327 124.057 55.0051 124.25C54.4822 124.439 54.0732 124.712 53.7779 125.071C53.4826 125.424 53.3349 125.831 53.3349 126.291C53.3349 126.77 53.4826 127.189 53.7779 127.547C54.0732 127.905 54.4822 128.181 55.0051 128.375C55.5279 128.568 56.1233 128.668 56.7914 128.672C57.4643 128.668 58.0622 128.568 58.585 128.375C59.1127 128.181 59.5241 127.905 59.8194 127.547C60.1147 127.189 60.2624 126.77 60.2624 126.291C60.2624 125.831 60.1147 125.424 59.8194 125.071C59.5241 124.712 59.1127 124.439 58.585 124.25C58.0573 124.057 57.4594 123.962 56.7914 123.967ZM74.2191 126.131H65.2874V122.239H66.638V125.013H74.2191V126.131ZM75.6133 128.382H63.7044V127.278H75.6133V128.382ZM74.1174 132.608H66.5654V133.814H74.5676V134.903H65.1857V131.592H72.7522V130.502H65.1567V129.428H74.1174V132.608ZM88.4371 129.95H76.5718V128.847H88.4371V129.95ZM87.101 134.787H78.0677V131.011H79.4619V133.668H87.101V134.787ZM82.4972 122.486C83.4315 122.481 84.2472 122.582 84.9443 122.791C85.6463 122.999 86.1885 123.299 86.5709 123.691C86.9534 124.083 87.1446 124.548 87.1446 125.085C87.1446 125.627 86.9534 126.097 86.5709 126.494C86.1933 126.886 85.6535 127.189 84.9516 127.402C84.2496 127.615 83.4315 127.724 82.4972 127.728C81.558 127.724 80.7375 127.615 80.0355 127.402C79.3384 127.189 78.7987 126.886 78.4162 126.494C78.0386 126.097 77.8498 125.627 77.8498 125.085C77.8498 124.548 78.0386 124.083 78.4162 123.691C78.7987 123.299 79.3384 122.999 80.0355 122.791C80.7375 122.582 81.558 122.481 82.4972 122.486ZM82.4972 123.589C81.8388 123.589 81.2652 123.65 80.7762 123.771C80.2921 123.892 79.9194 124.066 79.6579 124.294C79.3965 124.516 79.2682 124.78 79.2731 125.085C79.2682 125.4 79.3941 125.671 79.6507 125.899C79.9121 126.126 80.2849 126.3 80.769 126.421C81.2579 126.538 81.834 126.596 82.4972 126.596C83.1604 126.596 83.7341 126.538 84.2182 126.421C84.7023 126.3 85.0726 126.126 85.3292 125.899C85.5906 125.671 85.7213 125.4 85.7213 125.085C85.7213 124.78 85.5906 124.516 85.3292 124.294C85.0678 124.066 84.695 123.892 84.2109 123.771C83.7268 123.65 83.1556 123.589 82.4972 123.589ZM96.5846 123.023C97.1703 123.023 97.698 123.183 98.1676 123.502C98.6372 123.817 99.0172 124.27 99.3076 124.86C99.6029 125.446 99.7845 126.136 99.8523 126.93H102.539V122.05H103.904V135.092H102.539V128.048H99.8668C99.8184 128.881 99.6489 129.607 99.3585 130.226C99.068 130.846 98.6831 131.323 98.2039 131.657C97.7246 131.991 97.1848 132.158 96.5846 132.158C95.9359 132.158 95.3622 131.972 94.8636 131.599C94.365 131.221 93.9753 130.689 93.6945 130.001C93.4185 129.309 93.283 128.503 93.2878 127.583C93.283 126.668 93.4185 125.867 93.6945 125.18C93.9753 124.487 94.365 123.955 94.8636 123.582C95.367 123.209 95.9407 123.023 96.5846 123.023ZM96.5846 124.257C96.1924 124.257 95.8463 124.393 95.5462 124.664C95.246 124.935 95.0112 125.322 94.8418 125.826C94.6772 126.325 94.5949 126.91 94.5949 127.583C94.5949 128.261 94.6772 128.852 94.8418 129.355C95.0112 129.858 95.246 130.246 95.5462 130.517C95.8463 130.788 96.1924 130.924 96.5846 130.924C96.9767 130.924 97.3228 130.788 97.623 130.517C97.9231 130.246 98.1555 129.858 98.3201 129.355C98.4895 128.852 98.5742 128.261 98.5742 127.583C98.5742 126.91 98.4895 126.325 98.3201 125.826C98.1555 125.322 97.9231 124.935 97.623 124.664C97.3228 124.393 96.9767 124.257 96.5846 124.257ZM117.222 134.787H108.043V130.706H109.423V133.668H117.222V134.787ZM116.873 131.504H115.523V126.712H113.315V125.594H115.523V122.064H116.873V131.504ZM109.554 124.214H107.564V128.367C108.319 128.343 109.026 128.256 109.684 128.106L109.801 129.239C109.292 129.35 108.82 129.42 108.385 129.449C107.954 129.474 107.428 129.486 106.809 129.486H106.228V123.096H109.554V124.214ZM113.882 124.214H111.616V128.375C112.168 128.365 112.649 128.341 113.061 128.302C113.472 128.259 113.886 128.188 114.303 128.092L114.448 129.21C113.925 129.326 113.414 129.401 112.916 129.435C112.417 129.469 111.751 129.486 110.919 129.486H110.251V123.096H113.882V124.214ZM132.529 127.322H134.62V128.469H132.529V135.063H131.164V122.05H132.529V127.322ZM130.031 125.216H122.319V124.083H125.529V122.224H126.909V124.083H130.031V125.216ZM126.226 126.174C126.841 126.174 127.393 126.303 127.882 126.559C128.371 126.816 128.756 127.174 129.036 127.634C129.317 128.094 129.46 128.614 129.465 129.195C129.46 129.781 129.317 130.304 129.036 130.764C128.756 131.224 128.371 131.582 127.882 131.838C127.393 132.095 126.841 132.226 126.226 132.231C125.606 132.226 125.05 132.095 124.556 131.838C124.067 131.582 123.682 131.224 123.401 130.764C123.125 130.304 122.987 129.781 122.987 129.195C122.987 128.614 123.125 128.094 123.401 127.634C123.682 127.174 124.067 126.816 124.556 126.559C125.05 126.303 125.606 126.174 126.226 126.174ZM126.226 127.307C125.863 127.307 125.534 127.387 125.239 127.547C124.943 127.707 124.713 127.929 124.549 128.215C124.384 128.501 124.304 128.827 124.309 129.195C124.304 129.568 124.384 129.897 124.549 130.183C124.713 130.468 124.941 130.689 125.231 130.844C125.527 130.999 125.858 131.074 126.226 131.069C126.589 131.074 126.916 130.999 127.206 130.844C127.502 130.689 127.732 130.468 127.896 130.183C128.061 129.897 128.143 129.568 128.143 129.195C128.143 128.827 128.061 128.501 127.896 128.215C127.732 127.929 127.502 127.707 127.206 127.547C126.916 127.387 126.589 127.307 126.226 127.307ZM145.731 126.073H138.062V127.569H146.007V128.687H136.683V125.013H144.322V123.647H136.639V122.529H145.731V126.073ZM147.139 131.025H141.853V135.092H140.473V131.025H135.23V129.921H147.139V131.025ZM159.992 129.079H148.083V128.019H159.992V129.079ZM158.525 132.855H150.886V133.93H158.932V134.903H149.507V131.94H157.16V130.982H149.492V129.994H158.525V132.855ZM158.496 125.201H150.973V126.189H158.714V127.162H149.608V124.286H157.117V123.357H149.579V122.384H158.496V125.201ZM176.49 133.451H164.582V132.303H169.824V129.631H165.947V122.936H167.326V125.172H173.717V122.936H175.082V129.631H171.19V132.303H176.49V133.451ZM173.717 128.513V126.291H167.326V128.513H173.717ZM188.574 135.063H187.252V128.397H185.582V134.395H184.289V122.311H185.582V127.264H187.252V122.05H188.574V135.063ZM179.424 130.539C180.823 130.524 182.154 130.391 183.418 130.139L183.563 131.345C182.726 131.495 181.927 131.601 181.167 131.664C180.412 131.722 179.652 131.751 178.887 131.751H178.044V123.589H179.424V130.539ZM201.136 129.631H199.756V127.177H197.302V126.058H199.756V124.65H197.302V123.531H199.756V122.05H201.136V129.631ZM194.862 123.836C194.862 124.446 194.986 125.039 195.232 125.615C195.484 126.191 195.845 126.705 196.314 127.155C196.789 127.6 197.346 127.941 197.985 128.179L197.2 129.268C196.508 128.992 195.905 128.593 195.392 128.07C194.879 127.547 194.48 126.939 194.194 126.247C193.904 126.993 193.49 127.644 192.952 128.2C192.42 128.757 191.783 129.181 191.043 129.471L190.273 128.382C190.941 128.135 191.515 127.782 191.994 127.322C192.478 126.862 192.848 126.332 193.105 125.732C193.361 125.131 193.492 124.499 193.497 123.836V122.529H194.862V123.836ZM194.906 130.633C194.906 131.224 195.053 131.79 195.349 132.332C195.644 132.874 196.077 133.32 196.648 133.668C197.031 133.417 197.353 133.119 197.614 132.775C197.88 132.431 198.079 132.073 198.21 131.7C198.34 131.328 198.406 130.972 198.406 130.633V130.096H199.756V130.633C199.756 131.093 199.856 131.536 200.054 131.962C200.253 132.383 200.548 132.761 200.94 133.095C201.332 133.424 201.809 133.678 202.371 133.857L201.659 134.888C201.034 134.666 200.502 134.346 200.061 133.93C199.626 133.518 199.292 133.037 199.059 132.485C198.846 133.041 198.536 133.54 198.13 133.981C197.728 134.421 197.239 134.762 196.663 135.004C196.067 134.777 195.566 134.448 195.16 134.017C194.753 133.591 194.443 133.097 194.23 132.536C193.988 133.063 193.652 133.53 193.221 133.937C192.79 134.349 192.277 134.666 191.682 134.888L191.013 133.857C191.546 133.668 192.006 133.405 192.393 133.066C192.78 132.722 193.073 132.34 193.272 131.918C193.475 131.492 193.579 131.064 193.584 130.633V130.096H194.906V130.633ZM215.296 128.295H213.277V135.048H211.898V122.05H213.277V127.162H215.296V128.295ZM204.999 130.633C206.984 130.633 208.911 130.439 210.779 130.052L210.939 131.214C209.903 131.422 208.874 131.57 207.853 131.657C206.836 131.739 205.788 131.78 204.709 131.78H203.634V123.313H204.999V130.633ZM227.902 133.436H215.993V132.289H218.84V128.89C218.297 128.59 217.876 128.21 217.576 127.75C217.276 127.29 217.126 126.775 217.126 126.204C217.126 125.531 217.329 124.938 217.736 124.424C218.147 123.911 218.716 123.514 219.442 123.234C220.169 122.948 220.994 122.805 221.919 122.805C222.848 122.805 223.676 122.948 224.402 123.234C225.133 123.514 225.702 123.911 226.108 124.424C226.52 124.938 226.726 125.531 226.726 126.204C226.726 126.77 226.58 127.281 226.29 127.736C226 128.186 225.588 128.561 225.056 128.861V132.289H227.902V133.436ZM221.919 123.909C221.241 123.909 220.641 124.003 220.118 124.192C219.595 124.376 219.188 124.642 218.898 124.991C218.607 125.335 218.462 125.739 218.462 126.204C218.462 126.663 218.607 127.068 218.898 127.416C219.188 127.765 219.595 128.036 220.118 128.229C220.641 128.418 221.241 128.513 221.919 128.513C222.591 128.513 223.189 128.418 223.712 128.229C224.24 128.036 224.651 127.765 224.947 127.416C225.242 127.068 225.39 126.663 225.39 126.204C225.39 125.744 225.242 125.339 224.947 124.991C224.656 124.642 224.247 124.376 223.719 124.192C223.197 124.003 222.596 123.909 221.919 123.909ZM223.661 132.289V129.391C223.134 129.522 222.553 129.587 221.919 129.587C221.309 129.587 220.737 129.524 220.205 129.399V132.289H223.661ZM230.981 130.706C230.986 130.096 231.046 129.602 231.162 129.224C231.283 128.842 231.451 128.537 231.664 128.309C231.877 128.077 232.162 127.849 232.52 127.627C233.237 127.181 233.595 126.625 233.595 125.957C233.595 125.661 233.525 125.402 233.384 125.18C233.249 124.952 233.06 124.778 232.818 124.657C232.581 124.536 232.317 124.475 232.027 124.475C231.755 124.475 231.501 124.533 231.264 124.65C231.027 124.761 230.831 124.933 230.676 125.165C230.526 125.397 230.439 125.686 230.415 126.029H228.846C228.865 125.434 229.015 124.921 229.296 124.49C229.582 124.054 229.962 123.725 230.436 123.502C230.911 123.28 231.441 123.168 232.027 123.168C232.646 123.168 233.193 123.287 233.668 123.524C234.147 123.756 234.517 124.083 234.779 124.504C235.045 124.925 235.178 125.41 235.178 125.957C235.178 126.518 235.052 127.005 234.8 127.416C234.549 127.823 234.181 128.174 233.697 128.469C233.397 128.648 233.159 128.835 232.985 129.028C232.816 129.222 232.687 129.452 232.6 129.718C232.518 129.984 232.472 130.314 232.462 130.706V130.793H230.981V130.706ZM231.78 133.93C231.596 133.93 231.421 133.884 231.257 133.792C231.097 133.7 230.971 133.574 230.879 133.414C230.787 133.254 230.744 133.083 230.749 132.899C230.744 132.715 230.787 132.543 230.879 132.383C230.971 132.223 231.097 132.097 231.257 132.005C231.421 131.914 231.596 131.868 231.78 131.868C231.959 131.868 232.128 131.914 232.288 132.005C232.448 132.097 232.574 132.223 232.666 132.383C232.762 132.543 232.811 132.715 232.811 132.899C232.811 133.083 232.762 133.254 232.666 133.414C232.574 133.574 232.448 133.7 232.288 133.792C232.128 133.884 231.959 133.93 231.78 133.93ZM61.0031 145.322H63.0944V146.469H61.0031V153.063H59.6379V140.05H61.0031V145.322ZM58.5051 143.216H50.7934V142.083H54.003V140.224H55.3827V142.083H58.5051V143.216ZM54.7001 144.174C55.3149 144.174 55.8668 144.303 56.3557 144.559C56.8446 144.816 57.2295 145.174 57.5103 145.634C57.7911 146.094 57.9339 146.614 57.9387 147.195C57.9339 147.781 57.7911 148.304 57.5103 148.764C57.2295 149.224 56.8446 149.582 56.3557 149.838C55.8668 150.095 55.3149 150.226 54.7001 150.231C54.0804 150.226 53.5237 150.095 53.0299 149.838C52.541 149.582 52.1561 149.224 51.8753 148.764C51.5994 148.304 51.4614 147.781 51.4614 147.195C51.4614 146.614 51.5994 146.094 51.8753 145.634C52.1561 145.174 52.541 144.816 53.0299 144.559C53.5237 144.303 54.0804 144.174 54.7001 144.174ZM54.7001 145.307C54.337 145.307 54.0078 145.387 53.7125 145.547C53.4172 145.707 53.1872 145.929 53.0227 146.215C52.8581 146.501 52.7782 146.827 52.783 147.195C52.7782 147.568 52.8581 147.897 53.0227 148.183C53.1872 148.468 53.4148 148.689 53.7052 148.844C54.0005 148.999 54.3321 149.074 54.7001 149.069C55.0631 149.074 55.3899 148.999 55.6804 148.844C55.9757 148.689 56.2056 148.468 56.3702 148.183C56.5348 147.897 56.6171 147.568 56.6171 147.195C56.6171 146.827 56.5348 146.501 56.3702 146.215C56.2056 145.929 55.9757 145.707 55.6804 145.547C55.3899 145.387 55.0631 145.307 54.7001 145.307ZM74.2045 144.073H66.5364V145.569H74.4805V146.687H65.1567V143.013H72.7958V141.647H65.1131V140.529H74.2045V144.073ZM75.6133 149.025H70.3269V153.092H68.9472V149.025H63.7044V147.921H75.6133V149.025ZM88.4662 147.079H76.5573V146.019H88.4662V147.079ZM86.9993 150.855H79.3602V151.93H87.406V152.903H77.9805V149.94H85.6342V148.982H77.966V147.994H86.9993V150.855ZM86.9703 143.201H79.4474V144.189H87.1881V145.162H78.0822V142.286H85.5906V141.357H78.0531V140.384H86.9703V143.201ZM103.875 153.063H102.481V140.05H103.875V153.063ZM99.9975 141.444C99.9975 143.458 99.5158 145.249 98.5524 146.818C97.5939 148.381 96.0472 149.674 93.9123 150.695L93.1862 149.577C94.895 148.764 96.19 147.774 97.0711 146.607C97.957 145.44 98.4677 144.087 98.6033 142.548H93.8107V141.444H99.9975ZM117.803 148.27H105.894V147.152H111.166V145.917H107.419V142.606H114.927V141.444H107.39V140.355H116.307V143.623H108.784V144.843H116.568V145.917H112.531V147.152H117.803V148.27ZM116.379 152.961H114.985V150.289H107.23V149.185H116.379V152.961ZM125.195 143.318H118.732V142.199H121.288V140.428H122.653V142.199H125.195V143.318ZM121.971 144.102C122.518 144.102 123.004 144.23 123.43 144.487C123.856 144.738 124.19 145.092 124.433 145.547C124.675 145.997 124.798 146.513 124.803 147.094C124.798 147.679 124.675 148.202 124.433 148.662C124.19 149.117 123.856 149.473 123.43 149.73C123.004 149.986 122.518 150.114 121.971 150.114C121.434 150.114 120.949 149.986 120.519 149.73C120.088 149.473 119.751 149.115 119.509 148.655C119.267 148.195 119.149 147.675 119.153 147.094C119.149 146.518 119.267 146.002 119.509 145.547C119.751 145.092 120.088 144.738 120.519 144.487C120.949 144.23 121.434 144.102 121.971 144.102ZM121.971 145.249C121.661 145.249 121.385 145.329 121.143 145.489C120.901 145.644 120.712 145.862 120.577 146.142C120.441 146.423 120.373 146.74 120.373 147.094C120.373 147.457 120.441 147.779 120.577 148.059C120.712 148.335 120.901 148.551 121.143 148.706C121.385 148.861 121.661 148.938 121.971 148.938C122.281 148.938 122.557 148.861 122.799 148.706C123.046 148.551 123.237 148.335 123.372 148.059C123.513 147.779 123.583 147.457 123.583 147.094C123.583 146.74 123.513 146.423 123.372 146.142C123.237 145.862 123.046 145.644 122.799 145.489C122.552 145.329 122.276 145.249 121.971 145.249ZM129.9 153.063H128.593V146.6H127.098V152.453H125.79V140.34H127.098V145.467H128.593V140.05H129.9V153.063ZM143.523 151.451H131.614V150.303H136.857V147.631H132.979V140.936H134.359V143.172H140.749V140.936H142.114V147.631H138.222V150.303H143.523V151.451ZM140.749 146.513V144.291H134.359V146.513H140.749ZM148.432 143.608C148.432 144.315 148.531 145.014 148.73 145.707C148.928 146.394 149.223 147.023 149.616 147.595C150.008 148.166 150.484 148.623 151.046 148.967L150.276 150.027C149.686 149.674 149.18 149.192 148.759 148.582C148.337 147.967 148.013 147.27 147.786 146.491C147.539 147.338 147.19 148.096 146.74 148.764C146.295 149.427 145.764 149.945 145.15 150.318L144.293 149.287C144.888 148.928 145.397 148.454 145.818 147.863C146.239 147.268 146.556 146.61 146.769 145.888C146.987 145.162 147.096 144.421 147.096 143.666V141.241H148.432V143.608ZM155.664 153.063H154.343V140.05H155.664V153.063ZM152.963 152.424H151.656V145.772H149.637V144.625H151.656V140.297H152.963V152.424ZM169.229 151.436H157.32V150.289H160.167V146.89C159.624 146.59 159.203 146.21 158.903 145.75C158.603 145.29 158.453 144.775 158.453 144.204C158.453 143.531 158.656 142.938 159.063 142.424C159.474 141.911 160.043 141.514 160.769 141.234C161.495 140.948 162.321 140.805 163.245 140.805C164.175 140.805 165.003 140.948 165.729 141.234C166.46 141.514 167.029 141.911 167.435 142.424C167.847 142.938 168.053 143.531 168.053 144.204C168.053 144.77 167.907 145.281 167.617 145.736C167.326 146.186 166.915 146.561 166.382 146.861V150.289H169.229V151.436ZM163.245 141.909C162.568 141.909 161.967 142.003 161.445 142.192C160.922 142.376 160.515 142.642 160.225 142.991C159.934 143.335 159.789 143.739 159.789 144.204C159.789 144.663 159.934 145.068 160.225 145.416C160.515 145.765 160.922 146.036 161.445 146.229C161.967 146.418 162.568 146.513 163.245 146.513C163.918 146.513 164.516 146.418 165.039 146.229C165.567 146.036 165.978 145.765 166.273 145.416C166.569 145.068 166.716 144.663 166.716 144.204C166.716 143.744 166.569 143.339 166.273 142.991C165.983 142.642 165.574 142.376 165.046 142.192C164.523 142.003 163.923 141.909 163.245 141.909ZM164.988 150.289V147.391C164.46 147.522 163.88 147.587 163.245 147.587C162.635 147.587 162.064 147.524 161.532 147.399V150.289H164.988ZM172.438 148.793H171.001L170.87 141.313H172.569L172.438 148.793ZM171.727 151.93C171.543 151.93 171.369 151.884 171.204 151.792C171.044 151.7 170.918 151.574 170.826 151.414C170.734 151.254 170.691 151.083 170.696 150.899C170.691 150.715 170.734 150.543 170.826 150.383C170.918 150.223 171.044 150.097 171.204 150.005C171.369 149.914 171.543 149.868 171.727 149.868C171.906 149.868 172.075 149.914 172.235 150.005C172.395 150.097 172.521 150.223 172.613 150.383C172.71 150.543 172.758 150.715 172.758 150.899C172.758 151.083 172.71 151.254 172.613 151.414C172.521 151.574 172.395 151.7 172.235 151.792C172.075 151.884 171.906 151.93 171.727 151.93Z" fill="#434343"/>
</g>
</g>
</g>
<defs>
<filter id="filter0_d_533_1156" x="0.363914" y="0.178568" width="426.545" height="424.517" filterUnits="userSpaceOnUse" color-interpolation-filters="sRGB">
<feFlood flood-opacity="0" result="BackgroundImageFix"/>
<feColorMatrix in="SourceAlpha" type="matrix" values="0 0 0 0 0 0 0 0 0 0 0 0 0 0 0 0 0 0 127 0" result="hardAlpha"/>
<feOffset dx="4.73188" dy="5.40786"/>
<feGaussianBlur stdDeviation="11.1537"/>
<feComposite in2="hardAlpha" operator="out"/>
<feColorMatrix type="matrix" values="0 0 0 0 0 0 0 0 0 0 0 0 0 0 0 0 0 0 0.56 0"/>
<feBlend mode="normal" in2="BackgroundImageFix" result="effect1_dropShadow_533_1156"/>
<feBlend mode="normal" in="SourceGraphic" in2="effect1_dropShadow_533_1156" result="shape"/>
</filter>
<filter id="filter1_d_533_1156" x="40.923" y="177.286" width="347.455" height="189.951" filterUnits="userSpaceOnUse" color-interpolation-filters="sRGB">
<feFlood flood-opacity="0" result="BackgroundImageFix"/>
<feColorMatrix in="SourceAlpha" type="matrix" values="0 0 0 0 0 0 0 0 0 0 0 0 0 0 0 0 0 0 127 0" result="hardAlpha"/>
<feOffset dy="2.70393"/>
<feGaussianBlur stdDeviation="1.35196"/>
<feComposite in2="hardAlpha" operator="out"/>
<feColorMatrix type="matrix" values="0 0 0 0 0 0 0 0 0 0 0 0 0 0 0 0 0 0 0.25 0"/>
<feBlend mode="normal" in2="BackgroundImageFix" result="effect1_dropShadow_533_1156"/>
<feBlend mode="normal" in="SourceGraphic" in2="effect1_dropShadow_533_1156" result="shape"/>
</filter>
<filter id="filter2_d_533_1156" x="256.363" y="52.2295" width="117.338" height="51.1617" filterUnits="userSpaceOnUse" color-interpolation-filters="sRGB">
<feFlood flood-opacity="0" result="BackgroundImageFix"/>
<feColorMatrix in="SourceAlpha" type="matrix" values="0 0 0 0 0 0 0 0 0 0 0 0 0 0 0 0 0 0 127 0" result="hardAlpha"/>
<feOffset dy="2.22441"/>
<feGaussianBlur stdDeviation="1.11221"/>
<feComposite in2="hardAlpha" operator="out"/>
<feColorMatrix type="matrix" values="0 0 0 0 0 0 0 0 0 0 0 0 0 0 0 0 0 0 0.25 0"/>
<feBlend mode="normal" in2="BackgroundImageFix" result="effect1_dropShadow_533_1156"/>
<feBlend mode="normal" in="SourceGraphic" in2="effect1_dropShadow_533_1156" result="shape"/>
</filter>
<filter id="filter3_d_533_1156" x="39.1655" y="74.1315" width="175.442" height="40.4425" filterUnits="userSpaceOnUse" color-interpolation-filters="sRGB">
<feFlood flood-opacity="0" result="BackgroundImageFix"/>
<feColorMatrix in="SourceAlpha" type="matrix" values="0 0 0 0 0 0 0 0 0 0 0 0 0 0 0 0 0 0 127 0" result="hardAlpha"/>
<feOffset dy="0.675982"/>
<feGaussianBlur stdDeviation="2.23074"/>
<feComposite in2="hardAlpha" operator="out"/>
<feColorMatrix type="matrix" values="0 0 0 0 0 0 0 0 0 0 0 0 0 0 0 0 0 0 0.25 0"/>
<feBlend mode="normal" in2="BackgroundImageFix" result="effect1_dropShadow_533_1156"/>
<feBlend mode="normal" in="SourceGraphic" in2="effect1_dropShadow_533_1156" result="shape"/>
</filter>
<filter id="filter4_i_533_1156" x="51.1992" y="86.8408" width="150.373" height="13.1289" filterUnits="userSpaceOnUse" color-interpolation-filters="sRGB">
<feFlood flood-opacity="0" result="BackgroundImageFix"/>
<feBlend mode="normal" in="SourceGraphic" in2="BackgroundImageFix" result="shape"/>
<feColorMatrix in="SourceAlpha" type="matrix" values="0 0 0 0 0 0 0 0 0 0 0 0 0 0 0 0 0 0 127 0" result="hardAlpha"/>
<feOffset/>
<feGaussianBlur stdDeviation="0.337991"/>
<feComposite in2="hardAlpha" operator="arithmetic" k2="-1" k3="1"/>
<feColorMatrix type="matrix" values="0 0 0 0 0 0 0 0 0 0 0 0 0 0 0 0 0 0 0.25 0"/>
<feBlend mode="normal" in2="shape" result="effect1_innerShadow_533_1156"/>
</filter>
<filter id="filter5_i_533_1156" x="50.793" y="122.05" width="184.385" height="31.042" filterUnits="userSpaceOnUse" color-interpolation-filters="sRGB">
<feFlood flood-opacity="0" result="BackgroundImageFix"/>
<feBlend mode="normal" in="SourceGraphic" in2="BackgroundImageFix" result="shape"/>
<feColorMatrix in="SourceAlpha" type="matrix" values="0 0 0 0 0 0 0 0 0 0 0 0 0 0 0 0 0 0 127 0" result="hardAlpha"/>
<feOffset/>
<feGaussianBlur stdDeviation="0.337991"/>
<feComposite in2="hardAlpha" operator="arithmetic" k2="-1" k3="1"/>
<feColorMatrix type="matrix" values="0 0 0 0 0 0 0 0 0 0 0 0 0 0 0 0 0 0 0.25 0"/>
<feBlend mode="normal" in2="shape" result="effect1_innerShadow_533_1156"/>
</filter>
<clipPath id="clip0_533_1156">
<rect x="17.9395" y="17.0781" width="381.93" height="379.902" rx="16.3528" fill="white"/>
</clipPath>
<clipPath id="clip1_533_1156">
<rect x="43.627" y="177.286" width="342.047" height="184.543" rx="13.5196" fill="white"/>
</clipPath>
<clipPath id="clip2_533_1156">
<rect width="23.1454" height="26.1557" fill="white" transform="translate(273.01 62.2393)"/>
</clipPath>
</defs>
</svg>
