<svg width="204" height="71" viewBox="0 0 204 71" fill="none" xmlns="http://www.w3.org/2000/svg">
<g filter="url(#filter0_d_533_945)">
<rect x="2.85742" width="65.3244" height="65.3244" rx="19.5973" fill="white"/>
<g clip-path="url(#clip0_533_945)">
<path d="M39.3221 15.2998H31.6007C24.8939 15.2998 19.457 20.7367 19.457 27.4435V39.3982C19.457 46.105 24.8939 51.5419 31.6007 51.5419H39.3221C46.0289 51.5419 51.4658 46.105 51.4658 39.3982V27.4435C51.4658 20.7367 46.0289 15.2998 39.3221 15.2998Z" fill="#CCC4EE" stroke="black" stroke-width="0.53996" stroke-miterlimit="10"/>
<path d="M24.791 22.3237C24.791 22.3237 34.2133 28.4846 46.1302 21.5947" stroke="#0C0C0C" stroke-width="0.53996" stroke-miterlimit="10" stroke-linecap="round"/>
<path d="M39.1115 32.2487C39.693 32.2487 40.1644 31.3929 40.1644 30.3372C40.1644 29.2816 39.693 28.4258 39.1115 28.4258C38.53 28.4258 38.0586 29.2816 38.0586 30.3372C38.0586 31.3929 38.53 32.2487 39.1115 32.2487Z" fill="#FEFFF5" stroke="black" stroke-width="0.53996" stroke-miterlimit="10" stroke-linecap="round"/>
<path d="M31.7189 32.2487C32.3004 32.2487 32.7719 31.3929 32.7719 30.3372C32.7719 29.2816 32.3004 28.4258 31.7189 28.4258C31.1374 28.4258 30.666 29.2816 30.666 30.3372C30.666 31.3929 31.1374 32.2487 31.7189 32.2487Z" fill="#FEFFF5" stroke="black" stroke-width="0.53996" stroke-miterlimit="10" stroke-linecap="round"/>
<path d="M41.9736 35.8828H30.0027C29.1588 35.8828 28.4746 36.567 28.4746 37.4109V39.5437C28.4746 40.3877 29.1588 41.0718 30.0027 41.0718H41.9736C42.8175 41.0718 43.5017 40.3877 43.5017 39.5437V37.4109C43.5017 36.567 42.8175 35.8828 41.9736 35.8828Z" fill="#FEFFF5" stroke="black" stroke-width="0.53996" stroke-miterlimit="10" stroke-linecap="round"/>
<path d="M47.0234 14.7812V20.2888" stroke="black" stroke-width="0.53996" stroke-miterlimit="10" stroke-linecap="round"/>
<path d="M48.3184 16.3086V21.9242" stroke="black" stroke-width="0.53996" stroke-miterlimit="10" stroke-linecap="round"/>
<path d="M49.2266 13.9873V21.6925" stroke="black" stroke-width="0.53996" stroke-miterlimit="10" stroke-linecap="round"/>
<path d="M26.3582 21.04V17.8882H27.4232C27.6705 17.8882 27.8726 17.9329 28.0295 18.0221C28.1875 18.1104 28.3045 18.2299 28.3804 18.3807C28.4564 18.5315 28.4943 18.6998 28.4943 18.8855C28.4943 19.0712 28.4564 19.24 28.3804 19.3918C28.3055 19.5436 28.1896 19.6647 28.0326 19.755C27.8757 19.8443 27.6746 19.8889 27.4293 19.8889H26.666V19.5503H27.417C27.5863 19.5503 27.7223 19.5211 27.8249 19.4626C27.9275 19.4041 28.0018 19.3251 28.048 19.2256C28.0952 19.125 28.1188 19.0117 28.1188 18.8855C28.1188 18.7593 28.0952 18.6464 28.048 18.5469C28.0018 18.4474 27.9269 18.3694 27.8233 18.313C27.7197 18.2555 27.5822 18.2268 27.4109 18.2268H26.7399V21.04H26.3582ZM29.7555 21.0954C29.6057 21.0954 29.4698 21.0672 29.3477 21.0108C29.2256 20.9533 29.1286 20.8708 29.0568 20.763C28.985 20.6543 28.9491 20.5229 28.9491 20.369C28.9491 20.2336 28.9758 20.1238 29.0291 20.0397C29.0825 19.9546 29.1538 19.8879 29.243 19.8396C29.3323 19.7914 29.4308 19.7555 29.5385 19.7319C29.6473 19.7073 29.7565 19.6878 29.8663 19.6734C30.0099 19.655 30.1264 19.6411 30.2157 19.6319C30.3059 19.6216 30.3716 19.6047 30.4126 19.5811C30.4547 19.5575 30.4757 19.5165 30.4757 19.458V19.4457C30.4757 19.2938 30.4342 19.1758 30.3511 19.0917C30.269 19.0076 30.1443 18.9655 29.9771 18.9655C29.8037 18.9655 29.6678 19.0035 29.5693 19.0794C29.4708 19.1553 29.4015 19.2364 29.3615 19.3225L29.0168 19.1994C29.0784 19.0558 29.1604 18.944 29.263 18.8639C29.3667 18.7829 29.4795 18.7265 29.6016 18.6947C29.7247 18.6618 29.8458 18.6454 29.9648 18.6454C30.0407 18.6454 30.1279 18.6546 30.2264 18.6731C30.3259 18.6905 30.4219 18.727 30.5142 18.7824C30.6076 18.8378 30.685 18.9214 30.7466 19.0332C30.8082 19.1451 30.8389 19.2948 30.8389 19.4826V21.04H30.4757V20.7199H30.4573C30.4326 20.7712 30.3916 20.8261 30.3342 20.8846C30.2767 20.9431 30.2003 20.9928 30.1048 21.0339C30.0094 21.0749 29.893 21.0954 29.7555 21.0954ZM29.8109 20.7692C29.9545 20.7692 30.0756 20.741 30.1741 20.6845C30.2736 20.6281 30.3485 20.5553 30.3988 20.466C30.4501 20.3767 30.4757 20.2829 30.4757 20.1844V19.852C30.4603 19.8704 30.4265 19.8874 30.3742 19.9027C30.3229 19.9171 30.2634 19.9299 30.1956 19.9412C30.129 19.9515 30.0638 19.9607 30.0002 19.9689C29.9376 19.9761 29.8868 19.9823 29.8478 19.9874C29.7534 19.9997 29.6652 20.0197 29.5831 20.0474C29.5021 20.0741 29.4364 20.1146 29.3861 20.169C29.3369 20.2223 29.3123 20.2952 29.3123 20.3875C29.3123 20.5137 29.359 20.6091 29.4523 20.6738C29.5467 20.7374 29.6662 20.7692 29.8109 20.7692ZM31.865 19.618V21.04H31.5018V18.6762H31.8527V19.0455H31.8835C31.9389 18.9255 32.023 18.8291 32.1359 18.7562C32.2488 18.6823 32.3944 18.6454 32.573 18.6454C32.733 18.6454 32.8731 18.6782 32.9931 18.7439C33.1131 18.8085 33.2065 18.907 33.2732 19.0394C33.3399 19.1707 33.3732 19.3369 33.3732 19.538V21.04H33.01V19.5626C33.01 19.3769 32.9618 19.2323 32.8654 19.1286C32.7689 19.024 32.6366 18.9717 32.4683 18.9717C32.3524 18.9717 32.2488 18.9968 32.1574 19.0471C32.0672 19.0973 31.9959 19.1707 31.9435 19.2671C31.8912 19.3636 31.865 19.4806 31.865 19.618ZM34.0369 21.04V18.6762H34.4001V21.04H34.0369ZM34.2216 18.2822C34.1508 18.2822 34.0898 18.2581 34.0385 18.2099C33.9882 18.1617 33.963 18.1037 33.963 18.036C33.963 17.9683 33.9882 17.9103 34.0385 17.8621C34.0898 17.8138 34.1508 17.7897 34.2216 17.7897C34.2924 17.7897 34.3529 17.8138 34.4032 17.8621C34.4545 17.9103 34.4801 17.9683 34.4801 18.036C34.4801 18.1037 34.4545 18.1617 34.4032 18.2099C34.3529 18.2581 34.2924 18.2822 34.2216 18.2822ZM36.0256 21.0893C35.804 21.0893 35.6132 21.037 35.4531 20.9323C35.2931 20.8277 35.17 20.6835 35.0838 20.4999C34.9976 20.3162 34.9545 20.1064 34.9545 19.8704C34.9545 19.6303 34.9986 19.4185 35.0869 19.2348C35.1761 19.0502 35.3003 18.906 35.4593 18.8024C35.6194 18.6977 35.8061 18.6454 36.0195 18.6454C36.1857 18.6454 36.3355 18.6762 36.4689 18.7377C36.6022 18.7993 36.7115 18.8855 36.7967 18.9963C36.8818 19.1071 36.9347 19.2364 36.9552 19.3841H36.592C36.5643 19.2764 36.5027 19.181 36.4073 19.0979C36.3129 19.0137 36.1857 18.9717 36.0256 18.9717C35.8841 18.9717 35.7599 19.0086 35.6532 19.0825C35.5475 19.1553 35.4649 19.2584 35.4054 19.3918C35.347 19.5242 35.3177 19.6796 35.3177 19.8581C35.3177 20.0407 35.3464 20.1998 35.4039 20.3352C35.4624 20.4706 35.5445 20.5758 35.6501 20.6507C35.7568 20.7256 35.882 20.763 36.0256 20.763C36.12 20.763 36.2057 20.7466 36.2827 20.7138C36.3596 20.6809 36.4248 20.6338 36.4781 20.5722C36.5315 20.5106 36.5694 20.4368 36.592 20.3506H36.9552C36.9347 20.4901 36.8839 20.6158 36.8028 20.7276C36.7228 20.8384 36.6166 20.9267 36.4843 20.9923C36.3529 21.057 36.2001 21.0893 36.0256 21.0893ZM37.8247 20.1782L37.8185 19.7288H37.8924L38.9266 18.6762H39.376L38.2741 19.7904H38.2433L37.8247 20.1782ZM37.4861 21.04V17.8882H37.8493V21.04H37.4861ZM38.9882 21.04L38.0648 19.8704L38.3233 19.618L39.4499 21.04H38.9882ZM40.7372 21.0893C40.5094 21.0893 40.313 21.039 40.1478 20.9385C39.9836 20.8369 39.8569 20.6953 39.7676 20.5137C39.6794 20.3311 39.6353 20.1187 39.6353 19.8766C39.6353 19.6344 39.6794 19.421 39.7676 19.2364C39.8569 19.0507 39.9811 18.906 40.1401 18.8024C40.3001 18.6977 40.4869 18.6454 40.7003 18.6454C40.8234 18.6454 40.945 18.6659 41.065 18.707C41.185 18.748 41.2943 18.8147 41.3928 18.907C41.4913 18.9983 41.5698 19.1194 41.6283 19.2702C41.6867 19.421 41.716 19.6067 41.716 19.8273V19.9812H39.8938V19.6673H41.3466C41.3466 19.5339 41.32 19.4149 41.2666 19.3102C41.2143 19.2056 41.1394 19.123 41.0419 19.0625C40.9455 19.0019 40.8316 18.9717 40.7003 18.9717C40.5556 18.9717 40.4304 19.0076 40.3248 19.0794C40.2201 19.1502 40.1396 19.2425 40.0831 19.3564C40.0267 19.4703 39.9985 19.5924 39.9985 19.7227V19.932C39.9985 20.1105 40.0293 20.2618 40.0908 20.386C40.1534 20.5091 40.2401 20.603 40.3509 20.6676C40.4617 20.7312 40.5905 20.763 40.7372 20.763C40.8326 20.763 40.9188 20.7497 40.9957 20.723C41.0737 20.6953 41.1409 20.6543 41.1974 20.5999C41.2538 20.5445 41.2974 20.4758 41.3282 20.3937L41.679 20.4922C41.6421 20.6112 41.58 20.7158 41.4928 20.8061C41.4056 20.8954 41.2979 20.9651 41.1696 21.0154C41.0414 21.0647 40.8973 21.0893 40.7372 21.0893ZM43.1611 21.0893C42.9641 21.0893 42.7902 21.0395 42.6394 20.94C42.4885 20.8395 42.3706 20.6979 42.2854 20.5153C42.2002 20.3316 42.1577 20.1146 42.1577 19.8643C42.1577 19.616 42.2002 19.4005 42.2854 19.2179C42.3706 19.0353 42.4891 18.8942 42.6409 18.7947C42.7927 18.6952 42.9682 18.6454 43.1672 18.6454C43.3211 18.6454 43.4427 18.6711 43.532 18.7224C43.6223 18.7726 43.691 18.8301 43.7382 18.8947C43.7864 18.9583 43.8239 19.0107 43.8505 19.0517H43.8813V17.8882H44.2445V21.04H43.8936V20.6768H43.8505C43.8239 20.7199 43.7859 20.7743 43.7367 20.84C43.6874 20.9046 43.6171 20.9626 43.5258 21.0139C43.4345 21.0641 43.3129 21.0893 43.1611 21.0893ZM43.2103 20.763C43.356 20.763 43.4791 20.7251 43.5797 20.6491C43.6802 20.5722 43.7567 20.466 43.809 20.3306C43.8613 20.1941 43.8875 20.0366 43.8875 19.8581C43.8875 19.6816 43.8618 19.5272 43.8105 19.3949C43.7592 19.2615 43.6833 19.1579 43.5828 19.084C43.4822 19.0091 43.3581 18.9717 43.2103 18.9717C43.0564 18.9717 42.9282 19.0112 42.8256 19.0902C42.724 19.1681 42.6476 19.2743 42.5963 19.4087C42.546 19.5421 42.5209 19.6919 42.5209 19.8581C42.5209 20.0264 42.5465 20.1792 42.5978 20.3167C42.6501 20.4532 42.7271 20.5619 42.8287 20.643C42.9313 20.723 43.0585 20.763 43.2103 20.763Z" fill="black"/>
</g>
</g>
<g filter="url(#filter1_d_533_945)">
<rect x="69.2676" width="65.3244" height="65.3244" rx="19.5973" fill="white"/>
<g clip-path="url(#clip1_533_945)">
<path d="M105.732 14.6406H98.0109C91.3041 14.6406 85.8672 20.0775 85.8672 26.7843V38.739C85.8672 45.4458 91.3041 50.8827 98.0109 50.8827H105.732C112.439 50.8827 117.876 45.4458 117.876 38.739V26.7843C117.876 20.0775 112.439 14.6406 105.732 14.6406Z" fill="#E2E2E2" stroke="black" stroke-width="0.53996" stroke-miterlimit="10"/>
<path d="M91.2012 20.3588C91.2012 20.3588 100.623 26.5198 112.54 19.6299" stroke="#0C0C0C" stroke-width="0.53996" stroke-miterlimit="10" stroke-linecap="round"/>
<path d="M94.9874 32.4433C95.3602 32.4433 95.6624 31.6988 95.6624 30.7803C95.6624 29.8618 95.3602 29.1172 94.9874 29.1172C94.6147 29.1172 94.3125 29.8618 94.3125 30.7803C94.3125 31.6988 94.6147 32.4433 94.9874 32.4433Z" fill="black"/>
<path d="M93.5156 29.2412H96.642" stroke="black" stroke-width="0.26998" stroke-miterlimit="10" stroke-linecap="round"/>
<path d="M93.5156 37.8164H108.267" stroke="black" stroke-width="0.53996" stroke-miterlimit="10" stroke-linecap="round"/>
<path d="M106.294 32.4433C106.667 32.4433 106.969 31.6988 106.969 30.7803C106.969 29.8618 106.667 29.1172 106.294 29.1172C105.921 29.1172 105.619 29.8618 105.619 30.7803C105.619 31.6988 105.921 32.4433 106.294 32.4433Z" fill="black"/>
<path d="M104.814 29.2412H107.946" stroke="black" stroke-width="0.26998" stroke-miterlimit="10" stroke-linecap="round"/>
<path d="M98.4958 16.9527V20.1045H98.1141V16.9527H98.4958ZM100.234 20.1045H99.261V16.9527H100.277C100.582 16.9527 100.844 17.0158 101.062 17.142C101.279 17.2671 101.446 17.4472 101.562 17.6822C101.678 17.9161 101.736 18.1962 101.736 18.5224C101.736 18.8507 101.677 19.1334 101.56 19.3704C101.443 19.6064 101.273 19.788 101.049 19.9152C100.826 20.0414 100.554 20.1045 100.234 20.1045ZM99.6427 19.7659H100.209C100.47 19.7659 100.686 19.7156 100.857 19.6151C101.028 19.5146 101.156 19.3714 101.24 19.1857C101.324 19 101.366 18.7789 101.366 18.5224C101.366 18.268 101.325 18.0489 101.242 17.8653C101.159 17.6806 101.034 17.539 100.869 17.4405C100.704 17.341 100.498 17.2913 100.252 17.2913H99.6427V19.7659ZM102.376 20.1045V16.9527H102.758V18.5163H102.794L104.21 16.9527H104.709L103.385 18.3747L104.709 20.1045H104.247L103.152 18.6394L102.758 19.0826V20.1045H102.376Z" fill="black"/>
</g>
</g>
<g filter="url(#filter2_d_533_945)">
<rect x="135.676" width="65.3244" height="65.3244" rx="19.5973" fill="white"/>
<g clip-path="url(#clip2_533_945)">
<path d="M172.142 14.6406H164.421C157.714 14.6406 152.277 20.0775 152.277 26.7843V38.739C152.277 45.4458 157.714 50.8827 164.421 50.8827H172.142C178.849 50.8827 184.286 45.4458 184.286 38.739V26.7843C184.286 20.0775 178.849 14.6406 172.142 14.6406Z" fill="#D9FFD8" stroke="black" stroke-width="0.53996" stroke-miterlimit="10"/>
<path d="M157.611 22.2358C157.611 22.2358 167.034 28.3967 178.951 21.5068" stroke="#0C0C0C" stroke-width="0.53996" stroke-miterlimit="10" stroke-linecap="round"/>
<path d="M178.838 34.8076H157.067C156.516 34.8076 156.068 35.2549 156.068 35.8065V45.3908C156.068 45.9425 156.516 46.3898 157.067 46.3898H178.838C179.39 46.3898 179.837 45.9425 179.837 45.3908V35.8065C179.837 35.2549 179.39 34.8076 178.838 34.8076Z" fill="#FCFCFC" stroke="black" stroke-width="0.26998" stroke-miterlimit="10" stroke-linecap="round"/>
<path d="M156.068 39.2306L157.92 39.1064" stroke="black" stroke-width="0.26998" stroke-miterlimit="10" stroke-linecap="round"/>
<path d="M156.201 41.715L157.583 41.499" stroke="black" stroke-width="0.26998" stroke-miterlimit="10" stroke-linecap="round"/>
<path d="M179.842 39.1066L177.088 38.9824" stroke="black" stroke-width="0.26998" stroke-miterlimit="10" stroke-linecap="round"/>
<path d="M179.637 41.0391L177.828 41.2226" stroke="black" stroke-width="0.26998" stroke-miterlimit="10" stroke-linecap="round"/>
<path d="M179.842 40.1481L184.145 35.3047" stroke="black" stroke-width="0.26998" stroke-miterlimit="10" stroke-linecap="round"/>
<path d="M156.068 40.6615L152.277 36.2393" stroke="black" stroke-width="0.26998" stroke-miterlimit="10" stroke-linecap="round"/>
<path d="M172.482 29.165L176.073 33.1769" stroke="black" stroke-width="0.53996" stroke-miterlimit="10" stroke-linecap="round"/>
<path d="M172.146 33.1775L176.283 29.3438" stroke="black" stroke-width="0.53996" stroke-miterlimit="10" stroke-linecap="round"/>
<path d="M159.551 29.3438L163.136 33.3557" stroke="black" stroke-width="0.53996" stroke-miterlimit="10" stroke-linecap="round"/>
<path d="M159.211 33.3552L163.347 29.5215" stroke="black" stroke-width="0.53996" stroke-miterlimit="10" stroke-linecap="round"/>
<path d="M157.878 20.5371V17.3853H159.78V17.7239H158.259V18.7888H159.681V19.1274H158.259V20.1985H159.805V20.5371H157.878ZM160.689 18.1733L161.256 19.1397L161.822 18.1733H162.241L161.477 19.3552L162.241 20.5371H161.822L161.256 19.6199L160.689 20.5371H160.271L161.022 19.3552L160.271 18.1733H160.689ZM163.122 19.1151V20.5371H162.759V17.3853H163.122V18.5426H163.153C163.208 18.4205 163.291 18.3236 163.402 18.2517C163.514 18.1789 163.663 18.1425 163.849 18.1425C164.01 18.1425 164.151 18.1748 164.272 18.2394C164.393 18.303 164.487 18.401 164.553 18.5334C164.621 18.6647 164.655 18.8319 164.655 19.0351V20.5371H164.292V19.0597C164.292 18.8719 164.243 18.7268 164.146 18.6242C164.049 18.5205 163.915 18.4687 163.744 18.4687C163.625 18.4687 163.518 18.4939 163.424 18.5441C163.33 18.5944 163.257 18.6678 163.202 18.7642C163.149 18.8607 163.122 18.9776 163.122 19.1151ZM166.015 20.5925C165.865 20.5925 165.729 20.5643 165.607 20.5079C165.485 20.4504 165.388 20.3678 165.316 20.2601C165.245 20.1513 165.209 20.02 165.209 19.8661C165.209 19.7307 165.235 19.6209 165.289 19.5368C165.342 19.4516 165.413 19.3849 165.503 19.3367C165.592 19.2885 165.69 19.2526 165.798 19.229C165.907 19.2044 166.016 19.1849 166.126 19.1705C166.269 19.152 166.386 19.1382 166.475 19.129C166.565 19.1187 166.631 19.1018 166.672 19.0782C166.714 19.0546 166.735 19.0135 166.735 18.955V18.9427C166.735 18.7909 166.694 18.6729 166.611 18.5888C166.529 18.5046 166.404 18.4626 166.237 18.4626C166.063 18.4626 165.927 18.5005 165.829 18.5765C165.73 18.6524 165.661 18.7334 165.621 18.8196L165.276 18.6965C165.338 18.5529 165.42 18.441 165.523 18.361C165.626 18.28 165.739 18.2235 165.861 18.1917C165.984 18.1589 166.105 18.1425 166.224 18.1425C166.3 18.1425 166.387 18.1517 166.486 18.1702C166.586 18.1876 166.681 18.224 166.774 18.2794C166.867 18.3348 166.945 18.4185 167.006 18.5303C167.068 18.6421 167.098 18.7919 167.098 18.9797V20.5371H166.735V20.217H166.717C166.692 20.2683 166.651 20.3232 166.594 20.3817C166.536 20.4402 166.46 20.4899 166.364 20.531C166.269 20.572 166.153 20.5925 166.015 20.5925ZM166.07 20.2663C166.214 20.2663 166.335 20.238 166.434 20.1816C166.533 20.1252 166.608 20.0523 166.658 19.9631C166.71 19.8738 166.735 19.7799 166.735 19.6814V19.349C166.72 19.3675 166.686 19.3844 166.634 19.3998C166.582 19.4142 166.523 19.427 166.455 19.4383C166.389 19.4485 166.323 19.4578 166.26 19.466C166.197 19.4732 166.146 19.4793 166.107 19.4845C166.013 19.4968 165.925 19.5168 165.843 19.5445C165.762 19.5711 165.696 19.6117 165.646 19.6661C165.596 19.7194 165.572 19.7922 165.572 19.8846C165.572 20.0108 165.619 20.1062 165.712 20.1708C165.806 20.2344 165.926 20.2663 166.07 20.2663ZM169.251 19.5706V18.1733H169.614V20.5371H169.251V20.137H169.227C169.171 20.257 169.085 20.3591 168.968 20.4432C168.851 20.5263 168.703 20.5679 168.525 20.5679C168.377 20.5679 168.246 20.5356 168.131 20.4709C168.016 20.4053 167.926 20.3068 167.86 20.1755C167.794 20.0431 167.761 19.8764 167.761 19.6753V18.1733H168.125V19.6507C168.125 19.823 168.173 19.9605 168.269 20.0631C168.367 20.1657 168.491 20.217 168.642 20.217C168.732 20.217 168.824 20.1939 168.917 20.1478C169.012 20.1016 169.091 20.0308 169.154 19.9354C169.219 19.84 169.251 19.7184 169.251 19.5706ZM171.954 18.7027L171.628 18.795C171.607 18.7406 171.577 18.6878 171.537 18.6365C171.498 18.5842 171.445 18.5411 171.377 18.5072C171.309 18.4734 171.222 18.4564 171.117 18.4564C170.972 18.4564 170.852 18.4898 170.755 18.5565C170.66 18.6221 170.612 18.7057 170.612 18.8073C170.612 18.8976 170.645 18.9689 170.71 19.0212C170.776 19.0735 170.879 19.1172 171.018 19.152L171.369 19.2382C171.58 19.2895 171.738 19.368 171.842 19.4737C171.945 19.5783 171.997 19.7132 171.997 19.8784C171.997 20.0139 171.958 20.1349 171.88 20.2416C171.803 20.3483 171.695 20.4325 171.557 20.494C171.418 20.5556 171.257 20.5864 171.074 20.5864C170.833 20.5864 170.633 20.534 170.475 20.4294C170.317 20.3247 170.217 20.1719 170.175 19.9708L170.52 19.8846C170.552 20.0118 170.615 20.1072 170.706 20.1708C170.798 20.2344 170.919 20.2663 171.067 20.2663C171.237 20.2663 171.371 20.2303 171.471 20.1585C171.571 20.0857 171.622 19.9985 171.622 19.8969C171.622 19.8148 171.593 19.7461 171.535 19.6907C171.478 19.6342 171.39 19.5922 171.271 19.5645L170.877 19.4721C170.66 19.4208 170.501 19.3413 170.4 19.2336C170.299 19.1248 170.249 18.9889 170.249 18.8258C170.249 18.6924 170.286 18.5744 170.361 18.4718C170.437 18.3692 170.54 18.2887 170.67 18.2302C170.802 18.1717 170.951 18.1425 171.117 18.1425C171.351 18.1425 171.534 18.1938 171.668 18.2964C171.802 18.399 171.898 18.5344 171.954 18.7027ZM173.572 18.1733V18.481H172.347V18.1733H173.572ZM172.704 17.6069H173.067V19.86C173.067 19.9626 173.082 20.0395 173.112 20.0908C173.142 20.1411 173.181 20.1749 173.229 20.1924C173.277 20.2088 173.328 20.217 173.381 20.217C173.421 20.217 173.454 20.215 173.479 20.2108C173.505 20.2057 173.526 20.2016 173.541 20.1985L173.615 20.5248C173.59 20.534 173.556 20.5433 173.512 20.5525C173.468 20.5628 173.412 20.5679 173.344 20.5679C173.241 20.5679 173.141 20.5458 173.042 20.5017C172.945 20.4576 172.864 20.3904 172.799 20.3001C172.736 20.2098 172.704 20.0959 172.704 19.9585V17.6069ZM175.084 20.5864C174.856 20.5864 174.66 20.5361 174.494 20.4355C174.33 20.334 174.204 20.1924 174.114 20.0108C174.026 19.8282 173.982 19.6158 173.982 19.3736C173.982 19.1315 174.026 18.9181 174.114 18.7334C174.204 18.5477 174.328 18.4031 174.487 18.2994C174.647 18.1948 174.833 18.1425 175.047 18.1425C175.17 18.1425 175.292 18.163 175.412 18.204C175.532 18.2451 175.641 18.3118 175.739 18.4041C175.838 18.4954 175.916 18.6165 175.975 18.7673C176.033 18.9181 176.063 19.1038 176.063 19.3244V19.4783H174.24V19.1643H175.693C175.693 19.031 175.667 18.912 175.613 18.8073C175.561 18.7027 175.486 18.6201 175.389 18.5595C175.292 18.499 175.178 18.4687 175.047 18.4687C174.902 18.4687 174.777 18.5046 174.671 18.5765C174.567 18.6473 174.486 18.7396 174.43 18.8535C174.373 18.9674 174.345 19.0895 174.345 19.2198V19.4291C174.345 19.6076 174.376 19.7589 174.437 19.883C174.5 20.0062 174.587 20.1 174.698 20.1647C174.808 20.2283 174.937 20.2601 175.084 20.2601C175.179 20.2601 175.265 20.2468 175.342 20.2201C175.42 20.1924 175.488 20.1513 175.544 20.097C175.6 20.0416 175.644 19.9728 175.675 19.8907L176.026 19.9892C175.989 20.1082 175.927 20.2129 175.839 20.3032C175.752 20.3924 175.645 20.4622 175.516 20.5125C175.388 20.5617 175.244 20.5864 175.084 20.5864ZM177.508 20.5864C177.311 20.5864 177.137 20.5366 176.986 20.4371C176.835 20.3365 176.717 20.1949 176.632 20.0123C176.547 19.8287 176.504 19.6117 176.504 19.3613C176.504 19.113 176.547 18.8976 176.632 18.715C176.717 18.5323 176.836 18.3913 176.988 18.2918C177.139 18.1922 177.315 18.1425 177.514 18.1425C177.668 18.1425 177.789 18.1681 177.879 18.2194C177.969 18.2697 178.038 18.3271 178.085 18.3918C178.133 18.4554 178.17 18.5077 178.197 18.5488H178.228V17.3853H178.591V20.5371H178.24V20.1739H178.197C178.17 20.217 178.133 20.2714 178.083 20.337C178.034 20.4017 177.964 20.4596 177.872 20.5109C177.781 20.5612 177.66 20.5864 177.508 20.5864ZM177.557 20.2601C177.703 20.2601 177.826 20.2221 177.926 20.1462C178.027 20.0693 178.103 19.9631 178.156 19.8276C178.208 19.6912 178.234 19.5337 178.234 19.3552C178.234 19.1787 178.208 19.0243 178.157 18.892C178.106 18.7586 178.03 18.655 177.929 18.5811C177.829 18.5062 177.705 18.4687 177.557 18.4687C177.403 18.4687 177.275 18.5082 177.172 18.5872C177.071 18.6652 176.994 18.7714 176.943 18.9058C176.893 19.0392 176.867 19.189 176.867 19.3552C176.867 19.5234 176.893 19.6763 176.944 19.8138C176.997 19.9502 177.074 20.059 177.175 20.1401C177.278 20.2201 177.405 20.2601 177.557 20.2601Z" fill="black"/>
</g>
</g>
<defs>
<filter id="filter0_d_533_945" x="0.244447" y="0" width="70.5502" height="70.5502" filterUnits="userSpaceOnUse" color-interpolation-filters="sRGB">
<feFlood flood-opacity="0" result="BackgroundImageFix"/>
<feColorMatrix in="SourceAlpha" type="matrix" values="0 0 0 0 0 0 0 0 0 0 0 0 0 0 0 0 0 0 127 0" result="hardAlpha"/>
<feOffset dy="2.61298"/>
<feGaussianBlur stdDeviation="1.30649"/>
<feComposite in2="hardAlpha" operator="out"/>
<feColorMatrix type="matrix" values="0 0 0 0 0 0 0 0 0 0 0 0 0 0 0 0 0 0 0.25 0"/>
<feBlend mode="normal" in2="BackgroundImageFix" result="effect1_dropShadow_533_945"/>
<feBlend mode="normal" in="SourceGraphic" in2="effect1_dropShadow_533_945" result="shape"/>
</filter>
<filter id="filter1_d_533_945" x="66.6546" y="0" width="70.5502" height="70.5502" filterUnits="userSpaceOnUse" color-interpolation-filters="sRGB">
<feFlood flood-opacity="0" result="BackgroundImageFix"/>
<feColorMatrix in="SourceAlpha" type="matrix" values="0 0 0 0 0 0 0 0 0 0 0 0 0 0 0 0 0 0 127 0" result="hardAlpha"/>
<feOffset dy="2.61298"/>
<feGaussianBlur stdDeviation="1.30649"/>
<feComposite in2="hardAlpha" operator="out"/>
<feColorMatrix type="matrix" values="0 0 0 0 0 0 0 0 0 0 0 0 0 0 0 0 0 0 0.25 0"/>
<feBlend mode="normal" in2="BackgroundImageFix" result="effect1_dropShadow_533_945"/>
<feBlend mode="normal" in="SourceGraphic" in2="effect1_dropShadow_533_945" result="shape"/>
</filter>
<filter id="filter2_d_533_945" x="133.063" y="0" width="70.5502" height="70.5502" filterUnits="userSpaceOnUse" color-interpolation-filters="sRGB">
<feFlood flood-opacity="0" result="BackgroundImageFix"/>
<feColorMatrix in="SourceAlpha" type="matrix" values="0 0 0 0 0 0 0 0 0 0 0 0 0 0 0 0 0 0 127 0" result="hardAlpha"/>
<feOffset dy="2.61298"/>
<feGaussianBlur stdDeviation="1.30649"/>
<feComposite in2="hardAlpha" operator="out"/>
<feColorMatrix type="matrix" values="0 0 0 0 0 0 0 0 0 0 0 0 0 0 0 0 0 0 0.25 0"/>
<feBlend mode="normal" in2="BackgroundImageFix" result="effect1_dropShadow_533_945"/>
<feBlend mode="normal" in="SourceGraphic" in2="effect1_dropShadow_533_945" result="shape"/>
</filter>
<clipPath id="clip0_533_945">
<rect width="32.5488" height="38.0942" fill="white" transform="translate(19.1875 13.7178)"/>
</clipPath>
<clipPath id="clip1_533_945">
<rect width="32.5488" height="36.7821" fill="white" transform="translate(85.5977 14.3701)"/>
</clipPath>
<clipPath id="clip2_533_945">
<rect width="32.5488" height="36.7821" fill="white" transform="translate(152.008 14.3701)"/>
</clipPath>
</defs>
</svg>
