<svg width="458" height="429" viewBox="0 0 458 429" fill="none" xmlns="http://www.w3.org/2000/svg">
<g clip-path="url(#clip0_533_1841)">
<rect width="458" height="429" rx="20" fill="white"/>
<line x1="65.5" y1="41.9658" x2="65.5" y2="399.034" stroke="black"/>
<path d="M434.283 276.916L23.999 272.657" stroke="black" stroke-width="0.771209"/>
<path d="M20 39C21.1046 39 22 37.6569 22 36C22 34.3431 21.1046 33 20 33C18.8954 33 18 34.3431 18 36C18 37.6569 18.8954 39 20 39Z" fill="black"/>
<path d="M20 396C21.1046 396 22 394.657 22 393C22 391.343 21.1046 390 20 390C18.8954 390 18 391.343 18 393C18 394.657 18.8954 396 20 396Z" fill="black"/>
<path d="M36.5 39C37.8807 39 39 37.6569 39 36C39 34.3431 37.8807 33 36.5 33C35.1193 33 34 34.3431 34 36C34 37.6569 35.1193 39 36.5 39Z" fill="black"/>
<path d="M36.5 396C37.8807 396 39 394.657 39 393C39 391.343 37.8807 390 36.5 390C35.1193 390 34 391.343 34 393C34 394.657 35.1193 396 36.5 396Z" fill="black"/>
<path d="M22 43C22 43 26.9868 58.2198 36 43.7751" stroke="black" stroke-width="0.799966" stroke-miterlimit="10" stroke-linecap="round"/>
<path d="M36 407C36 407 31.0132 391.78 22 406.225" stroke="black" stroke-width="0.799966" stroke-miterlimit="10" stroke-linecap="round"/>
<g opacity="0.24" clip-path="url(#clip1_533_1841)">
<path d="M515.249 237.297C529.625 237.297 529.625 213.081 544 213.081V384H-462.279V367.892C-446.706 367.892 -447.904 376.8 -433.528 376.8C-419.153 376.8 -419.153 351.503 -404.777 351.503C-390.402 351.503 -392.798 359.286 -376.026 359.286C-359.255 359.286 -364.047 373.859 -347.276 373.859C-330.504 373.859 -334.098 368.324 -318.525 368.324C-302.951 368.324 -305.946 341.946 -289.774 341.946C-273.602 341.946 -277.794 350.551 -261.023 350.551C-244.252 350.551 -247.247 362.4 -232.272 362.4C-217.298 362.4 -219.694 323.049 -203.522 323.049C-187.349 323.049 -189.146 336.67 -174.771 336.67C-160.395 336.67 -162.791 317.6 -146.02 317.6C-129.249 317.6 -132.842 329.795 -117.269 329.795C-101.696 329.795 -104.092 279.935 -88.5182 279.935C-72.9449 279.935 -75.9398 293.816 -59.7674 293.816C-43.5951 293.816 -47.7879 302.984 -31.0166 302.984C-14.2452 302.984 -18.4381 279.2 -2.26575 279.2C13.9066 279.2 9.71375 290.876 26.4851 290.876C43.2564 290.876 40.2615 271.632 55.2359 271.632C70.2103 271.632 68.4134 239.459 83.9868 239.459C99.5601 239.459 97.1642 293.297 112.738 293.297C128.311 293.297 126.514 255.589 141.488 255.589C156.463 255.589 153.468 272.108 170.239 272.108C187.011 272.108 183.417 286.941 198.99 286.941C214.563 286.941 212.766 262.378 227.741 262.378C242.715 262.378 241.517 285.73 256.492 285.73C271.466 285.73 269.669 275.351 285.243 275.351C300.816 275.351 298.42 253.946 313.993 253.946C329.567 253.946 327.171 262.508 342.744 262.508C358.318 262.508 357.12 231.243 371.495 231.243C385.87 231.243 383.475 274.097 400.246 274.097C417.017 274.097 412.824 244.995 428.997 244.995C445.169 244.995 442.773 256.973 457.748 256.973C472.722 256.973 471.524 227.135 486.498 227.135C501.473 227.135 500.874 237.297 515.249 237.297Z" fill="white"/>
</g>
<g clip-path="url(#clip2_533_1841)">
<path d="M544 213.081C529.625 213.081 529.625 237.297 515.249 237.297C500.874 237.297 501.473 227.135 486.498 227.135C471.524 227.135 472.722 256.973 457.748 256.973C442.773 256.973 445.169 244.995 428.997 244.995C412.824 244.995 417.017 274.097 400.246 274.097C383.475 274.097 385.87 231.243 371.495 231.243C357.12 231.243 358.318 262.508 342.744 262.508C327.171 262.508 329.567 253.946 313.993 253.946C298.42 253.946 300.816 275.351 285.243 275.351C269.669 275.351 271.466 285.73 256.492 285.73C241.517 285.73 242.715 262.378 227.741 262.378C212.766 262.378 214.563 286.941 198.99 286.941C183.417 286.941 187.011 272.108 170.239 272.108C153.468 272.108 156.463 255.589 141.488 255.589C126.514 255.589 128.311 293.297 112.738 293.297C97.1642 293.297 99.5601 239.459 83.9867 239.459C68.4134 239.459 70.2103 271.632 55.2359 271.632C40.2615 271.632 43.2564 290.876 26.4851 290.876C9.71377 290.876 13.9066 279.2 -2.26575 279.2C-18.4381 279.2 -14.2453 302.984 -31.0166 302.984C-47.7879 302.984 -43.5951 293.816 -59.7674 293.816C-75.9397 293.816 -72.9449 279.935 -88.5182 279.935C-104.092 279.935 -101.696 329.795 -117.269 329.795C-132.842 329.795 -129.249 317.6 -146.02 317.6C-162.791 317.6 -160.395 336.67 -174.771 336.67C-189.146 336.67 -187.349 323.049 -203.522 323.049C-219.694 323.049 -217.298 362.4 -232.272 362.4C-247.247 362.4 -244.252 350.551 -261.023 350.551C-277.795 350.551 -273.602 341.946 -289.774 341.946C-305.946 341.946 -302.951 368.324 -318.525 368.324C-334.098 368.324 -330.504 373.859 -347.276 373.859C-364.047 373.859 -359.255 359.286 -376.027 359.286C-392.798 359.286 -390.402 351.503 -404.777 351.503C-419.153 351.503 -419.153 376.8 -433.528 376.8C-447.904 376.8 -446.706 367.892 -462.279 367.892" stroke="#855CF8" stroke-width="1.19795"/>
</g>
<rect x="0.598976" y="-0.598976" width="10.7816" height="10.7816" rx="5.39078" transform="matrix(-1 0 0 1 377.485 226.195)" fill="#855CF8" stroke="white" stroke-width="1.19795"/>
<rect x="0.598976" y="-0.598976" width="10.7816" height="10.7816" rx="5.39078" transform="matrix(-1 0 0 1 348.733 257.996)" fill="#855CF8" stroke="white" stroke-width="1.19795"/>
<rect x="0.598976" y="-0.598976" width="10.7816" height="10.7816" rx="5.39078" transform="matrix(-1 0 0 1 319.983 249.597)" fill="#855CF8" stroke="white" stroke-width="1.19795"/>
<rect x="0.598976" y="-0.598976" width="10.7816" height="10.7816" rx="5.39078" transform="matrix(-1 0 0 1 291.233 270.596)" fill="#855CF8" stroke="white" stroke-width="1.19795"/>
<rect x="0.598976" y="-0.598976" width="10.7816" height="10.7816" rx="5.39078" transform="matrix(-1 0 0 1 233.731 257.396)" fill="#855CF8" stroke="white" stroke-width="1.19795"/>
<rect x="0.598976" y="-0.598976" width="10.7816" height="10.7816" rx="5.39078" transform="matrix(-1 0 0 1 204.979 281.996)" fill="#855CF8" stroke="white" stroke-width="1.19795"/>
<rect x="0.598976" y="-0.598976" width="10.7816" height="10.7816" rx="5.39078" transform="matrix(-1 0 0 1 176.229 267.596)" fill="#855CF8" stroke="white" stroke-width="1.19795"/>
<rect x="0.598976" y="-0.598976" width="10.7816" height="10.7816" rx="5.39078" transform="matrix(-1 0 0 1 147.477 250.796)" fill="#855CF8" stroke="white" stroke-width="1.19795"/>
<rect x="0.598976" y="-0.598976" width="10.7816" height="10.7816" rx="5.39078" transform="matrix(-1 0 0 1 118.727 288.596)" fill="#855CF8" stroke="white" stroke-width="1.19795"/>
<rect x="0.598976" y="-0.598976" width="10.7816" height="10.7816" rx="5.39078" transform="matrix(-1 0 0 1 262.481 281.396)" fill="#855CF8" stroke="white" stroke-width="1.19795"/>
<path d="M221.381 313.917V312.91L223.971 308.872H225.57V312.893H226.349V313.917H225.57V315H224.36V313.917H221.381ZM222.667 312.893H224.377V310.269H224.318L222.667 312.842V312.893ZM233.416 308.077V312.529H232.341V310.734H231.122V309.854H232.341V308.077H233.416ZM233.416 312.85V315.694H228.236V312.85H233.416ZM229.32 313.697V314.831H232.358V313.697H229.32ZM231.368 308.466V309.338H229.836C229.853 310.214 230.399 311.149 231.605 311.547L231.072 312.402C230.217 312.118 229.629 311.56 229.294 310.861C228.951 311.632 228.338 312.245 227.432 312.537L226.882 311.691C228.126 311.293 228.706 310.311 228.736 309.338H227.187V308.466H231.368Z" fill="white"/>
</g>
<defs>
<clipPath id="clip0_533_1841">
<rect width="458" height="429" rx="20" fill="white"/>
</clipPath>
<clipPath id="clip1_533_1841">
<rect width="479" height="170.919" fill="white" transform="matrix(-1 0 0 1 544 213.081)"/>
</clipPath>
<clipPath id="clip2_533_1841">
<rect width="479" height="171" fill="white" transform="matrix(-1 0 0 1 544 213)"/>
</clipPath>
</defs>
</svg>
