<svg width="207" height="72" viewBox="0 0 207 72" fill="none" xmlns="http://www.w3.org/2000/svg">
<g filter="url(#filter0_d_782_1829)">
<rect x="3.18359" width="66.2116" height="66.2116" rx="19.8635" fill="white"/>
<g clip-path="url(#clip0_782_1829)">
<path d="M40.8558 13.4238H32.1891C24.6612 13.4238 18.5586 19.5264 18.5586 27.0543V40.4726C18.5586 48.0005 24.6612 54.1031 32.1891 54.1031H40.8558C48.3837 54.1031 54.4863 48.0005 54.4863 40.4726V27.0543C54.4863 19.5264 48.3837 13.4238 40.8558 13.4238Z" fill="#CCC4EE" stroke="black" stroke-width="0.606068" stroke-miterlimit="10"/>
<path d="M24.5488 21.3094C24.5488 21.3094 35.1247 28.2246 48.5006 20.4912" stroke="#0C0C0C" stroke-width="0.606068" stroke-miterlimit="10" stroke-linecap="round"/>
<path d="M40.6252 32.4511C41.2779 32.4511 41.807 31.4906 41.807 30.3056C41.807 29.1207 41.2779 28.1602 40.6252 28.1602C39.9725 28.1602 39.4434 29.1207 39.4434 30.3056C39.4434 31.4906 39.9725 32.4511 40.6252 32.4511Z" fill="#FEFFF5" stroke="black" stroke-width="0.606068" stroke-miterlimit="10" stroke-linecap="round"/>
<path d="M32.3205 32.4511C32.9732 32.4511 33.5023 31.4906 33.5023 30.3056C33.5023 29.1207 32.9732 28.1602 32.3205 28.1602C31.6678 28.1602 31.1387 29.1207 31.1387 30.3056C31.1387 31.4906 31.6678 32.4511 32.3205 32.4511Z" fill="#FEFFF5" stroke="black" stroke-width="0.606068" stroke-miterlimit="10" stroke-linecap="round"/>
<path d="M43.8333 36.5273H30.3968C29.4495 36.5273 28.6816 37.2953 28.6816 38.2425V40.6365C28.6816 41.5837 29.4495 42.3517 30.3968 42.3517H43.8333C44.7806 42.3517 45.5485 41.5837 45.5485 40.6365V38.2425C45.5485 37.2953 44.7806 36.5273 43.8333 36.5273Z" fill="#FEFFF5" stroke="black" stroke-width="0.606068" stroke-miterlimit="10" stroke-linecap="round"/>
<path d="M49.4961 12.8438V19.0256" stroke="black" stroke-width="0.606068" stroke-miterlimit="10" stroke-linecap="round"/>
<path d="M50.9492 14.5596V20.8627" stroke="black" stroke-width="0.606068" stroke-miterlimit="10" stroke-linecap="round"/>
<path d="M51.9707 11.9531V20.6017" stroke="black" stroke-width="0.606068" stroke-miterlimit="10" stroke-linecap="round"/>
<path d="M26.3014 20.3779V16.8402H27.4968C27.7743 16.8402 28.0012 16.8903 28.1774 16.9905C28.3547 17.0896 28.486 17.2237 28.5712 17.393C28.6564 17.5623 28.6991 17.7511 28.6991 17.9596C28.6991 18.168 28.6564 18.3575 28.5712 18.5279C28.4872 18.6983 28.357 18.8342 28.1808 18.9356C28.0046 19.0357 27.7789 19.0858 27.5037 19.0858H26.6469V18.7058H27.4899C27.6799 18.7058 27.8325 18.673 27.9476 18.6074C28.0628 18.5417 28.1463 18.453 28.1981 18.3413C28.2511 18.2285 28.2776 18.1012 28.2776 17.9596C28.2776 17.8179 28.2511 17.6913 28.1981 17.5796C28.1463 17.4679 28.0622 17.3803 27.9459 17.317C27.8296 17.2525 27.6753 17.2203 27.483 17.2203H26.7298V20.3779H26.3014ZM30.1146 20.4401C29.9465 20.4401 29.7939 20.4084 29.6569 20.3451C29.5198 20.2806 29.411 20.1879 29.3304 20.067C29.2498 19.9449 29.2095 19.7975 29.2095 19.6248C29.2095 19.4728 29.2394 19.3496 29.2993 19.2551C29.3592 19.1595 29.4392 19.0847 29.5394 19.0306C29.6396 18.9764 29.7502 18.9361 29.8711 18.9097C29.9932 18.882 30.1158 18.8601 30.239 18.844C30.4002 18.8233 30.5309 18.8077 30.6311 18.7974C30.7325 18.7859 30.8062 18.7669 30.8522 18.7404C30.8995 18.7139 30.9231 18.6678 30.9231 18.6022V18.5884C30.9231 18.4179 30.8764 18.2855 30.7831 18.1911C30.691 18.0966 30.5511 18.0494 30.3634 18.0494C30.1688 18.0494 30.0162 18.092 29.9056 18.1772C29.7951 18.2625 29.7173 18.3534 29.6724 18.4502L29.2855 18.312C29.3546 18.1508 29.4467 18.0252 29.5619 17.9354C29.6782 17.8444 29.8049 17.7811 29.9419 17.7454C30.0801 17.7085 30.216 17.6901 30.3496 17.6901C30.4348 17.6901 30.5327 17.7005 30.6432 17.7212C30.7549 17.7408 30.8626 17.7817 30.9662 17.8439C31.071 17.906 31.158 17.9999 31.2271 18.1254C31.2962 18.2509 31.3307 18.4191 31.3307 18.6298V20.3779H30.9231V20.0186H30.9023C30.8747 20.0762 30.8286 20.1378 30.7641 20.2035C30.6997 20.2691 30.6139 20.325 30.5068 20.371C30.3997 20.4171 30.269 20.4401 30.1146 20.4401ZM30.1768 20.0739C30.3381 20.0739 30.4739 20.0422 30.5845 19.9789C30.6962 19.9156 30.7803 19.8338 30.8367 19.7336C30.8943 19.6334 30.9231 19.5281 30.9231 19.4175V19.0444C30.9058 19.0651 30.8678 19.0841 30.8091 19.1014C30.7515 19.1175 30.6847 19.1319 30.6087 19.1446C30.5338 19.1561 30.4607 19.1665 30.3893 19.1757C30.3191 19.1837 30.2621 19.1906 30.2183 19.1964C30.1123 19.2102 30.0133 19.2327 29.9212 19.2638C29.8302 19.2937 29.7565 19.3392 29.7001 19.4002C29.6448 19.4601 29.6172 19.5419 29.6172 19.6455C29.6172 19.7872 29.6696 19.8943 29.7744 19.9668C29.8803 20.0382 30.0145 20.0739 30.1768 20.0739ZM32.4825 18.7818V20.3779H32.0748V17.7247H32.4686V18.1392H32.5032C32.5654 18.0045 32.6598 17.8962 32.7865 17.8145C32.9132 17.7316 33.0767 17.6901 33.2771 17.6901C33.4567 17.6901 33.6139 17.727 33.7486 17.8007C33.8834 17.8732 33.9882 17.9838 34.063 18.1323C34.1379 18.2797 34.1753 18.4663 34.1753 18.692V20.3779H33.7676V18.7196C33.7676 18.5112 33.7135 18.3488 33.6053 18.2325C33.497 18.1151 33.3485 18.0563 33.1596 18.0563C33.0295 18.0563 32.9132 18.0845 32.8107 18.141C32.7093 18.1974 32.6293 18.2797 32.5706 18.388C32.5118 18.4962 32.4825 18.6275 32.4825 18.7818ZM34.9202 20.3779V17.7247H35.3279V20.3779H34.9202ZM35.1275 17.2825C35.0481 17.2825 34.9795 17.2554 34.922 17.2013C34.8655 17.1471 34.8373 17.0821 34.8373 17.0061C34.8373 16.9301 34.8655 16.865 34.922 16.8109C34.9795 16.7567 35.0481 16.7297 35.1275 16.7297C35.207 16.7297 35.2749 16.7567 35.3314 16.8109C35.3889 16.865 35.4177 16.9301 35.4177 17.0061C35.4177 17.0821 35.3889 17.1471 35.3314 17.2013C35.2749 17.2554 35.207 17.2825 35.1275 17.2825ZM37.1525 20.4332C36.9037 20.4332 36.6895 20.3745 36.5099 20.257C36.3302 20.1396 36.192 19.9778 36.0953 19.7716C35.9986 19.5655 35.9502 19.33 35.9502 19.0651C35.9502 18.7956 35.9997 18.5578 36.0987 18.3517C36.1989 18.1444 36.3383 17.9826 36.5168 17.8663C36.6964 17.7488 36.906 17.6901 37.1455 17.6901C37.3321 17.6901 37.5002 17.7247 37.6499 17.7938C37.7996 17.8629 37.9223 17.9596 38.0179 18.084C38.1135 18.2083 38.1728 18.3534 38.1958 18.5193H37.7881C37.757 18.3983 37.6879 18.2912 37.5808 18.198C37.4749 18.1035 37.3321 18.0563 37.1525 18.0563C36.9935 18.0563 36.8542 18.0978 36.7344 18.1807C36.6158 18.2625 36.5231 18.3782 36.4563 18.5279C36.3907 18.6765 36.3579 18.8509 36.3579 19.0513C36.3579 19.2563 36.3901 19.4348 36.4546 19.5868C36.5202 19.7388 36.6124 19.8568 36.731 19.9409C36.8507 20.025 36.9912 20.067 37.1525 20.067C37.2584 20.067 37.3546 20.0486 37.4409 20.0117C37.5273 19.9749 37.6004 19.9219 37.6603 19.8528C37.7202 19.7837 37.7628 19.7008 37.7881 19.6041H38.1958C38.1728 19.7607 38.1158 19.9017 38.0248 20.0273C37.935 20.1516 37.8158 20.2507 37.6672 20.3244C37.5198 20.3969 37.3482 20.4332 37.1525 20.4332ZM39.1718 19.4106L39.1649 18.9062H39.2478L40.4086 17.7247H40.913L39.6762 18.9753H39.6416L39.1718 19.4106ZM38.7917 20.3779V16.8402H39.1994V20.3779H38.7917ZM40.4777 20.3779L39.4412 19.0651L39.7314 18.7818L40.9959 20.3779H40.4777ZM42.4409 20.4332C42.1852 20.4332 41.9647 20.3768 41.7793 20.2639C41.595 20.1499 41.4528 19.991 41.3526 19.7872C41.2536 19.5822 41.204 19.3438 41.204 19.072C41.204 18.8002 41.2536 18.5607 41.3526 18.3534C41.4528 18.145 41.5921 17.9826 41.7706 17.8663C41.9503 17.7488 42.1599 17.6901 42.3994 17.6901C42.5376 17.6901 42.674 17.7131 42.8088 17.7592C42.9435 17.8053 43.0662 17.8801 43.1767 17.9838C43.2873 18.0863 43.3754 18.2222 43.441 18.3914C43.5066 18.5607 43.5395 18.7692 43.5395 19.0167V19.1895H41.4942V18.8371H43.1249C43.1249 18.6874 43.095 18.5538 43.0351 18.4363C42.9763 18.3189 42.8923 18.2262 42.7829 18.1582C42.6746 18.0903 42.5468 18.0563 42.3994 18.0563C42.237 18.0563 42.0965 18.0966 41.9779 18.1772C41.8604 18.2567 41.77 18.3603 41.7067 18.4882C41.6434 18.616 41.6117 18.753 41.6117 18.8993V19.1342C41.6117 19.3346 41.6463 19.5044 41.7153 19.6438C41.7856 19.782 41.8829 19.8874 42.0073 19.9599C42.1316 20.0313 42.2762 20.067 42.4409 20.067C42.5479 20.067 42.6447 20.052 42.7311 20.0221C42.8186 19.991 42.894 19.9449 42.9573 19.8839C43.0207 19.8217 43.0696 19.7446 43.1042 19.6524L43.498 19.763C43.4566 19.8966 43.3869 20.014 43.289 20.1154C43.1911 20.2156 43.0702 20.2939 42.9262 20.3503C42.7823 20.4056 42.6205 20.4332 42.4409 20.4332ZM45.1615 20.4332C44.9404 20.4332 44.7452 20.3774 44.5759 20.2656C44.4066 20.1528 44.2742 19.9939 44.1786 19.7889C44.083 19.5828 44.0352 19.3392 44.0352 19.0582C44.0352 18.7795 44.083 18.5377 44.1786 18.3327C44.2742 18.1277 44.4072 17.9694 44.5776 17.8577C44.7481 17.746 44.945 17.6901 45.1684 17.6901C45.3411 17.6901 45.4776 17.7189 45.5778 17.7765C45.6791 17.8329 45.7563 17.8974 45.8093 17.97C45.8634 18.0414 45.9054 18.1001 45.9354 18.1461H45.9699V16.8402H46.3776V20.3779H45.9837V19.9703H45.9354C45.9054 20.0186 45.8628 20.0797 45.8075 20.1534C45.7523 20.2259 45.6734 20.291 45.5709 20.3486C45.4684 20.405 45.3319 20.4332 45.1615 20.4332ZM45.2168 20.067C45.3803 20.067 45.5185 20.0244 45.6313 19.9392C45.7442 19.8528 45.83 19.7336 45.8887 19.5816C45.9474 19.4284 45.9768 19.2517 45.9768 19.0513C45.9768 18.8532 45.948 18.6799 45.8904 18.5314C45.8329 18.3816 45.7476 18.2653 45.6348 18.1824C45.5219 18.0984 45.3826 18.0563 45.2168 18.0563C45.044 18.0563 44.9001 18.1007 44.7849 18.1893C44.6709 18.2769 44.5851 18.396 44.5275 18.5469C44.4711 18.6966 44.4429 18.8647 44.4429 19.0513C44.4429 19.2402 44.4717 19.4117 44.5293 19.5661C44.588 19.7192 44.6744 19.8413 44.7884 19.9323C44.9035 20.0221 45.0463 20.067 45.2168 20.067Z" fill="black"/>
</g>
</g>
<g filter="url(#filter1_d_782_1829)">
<rect x="70.3945" width="66.2116" height="66.2116" rx="19.8635" fill="white"/>
<g clip-path="url(#clip1_782_1829)">
<path d="M107.903 12.6533H99.2359C91.708 12.6533 85.6055 18.7559 85.6055 26.2838V39.7021C85.6055 47.23 91.708 53.3326 99.2359 53.3326H107.903C115.431 53.3326 121.533 47.23 121.533 39.7021V26.2838C121.533 18.7559 115.431 12.6533 107.903 12.6533Z" fill="#FFEAEA" stroke="black" stroke-width="0.606068" stroke-miterlimit="10"/>
<path d="M91.5957 20.1873C91.5957 20.1873 102.172 27.1026 115.548 19.3691" stroke="#0C0C0C" stroke-width="0.606068" stroke-miterlimit="10" stroke-linecap="round"/>
<path d="M97.2295 16.8442C97.1915 16.7279 97.1415 16.6237 97.0793 16.5315C97.0182 16.4383 96.9451 16.3588 96.8599 16.2932C96.7758 16.2275 96.6802 16.1774 96.5731 16.1429C96.466 16.1083 96.3486 16.0911 96.2208 16.0911C96.0112 16.0911 95.8206 16.1452 95.649 16.2534C95.4774 16.3617 95.3409 16.5212 95.2396 16.7319C95.1383 16.9427 95.0876 17.2012 95.0876 17.5075C95.0876 17.8138 95.1388 18.0724 95.2413 18.2831C95.3438 18.4939 95.4826 18.6534 95.6576 18.7616C95.8327 18.8699 96.0296 18.924 96.2484 18.924C96.4511 18.924 96.6296 18.8808 96.7839 18.7944C96.9393 18.7069 97.0603 18.5837 97.1466 18.4248C97.2342 18.2647 97.2779 18.0764 97.2779 17.8599L97.4092 17.8875H96.3451V17.5075H97.6925V17.8875C97.6925 18.1789 97.6303 18.4323 97.5059 18.6476C97.3827 18.8629 97.2123 19.0299 96.9946 19.1485C96.7781 19.266 96.5294 19.3247 96.2484 19.3247C95.9352 19.3247 95.6599 19.251 95.4227 19.1036C95.1866 18.9562 95.0024 18.7466 94.8699 18.4749C94.7387 18.2031 94.673 17.8806 94.673 17.5075C94.673 17.2277 94.7104 16.9761 94.7853 16.7527C94.8613 16.5281 94.9684 16.3369 95.1066 16.1792C95.2448 16.0214 95.4083 15.9005 95.5972 15.8164C95.786 15.7323 95.9939 15.6903 96.2208 15.6903C96.4073 15.6903 96.5812 15.7185 96.7424 15.775C96.9048 15.8302 97.0493 15.9091 97.176 16.0116C97.3038 16.1129 97.4103 16.2344 97.4956 16.3761C97.5808 16.5166 97.6395 16.6726 97.6718 16.8442H97.2295ZM98.3709 19.2764V16.6231H98.7648V17.0239H98.7924C98.8408 16.8926 98.9283 16.7861 99.055 16.7043C99.1816 16.6225 99.3244 16.5816 99.4834 16.5816C99.5133 16.5816 99.5507 16.5822 99.5956 16.5834C99.6405 16.5845 99.6745 16.5862 99.6976 16.5886V17.0031C99.6837 16.9997 99.6521 16.9945 99.6025 16.9876C99.5542 16.9795 99.5029 16.9755 99.4488 16.9755C99.3198 16.9755 99.2047 17.0025 99.1033 17.0567C99.0031 17.1096 98.9237 17.1833 98.865 17.2778C98.8074 17.3711 98.7786 17.4776 98.7786 17.5973V19.2764H98.3709ZM100.962 19.3386C100.793 19.3386 100.641 19.3069 100.504 19.2435C100.367 19.1791 100.258 19.0864 100.177 18.9654C100.097 18.8434 100.056 18.696 100.056 18.5232C100.056 18.3712 100.086 18.248 100.146 18.1536C100.206 18.058 100.286 17.9831 100.386 17.929C100.487 17.8749 100.597 17.8346 100.718 17.8081C100.84 17.7804 100.963 17.7586 101.086 17.7424C101.247 17.7217 101.378 17.7062 101.478 17.6958C101.579 17.6843 101.653 17.6653 101.699 17.6388C101.746 17.6123 101.77 17.5663 101.77 17.5006V17.4868C101.77 17.3164 101.723 17.1839 101.63 17.0895C101.538 16.9951 101.398 16.9478 101.21 16.9478C101.016 16.9478 100.863 16.9905 100.753 17.0757C100.642 17.1609 100.564 17.2519 100.519 17.3486L100.132 17.2104C100.202 17.0492 100.294 16.9237 100.409 16.8338C100.525 16.7429 100.652 16.6795 100.789 16.6438C100.927 16.607 101.063 16.5886 101.196 16.5886C101.282 16.5886 101.38 16.5989 101.49 16.6196C101.602 16.6392 101.71 16.6801 101.813 16.7423C101.918 16.8045 102.005 16.8983 102.074 17.0239C102.143 17.1494 102.178 17.3175 102.178 17.5283V19.2764H101.77V18.9171H101.749C101.722 18.9747 101.676 19.0363 101.611 19.1019C101.547 19.1675 101.461 19.2234 101.354 19.2695C101.247 19.3155 101.116 19.3386 100.962 19.3386ZM101.024 18.9723C101.185 18.9723 101.321 18.9407 101.431 18.8773C101.543 18.814 101.627 18.7322 101.684 18.6321C101.741 18.5319 101.77 18.4265 101.77 18.3159V17.9428C101.753 17.9636 101.715 17.9826 101.656 17.9998C101.598 18.016 101.532 18.0303 101.456 18.043C101.381 18.0545 101.308 18.0649 101.236 18.0741C101.166 18.0822 101.109 18.0891 101.065 18.0948C100.959 18.1087 100.86 18.1311 100.768 18.1622C100.677 18.1921 100.603 18.2376 100.547 18.2987C100.492 18.3585 100.464 18.4403 100.464 18.544C100.464 18.6856 100.516 18.7927 100.621 18.8652C100.727 18.9366 100.861 18.9723 101.024 18.9723ZM104.076 16.6231V16.9686H102.701V16.6231H104.076ZM103.101 15.9874H103.509V18.5163C103.509 18.6315 103.526 18.7178 103.559 18.7754C103.594 18.8319 103.637 18.8699 103.69 18.8894C103.745 18.9079 103.802 18.9171 103.861 18.9171C103.906 18.9171 103.943 18.9148 103.972 18.9102C104.001 18.9044 104.024 18.8998 104.041 18.8963L104.124 19.2625C104.096 19.2729 104.058 19.2833 104.008 19.2936C103.959 19.3052 103.896 19.3109 103.82 19.3109C103.705 19.3109 103.592 19.2862 103.481 19.2366C103.372 19.1871 103.281 19.1117 103.208 19.0103C103.137 18.909 103.101 18.7812 103.101 18.6269V15.9874ZM105.773 19.3316C105.517 19.3316 105.297 19.2752 105.111 19.1624C104.927 19.0484 104.785 18.8894 104.685 18.6856C104.585 18.4806 104.536 18.2422 104.536 17.9705C104.536 17.6987 104.585 17.4592 104.685 17.2519C104.785 17.0434 104.924 16.8811 105.103 16.7647C105.282 16.6473 105.492 16.5886 105.731 16.5886C105.87 16.5886 106.006 16.6116 106.141 16.6576C106.275 16.7037 106.398 16.7786 106.509 16.8822C106.619 16.9847 106.707 17.1206 106.773 17.2899C106.839 17.4592 106.871 17.6676 106.871 17.9152V18.0879H104.826V17.7355H106.457C106.457 17.5858 106.427 17.4522 106.367 17.3348C106.308 17.2173 106.224 17.1246 106.115 17.0567C106.007 16.9887 105.879 16.9548 105.731 16.9548C105.569 16.9548 105.428 16.9951 105.31 17.0757C105.192 17.1551 105.102 17.2588 105.039 17.3866C104.975 17.5144 104.944 17.6515 104.944 17.7977V18.0326C104.944 18.233 104.978 18.4029 105.047 18.5422C105.118 18.6804 105.215 18.7858 105.339 18.8583C105.464 18.9297 105.608 18.9654 105.773 18.9654C105.88 18.9654 105.977 18.9505 106.063 18.9205C106.15 18.8894 106.226 18.8434 106.289 18.7823C106.353 18.7201 106.402 18.643 106.436 18.5509L106.83 18.6614C106.788 18.795 106.719 18.9125 106.621 19.0138C106.523 19.114 106.402 19.1923 106.258 19.2487C106.114 19.304 105.952 19.3316 105.773 19.3316ZM108.673 16.6231V16.9686H107.243V16.6231H108.673ZM107.671 19.2764V16.2569C107.671 16.1049 107.707 15.9782 107.778 15.8769C107.85 15.7755 107.942 15.6995 108.056 15.6489C108.17 15.5982 108.291 15.5728 108.417 15.5728C108.518 15.5728 108.599 15.5809 108.663 15.597C108.726 15.6132 108.773 15.6281 108.804 15.6419L108.687 15.9943C108.666 15.9874 108.637 15.9788 108.601 15.9684C108.565 15.9581 108.518 15.9529 108.459 15.9529C108.324 15.9529 108.227 15.9868 108.167 16.0548C108.108 16.1227 108.079 16.2223 108.079 16.3536V19.2764H107.671ZM110.917 18.1916V16.6231H111.324V19.2764H110.917V18.8272H110.889C110.827 18.962 110.73 19.0766 110.599 19.171C110.467 19.2643 110.302 19.3109 110.101 19.3109C109.935 19.3109 109.788 19.2746 109.659 19.2021C109.53 19.1284 109.429 19.0178 109.355 18.8704C109.281 18.7219 109.244 18.5347 109.244 18.309V16.6231H109.652V18.2814C109.652 18.4749 109.706 18.6292 109.814 18.7443C109.924 18.8595 110.063 18.9171 110.232 18.9171C110.334 18.9171 110.437 18.8912 110.542 18.8393C110.648 18.7875 110.736 18.7081 110.808 18.601C110.88 18.4939 110.917 18.3574 110.917 18.1916ZM112.478 15.7387V19.2764H112.071V15.7387H112.478Z" fill="black"/>
<path d="M98.1133 36.4854C98.1133 36.4854 101.436 47.3229 109.139 36.6644" stroke="black" stroke-width="0.606068" stroke-miterlimit="10" stroke-linecap="round"/>
<path d="M106.676 32.6361C107.558 32.6361 108.273 31.6116 108.273 30.3478C108.273 29.0841 107.558 28.0596 106.676 28.0596C105.795 28.0596 105.08 29.0841 105.08 30.3478C105.08 31.6116 105.795 32.6361 106.676 32.6361Z" fill="black"/>
<path d="M99.5436 32.9603C100.425 32.9603 101.14 31.9358 101.14 30.6721C101.14 29.4083 100.425 28.3838 99.5436 28.3838C98.662 28.3838 97.9473 29.4083 97.9473 30.6721C97.9473 31.9358 98.662 32.9603 99.5436 32.9603Z" fill="black"/>
<path d="M101.054 42.6452C99.5692 44.1659 101.657 45.6322 103.045 46.1301C103.226 46.1978 103.679 46.3111 103.724 46.3111C103.76 46.3111 104.252 45.949 104.493 45.768C105.368 45.1193 106.81 43.4327 105.579 41.8758C104.041 39.9298 103.226 44.1387 103.226 43.4599C103.226 42.781 102.909 40.7444 101.054 42.6452Z" fill="#FD4B4B" stroke="black" stroke-width="0.362061"/>
</g>
<path d="M102.04 44.6187C99.799 48.8635 90.5352 48.4931 86.1834 47.7773C86.5177 47.46 87.198 46.8431 87.2443 46.9141" stroke="black" stroke-width="0.598347" stroke-linecap="round" stroke-linejoin="round"/>
<path d="M104.434 44.5632C107.603 49.6788 117.418 47.7004 121.929 46.0718C121.514 45.7164 120.675 45.0305 120.639 45.1296" stroke="black" stroke-width="0.64853" stroke-linecap="round" stroke-linejoin="round"/>
</g>
<g filter="url(#filter2_d_782_1829)">
<rect x="137.607" width="66.2116" height="66.2116" rx="19.8635" fill="white"/>
<g clip-path="url(#clip2_782_1829)">
<path d="M174.95 12.6377H166.283C158.755 12.6377 152.652 18.7403 152.652 26.2682V39.6865C152.652 47.2144 158.755 53.317 166.283 53.317H174.95C182.477 53.317 188.58 47.2144 188.58 39.6865V26.2682C188.58 18.7403 182.477 12.6377 174.95 12.6377Z" fill="#D9FFD8" stroke="black" stroke-width="0.606068" stroke-miterlimit="10"/>
<path d="M158.645 21.1649C158.645 21.1649 169.22 28.0801 182.596 20.3467" stroke="#0C0C0C" stroke-width="0.606068" stroke-miterlimit="10" stroke-linecap="round"/>
<path d="M182.466 35.2734H158.029C157.41 35.2734 156.908 35.7754 156.908 36.3947V47.1524C156.908 47.7716 157.41 48.2736 158.029 48.2736H182.466C183.085 48.2736 183.587 47.7716 183.587 47.1524V36.3947C183.587 35.7754 183.085 35.2734 182.466 35.2734Z" fill="#FCFCFC" stroke="black" stroke-width="0.303034" stroke-miterlimit="10" stroke-linecap="round"/>
<path d="M156.908 40.2351L158.987 40.0957" stroke="black" stroke-width="0.303034" stroke-miterlimit="10" stroke-linecap="round"/>
<path d="M157.059 43.0276L158.61 42.7852" stroke="black" stroke-width="0.303034" stroke-miterlimit="10" stroke-linecap="round"/>
<path d="M183.595 40.0994L180.504 39.96" stroke="black" stroke-width="0.303034" stroke-miterlimit="10" stroke-linecap="round"/>
<path d="M183.366 42.2686L181.336 42.4746" stroke="black" stroke-width="0.303034" stroke-miterlimit="10" stroke-linecap="round"/>
<path d="M183.592 41.2665L188.422 35.8301" stroke="black" stroke-width="0.303034" stroke-miterlimit="10" stroke-linecap="round"/>
<path d="M156.907 41.8416L152.652 36.8779" stroke="black" stroke-width="0.303034" stroke-miterlimit="10" stroke-linecap="round"/>
<path d="M175.332 28.9404L179.362 33.4435" stroke="black" stroke-width="0.606068" stroke-miterlimit="10" stroke-linecap="round"/>
<path d="M174.957 33.4457L179.6 29.1426" stroke="black" stroke-width="0.606068" stroke-miterlimit="10" stroke-linecap="round"/>
<path d="M160.814 29.1426L164.839 33.6457" stroke="black" stroke-width="0.606068" stroke-miterlimit="10" stroke-linecap="round"/>
<path d="M160.439 33.6439L165.082 29.3408" stroke="black" stroke-width="0.606068" stroke-miterlimit="10" stroke-linecap="round"/>
<path d="M158.94 19.7656V16.2279H161.075V16.608H159.369V17.8033H160.965V18.1833H159.369V19.3856H161.103V19.7656H158.94ZM162.096 17.1124L162.732 18.1972L163.367 17.1124H163.837L162.98 18.439L163.837 19.7656H163.367L162.732 18.7361L162.096 19.7656H161.626L162.469 18.439L161.626 17.1124H162.096ZM164.827 18.1695V19.7656H164.419V16.2279H164.827V17.5269H164.861C164.923 17.3899 165.017 17.2811 165.141 17.2005C165.267 17.1187 165.434 17.0778 165.642 17.0778C165.823 17.0778 165.981 17.1141 166.117 17.1866C166.253 17.258 166.358 17.368 166.433 17.5166C166.509 17.664 166.547 17.8517 166.547 18.0797V19.7656H166.139V18.1073C166.139 17.8966 166.085 17.7336 165.975 17.6185C165.867 17.5022 165.717 17.444 165.524 17.444C165.391 17.444 165.271 17.4722 165.165 17.5287C165.06 17.5851 164.977 17.6674 164.916 17.7757C164.857 17.8839 164.827 18.0152 164.827 18.1695ZM168.074 19.8278C167.906 19.8278 167.753 19.7961 167.616 19.7328C167.479 19.6683 167.37 19.5756 167.289 19.4547C167.209 19.3326 167.169 19.1852 167.169 19.0125C167.169 18.8605 167.198 18.7373 167.258 18.6428C167.318 18.5472 167.398 18.4724 167.498 18.4183C167.599 18.3641 167.709 18.3238 167.83 18.2973C167.952 18.2697 168.075 18.2478 168.198 18.2317C168.359 18.211 168.49 18.1954 168.59 18.1851C168.692 18.1735 168.765 18.1545 168.811 18.1281C168.858 18.1016 168.882 18.0555 168.882 17.9899V17.9761C168.882 17.8056 168.835 17.6732 168.742 17.5788C168.65 17.4843 168.51 17.4371 168.322 17.4371C168.128 17.4371 167.975 17.4797 167.865 17.5649C167.754 17.6502 167.676 17.7411 167.631 17.8379L167.245 17.6997C167.314 17.5384 167.406 17.4129 167.521 17.3231C167.637 17.2321 167.764 17.1688 167.901 17.1331C168.039 17.0962 168.175 17.0778 168.309 17.0778C168.394 17.0778 168.492 17.0882 168.602 17.1089C168.714 17.1285 168.822 17.1694 168.925 17.2315C169.03 17.2937 169.117 17.3876 169.186 17.5131C169.255 17.6386 169.29 17.8068 169.29 18.0175V19.7656H168.882V19.4063H168.861C168.834 19.4639 168.788 19.5255 168.723 19.5912C168.659 19.6568 168.573 19.7127 168.466 19.7587C168.359 19.8048 168.228 19.8278 168.074 19.8278ZM168.136 19.4616C168.297 19.4616 168.433 19.4299 168.544 19.3666C168.655 19.3033 168.739 19.2215 168.796 19.1213C168.853 19.0211 168.882 18.9158 168.882 18.8052V18.4321C168.865 18.4528 168.827 18.4718 168.768 18.4891C168.711 18.5052 168.644 18.5196 168.568 18.5323C168.493 18.5438 168.42 18.5542 168.348 18.5634C168.278 18.5714 168.221 18.5783 168.177 18.5841C168.071 18.5979 167.972 18.6204 167.88 18.6515C167.789 18.6814 167.716 18.7269 167.659 18.7879C167.604 18.8478 167.576 18.9296 167.576 19.0332C167.576 19.1749 167.629 19.282 167.733 19.3545C167.839 19.4259 167.973 19.4616 168.136 19.4616ZM171.706 18.6808V17.1124H172.114V19.7656H171.706V19.3165H171.678C171.616 19.4512 171.519 19.5658 171.388 19.6603C171.257 19.7535 171.091 19.8002 170.891 19.8002C170.725 19.8002 170.577 19.7639 170.448 19.6913C170.319 19.6176 170.218 19.5071 170.144 19.3597C170.071 19.2111 170.034 19.024 170.034 18.7983V17.1124H170.441V18.7706C170.441 18.9641 170.496 19.1184 170.604 19.2336C170.713 19.3487 170.853 19.4063 171.022 19.4063C171.123 19.4063 171.226 19.3804 171.331 19.3286C171.437 19.2768 171.526 19.1973 171.597 19.0902C171.67 18.9831 171.706 18.8467 171.706 18.6808ZM174.74 17.7066L174.373 17.8102C174.35 17.7492 174.316 17.6899 174.272 17.6323C174.228 17.5736 174.168 17.5252 174.092 17.4872C174.016 17.4492 173.919 17.4302 173.8 17.4302C173.638 17.4302 173.502 17.4676 173.394 17.5425C173.287 17.6162 173.233 17.71 173.233 17.824C173.233 17.9254 173.27 18.0054 173.344 18.0641C173.418 18.1229 173.533 18.1718 173.689 18.211L174.083 18.3077C174.32 18.3653 174.497 18.4534 174.614 18.572C174.73 18.6895 174.788 18.8409 174.788 19.0263C174.788 19.1783 174.744 19.3142 174.657 19.434C174.57 19.5537 174.449 19.6482 174.294 19.7173C174.139 19.7864 173.958 19.8209 173.752 19.8209C173.481 19.8209 173.257 19.7622 173.08 19.6447C172.902 19.5272 172.79 19.3557 172.743 19.1299L173.13 19.0332C173.167 19.176 173.236 19.2831 173.339 19.3545C173.442 19.4259 173.578 19.4616 173.745 19.4616C173.935 19.4616 174.086 19.4213 174.197 19.3407C174.31 19.2589 174.367 19.161 174.367 19.047C174.367 18.9549 174.334 18.8777 174.27 18.8156C174.205 18.7522 174.106 18.705 173.973 18.6739L173.53 18.5703C173.288 18.5127 173.109 18.4234 172.995 18.3025C172.882 18.1805 172.826 18.0279 172.826 17.8448C172.826 17.6951 172.868 17.5626 172.952 17.4475C173.037 17.3323 173.153 17.2419 173.299 17.1763C173.446 17.1106 173.613 17.0778 173.8 17.0778C174.063 17.0778 174.269 17.1354 174.418 17.2505C174.569 17.3657 174.676 17.5177 174.74 17.7066ZM176.556 17.1124V17.4578H175.181V17.1124H176.556ZM175.581 16.4767H175.989V19.0056C175.989 19.1207 176.006 19.2071 176.039 19.2647C176.074 19.3211 176.117 19.3591 176.17 19.3787C176.224 19.3971 176.281 19.4063 176.341 19.4063C176.386 19.4063 176.423 19.404 176.452 19.3994C176.481 19.3937 176.504 19.3891 176.521 19.3856L176.604 19.7518C176.576 19.7622 176.538 19.7725 176.488 19.7829C176.439 19.7944 176.376 19.8002 176.3 19.8002C176.185 19.8002 176.072 19.7754 175.961 19.7259C175.852 19.6764 175.761 19.6009 175.688 19.4996C175.617 19.3983 175.581 19.2704 175.581 19.1161V16.4767ZM178.253 19.8209C177.997 19.8209 177.777 19.7645 177.591 19.6516C177.407 19.5376 177.265 19.3787 177.164 19.1749C177.065 18.9699 177.016 18.7315 177.016 18.4597C177.016 18.1879 177.065 17.9484 177.164 17.7411C177.265 17.5327 177.404 17.3703 177.583 17.254C177.762 17.1365 177.972 17.0778 178.211 17.0778C178.349 17.0778 178.486 17.1008 178.621 17.1469C178.755 17.193 178.878 17.2678 178.989 17.3715C179.099 17.474 179.187 17.6098 179.253 17.7791C179.319 17.9484 179.351 18.1569 179.351 18.4044V18.5772H177.306V18.2248H178.937C178.937 18.0751 178.907 17.9415 178.847 17.824C178.788 17.7066 178.704 17.6139 178.595 17.5459C178.487 17.478 178.359 17.444 178.211 17.444C178.049 17.444 177.908 17.4843 177.79 17.5649C177.672 17.6444 177.582 17.748 177.519 17.8759C177.455 18.0037 177.424 18.1407 177.424 18.287V18.5219C177.424 18.7223 177.458 18.8921 177.527 19.0315C177.597 19.1697 177.695 19.275 177.819 19.3476C177.944 19.419 178.088 19.4547 178.253 19.4547C178.36 19.4547 178.457 19.4397 178.543 19.4098C178.63 19.3787 178.706 19.3326 178.769 19.2716C178.833 19.2094 178.882 19.1322 178.916 19.0401L179.31 19.1507C179.268 19.2843 179.199 19.4017 179.101 19.5031C179.003 19.6033 178.882 19.6816 178.738 19.738C178.594 19.7933 178.432 19.8209 178.253 19.8209ZM180.973 19.8209C180.752 19.8209 180.557 19.765 180.388 19.6533C180.219 19.5405 180.086 19.3816 179.99 19.1766C179.895 18.9705 179.847 18.7269 179.847 18.4459C179.847 18.1672 179.895 17.9254 179.99 17.7204C180.086 17.5154 180.219 17.3571 180.39 17.2454C180.56 17.1337 180.757 17.0778 180.98 17.0778C181.153 17.0778 181.289 17.1066 181.39 17.1642C181.491 17.2206 181.568 17.2851 181.621 17.3576C181.675 17.429 181.717 17.4878 181.747 17.5338H181.782V16.2279H182.189V19.7656H181.796V19.358H181.747C181.717 19.4063 181.675 19.4674 181.619 19.5411C181.564 19.6136 181.485 19.6787 181.383 19.7363C181.28 19.7927 181.144 19.8209 180.973 19.8209ZM181.029 19.4547C181.192 19.4547 181.33 19.4121 181.443 19.3269C181.556 19.2405 181.642 19.1213 181.701 18.9693C181.759 18.8161 181.789 18.6394 181.789 18.439C181.789 18.2409 181.76 18.0676 181.702 17.919C181.645 17.7693 181.56 17.653 181.447 17.5701C181.334 17.486 181.194 17.444 181.029 17.444C180.856 17.444 180.712 17.4884 180.597 17.577C180.483 17.6645 180.397 17.7837 180.339 17.9346C180.283 18.0843 180.255 18.2524 180.255 18.439C180.255 18.6279 180.284 18.7994 180.341 18.9538C180.4 19.1069 180.486 19.229 180.6 19.32C180.715 19.4098 180.858 19.4547 181.029 19.4547Z" fill="black"/>
</g>
</g>
<defs>
<filter id="filter0_d_782_1829" x="0.535131" y="0" width="71.5079" height="71.5088" filterUnits="userSpaceOnUse" color-interpolation-filters="sRGB">
<feFlood flood-opacity="0" result="BackgroundImageFix"/>
<feColorMatrix in="SourceAlpha" type="matrix" values="0 0 0 0 0 0 0 0 0 0 0 0 0 0 0 0 0 0 127 0" result="hardAlpha"/>
<feOffset dy="2.64846"/>
<feGaussianBlur stdDeviation="1.32423"/>
<feComposite in2="hardAlpha" operator="out"/>
<feColorMatrix type="matrix" values="0 0 0 0 0 0 0 0 0 0 0 0 0 0 0 0 0 0 0.25 0"/>
<feBlend mode="normal" in2="BackgroundImageFix" result="effect1_dropShadow_782_1829"/>
<feBlend mode="normal" in="SourceGraphic" in2="effect1_dropShadow_782_1829" result="shape"/>
</filter>
<filter id="filter1_d_782_1829" x="67.7461" y="0" width="71.5079" height="71.5088" filterUnits="userSpaceOnUse" color-interpolation-filters="sRGB">
<feFlood flood-opacity="0" result="BackgroundImageFix"/>
<feColorMatrix in="SourceAlpha" type="matrix" values="0 0 0 0 0 0 0 0 0 0 0 0 0 0 0 0 0 0 127 0" result="hardAlpha"/>
<feOffset dy="2.64846"/>
<feGaussianBlur stdDeviation="1.32423"/>
<feComposite in2="hardAlpha" operator="out"/>
<feColorMatrix type="matrix" values="0 0 0 0 0 0 0 0 0 0 0 0 0 0 0 0 0 0 0.25 0"/>
<feBlend mode="normal" in2="BackgroundImageFix" result="effect1_dropShadow_782_1829"/>
<feBlend mode="normal" in="SourceGraphic" in2="effect1_dropShadow_782_1829" result="shape"/>
</filter>
<filter id="filter2_d_782_1829" x="134.959" y="0" width="71.5079" height="71.5088" filterUnits="userSpaceOnUse" color-interpolation-filters="sRGB">
<feFlood flood-opacity="0" result="BackgroundImageFix"/>
<feColorMatrix in="SourceAlpha" type="matrix" values="0 0 0 0 0 0 0 0 0 0 0 0 0 0 0 0 0 0 127 0" result="hardAlpha"/>
<feOffset dy="2.64846"/>
<feGaussianBlur stdDeviation="1.32423"/>
<feComposite in2="hardAlpha" operator="out"/>
<feColorMatrix type="matrix" values="0 0 0 0 0 0 0 0 0 0 0 0 0 0 0 0 0 0 0.25 0"/>
<feBlend mode="normal" in2="BackgroundImageFix" result="effect1_dropShadow_782_1829"/>
<feBlend mode="normal" in="SourceGraphic" in2="effect1_dropShadow_782_1829" result="shape"/>
</filter>
<clipPath id="clip0_782_1829">
<rect width="36.5338" height="42.7581" fill="white" transform="translate(18.2578 11.6475)"/>
</clipPath>
<clipPath id="clip1_782_1829">
<rect width="36.5338" height="41.2853" fill="white" transform="translate(85.3027 12.333)"/>
</clipPath>
<clipPath id="clip2_782_1829">
<rect width="36.5338" height="41.2853" fill="white" transform="translate(152.352 12.333)"/>
</clipPath>
</defs>
</svg>
