<svg width="204" height="72" viewBox="0 0 204 72" fill="none" xmlns="http://www.w3.org/2000/svg">
<g filter="url(#filter0_d_533_1244)">
<rect x="3" y="0.882812" width="65.3244" height="65.3244" rx="19.5973" fill="white"/>
<g clip-path="url(#clip0_533_1244)">
<path d="M39.4943 15.5254H31.7614C25.0446 15.5254 19.5996 20.9704 19.5996 27.6871V39.6596C19.5996 46.3764 25.0446 51.8214 31.7614 51.8214H39.4943C46.211 51.8214 51.656 46.3764 51.656 39.6596V27.6871C51.656 20.9704 46.211 15.5254 39.4943 15.5254Z" fill="#FFABAB" stroke="black" stroke-width="0.540763" stroke-miterlimit="10"/>
<path d="M24.6758 22.9174C24.6758 22.9174 34.0981 29.0784 46.015 22.1885" stroke="#0C0C0C" stroke-width="0.53996" stroke-miterlimit="10" stroke-linecap="round"/>
<path d="M32.6078 32.0559C32.6078 32.0559 31.5603 31.5537 30.5938 28.6865" stroke="black" stroke-width="0.53996" stroke-miterlimit="10" stroke-linecap="round"/>
<path d="M35.7402 31.9593C35.7402 31.9593 36.048 30.2585 39.5685 27.8232" stroke="black" stroke-width="0.53996" stroke-miterlimit="10" stroke-linecap="round"/>
<path d="M37.6837 34.0207C38.1012 34.0207 38.4396 33.6388 38.4396 33.1676C38.4396 32.6964 38.1012 32.3145 37.6837 32.3145C37.2662 32.3145 36.9277 32.6964 36.9277 33.1676C36.9277 33.6388 37.2662 34.0207 37.6837 34.0207Z" fill="black"/>
<path d="M31.3556 34.341C31.773 34.341 32.1115 33.9591 32.1115 33.4879C32.1115 33.0167 31.773 32.6348 31.3556 32.6348C30.9381 32.6348 30.5996 33.0167 30.5996 33.4879C30.5996 33.9591 30.9381 34.341 31.3556 34.341Z" fill="black"/>
<path d="M30.0215 42.057C30.0215 42.057 35.4427 38.1963 42.338 37.5537" stroke="black" stroke-width="0.53996" stroke-miterlimit="10" stroke-linecap="round"/>
<path d="M29.8098 22H29.4096L30.5669 18.8482H30.9609L32.1182 22H31.7181L30.7762 19.3468H30.7516L29.8098 22ZM29.9575 20.7688H31.5703V21.1074H29.9575V20.7688ZM32.9231 20.578V22H32.5599V19.6361H32.9108V20.0055H32.9416C32.997 19.8855 33.0811 19.789 33.194 19.7162C33.3068 19.6423 33.4525 19.6054 33.631 19.6054C33.7911 19.6054 33.9311 19.6382 34.0512 19.7039C34.1712 19.7685 34.2646 19.867 34.3313 19.9993C34.3979 20.1307 34.4313 20.2969 34.4313 20.498V22H34.0681V20.5226C34.0681 20.3369 34.0199 20.1922 33.9234 20.0886C33.827 19.984 33.6946 19.9316 33.5264 19.9316C33.4104 19.9316 33.3068 19.9568 33.2155 20.007C33.1252 20.0573 33.0539 20.1307 33.0016 20.2271C32.9493 20.3235 32.9231 20.4405 32.9231 20.578ZM36.0491 22.9357C35.8737 22.9357 35.7229 22.9131 35.5967 22.868C35.4705 22.8239 35.3653 22.7654 35.2812 22.6925C35.1981 22.6207 35.1319 22.5438 35.0827 22.4617L35.372 22.2585C35.4048 22.3016 35.4464 22.3509 35.4966 22.4063C35.5469 22.4627 35.6157 22.5115 35.7029 22.5525C35.7911 22.5946 35.9065 22.6156 36.0491 22.6156C36.24 22.6156 36.3975 22.5694 36.5216 22.4771C36.6457 22.3847 36.7078 22.2401 36.7078 22.0431V21.5629H36.677C36.6504 21.606 36.6124 21.6594 36.5631 21.723C36.5149 21.7856 36.4452 21.8415 36.3538 21.8907C36.2636 21.939 36.1415 21.9631 35.9876 21.9631C35.7967 21.9631 35.6254 21.9179 35.4736 21.8276C35.3227 21.7373 35.2032 21.606 35.115 21.4337C35.0278 21.2613 34.9842 21.052 34.9842 20.8058C34.9842 20.5636 35.0267 20.3528 35.1119 20.1732C35.1971 19.9927 35.3156 19.8531 35.4674 19.7546C35.6192 19.6551 35.7947 19.6054 35.9937 19.6054C36.1476 19.6054 36.2697 19.631 36.36 19.6823C36.4513 19.7326 36.5211 19.79 36.5693 19.8547C36.6185 19.9183 36.6565 19.9706 36.6832 20.0117H36.7201V19.6361H37.071V22.0677C37.071 22.2709 37.0248 22.436 36.9325 22.5633C36.8412 22.6915 36.7181 22.7854 36.5631 22.8449C36.4093 22.9054 36.2379 22.9357 36.0491 22.9357ZM36.0368 21.6368C36.1825 21.6368 36.3056 21.6035 36.4062 21.5368C36.5067 21.4701 36.5832 21.3742 36.6355 21.249C36.6878 21.1238 36.714 20.974 36.714 20.7996C36.714 20.6293 36.6883 20.479 36.637 20.3487C36.5857 20.2184 36.5098 20.1163 36.4093 20.0424C36.3087 19.9686 36.1846 19.9316 36.0368 19.9316C35.8829 19.9316 35.7547 19.9706 35.6521 20.0486C35.5505 20.1266 35.4741 20.2312 35.4228 20.3625C35.3725 20.4939 35.3474 20.6396 35.3474 20.7996C35.3474 20.9638 35.373 21.1089 35.4243 21.2351C35.4766 21.3603 35.5536 21.4588 35.6552 21.5306C35.7578 21.6014 35.885 21.6368 36.0368 21.6368ZM37.7358 22V19.6361H38.0867V19.9932H38.1114C38.1544 19.8762 38.2324 19.7813 38.3453 19.7085C38.4581 19.6356 38.5854 19.5992 38.7269 19.5992C38.7536 19.5992 38.787 19.5997 38.827 19.6007C38.867 19.6018 38.8973 19.6033 38.9178 19.6054V19.9747C38.9055 19.9716 38.8772 19.967 38.8331 19.9609C38.79 19.9537 38.7444 19.9501 38.6962 19.9501C38.5812 19.9501 38.4787 19.9742 38.3884 20.0224C38.2991 20.0696 38.2283 20.1353 38.176 20.2194C38.1247 20.3025 38.099 20.3974 38.099 20.5041V22H37.7358ZM39.6542 22.8864C39.5926 22.8864 39.5377 22.8813 39.4895 22.8711C39.4413 22.8618 39.4079 22.8526 39.3895 22.8434L39.4818 22.5232C39.57 22.5458 39.648 22.554 39.7157 22.5479C39.7834 22.5417 39.8435 22.5115 39.8958 22.4571C39.9491 22.4037 39.9979 22.317 40.042 22.197L40.1097 22.0123L39.2356 19.6361H39.6295L40.2821 21.5198H40.3067L40.9592 19.6361H41.3532L40.3498 22.3447C40.3046 22.4668 40.2487 22.5679 40.182 22.6479C40.1153 22.729 40.0379 22.789 39.9496 22.828C39.8624 22.867 39.7639 22.8864 39.6542 22.8864Z" fill="black"/>
</g>
</g>
<g filter="url(#filter1_d_533_1244)">
<rect x="69.4102" y="0.882812" width="65.3244" height="65.3244" rx="19.5973" fill="white"/>
<g clip-path="url(#clip1_533_1244)">
<path d="M105.904 15.5254H98.1715C91.4548 15.5254 86.0098 20.9704 86.0098 27.6871V39.6596C86.0098 46.3764 91.4548 51.8214 98.1715 51.8214H105.904C112.621 51.8214 118.066 46.3764 118.066 39.6596V27.6871C118.066 20.9704 112.621 15.5254 105.904 15.5254Z" fill="#FFF4BA" stroke="black" stroke-width="0.540763" stroke-miterlimit="10"/>
<path d="M96.3265 33.2893C97.112 33.2893 97.7487 32.3765 97.7487 31.2506C97.7487 30.1247 97.112 29.2119 96.3265 29.2119C95.541 29.2119 94.9043 30.1247 94.9043 31.2506C94.9043 32.3765 95.541 33.2893 96.3265 33.2893Z" fill="black"/>
<path d="M106.836 33.2893C107.622 33.2893 108.258 32.3765 108.258 31.2506C108.258 30.1247 107.622 29.2119 106.836 29.2119C106.051 29.2119 105.414 30.1247 105.414 31.2506C105.414 32.3765 106.051 33.2893 106.836 33.2893Z" fill="black"/>
<path d="M97.4961 36.1279C97.4961 36.1279 100.557 46.3213 106.089 36.6471" stroke="black" stroke-width="0.540763" stroke-miterlimit="10" stroke-linecap="round"/>
<path d="M95.7996 22V18.8482H96.1813V20.2517H97.8619V18.8482H98.2435V22H97.8619V20.5903H96.1813V22H95.7996ZM99.654 22.0554C99.5042 22.0554 99.3682 22.0272 99.2462 21.9708C99.1241 21.9133 99.0271 21.8307 98.9553 21.723C98.8835 21.6142 98.8476 21.4829 98.8476 21.329C98.8476 21.1936 98.8742 21.0838 98.9276 20.9997C98.9809 20.9145 99.0522 20.8478 99.1415 20.7996C99.2308 20.7514 99.3293 20.7155 99.437 20.6919C99.5457 20.6673 99.655 20.6478 99.7648 20.6334C99.9084 20.6149 100.025 20.6011 100.114 20.5918C100.204 20.5816 100.27 20.5647 100.311 20.5411C100.353 20.5175 100.374 20.4764 100.374 20.4179V20.4056C100.374 20.2538 100.333 20.1358 100.25 20.0517C100.167 19.9675 100.043 19.9255 99.8756 19.9255C99.7022 19.9255 99.5663 19.9634 99.4678 20.0394C99.3693 20.1153 99.3 20.1963 99.26 20.2825L98.9153 20.1594C98.9768 20.0158 99.0589 19.9039 99.1615 19.8239C99.2651 19.7428 99.378 19.6864 99.5001 19.6546C99.6232 19.6218 99.7443 19.6054 99.8633 19.6054C99.9392 19.6054 100.026 19.6146 100.125 19.6331C100.224 19.6505 100.32 19.6869 100.413 19.7423C100.506 19.7977 100.584 19.8814 100.645 19.9932C100.707 20.105 100.737 20.2548 100.737 20.4426V22H100.374V21.6799H100.356C100.331 21.7312 100.29 21.7861 100.233 21.8446C100.175 21.903 100.099 21.9528 100.003 21.9938C99.9079 22.0349 99.7915 22.0554 99.654 22.0554ZM99.7094 21.7291C99.853 21.7291 99.9741 21.7009 100.073 21.6445C100.172 21.5881 100.247 21.5152 100.297 21.426C100.349 21.3367 100.374 21.2428 100.374 21.1443V20.8119C100.359 20.8304 100.325 20.8473 100.273 20.8627C100.221 20.8771 100.162 20.8899 100.094 20.9012C100.027 20.9114 99.9623 20.9207 99.8987 20.9289C99.8361 20.9361 99.7853 20.9422 99.7463 20.9473C99.6519 20.9597 99.5637 20.9797 99.4816 21.0074C99.4006 21.034 99.3349 21.0746 99.2846 21.1289C99.2354 21.1823 99.2108 21.2551 99.2108 21.3475C99.2108 21.4737 99.2574 21.5691 99.3508 21.6337C99.4452 21.6973 99.5647 21.7291 99.7094 21.7291ZM101.4 22.8864V19.6361H101.751V20.0117H101.794C101.821 19.9706 101.858 19.9183 101.905 19.8547C101.953 19.79 102.022 19.7326 102.111 19.6823C102.202 19.631 102.324 19.6054 102.478 19.6054C102.677 19.6054 102.852 19.6551 103.004 19.7546C103.156 19.8542 103.274 19.9952 103.359 20.1779C103.445 20.3605 103.487 20.5759 103.487 20.8242C103.487 21.0746 103.445 21.2916 103.359 21.4752C103.274 21.6578 103.156 21.7994 103.005 21.9C102.855 21.9995 102.681 22.0492 102.484 22.0492C102.332 22.0492 102.21 22.0241 102.119 21.9738C102.028 21.9225 101.957 21.8646 101.908 21.7999C101.859 21.7343 101.821 21.6799 101.794 21.6368H101.764V22.8864H101.4ZM101.757 20.8181C101.757 20.9966 101.784 21.1541 101.836 21.2905C101.888 21.426 101.965 21.5322 102.065 21.6091C102.166 21.685 102.289 21.723 102.435 21.723C102.586 21.723 102.713 21.683 102.815 21.6029C102.917 21.5219 102.994 21.4131 103.045 21.2767C103.098 21.1392 103.124 20.9863 103.124 20.8181C103.124 20.6519 103.098 20.5021 103.047 20.3687C102.997 20.2343 102.92 20.1281 102.818 20.0501C102.716 19.9711 102.588 19.9316 102.435 19.9316C102.287 19.9316 102.163 19.9691 102.062 20.044C101.962 20.1178 101.886 20.2215 101.834 20.3548C101.783 20.4872 101.757 20.6416 101.757 20.8181ZM104.041 22.8864V19.6361H104.392V20.0117H104.435C104.462 19.9706 104.499 19.9183 104.546 19.8547C104.594 19.79 104.663 19.7326 104.752 19.6823C104.842 19.631 104.965 19.6054 105.118 19.6054C105.318 19.6054 105.493 19.6551 105.645 19.7546C105.797 19.8542 105.915 19.9952 106 20.1779C106.085 20.3605 106.128 20.5759 106.128 20.8242C106.128 21.0746 106.085 21.2916 106 21.4752C105.915 21.6578 105.797 21.7994 105.646 21.9C105.496 21.9995 105.322 22.0492 105.125 22.0492C104.973 22.0492 104.851 22.0241 104.76 21.9738C104.669 21.9225 104.598 21.8646 104.549 21.7999C104.5 21.7343 104.462 21.6799 104.435 21.6368H104.404V22.8864H104.041ZM104.398 20.8181C104.398 20.9966 104.424 21.1541 104.477 21.2905C104.529 21.426 104.605 21.5322 104.706 21.6091C104.807 21.685 104.93 21.723 105.075 21.723C105.227 21.723 105.354 21.683 105.456 21.6029C105.558 21.5219 105.635 21.4131 105.686 21.2767C105.739 21.1392 105.765 20.9863 105.765 20.8181C105.765 20.6519 105.739 20.5021 105.688 20.3687C105.638 20.2343 105.561 20.1281 105.459 20.0501C105.357 19.9711 105.229 19.9316 105.075 19.9316C104.928 19.9316 104.804 19.9691 104.703 20.044C104.602 20.1178 104.526 20.2215 104.475 20.3548C104.424 20.4872 104.398 20.6416 104.398 20.8181ZM106.831 22.8864C106.77 22.8864 106.715 22.8813 106.667 22.8711C106.618 22.8618 106.585 22.8526 106.567 22.8434L106.659 22.5232C106.747 22.5458 106.825 22.554 106.893 22.5479C106.961 22.5417 107.021 22.5115 107.073 22.4571C107.126 22.4037 107.175 22.317 107.219 22.197L107.287 22.0123L106.413 19.6361H106.807L107.459 21.5198H107.484L108.136 19.6361H108.53L107.527 22.3447C107.482 22.4668 107.426 22.5679 107.359 22.6479C107.293 22.729 107.215 22.789 107.127 22.828C107.04 22.867 106.941 22.8864 106.831 22.8864Z" fill="black"/>
<path d="M91.0859 22.9174C91.0859 22.9174 100.508 29.0784 112.425 22.1885" stroke="#0C0C0C" stroke-width="0.53996" stroke-miterlimit="10" stroke-linecap="round"/>
</g>
</g>
<g filter="url(#filter2_d_533_1244)">
<rect x="135.818" y="0.882812" width="65.3244" height="65.3244" rx="19.5973" fill="white"/>
<g clip-path="url(#clip2_533_1244)">
<path d="M172.287 15.5244H164.566C157.859 15.5244 152.422 20.9613 152.422 27.6681V39.6228C152.422 46.3296 157.859 51.7665 164.566 51.7665H172.287C178.994 51.7665 184.431 46.3296 184.431 39.6228V27.6681C184.431 20.9613 178.994 15.5244 172.287 15.5244Z" fill="#B1D7FA" stroke="black" stroke-width="0.53996" stroke-miterlimit="10"/>
<path d="M157.756 21.5317C157.756 21.5317 167.178 27.6926 179.095 20.8027" stroke="#0C0C0C" stroke-width="0.53996" stroke-miterlimit="10" stroke-linecap="round"/>
<path d="M180.201 47.6421C180.379 47.4585 180.444 47.1939 180.325 46.9779C180.049 46.4758 179.272 46.195 179.272 46.195C178.5 45.925 178.824 44.0243 178.824 44.0243C178.888 42.3451 176.961 41.4217 176.961 41.4217C175.805 41.0438 175.74 38.0578 175.74 38.0578C175.546 36.1085 173.748 34.8612 173.748 34.8612C171.696 33.4519 173.035 30.9951 173.035 30.9951L172.323 31.2543C172.128 31.3245 171.972 31.4649 171.901 31.6431C171.626 32.345 171.097 34.2241 172.733 35.4012C172.733 35.4012 174.526 36.7025 174.715 38.7435C174.715 38.7435 174.779 41.8591 175.929 42.2533C175.929 42.2533 177.852 43.2144 177.787 44.9693C177.787 44.9693 177.468 46.9509 178.235 47.2317C178.235 47.2317 178.689 47.4045 179.029 47.7177C179.337 48.0092 179.86 47.9984 180.152 47.6907L180.201 47.6421Z" fill="#2997D5"/>
<path d="M155.676 47.4094C155.525 47.2096 155.487 46.945 155.612 46.7344C155.909 46.2539 156.664 46.0325 156.664 46.0325C157.41 45.8219 157.264 43.9051 157.264 43.9051C157.339 42.2258 159.224 41.4536 159.224 41.4536C160.342 41.1621 160.644 38.1977 160.644 38.1977C160.984 36.27 162.777 35.1631 162.777 35.1631C164.823 33.9158 163.76 31.3672 163.76 31.3672L164.407 31.6804C164.586 31.7668 164.721 31.9179 164.769 32.0961C164.974 32.8197 165.32 34.7311 163.684 35.7733C163.684 35.7733 161.891 36.9342 161.546 38.9482C161.546 38.9482 161.233 42.0476 160.115 42.35C160.115 42.35 158.23 43.1599 158.149 44.9148C158.149 44.9148 158.29 46.9126 157.545 47.134C157.545 47.134 157.102 47.269 156.762 47.5606C156.448 47.8252 155.957 47.7766 155.709 47.4472L155.671 47.3932L155.676 47.4094Z" fill="#2997D5"/>
<path d="M173.197 30.1111C173.328 29.3075 172.782 28.5503 171.978 28.4198C171.175 28.2894 170.417 28.8351 170.287 29.6387C170.157 30.4423 170.702 31.1995 171.506 31.3299C172.309 31.4604 173.067 30.9147 173.197 30.1111Z" fill="#FEFFF5" stroke="black" stroke-width="0.53996" stroke-miterlimit="10"/>
<path d="M166.436 30.1899C166.436 31.0052 165.778 31.664 164.962 31.664C164.147 31.664 163.488 31.0052 163.488 30.1899C163.488 29.3746 164.147 28.7158 164.962 28.7158C165.778 28.7158 166.436 29.3746 166.436 30.1899Z" fill="#FEFFF5" stroke="black" stroke-width="0.53996" stroke-miterlimit="10"/>
<path d="M165.422 26.2539C165.422 26.2539 162.733 29.1751 161.594 28.7161" stroke="black" stroke-width="0.53996" stroke-miterlimit="10" stroke-linecap="round"/>
<path d="M170.998 26.1621C170.998 26.1621 173.636 29.0189 174.754 28.57" stroke="black" stroke-width="0.53996" stroke-miterlimit="10" stroke-linecap="round"/>
<path d="M164.295 40.8327C164.295 40.8327 167.832 27.987 172.551 39.4612" stroke="black" stroke-width="0.53996" stroke-miterlimit="10" stroke-linecap="round"/>
<path d="M165.957 18.6244C165.938 18.4685 165.864 18.3474 165.732 18.2612C165.601 18.175 165.44 18.132 165.249 18.132C165.109 18.132 164.987 18.1545 164.883 18.1997C164.779 18.2448 164.698 18.3069 164.64 18.3859C164.582 18.4649 164.553 18.5547 164.553 18.6552C164.553 18.7393 164.573 18.8117 164.613 18.8722C164.654 18.9317 164.707 18.9815 164.77 19.0215C164.834 19.0605 164.901 19.0928 164.97 19.1184C165.04 19.1431 165.104 19.1631 165.163 19.1785L165.483 19.2646C165.565 19.2862 165.656 19.3159 165.757 19.3539C165.858 19.3919 165.955 19.4437 166.048 19.5093C166.141 19.574 166.218 19.6571 166.279 19.7586C166.339 19.8602 166.369 19.9849 166.369 20.1326C166.369 20.3029 166.325 20.4568 166.235 20.5943C166.147 20.7318 166.018 20.8411 165.848 20.9221C165.678 21.0032 165.473 21.0437 165.23 21.0437C165.005 21.0437 164.809 21.0073 164.644 20.9344C164.48 20.8616 164.351 20.76 164.256 20.6297C164.163 20.4994 164.11 20.3481 164.098 20.1757H164.492C164.502 20.2947 164.542 20.3932 164.612 20.4712C164.683 20.5481 164.772 20.6056 164.88 20.6436C164.988 20.6805 165.105 20.699 165.23 20.699C165.376 20.699 165.507 20.6754 165.623 20.6282C165.739 20.5799 165.831 20.5133 165.898 20.4281C165.966 20.3419 166 20.2414 166 20.1265C166 20.0218 165.971 19.9367 165.912 19.871C165.854 19.8053 165.777 19.752 165.681 19.7109C165.586 19.6699 165.483 19.634 165.372 19.6032L164.984 19.4924C164.738 19.4216 164.543 19.3206 164.399 19.1892C164.256 19.0579 164.184 18.886 164.184 18.6737C164.184 18.4972 164.232 18.3433 164.327 18.212C164.424 18.0796 164.553 17.977 164.715 17.9042C164.878 17.8303 165.06 17.7934 165.261 17.7934C165.464 17.7934 165.645 17.8298 165.803 17.9026C165.961 17.9745 166.086 18.073 166.178 18.1981C166.272 18.3233 166.321 18.4654 166.326 18.6244H165.957ZM167.643 21.0437C167.493 21.0437 167.357 21.0155 167.235 20.959C167.113 20.9016 167.016 20.819 166.945 20.7113C166.873 20.6025 166.837 20.4712 166.837 20.3173C166.837 20.1819 166.863 20.0721 166.917 19.988C166.97 19.9028 167.041 19.8361 167.131 19.7879C167.22 19.7397 167.318 19.7038 167.426 19.6802C167.535 19.6555 167.644 19.636 167.754 19.6217C167.898 19.6032 168.014 19.5894 168.103 19.5801C168.194 19.5699 168.259 19.5529 168.3 19.5293C168.342 19.5057 168.363 19.4647 168.363 19.4062V19.3939C168.363 19.2421 168.322 19.1241 168.239 19.0399C168.157 18.9558 168.032 18.9138 167.865 18.9138C167.691 18.9138 167.555 18.9517 167.457 19.0276C167.358 19.1036 167.289 19.1846 167.249 19.2708L166.904 19.1477C166.966 19.004 167.048 18.8922 167.151 18.8122C167.254 18.7311 167.367 18.6747 167.489 18.6429C167.612 18.6101 167.733 18.5936 167.852 18.5936C167.928 18.5936 168.016 18.6029 168.114 18.6213C168.214 18.6388 168.31 18.6752 168.402 18.7306C168.495 18.786 168.573 18.8696 168.634 18.9815C168.696 19.0933 168.727 19.2431 168.727 19.4308V20.9883H168.363V20.6682H168.345C168.32 20.7195 168.279 20.7744 168.222 20.8328C168.164 20.8913 168.088 20.9411 167.993 20.9821C167.897 21.0232 167.781 21.0437 167.643 21.0437ZM167.699 20.7174C167.842 20.7174 167.963 20.6892 168.062 20.6328C168.161 20.5764 168.236 20.5035 168.286 20.4142C168.338 20.325 168.363 20.2311 168.363 20.1326V19.8002C168.348 19.8187 168.314 19.8356 168.262 19.851C168.211 19.8653 168.151 19.8782 168.083 19.8895C168.017 19.8997 167.952 19.909 167.888 19.9172C167.825 19.9243 167.775 19.9305 167.736 19.9356C167.641 19.9479 167.553 19.9679 167.471 19.9956C167.39 20.0223 167.324 20.0628 167.274 20.1172C167.225 20.1706 167.2 20.2434 167.2 20.3358C167.2 20.462 167.247 20.5574 167.34 20.622C167.434 20.6856 167.554 20.7174 167.699 20.7174ZM170.282 21.0375C170.085 21.0375 169.911 20.9878 169.76 20.8882C169.61 20.7877 169.492 20.6461 169.406 20.4635C169.321 20.2798 169.279 20.0628 169.279 19.8125C169.279 19.5642 169.321 19.3488 169.406 19.1661C169.492 18.9835 169.61 18.8424 169.762 18.7429C169.914 18.6434 170.089 18.5936 170.288 18.5936C170.442 18.5936 170.564 18.6193 170.653 18.6706C170.743 18.7209 170.812 18.7783 170.859 18.843C170.907 18.9066 170.945 18.9589 170.972 18.9999H171.002V17.8365H171.366V20.9883H171.015V20.6251H170.972C170.945 20.6682 170.907 20.7226 170.858 20.7882C170.808 20.8529 170.738 20.9108 170.647 20.9621C170.556 21.0124 170.434 21.0375 170.282 21.0375ZM170.331 20.7113C170.477 20.7113 170.6 20.6733 170.701 20.5974C170.801 20.5204 170.878 20.4142 170.93 20.2788C170.982 20.1424 171.009 19.9849 171.009 19.8064C171.009 19.6299 170.983 19.4755 170.932 19.3431C170.88 19.2097 170.804 19.1061 170.704 19.0323C170.603 18.9574 170.479 18.9199 170.331 18.9199C170.177 18.9199 170.049 18.9594 169.947 19.0384C169.845 19.1164 169.769 19.2226 169.717 19.357C169.667 19.4904 169.642 19.6401 169.642 19.8064C169.642 19.9746 169.668 20.1275 169.719 20.265C169.771 20.4014 169.848 20.5102 169.95 20.5912C170.052 20.6713 170.18 20.7113 170.331 20.7113Z" fill="black"/>
</g>
</g>
<defs>
<filter id="filter0_d_533_1244" x="0.387025" y="0.882812" width="70.5502" height="70.5502" filterUnits="userSpaceOnUse" color-interpolation-filters="sRGB">
<feFlood flood-opacity="0" result="BackgroundImageFix"/>
<feColorMatrix in="SourceAlpha" type="matrix" values="0 0 0 0 0 0 0 0 0 0 0 0 0 0 0 0 0 0 127 0" result="hardAlpha"/>
<feOffset dy="2.61298"/>
<feGaussianBlur stdDeviation="1.30649"/>
<feComposite in2="hardAlpha" operator="out"/>
<feColorMatrix type="matrix" values="0 0 0 0 0 0 0 0 0 0 0 0 0 0 0 0 0 0 0.25 0"/>
<feBlend mode="normal" in2="BackgroundImageFix" result="effect1_dropShadow_533_1244"/>
<feBlend mode="normal" in="SourceGraphic" in2="effect1_dropShadow_533_1244" result="shape"/>
</filter>
<filter id="filter1_d_533_1244" x="66.7972" y="0.882812" width="70.5502" height="70.5502" filterUnits="userSpaceOnUse" color-interpolation-filters="sRGB">
<feFlood flood-opacity="0" result="BackgroundImageFix"/>
<feColorMatrix in="SourceAlpha" type="matrix" values="0 0 0 0 0 0 0 0 0 0 0 0 0 0 0 0 0 0 127 0" result="hardAlpha"/>
<feOffset dy="2.61298"/>
<feGaussianBlur stdDeviation="1.30649"/>
<feComposite in2="hardAlpha" operator="out"/>
<feColorMatrix type="matrix" values="0 0 0 0 0 0 0 0 0 0 0 0 0 0 0 0 0 0 0.25 0"/>
<feBlend mode="normal" in2="BackgroundImageFix" result="effect1_dropShadow_533_1244"/>
<feBlend mode="normal" in="SourceGraphic" in2="effect1_dropShadow_533_1244" result="shape"/>
</filter>
<filter id="filter2_d_533_1244" x="133.205" y="0.882812" width="70.5502" height="70.5502" filterUnits="userSpaceOnUse" color-interpolation-filters="sRGB">
<feFlood flood-opacity="0" result="BackgroundImageFix"/>
<feColorMatrix in="SourceAlpha" type="matrix" values="0 0 0 0 0 0 0 0 0 0 0 0 0 0 0 0 0 0 127 0" result="hardAlpha"/>
<feOffset dy="2.61298"/>
<feGaussianBlur stdDeviation="1.30649"/>
<feComposite in2="hardAlpha" operator="out"/>
<feColorMatrix type="matrix" values="0 0 0 0 0 0 0 0 0 0 0 0 0 0 0 0 0 0 0.25 0"/>
<feBlend mode="normal" in2="BackgroundImageFix" result="effect1_dropShadow_533_1244"/>
<feBlend mode="normal" in="SourceGraphic" in2="effect1_dropShadow_533_1244" result="shape"/>
</filter>
<clipPath id="clip0_533_1244">
<rect width="32.5972" height="36.8368" fill="white" transform="translate(19.3301 15.2559)"/>
</clipPath>
<clipPath id="clip1_533_1244">
<rect width="32.5972" height="36.8368" fill="white" transform="translate(85.7402 15.2559)"/>
</clipPath>
<clipPath id="clip2_533_1244">
<rect width="32.5488" height="36.7821" fill="white" transform="translate(152.15 15.2559)"/>
</clipPath>
</defs>
</svg>
