<svg width="204" height="71" viewBox="0 0 204 71" fill="none" xmlns="http://www.w3.org/2000/svg">
<g filter="url(#filter0_d_533_909)">
<rect x="3.10742" y="0.348633" width="65.3244" height="65.3244" rx="19.5973" fill="white"/>
<g clip-path="url(#clip0_533_909)">
<path d="M39.5721 14.9893H31.8507C25.1439 14.9893 19.707 20.4262 19.707 27.133V39.0877C19.707 45.7944 25.1439 51.2314 31.8507 51.2314H39.5721C46.2789 51.2314 51.7158 45.7944 51.7158 39.0877V27.133C51.7158 20.4262 46.2789 14.9893 39.5721 14.9893Z" fill="#FBCFB6" stroke="black" stroke-width="0.53996" stroke-miterlimit="10"/>
<path d="M25.043 22.4418C25.043 22.4418 34.4653 28.6028 46.3822 21.7129" stroke="#0C0C0C" stroke-width="0.53996" stroke-miterlimit="10" stroke-linecap="round"/>
<path d="M30.0099 32.7275C30.7942 32.7275 31.43 31.8162 31.43 30.6919C31.43 29.5676 30.7942 28.6562 30.0099 28.6562C29.2256 28.6562 28.5898 29.5676 28.5898 30.6919C28.5898 31.8162 29.2256 32.7275 30.0099 32.7275Z" fill="black"/>
<path d="M40.5002 32.7275C41.2845 32.7275 41.9203 31.8162 41.9203 30.6919C41.9203 29.5676 41.2845 28.6562 40.5002 28.6562C39.7159 28.6562 39.0801 29.5676 39.0801 30.6919C39.0801 31.8162 39.7159 32.7275 40.5002 32.7275Z" fill="black"/>
<path d="M28.5898 38.8294C28.5898 38.8294 40.4532 34.6554 41.6677 38.5378" stroke="black" stroke-width="0.53996" stroke-miterlimit="10" stroke-linecap="round"/>
<path d="M31.5653 18.313H31.9469V20.3999C31.9469 20.6153 31.8962 20.8077 31.7946 20.977C31.694 21.1453 31.5519 21.2781 31.3683 21.3756C31.1846 21.472 30.9692 21.5202 30.7219 21.5202C30.4747 21.5202 30.2592 21.472 30.0756 21.3756C29.8919 21.2781 29.7493 21.1453 29.6477 20.977C29.5472 20.8077 29.4969 20.6153 29.4969 20.3999V18.313H29.8786V20.3691C29.8786 20.523 29.9124 20.66 29.9801 20.78C30.0478 20.899 30.1443 20.9929 30.2695 21.0616C30.3957 21.1293 30.5465 21.1632 30.7219 21.1632C30.8974 21.1632 31.0482 21.1293 31.1744 21.0616C31.3006 20.9929 31.397 20.899 31.4637 20.78C31.5314 20.66 31.5653 20.523 31.5653 20.3691V18.313ZM32.6599 22.3513V19.101H33.0107V19.4765H33.0538C33.0805 19.4355 33.1175 19.3831 33.1646 19.3195C33.2129 19.2549 33.2816 19.1974 33.3709 19.1472C33.4612 19.0959 33.5832 19.0702 33.7371 19.0702C33.9362 19.0702 34.1116 19.12 34.2635 19.2195C34.4153 19.319 34.5338 19.4601 34.619 19.6427C34.7041 19.8253 34.7467 20.0408 34.7467 20.2891C34.7467 20.5394 34.7041 20.7564 34.619 20.9401C34.5338 21.1227 34.4158 21.2643 34.265 21.3648C34.1142 21.4643 33.9403 21.5141 33.7433 21.5141C33.5915 21.5141 33.4699 21.489 33.3786 21.4387C33.2873 21.3874 33.217 21.3294 33.1677 21.2648C33.1185 21.1991 33.0805 21.1447 33.0538 21.1016H33.0231V22.3513H32.6599ZM33.0169 20.2829C33.0169 20.4614 33.0431 20.6189 33.0954 20.7554C33.1477 20.8908 33.2242 20.997 33.3247 21.0739C33.4252 21.1499 33.5484 21.1878 33.6941 21.1878C33.8459 21.1878 33.9726 21.1478 34.0742 21.0678C34.1768 20.9867 34.2537 20.878 34.305 20.7415C34.3573 20.604 34.3835 20.4512 34.3835 20.2829C34.3835 20.1167 34.3579 19.9669 34.3066 19.8335C34.2563 19.6991 34.1799 19.5929 34.0773 19.515C33.9757 19.436 33.8479 19.3965 33.6941 19.3965C33.5463 19.3965 33.4222 19.4339 33.3216 19.5088C33.2211 19.5827 33.1452 19.6863 33.0939 19.8197C33.0426 19.952 33.0169 20.1064 33.0169 20.2829ZM36.9751 19.6304L36.6489 19.7227C36.6284 19.6684 36.5981 19.6155 36.5581 19.5642C36.5191 19.5119 36.4657 19.4688 36.398 19.4349C36.3303 19.4011 36.2436 19.3842 36.1379 19.3842C35.9933 19.3842 35.8727 19.4175 35.7763 19.4842C35.6809 19.5499 35.6332 19.6335 35.6332 19.735C35.6332 19.8253 35.666 19.8966 35.7316 19.949C35.7973 20.0013 35.8999 20.0449 36.0394 20.0798L36.3903 20.166C36.6017 20.2173 36.7592 20.2957 36.8628 20.4014C36.9664 20.5061 37.0182 20.641 37.0182 20.8062C37.0182 20.9416 36.9792 21.0627 36.9013 21.1694C36.8243 21.2761 36.7166 21.3602 36.5781 21.4218C36.4396 21.4833 36.2785 21.5141 36.0948 21.5141C35.8537 21.5141 35.6542 21.4618 35.4962 21.3571C35.3382 21.2525 35.2382 21.0996 35.1961 20.8985L35.5408 20.8123C35.5736 20.9395 35.6357 21.035 35.727 21.0986C35.8194 21.1622 35.9399 21.194 36.0887 21.194C36.258 21.194 36.3924 21.1581 36.4919 21.0863C36.5924 21.0134 36.6427 20.9262 36.6427 20.8246C36.6427 20.7426 36.614 20.6738 36.5565 20.6184C36.4991 20.562 36.4108 20.5199 36.2918 20.4922L35.8979 20.3999C35.6814 20.3486 35.5223 20.2691 35.4208 20.1613C35.3202 20.0526 35.27 19.9166 35.27 19.7535C35.27 19.6201 35.3074 19.5021 35.3823 19.3995C35.4582 19.2969 35.5613 19.2164 35.6916 19.1579C35.823 19.0994 35.9717 19.0702 36.1379 19.0702C36.3719 19.0702 36.5555 19.1215 36.6889 19.2241C36.8233 19.3267 36.9187 19.4621 36.9751 19.6304ZM38.556 21.5141C38.3283 21.5141 38.1318 21.4638 37.9666 21.3633C37.8025 21.2617 37.6757 21.1201 37.5865 20.9385C37.4983 20.7559 37.4541 20.5435 37.4541 20.3014C37.4541 20.0593 37.4983 19.8458 37.5865 19.6612C37.6757 19.4755 37.7999 19.3308 37.9589 19.2272C38.119 19.1225 38.3057 19.0702 38.5191 19.0702C38.6422 19.0702 38.7638 19.0907 38.8838 19.1318C39.0039 19.1728 39.1131 19.2395 39.2116 19.3318C39.3101 19.4231 39.3886 19.5442 39.4471 19.695C39.5056 19.8458 39.5348 20.0316 39.5348 20.2521V20.406H37.7127V20.0921H39.1655C39.1655 19.9587 39.1388 19.8397 39.0854 19.735C39.0331 19.6304 38.9582 19.5478 38.8608 19.4873C38.7643 19.4267 38.6504 19.3965 38.5191 19.3965C38.3744 19.3965 38.2493 19.4324 38.1436 19.5042C38.0389 19.575 37.9584 19.6673 37.902 19.7812C37.8455 19.8951 37.8173 20.0172 37.8173 20.1475V20.3568C37.8173 20.5353 37.8481 20.6866 37.9097 20.8108C37.9723 20.9339 38.059 21.0278 38.1698 21.0924C38.2806 21.156 38.4093 21.1878 38.556 21.1878C38.6515 21.1878 38.7376 21.1745 38.8146 21.1478C38.8926 21.1201 38.9598 21.0791 39.0162 21.0247C39.0726 20.9693 39.1162 20.9006 39.147 20.8185L39.4979 20.917C39.461 21.036 39.3989 21.1406 39.3117 21.2309C39.2245 21.3202 39.1167 21.3899 38.9885 21.4402C38.8602 21.4895 38.7161 21.5141 38.556 21.5141ZM41.1153 19.101V19.4088H39.8903V19.101H41.1153ZM40.2474 18.5346H40.6106V20.7877C40.6106 20.8903 40.6254 20.9672 40.6552 21.0185C40.686 21.0688 40.725 21.1027 40.7722 21.1201C40.8204 21.1365 40.8712 21.1447 40.9245 21.1447C40.9645 21.1447 40.9974 21.1427 41.023 21.1386C41.0487 21.1335 41.0692 21.1293 41.0846 21.1263L41.1584 21.4525C41.1338 21.4618 41.0994 21.471 41.0553 21.4802C41.0112 21.4905 40.9553 21.4956 40.8876 21.4956C40.785 21.4956 40.6844 21.4736 40.5859 21.4294C40.4885 21.3853 40.4074 21.3181 40.3428 21.2278C40.2792 21.1376 40.2474 21.0237 40.2474 20.8862V18.5346Z" fill="black"/>
</g>
</g>
<g filter="url(#filter1_d_533_909)">
<rect x="69.5176" y="0.348633" width="65.3244" height="65.3244" rx="19.5973" fill="white"/>
<g clip-path="url(#clip1_533_909)">
<path d="M105.982 14.9893H98.2609C91.5541 14.9893 86.1172 20.4262 86.1172 27.133V39.0877C86.1172 45.7944 91.5541 51.2314 98.2609 51.2314H105.982C112.689 51.2314 118.126 45.7944 118.126 39.0877V27.133C118.126 20.4262 112.689 14.9893 105.982 14.9893Z" fill="#FEFFF5" stroke="black" stroke-width="0.53996" stroke-miterlimit="10"/>
<path d="M91.4531 21.7192C91.4531 21.7192 100.875 27.8801 112.792 20.9902" stroke="#0C0C0C" stroke-width="0.53996" stroke-miterlimit="10" stroke-linecap="round"/>
<path d="M93.7598 29.8174C93.7598 29.8174 95.2393 33.7267 98.6464 29.8768" stroke="black" stroke-width="0.53996" stroke-miterlimit="10" stroke-linecap="round"/>
<path d="M103.197 29.8174C103.197 29.8174 104.677 33.7267 108.084 29.8768" stroke="black" stroke-width="0.53996" stroke-miterlimit="10" stroke-linecap="round"/>
<path d="M95.7188 36.3994C95.7188 36.3994 99.2015 42.4038 107.231 36.4912" stroke="black" stroke-width="0.53996" stroke-miterlimit="10" stroke-linecap="round"/>
<path d="M93.741 20.4541V17.3023H94.806C95.0533 17.3023 95.2554 17.3469 95.4124 17.4362C95.5704 17.5244 95.6873 17.6439 95.7632 17.7948C95.8392 17.9456 95.8771 18.1138 95.8771 18.2995C95.8771 18.4852 95.8392 18.654 95.7632 18.8059C95.6883 18.9577 95.5724 19.0788 95.4154 19.1691C95.2585 19.2583 95.0574 19.303 94.8122 19.303H94.0488V18.9644H94.7999C94.9691 18.9644 95.1051 18.9351 95.2077 18.8767C95.3103 18.8182 95.3847 18.7392 95.4308 18.6397C95.478 18.5391 95.5016 18.4257 95.5016 18.2995C95.5016 18.1733 95.478 18.0605 95.4308 17.961C95.3847 17.8615 95.3098 17.7835 95.2061 17.727C95.1025 17.6696 94.965 17.6409 94.7937 17.6409H94.1227V20.4541H93.741ZM97.4084 20.5033C97.1806 20.5033 96.9842 20.4531 96.819 20.3525C96.6548 20.251 96.5281 20.1094 96.4389 19.9278C96.3506 19.7451 96.3065 19.5328 96.3065 19.2906C96.3065 19.0485 96.3506 18.8351 96.4389 18.6504C96.5281 18.4647 96.6523 18.3201 96.8113 18.2164C96.9713 18.1118 97.1581 18.0595 97.3715 18.0595C97.4946 18.0595 97.6162 18.08 97.7362 18.121C97.8562 18.1621 97.9655 18.2288 98.064 18.3211C98.1625 18.4124 98.241 18.5335 98.2995 18.6843C98.3579 18.8351 98.3872 19.0208 98.3872 19.2414V19.3953H96.565V19.0813H98.0178C98.0178 18.948 97.9912 18.829 97.9378 18.7243C97.8855 18.6197 97.8106 18.5371 97.7131 18.4765C97.6167 18.416 97.5028 18.3857 97.3715 18.3857C97.2268 18.3857 97.1016 18.4216 96.996 18.4935C96.8913 18.5642 96.8108 18.6566 96.7543 18.7705C96.6979 18.8844 96.6697 19.0064 96.6697 19.1367V19.346C96.6697 19.5246 96.7005 19.6759 96.762 19.8C96.8246 19.9232 96.9113 20.017 97.0221 20.0817C97.1329 20.1453 97.2617 20.1771 97.4084 20.1771C97.5038 20.1771 97.59 20.1637 97.6669 20.1371C97.7449 20.1094 97.8121 20.0683 97.8686 20.014C97.925 19.9586 97.9686 19.8898 97.9994 19.8077L98.3503 19.9062C98.3133 20.0252 98.2512 20.1299 98.164 20.2202C98.0768 20.3094 97.9691 20.3792 97.8409 20.4295C97.7126 20.4787 97.5685 20.5033 97.4084 20.5033ZM99.6353 20.5095C99.4855 20.5095 99.3496 20.4813 99.2275 20.4249C99.1054 20.3674 99.0084 20.2848 98.9366 20.1771C98.8648 20.0683 98.8289 19.937 98.8289 19.7831C98.8289 19.6477 98.8555 19.5379 98.9089 19.4538C98.9622 19.3686 99.0336 19.3019 99.1228 19.2537C99.2121 19.2055 99.3106 19.1696 99.4183 19.146C99.5271 19.1214 99.6363 19.1019 99.7461 19.0875C99.8897 19.069 100.006 19.0552 100.095 19.0459C100.186 19.0357 100.251 19.0188 100.292 18.9952C100.334 18.9716 100.356 18.9305 100.356 18.872V18.8597C100.356 18.7079 100.314 18.5899 100.231 18.5058C100.149 18.4216 100.024 18.3796 99.8569 18.3796C99.6835 18.3796 99.5476 18.4175 99.4491 18.4935C99.3506 18.5694 99.2813 18.6504 99.2413 18.7366L98.8966 18.6135C98.9581 18.4699 99.0402 18.358 99.1428 18.278C99.2464 18.1969 99.3593 18.1405 99.4814 18.1087C99.6045 18.0759 99.7256 18.0595 99.8446 18.0595C99.9205 18.0595 100.008 18.0687 100.106 18.0872C100.206 18.1046 100.302 18.141 100.394 18.1964C100.487 18.2518 100.565 18.3355 100.626 18.4473C100.688 18.5591 100.719 18.7089 100.719 18.8967V20.4541H100.356V20.134H100.337C100.312 20.1853 100.271 20.2402 100.214 20.2987C100.156 20.3571 100.08 20.4069 99.9846 20.4479C99.8892 20.489 99.7728 20.5095 99.6353 20.5095ZM99.6907 20.1832C99.8343 20.1832 99.9554 20.155 100.054 20.0986C100.153 20.0422 100.228 19.9693 100.279 19.8801C100.33 19.7908 100.356 19.6969 100.356 19.5984V19.266C100.34 19.2845 100.306 19.3014 100.254 19.3168C100.203 19.3312 100.143 19.344 100.075 19.3553C100.009 19.3655 99.9436 19.3748 99.88 19.383C99.8174 19.3902 99.7666 19.3963 99.7276 19.4014C99.6332 19.4138 99.545 19.4338 99.4629 19.4615C99.3819 19.4881 99.3162 19.5287 99.2659 19.583C99.2167 19.6364 99.1921 19.7092 99.1921 19.8016C99.1921 19.9278 99.2388 20.0232 99.3321 20.0878C99.4265 20.1514 99.546 20.1832 99.6907 20.1832ZM102.342 20.5033C102.12 20.5033 101.93 20.451 101.769 20.3464C101.609 20.2417 101.486 20.0976 101.4 19.9139C101.314 19.7303 101.271 19.5205 101.271 19.2845C101.271 19.0444 101.315 18.8325 101.403 18.6489C101.492 18.4642 101.617 18.3201 101.776 18.2164C101.936 18.1118 102.122 18.0595 102.336 18.0595C102.502 18.0595 102.652 18.0902 102.785 18.1518C102.919 18.2134 103.028 18.2995 103.113 18.4104C103.198 18.5212 103.251 18.6504 103.271 18.7982H102.908C102.881 18.6904 102.819 18.595 102.724 18.5119C102.629 18.4278 102.502 18.3857 102.342 18.3857C102.2 18.3857 102.076 18.4227 101.97 18.4965C101.864 18.5694 101.781 18.6725 101.722 18.8059C101.663 18.9382 101.634 19.0937 101.634 19.2722C101.634 19.4548 101.663 19.6138 101.72 19.7493C101.779 19.8847 101.861 19.9898 101.966 20.0647C102.073 20.1396 102.198 20.1771 102.342 20.1771C102.436 20.1771 102.522 20.1607 102.599 20.1278C102.676 20.095 102.741 20.0478 102.794 19.9863C102.848 19.9247 102.886 19.8508 102.908 19.7646H103.271C103.251 19.9042 103.2 20.0299 103.119 20.1417C103.039 20.2525 102.933 20.3407 102.801 20.4064C102.669 20.471 102.516 20.5033 102.342 20.5033ZM104.794 20.5033C104.566 20.5033 104.369 20.4531 104.204 20.3525C104.04 20.251 103.913 20.1094 103.824 19.9278C103.736 19.7451 103.692 19.5328 103.692 19.2906C103.692 19.0485 103.736 18.8351 103.824 18.6504C103.913 18.4647 104.037 18.3201 104.196 18.2164C104.356 18.1118 104.543 18.0595 104.757 18.0595C104.88 18.0595 105.001 18.08 105.121 18.121C105.241 18.1621 105.351 18.2288 105.449 18.3211C105.548 18.4124 105.626 18.5335 105.685 18.6843C105.743 18.8351 105.772 19.0208 105.772 19.2414V19.3953H103.95V19.0813H105.403C105.403 18.948 105.376 18.829 105.323 18.7243C105.271 18.6197 105.196 18.5371 105.098 18.4765C105.002 18.416 104.888 18.3857 104.757 18.3857C104.612 18.3857 104.487 18.4216 104.381 18.4935C104.276 18.5642 104.196 18.6566 104.139 18.7705C104.083 18.8844 104.055 19.0064 104.055 19.1367V19.346C104.055 19.5246 104.086 19.6759 104.147 19.8C104.21 19.9232 104.296 20.017 104.407 20.0817C104.518 20.1453 104.647 20.1771 104.794 20.1771C104.889 20.1771 104.975 20.1637 105.052 20.1371C105.13 20.1094 105.197 20.0683 105.254 20.014C105.31 19.9586 105.354 19.8898 105.384 19.8077L105.735 19.9062C105.698 20.0252 105.636 20.1299 105.549 20.2202C105.462 20.3094 105.354 20.3792 105.226 20.4295C105.098 20.4787 104.954 20.5033 104.794 20.5033ZM107.377 18.0902V18.398H106.103V18.0902H107.377ZM106.485 20.4541V17.764C106.485 17.6286 106.517 17.5157 106.58 17.4254C106.644 17.3351 106.726 17.2674 106.828 17.2223C106.93 17.1771 107.037 17.1546 107.15 17.1546C107.239 17.1546 107.312 17.1617 107.368 17.1761C107.425 17.1905 107.467 17.2038 107.494 17.2161L107.39 17.5301C107.371 17.5239 107.346 17.5162 107.313 17.507C107.281 17.4977 107.239 17.4931 107.187 17.4931C107.067 17.4931 106.98 17.5234 106.927 17.5839C106.874 17.6445 106.848 17.7332 106.848 17.8502V20.4541H106.485ZM109.376 19.4876V18.0902H109.739V20.4541H109.376V20.054H109.352C109.296 20.174 109.21 20.2761 109.093 20.3602C108.976 20.4433 108.828 20.4849 108.65 20.4849C108.502 20.4849 108.371 20.4526 108.256 20.3879C108.141 20.3223 108.051 20.2238 107.985 20.0924C107.919 19.9601 107.886 19.7934 107.886 19.5923V18.0902H108.25V19.5677C108.25 19.74 108.298 19.8775 108.394 19.9801C108.492 20.0827 108.616 20.134 108.767 20.134C108.857 20.134 108.949 20.1109 109.042 20.0647C109.137 20.0186 109.216 19.9478 109.279 19.8524C109.344 19.7569 109.376 19.6354 109.376 19.4876ZM110.768 17.3023V20.4541H110.405V17.3023H110.768Z" fill="black"/>
</g>
</g>
<g filter="url(#filter2_d_533_909)">
<rect x="135.926" y="0.348633" width="65.3244" height="65.3244" rx="19.5973" fill="white"/>
<g clip-path="url(#clip2_533_909)">
<path d="M172.392 14.9893H164.671C157.964 14.9893 152.527 20.4262 152.527 27.133V39.0877C152.527 45.7944 157.964 51.2314 164.671 51.2314H172.392C179.099 51.2314 184.536 45.7944 184.536 39.0877V27.133C184.536 20.4262 179.099 14.9893 172.392 14.9893Z" fill="#BDDDE6" stroke="black" stroke-width="0.53996" stroke-miterlimit="10"/>
<path d="M157.863 20.7075C157.863 20.7075 167.286 26.8684 179.202 19.9785" stroke="black" stroke-width="0.53996" stroke-miterlimit="10" stroke-linecap="round"/>
<path d="M164.629 40.4264C164.629 40.4264 172.723 35.9771 175.525 36.1391" stroke="black" stroke-width="1.01121" stroke-miterlimit="10" stroke-linecap="round"/>
<path d="M166.076 28.4189C166.076 28.4189 165.795 29.5475 163.182 31.0701" stroke="black" stroke-width="1.07992" stroke-miterlimit="10" stroke-linecap="round"/>
<path d="M172.841 31.0694C172.841 31.0694 171.129 30.848 168.516 27.457" stroke="black" stroke-width="1.01121" stroke-miterlimit="10" stroke-linecap="round"/>
<g clip-path="url(#clip3_533_909)">
<path d="M162.591 32.8529C162.581 32.8418 162.57 32.8328 162.556 32.8267C162.543 32.8206 162.528 32.8174 162.514 32.8174C162.499 32.8174 162.485 32.8206 162.471 32.8267C162.458 32.8328 162.446 32.8418 162.437 32.8529C162.169 33.1663 161.295 34.2499 161.295 35.0526C161.295 35.8006 161.766 36.2715 162.514 36.2715C163.262 36.2715 163.733 35.8006 163.733 35.0526C163.733 34.2499 162.859 33.1663 162.591 32.8529ZM162.649 35.8313C162.633 35.8314 162.617 35.8275 162.602 35.82C162.588 35.8126 162.576 35.8018 162.566 35.7885C162.557 35.7752 162.551 35.7599 162.548 35.7438C162.546 35.7276 162.548 35.7112 162.553 35.6959C162.56 35.6759 162.573 35.6586 162.591 35.6464C162.608 35.6342 162.629 35.6279 162.65 35.6282C162.784 35.6279 162.913 35.5743 163.008 35.4793C163.103 35.3842 163.157 35.2554 163.157 35.1209C163.157 35.0997 163.163 35.079 163.175 35.0617C163.187 35.0443 163.205 35.0313 163.225 35.0243C163.24 35.0189 163.257 35.0172 163.273 35.0195C163.289 35.0217 163.304 35.0278 163.317 35.0372C163.331 35.0466 163.341 35.0591 163.349 35.0735C163.356 35.088 163.36 35.104 163.36 35.1203C163.36 35.3088 163.285 35.4896 163.152 35.6228C163.018 35.7561 162.838 35.8311 162.649 35.8313Z" fill="white"/>
</g>
<path d="M164.628 20.4541V17.3023H165.73C165.949 17.3023 166.13 17.3403 166.273 17.4162C166.416 17.4911 166.522 17.5921 166.591 17.7194C166.661 17.8455 166.696 17.9856 166.696 18.1395C166.696 18.2749 166.672 18.3868 166.624 18.475C166.577 18.5632 166.514 18.633 166.436 18.6843C166.359 18.7356 166.275 18.7735 166.185 18.7982V18.829C166.282 18.8351 166.379 18.869 166.476 18.9305C166.574 18.9921 166.655 19.0803 166.721 19.1952C166.786 19.3101 166.819 19.4507 166.819 19.6169C166.819 19.7749 166.783 19.917 166.712 20.0432C166.64 20.1694 166.526 20.2694 166.371 20.3433C166.216 20.4172 166.015 20.4541 165.767 20.4541H164.628ZM165.009 20.1155H165.767C166.016 20.1155 166.193 20.0673 166.298 19.9709C166.403 19.8734 166.456 19.7554 166.456 19.6169C166.456 19.5102 166.429 19.4117 166.374 19.3214C166.32 19.2301 166.243 19.1573 166.142 19.1029C166.042 19.0475 165.923 19.0198 165.785 19.0198H165.009V20.1155ZM165.009 18.6874H165.717C165.832 18.6874 165.936 18.6648 166.028 18.6197C166.122 18.5745 166.195 18.5109 166.25 18.4288C166.305 18.3467 166.333 18.2503 166.333 18.1395C166.333 18.001 166.285 17.8835 166.188 17.7871C166.092 17.6896 165.939 17.6409 165.73 17.6409H165.009V18.6874ZM167.76 17.3023V20.4541H167.397V17.3023H167.76ZM169.915 19.4876V18.0902H170.278V20.4541H169.915V20.054H169.891C169.835 20.174 169.749 20.2761 169.632 20.3602C169.515 20.4433 169.367 20.4849 169.189 20.4849C169.041 20.4849 168.91 20.4526 168.795 20.3879C168.68 20.3223 168.59 20.2238 168.524 20.0924C168.458 19.9601 168.426 19.7934 168.426 19.5923V18.0902H168.789V19.5677C168.789 19.74 168.837 19.8775 168.933 19.9801C169.031 20.0827 169.155 20.134 169.306 20.134C169.396 20.134 169.488 20.1109 169.581 20.0647C169.676 20.0186 169.755 19.9478 169.818 19.8524C169.883 19.7569 169.915 19.6354 169.915 19.4876ZM171.935 20.5033C171.707 20.5033 171.511 20.4531 171.345 20.3525C171.181 20.251 171.054 20.1094 170.965 19.9278C170.877 19.7451 170.833 19.5328 170.833 19.2906C170.833 19.0485 170.877 18.8351 170.965 18.6504C171.054 18.4647 171.179 18.3201 171.338 18.2164C171.498 18.1118 171.684 18.0595 171.898 18.0595C172.021 18.0595 172.143 18.08 172.263 18.121C172.383 18.1621 172.492 18.2288 172.59 18.3211C172.689 18.4124 172.767 18.5335 172.826 18.6843C172.884 18.8351 172.914 19.0208 172.914 19.2414V19.3953H171.091V19.0813H172.544C172.544 18.948 172.518 18.829 172.464 18.7243C172.412 18.6197 172.337 18.5371 172.239 18.4765C172.143 18.416 172.029 18.3857 171.898 18.3857C171.753 18.3857 171.628 18.4216 171.522 18.4935C171.418 18.5642 171.337 18.6566 171.281 18.7705C171.224 18.8844 171.196 19.0064 171.196 19.1367V19.346C171.196 19.5246 171.227 19.6759 171.288 19.8C171.351 19.9232 171.438 20.017 171.549 20.0817C171.659 20.1453 171.788 20.1771 171.935 20.1771C172.03 20.1771 172.116 20.1637 172.193 20.1371C172.271 20.1094 172.339 20.0683 172.395 20.014C172.451 19.9586 172.495 19.8898 172.526 19.8077L172.877 19.9062C172.84 20.0252 172.778 20.1299 172.69 20.2202C172.603 20.3094 172.495 20.3792 172.367 20.4295C172.239 20.4787 172.095 20.5033 171.935 20.5033Z" fill="black"/>
</g>
</g>
<defs>
<filter id="filter0_d_533_909" x="0.494447" y="0.348633" width="70.5502" height="70.5502" filterUnits="userSpaceOnUse" color-interpolation-filters="sRGB">
<feFlood flood-opacity="0" result="BackgroundImageFix"/>
<feColorMatrix in="SourceAlpha" type="matrix" values="0 0 0 0 0 0 0 0 0 0 0 0 0 0 0 0 0 0 127 0" result="hardAlpha"/>
<feOffset dy="2.61298"/>
<feGaussianBlur stdDeviation="1.30649"/>
<feComposite in2="hardAlpha" operator="out"/>
<feColorMatrix type="matrix" values="0 0 0 0 0 0 0 0 0 0 0 0 0 0 0 0 0 0 0.25 0"/>
<feBlend mode="normal" in2="BackgroundImageFix" result="effect1_dropShadow_533_909"/>
<feBlend mode="normal" in="SourceGraphic" in2="effect1_dropShadow_533_909" result="shape"/>
</filter>
<filter id="filter1_d_533_909" x="66.9046" y="0.348633" width="70.5502" height="70.5502" filterUnits="userSpaceOnUse" color-interpolation-filters="sRGB">
<feFlood flood-opacity="0" result="BackgroundImageFix"/>
<feColorMatrix in="SourceAlpha" type="matrix" values="0 0 0 0 0 0 0 0 0 0 0 0 0 0 0 0 0 0 127 0" result="hardAlpha"/>
<feOffset dy="2.61298"/>
<feGaussianBlur stdDeviation="1.30649"/>
<feComposite in2="hardAlpha" operator="out"/>
<feColorMatrix type="matrix" values="0 0 0 0 0 0 0 0 0 0 0 0 0 0 0 0 0 0 0.25 0"/>
<feBlend mode="normal" in2="BackgroundImageFix" result="effect1_dropShadow_533_909"/>
<feBlend mode="normal" in="SourceGraphic" in2="effect1_dropShadow_533_909" result="shape"/>
</filter>
<filter id="filter2_d_533_909" x="133.313" y="0.348633" width="70.5502" height="70.5502" filterUnits="userSpaceOnUse" color-interpolation-filters="sRGB">
<feFlood flood-opacity="0" result="BackgroundImageFix"/>
<feColorMatrix in="SourceAlpha" type="matrix" values="0 0 0 0 0 0 0 0 0 0 0 0 0 0 0 0 0 0 127 0" result="hardAlpha"/>
<feOffset dy="2.61298"/>
<feGaussianBlur stdDeviation="1.30649"/>
<feComposite in2="hardAlpha" operator="out"/>
<feColorMatrix type="matrix" values="0 0 0 0 0 0 0 0 0 0 0 0 0 0 0 0 0 0 0.25 0"/>
<feBlend mode="normal" in2="BackgroundImageFix" result="effect1_dropShadow_533_909"/>
<feBlend mode="normal" in="SourceGraphic" in2="effect1_dropShadow_533_909" result="shape"/>
</filter>
<clipPath id="clip0_533_909">
<rect width="32.5488" height="36.7821" fill="white" transform="translate(19.4375 14.7197)"/>
</clipPath>
<clipPath id="clip1_533_909">
<rect width="32.5488" height="36.7821" fill="white" transform="translate(85.8496 14.7197)"/>
</clipPath>
<clipPath id="clip2_533_909">
<rect width="32.5488" height="36.7821" fill="white" transform="translate(152.256 14.7197)"/>
</clipPath>
<clipPath id="clip3_533_909">
<rect width="4.33374" height="4.33374" fill="white" transform="translate(160.346 32.3438)"/>
</clipPath>
</defs>
</svg>
