<svg width="226" height="255" viewBox="0 0 226 255" fill="none" xmlns="http://www.w3.org/2000/svg">
<g clip-path="url(#clip0_757_1136)">
<path d="M139.384 1.86865H85.9328C39.5056 1.86865 1.8689 39.5053 1.8689 85.9326V168.688C1.8689 215.115 39.5056 252.752 85.9328 252.752H139.384C185.811 252.752 223.448 215.115 223.448 168.688V85.9326C223.448 39.5053 185.811 1.86865 139.384 1.86865Z" fill="#BDDDE6" stroke="black" stroke-width="3.73783" stroke-miterlimit="10"/>
<path d="M38.7986 41.4523C38.7986 41.4523 104.024 84.101 186.518 36.4062" stroke="black" stroke-width="3.73783" stroke-miterlimit="10" stroke-linecap="round"/>
<path d="M85.6338 177.958C85.6338 177.958 141.664 147.159 161.063 148.28" stroke="black" stroke-width="7" stroke-miterlimit="10" stroke-linecap="round"/>
<path d="M95.6515 94.8291C95.6515 94.8291 93.7078 102.641 75.6167 113.182" stroke="black" stroke-width="7.47567" stroke-miterlimit="10" stroke-linecap="round"/>
<path d="M142.486 113.181C142.486 113.181 130.638 111.649 112.546 88.1753" stroke="black" stroke-width="7" stroke-miterlimit="10" stroke-linecap="round"/>
<path d="M71.5344 125.523C71.4684 125.446 71.3865 125.384 71.2943 125.341C71.2021 125.299 71.1018 125.277 71.0003 125.277C70.8988 125.277 70.7985 125.299 70.7063 125.341C70.6141 125.384 70.5322 125.446 70.4662 125.523C68.6111 127.692 62.5625 135.194 62.5625 140.75C62.5625 145.928 65.8227 149.188 71 149.188C76.1773 149.188 79.4375 145.928 79.4375 140.75C79.4375 135.194 73.3889 127.692 71.5344 125.523ZM71.9375 146.141C71.8249 146.141 71.7139 146.114 71.6138 146.062C71.5137 146.011 71.4274 145.936 71.3623 145.844C71.2972 145.752 71.2551 145.646 71.2396 145.534C71.224 145.423 71.2355 145.309 71.273 145.203C71.321 145.065 71.4114 144.945 71.5315 144.861C71.6515 144.776 71.795 144.732 71.9416 144.734C72.8723 144.732 73.7643 144.362 74.4224 143.704C75.0805 143.046 75.4511 142.154 75.4531 141.223C75.451 141.076 75.4951 140.933 75.5793 140.813C75.6635 140.693 75.7833 140.602 75.9219 140.554C76.0281 140.517 76.1417 140.505 76.2532 140.521C76.3648 140.536 76.471 140.578 76.5628 140.644C76.6547 140.709 76.7296 140.795 76.7812 140.895C76.8328 140.995 76.8596 141.106 76.8594 141.219C76.858 142.524 76.339 143.775 75.4163 144.698C74.4935 145.62 73.2424 146.139 71.9375 146.141Z" fill="white"/>
<path d="M85.642 41V19.1818H93.2699C94.7898 19.1818 96.0433 19.4446 97.0305 19.9702C98.0178 20.4886 98.7528 21.1882 99.2358 22.0689C99.7188 22.9425 99.9602 23.9119 99.9602 24.9773C99.9602 25.9148 99.7933 26.6889 99.4595 27.2997C99.1328 27.9105 98.6996 28.3935 98.1598 28.7486C97.6271 29.1037 97.0483 29.3665 96.4233 29.5369V29.75C97.0909 29.7926 97.7621 30.027 98.4368 30.4531C99.1115 30.8793 99.6761 31.4901 100.131 32.2855C100.585 33.081 100.812 34.054 100.812 35.2045C100.812 36.2983 100.564 37.282 100.067 38.1555C99.5696 39.0291 98.7848 39.7216 97.7124 40.233C96.6399 40.7443 95.2443 41 93.5256 41H85.642ZM88.2841 38.6562H93.5256C95.2514 38.6562 96.4766 38.3224 97.201 37.6548C97.9325 36.9801 98.2983 36.1634 98.2983 35.2045C98.2983 34.4659 98.1101 33.7841 97.7337 33.1591C97.3572 32.527 96.821 32.0227 96.125 31.6463C95.429 31.2628 94.6051 31.071 93.6534 31.071H88.2841V38.6562ZM88.2841 28.7699H93.1847C93.9801 28.7699 94.6974 28.6136 95.3366 28.3011C95.983 27.9886 96.4943 27.5483 96.8707 26.9801C97.2543 26.4119 97.446 25.7443 97.446 24.9773C97.446 24.0185 97.1122 23.2053 96.4446 22.5376C95.777 21.8629 94.7188 21.5256 93.2699 21.5256H88.2841V28.7699ZM107.327 19.1818V41H104.813V19.1818H107.327ZM122.244 34.3097V24.6364H124.759V41H122.244V38.2301H122.074C121.691 39.0611 121.094 39.7678 120.284 40.3501C119.475 40.9254 118.452 41.2131 117.216 41.2131C116.193 41.2131 115.284 40.9893 114.489 40.5419C113.693 40.0874 113.068 39.4055 112.614 38.4964C112.159 37.5803 111.932 36.4261 111.932 35.0341V24.6364H114.446V34.8636C114.446 36.0568 114.78 37.0085 115.448 37.7188C116.122 38.429 116.982 38.7841 118.026 38.7841C118.651 38.7841 119.286 38.6243 119.933 38.3047C120.586 37.9851 121.133 37.495 121.573 36.8345C122.021 36.174 122.244 35.3324 122.244 34.3097ZM136.224 41.3409C134.648 41.3409 133.288 40.9929 132.144 40.2969C131.008 39.5938 130.131 38.6136 129.513 37.3565C128.902 36.0923 128.597 34.6222 128.597 32.946C128.597 31.2699 128.902 29.7926 129.513 28.5142C130.131 27.2287 130.99 26.2273 132.091 25.5099C133.199 24.7855 134.491 24.4233 135.969 24.4233C136.821 24.4233 137.663 24.5653 138.494 24.8494C139.325 25.1335 140.081 25.5952 140.763 26.2344C141.445 26.8665 141.988 27.7045 142.393 28.7486C142.798 29.7926 143 31.0781 143 32.6051V33.6705H130.386V31.4972H140.443C140.443 30.5739 140.259 29.75 139.889 29.0256C139.527 28.3011 139.009 27.7294 138.334 27.3104C137.666 26.8913 136.878 26.6818 135.969 26.6818C134.967 26.6818 134.101 26.9304 133.369 27.4276C132.645 27.9176 132.087 28.5568 131.697 29.3452C131.306 30.1335 131.111 30.9787 131.111 31.8807V33.3295C131.111 34.5653 131.324 35.6129 131.75 36.4723C132.183 37.3246 132.783 37.9744 133.55 38.4219C134.317 38.8622 135.209 39.0824 136.224 39.0824C136.885 39.0824 137.482 38.9901 138.014 38.8054C138.554 38.6136 139.019 38.3295 139.41 37.9531C139.8 37.5696 140.102 37.0937 140.315 36.5256L142.744 37.2074C142.489 38.0312 142.059 38.7557 141.455 39.3807C140.852 39.9986 140.106 40.4815 139.218 40.8295C138.33 41.1705 137.332 41.3409 136.224 41.3409Z" fill="black"/>
</g>
<defs>
<clipPath id="clip0_757_1136">
<rect width="225.317" height="254.621" fill="white"/>
</clipPath>
</defs>
</svg>
