<svg width="226" height="255" viewBox="0 0 226 255" fill="none" xmlns="http://www.w3.org/2000/svg">
<g clip-path="url(#clip0_289_531)">
<path d="M139.384 1.86865H85.9326C39.5053 1.86865 1.86865 39.5053 1.86865 85.9326V168.688C1.86865 215.115 39.5053 252.752 85.9326 252.752H139.384C185.811 252.752 223.447 215.115 223.447 168.688V85.9326C223.447 39.5053 185.811 1.86865 139.384 1.86865Z" fill="#FEFFF5" stroke="black" stroke-width="3.73783" stroke-miterlimit="10"/>
<path d="M38.7976 48.4523C38.7976 48.4523 104.023 91.101 186.517 43.4062" stroke="#0C0C0C" stroke-width="3.73783" stroke-miterlimit="10" stroke-linecap="round"/>
<path d="M54.7584 104.51C54.7584 104.51 65.0001 131.572 88.5858 104.921" stroke="black" stroke-width="3.73783" stroke-miterlimit="10" stroke-linecap="round"/>
<path d="M120.096 104.51C120.096 104.51 130.338 131.572 153.924 104.921" stroke="black" stroke-width="3.73783" stroke-miterlimit="10" stroke-linecap="round"/>
<path d="M68.3275 150.074C68.3275 150.074 92.4365 191.638 148.018 150.709" stroke="black" stroke-width="3.73783" stroke-miterlimit="10" stroke-linecap="round"/>
<path d="M88.1989 26H85.5568C85.4006 25.2401 85.1271 24.5724 84.7365 23.9972C84.353 23.4219 83.8842 22.9389 83.3303 22.5483C82.7834 22.1506 82.1761 21.8523 81.5085 21.6534C80.8409 21.4545 80.1449 21.3551 79.4205 21.3551C78.0994 21.3551 76.9027 21.6889 75.8303 22.3565C74.7649 23.0241 73.9162 24.0078 73.2841 25.3075C72.6591 26.6072 72.3466 28.2017 72.3466 30.0909C72.3466 31.9801 72.6591 33.5746 73.2841 34.8743C73.9162 36.174 74.7649 37.1577 75.8303 37.8253C76.9027 38.4929 78.0994 38.8267 79.4205 38.8267C80.1449 38.8267 80.8409 38.7273 81.5085 38.5284C82.1761 38.3295 82.7834 38.0348 83.3303 37.6442C83.8842 37.2464 84.353 36.7599 84.7365 36.1847C85.1271 35.6023 85.4006 34.9347 85.5568 34.1818H88.1989C88 35.2969 87.6378 36.2947 87.1122 37.1754C86.5866 38.0561 85.9332 38.8054 85.152 39.4233C84.3707 40.0341 83.4936 40.4993 82.5206 40.8189C81.5547 41.1385 80.5213 41.2983 79.4205 41.2983C77.5597 41.2983 75.9048 40.8438 74.456 39.9347C73.0071 39.0256 71.8672 37.733 71.0362 36.0568C70.2053 34.3807 69.7898 32.392 69.7898 30.0909C69.7898 27.7898 70.2053 25.8011 71.0362 24.125C71.8672 22.4489 73.0071 21.1562 74.456 20.2472C75.9048 19.3381 77.5597 18.8835 79.4205 18.8835C80.5213 18.8835 81.5547 19.0433 82.5206 19.3629C83.4936 19.6825 84.3707 20.1513 85.152 20.7692C85.9332 21.38 86.5866 22.1257 87.1122 23.0064C87.6378 23.88 88 24.8778 88.1989 26ZM96.9426 41.3835C95.9057 41.3835 94.9647 41.1882 94.1195 40.7976C93.2743 40.3999 92.6032 39.8281 92.106 39.0824C91.6088 38.3295 91.3603 37.4205 91.3603 36.3551C91.3603 35.4176 91.5449 34.6577 91.9142 34.0753C92.2836 33.4858 92.7772 33.0241 93.3951 32.6903C94.013 32.3565 94.6948 32.108 95.4405 31.9446C96.1934 31.7741 96.9498 31.6392 97.7097 31.5398C98.704 31.4119 99.5101 31.3161 100.128 31.2521C100.753 31.1811 101.208 31.0639 101.492 30.9006C101.783 30.7372 101.928 30.4531 101.928 30.0483V29.9631C101.928 28.9119 101.641 28.0952 101.066 27.5128C100.497 26.9304 99.6344 26.6392 98.4767 26.6392C97.2765 26.6392 96.3354 26.902 95.6536 27.4276C94.9718 27.9531 94.4924 28.5142 94.2154 29.1108L91.829 28.2585C92.2551 27.2642 92.8233 26.4901 93.5336 25.9361C94.2509 25.375 95.0321 24.9844 95.8773 24.7642C96.7296 24.5369 97.5676 24.4233 98.3915 24.4233C98.9171 24.4233 99.5208 24.4872 100.203 24.6151C100.892 24.7358 101.556 24.9879 102.195 25.3714C102.841 25.755 103.377 26.3338 103.803 27.108C104.23 27.8821 104.443 28.919 104.443 30.2188V41H101.928V38.7841H101.801C101.63 39.1392 101.346 39.5192 100.948 39.924C100.551 40.3288 100.021 40.6733 99.361 40.9574C98.7005 41.2415 97.8944 41.3835 96.9426 41.3835ZM97.3262 39.125C98.3205 39.125 99.1586 38.9297 99.8404 38.5391C100.529 38.1484 101.048 37.6442 101.396 37.0263C101.751 36.4084 101.928 35.7585 101.928 35.0767V32.7756C101.822 32.9034 101.588 33.0206 101.225 33.1271C100.87 33.2266 100.458 33.3153 99.9895 33.3935C99.5279 33.4645 99.0769 33.5284 98.6365 33.5852C98.2033 33.6349 97.8517 33.6776 97.5819 33.7131C96.9284 33.7983 96.3176 33.9368 95.7495 34.1286C95.1884 34.3132 94.7338 34.5937 94.3858 34.9702C94.0449 35.3395 93.8745 35.8437 93.8745 36.483C93.8745 37.3565 94.1976 38.017 94.8439 38.4645C95.4973 38.9048 96.3248 39.125 97.3262 39.125ZM111.546 19.1818V41H109.032V19.1818H111.546ZM116.151 41V24.6364H118.58V27.1932H118.793C119.134 26.3196 119.684 25.6413 120.444 25.1584C121.204 24.6683 122.117 24.4233 123.182 24.4233C124.262 24.4233 125.16 24.6683 125.877 25.1584C126.602 25.6413 127.166 26.3196 127.571 27.1932H127.742C128.161 26.348 128.789 25.6768 129.627 25.1797C130.465 24.6754 131.47 24.4233 132.642 24.4233C134.105 24.4233 135.302 24.8814 136.232 25.7976C137.163 26.7067 137.628 28.1236 137.628 30.0483V41H135.114V30.0483C135.114 28.8409 134.784 27.978 134.123 27.4595C133.463 26.9411 132.685 26.6818 131.79 26.6818C130.639 26.6818 129.748 27.0298 129.116 27.7259C128.484 28.4148 128.168 29.2884 128.168 30.3466V41H125.611V29.7926C125.611 28.8622 125.309 28.1129 124.705 27.5447C124.102 26.9695 123.324 26.6818 122.372 26.6818C121.719 26.6818 121.108 26.8558 120.54 27.2038C119.979 27.5518 119.524 28.0348 119.176 28.6527C118.835 29.2635 118.665 29.9702 118.665 30.7727V41H116.151Z" fill="black"/>
</g>
<defs>
<clipPath id="clip0_289_531">
<rect width="225.317" height="254.621" fill="white"/>
</clipPath>
</defs>
</svg>
