<svg width="226" height="255" viewBox="0 0 226 255" fill="none" xmlns="http://www.w3.org/2000/svg">
<g clip-path="url(#clip0_761_1308)">
<path d="M139.384 1.86865H85.9326C39.5053 1.86865 1.86865 39.5053 1.86865 85.9326V168.688C1.86865 215.115 39.5053 252.752 85.9326 252.752H139.384C185.811 252.752 223.447 215.115 223.447 168.688V85.9326C223.447 39.5053 185.811 1.86865 139.384 1.86865Z" fill="#FFF9D7" stroke="black" stroke-width="3.73783" stroke-miterlimit="10"/>
<path d="M38.7976 48.4523C38.7976 48.4523 104.023 91.101 186.517 43.4062" stroke="#0C0C0C" stroke-width="3.73783" stroke-miterlimit="10" stroke-linecap="round"/>
<path d="M63.642 41V19.1818H76.8097V21.5256H66.2841V28.8977H76.1278V31.2415H66.2841V38.6562H76.9801V41H63.642ZM83.1058 24.6364L87.0263 31.3267L90.9467 24.6364H93.8445L88.5604 32.8182L93.8445 41H90.9467L87.0263 34.6506L83.1058 41H80.2081L85.407 32.8182L80.2081 24.6364H83.1058ZM103.406 41.3409C101.872 41.3409 100.551 40.9787 99.4428 40.2543C98.3349 39.5298 97.4826 38.532 96.886 37.2607C96.2894 35.9893 95.9911 34.5369 95.9911 32.9034C95.9911 31.2415 96.2965 29.7749 96.9073 28.5036C97.5252 27.2251 98.3846 26.2273 99.4854 25.5099C100.593 24.7855 101.886 24.4233 103.363 24.4233C104.514 24.4233 105.551 24.6364 106.474 25.0625C107.397 25.4886 108.154 26.0852 108.743 26.8523C109.333 27.6193 109.699 28.5142 109.841 29.5369H107.326C107.135 28.7912 106.708 28.1307 106.048 27.5554C105.395 26.973 104.514 26.6818 103.406 26.6818C102.426 26.6818 101.566 26.9375 100.828 27.4489C100.096 27.9531 99.5245 28.6669 99.1126 29.5902C98.7077 30.5064 98.5053 31.5824 98.5053 32.8182C98.5053 34.0824 98.7042 35.1832 99.1019 36.1207C99.5067 37.0582 100.075 37.7862 100.806 38.3047C101.545 38.8232 102.412 39.0824 103.406 39.0824C104.059 39.0824 104.652 38.9688 105.185 38.7415C105.718 38.5142 106.169 38.1875 106.538 37.7614C106.907 37.3352 107.17 36.8239 107.326 36.2273H109.841C109.699 37.1932 109.347 38.0632 108.786 38.8374C108.232 39.6044 107.497 40.2152 106.581 40.6697C105.672 41.1172 104.613 41.3409 103.406 41.3409ZM113.516 41V24.6364H116.03V41H113.516ZM114.794 21.9091C114.304 21.9091 113.882 21.7422 113.527 21.4084C113.179 21.0746 113.005 20.6733 113.005 20.2045C113.005 19.7358 113.179 19.3345 113.527 19.0007C113.882 18.6669 114.304 18.5 114.794 18.5C115.284 18.5 115.703 18.6669 116.051 19.0007C116.407 19.3345 116.584 19.7358 116.584 20.2045C116.584 20.6733 116.407 21.0746 116.051 21.4084C115.703 21.7422 115.284 21.9091 114.794 21.9091ZM127.752 24.6364V26.767H119.271V24.6364H127.752ZM121.743 20.7159H124.257V36.3125C124.257 37.0227 124.36 37.5554 124.566 37.9105C124.779 38.2585 125.049 38.4929 125.376 38.6136C125.71 38.7273 126.061 38.7841 126.431 38.7841C126.708 38.7841 126.935 38.7699 127.112 38.7415C127.29 38.706 127.432 38.6776 127.539 38.6562L128.05 40.9148C127.879 40.9787 127.642 41.0426 127.336 41.1065C127.031 41.1776 126.644 41.2131 126.175 41.2131C125.465 41.2131 124.769 41.0604 124.087 40.755C123.412 40.4496 122.851 39.9844 122.404 39.3594C121.963 38.7344 121.743 37.946 121.743 36.9943V20.7159ZM138.219 41.3409C136.642 41.3409 135.282 40.9929 134.138 40.2969C133.002 39.5938 132.125 38.6136 131.507 37.3565C130.896 36.0923 130.591 34.6222 130.591 32.946C130.591 31.2699 130.896 29.7926 131.507 28.5142C132.125 27.2287 132.984 26.2273 134.085 25.5099C135.193 24.7855 136.486 24.4233 137.963 24.4233C138.815 24.4233 139.657 24.5653 140.488 24.8494C141.319 25.1335 142.075 25.5952 142.757 26.2344C143.439 26.8665 143.982 27.7045 144.387 28.7486C144.792 29.7926 144.994 31.0781 144.994 32.6051V33.6705H132.381V31.4972H142.437C142.437 30.5739 142.253 29.75 141.883 29.0256C141.521 28.3011 141.003 27.7294 140.328 27.3104C139.66 26.8913 138.872 26.6818 137.963 26.6818C136.961 26.6818 136.095 26.9304 135.363 27.4276C134.639 27.9176 134.081 28.5568 133.691 29.3452C133.3 30.1335 133.105 30.9787 133.105 31.8807V33.3295C133.105 34.5653 133.318 35.6129 133.744 36.4723C134.177 37.3246 134.778 37.9744 135.545 38.4219C136.312 38.8622 137.203 39.0824 138.219 39.0824C138.879 39.0824 139.476 38.9901 140.008 38.8054C140.548 38.6136 141.013 38.3295 141.404 37.9531C141.795 37.5696 142.096 37.0937 142.309 36.5256L144.738 37.2074C144.483 38.0312 144.053 38.7557 143.449 39.3807C142.846 39.9986 142.1 40.4815 141.212 40.8295C140.324 41.1705 139.327 41.3409 138.219 41.3409ZM154.998 41.3409C153.634 41.3409 152.43 40.9964 151.386 40.3075C150.342 39.6115 149.525 38.6314 148.936 37.3672C148.346 36.0959 148.052 34.5938 148.052 32.8608C148.052 31.142 148.346 29.6506 148.936 28.3864C149.525 27.1222 150.346 26.1456 151.397 25.4567C152.448 24.7678 153.662 24.4233 155.04 24.4233C156.106 24.4233 156.947 24.6009 157.565 24.956C158.19 25.304 158.666 25.7017 158.993 26.1491C159.327 26.5895 159.586 26.9517 159.77 27.2358H159.983V19.1818H162.498V41H160.069V38.4858H159.77C159.586 38.7841 159.323 39.1605 158.982 39.6151C158.641 40.0625 158.155 40.4638 157.523 40.8189C156.89 41.1669 156.049 41.3409 154.998 41.3409ZM155.339 39.0824C156.347 39.0824 157.199 38.8196 157.895 38.294C158.591 37.7614 159.121 37.0263 159.483 36.0888C159.845 35.1442 160.026 34.054 160.026 32.8182C160.026 31.5966 159.849 30.5277 159.493 29.6115C159.138 28.6882 158.613 27.9709 157.917 27.4595C157.221 26.9411 156.361 26.6818 155.339 26.6818C154.273 26.6818 153.385 26.9553 152.675 27.5021C151.972 28.0419 151.443 28.777 151.088 29.7074C150.74 30.6307 150.566 31.6676 150.566 32.8182C150.566 33.983 150.743 35.0412 151.099 35.9929C151.461 36.9375 151.993 37.6903 152.697 38.2514C153.407 38.8054 154.287 39.0824 155.339 39.0824Z" fill="black"/>
<path d="M48 134.786C48 134.786 124.041 128.312 50.8275 101.057" stroke="black" stroke-width="3.73783" stroke-miterlimit="10" stroke-linecap="round"/>
<path d="M156.54 101C156.54 101 83.4332 122.898 160.675 134.593" stroke="black" stroke-width="3.73783" stroke-miterlimit="10" stroke-linecap="round"/>
<path d="M66 160C66 160 90.109 201.565 145.691 160.635" stroke="black" stroke-width="3.73783" stroke-miterlimit="10" stroke-linecap="round"/>
</g>
<defs>
<clipPath id="clip0_761_1308">
<rect width="225.317" height="254.621" fill="white"/>
</clipPath>
</defs>
</svg>
