<svg width="226" height="255" viewBox="0 0 226 255" fill="none" xmlns="http://www.w3.org/2000/svg">
<g clip-path="url(#clip0_359_656)">
<path d="M139.384 1.86865H85.9328C39.5056 1.86865 1.8689 39.5053 1.8689 85.9326V168.688C1.8689 215.115 39.5056 252.752 85.9328 252.752H139.384C185.811 252.752 223.448 215.115 223.448 168.688V85.9326C223.448 39.5053 185.811 1.86865 139.384 1.86865Z" fill="#D9FFD8" stroke="black" stroke-width="3.73783" stroke-miterlimit="10"/>
<path d="M38.7986 54.4518C38.7986 54.4518 104.024 97.1005 186.518 49.4058" stroke="#0C0C0C" stroke-width="3.73783" stroke-miterlimit="10" stroke-linecap="round"/>
<path d="M185.733 141.477H35.0235C31.2045 141.477 28.1085 144.573 28.1085 148.392V214.739C28.1085 218.558 31.2045 221.654 35.0235 221.654H185.733C189.552 221.654 192.648 218.558 192.648 214.739V148.392C192.648 144.573 189.552 141.477 185.733 141.477Z" fill="#FCFCFC" stroke="black" stroke-width="1.86892" stroke-miterlimit="10" stroke-linecap="round"/>
<path d="M28.1085 172.09L40.9293 171.23" stroke="black" stroke-width="1.86892" stroke-miterlimit="10" stroke-linecap="round"/>
<path d="M29.0433 189.284L38.6122 187.789" stroke="black" stroke-width="1.86892" stroke-miterlimit="10" stroke-linecap="round"/>
<path d="M192.685 171.231L173.622 170.371" stroke="black" stroke-width="1.86892" stroke-miterlimit="10" stroke-linecap="round"/>
<path d="M191.265 184.611L178.743 185.882" stroke="black" stroke-width="1.86892" stroke-miterlimit="10" stroke-linecap="round"/>
<path d="M192.685 178.444L222.476 144.916" stroke="black" stroke-width="1.86892" stroke-miterlimit="10" stroke-linecap="round"/>
<path d="M28.1085 181.995L1.8689 151.382" stroke="black" stroke-width="1.86892" stroke-miterlimit="10" stroke-linecap="round"/>
<path d="M141.738 102.416L166.595 130.188" stroke="black" stroke-width="3.73783" stroke-miterlimit="10" stroke-linecap="round"/>
<path d="M139.421 130.189L168.053 103.65" stroke="black" stroke-width="3.73783" stroke-miterlimit="10" stroke-linecap="round"/>
<path d="M52.2175 103.65L77.0368 131.423" stroke="black" stroke-width="3.73783" stroke-miterlimit="10" stroke-linecap="round"/>
<path d="M49.8629 131.422L78.4947 104.884" stroke="black" stroke-width="3.73783" stroke-miterlimit="10" stroke-linecap="round"/>
<path d="M40.642 44V22.1818H53.8097V24.5256H43.2841V31.8977H53.1278V34.2415H43.2841V41.6562H53.9801V44H40.642ZM60.1058 27.6364L64.0263 34.3267L67.9467 27.6364H70.8445L65.5604 35.8182L70.8445 44H67.9467L64.0263 37.6506L60.1058 44H57.2081L62.407 35.8182L57.2081 27.6364H60.1058ZM76.9462 34.1562V44H74.432V22.1818H76.9462V30.1932H77.1593C77.5428 29.348 78.1181 28.6768 78.8851 28.1797C79.6593 27.6754 80.6891 27.4233 81.9746 27.4233C83.0897 27.4233 84.0662 27.647 84.9043 28.0945C85.7424 28.5348 86.3922 29.2131 86.8539 30.1293C87.3226 31.0384 87.557 32.196 87.557 33.6023V44H85.0428V33.7727C85.0428 32.473 84.7054 31.468 84.0307 30.7578C83.3631 30.0405 82.4363 29.6818 81.2502 29.6818C80.4263 29.6818 79.6877 29.8558 79.0343 30.2038C78.388 30.5518 77.8766 31.0597 77.5002 31.7273C77.1309 32.3949 76.9462 33.2045 76.9462 34.1562ZM96.9719 44.3835C95.935 44.3835 94.994 44.1882 94.1488 43.7976C93.3036 43.3999 92.6325 42.8281 92.1353 42.0824C91.6381 41.3295 91.3896 40.4205 91.3896 39.3551C91.3896 38.4176 91.5742 37.6577 91.9435 37.0753C92.3129 36.4858 92.8065 36.0241 93.4244 35.6903C94.0423 35.3565 94.7241 35.108 95.4698 34.9446C96.2227 34.7741 96.979 34.6392 97.739 34.5398C98.7333 34.4119 99.5394 34.3161 100.157 34.2521C100.782 34.1811 101.237 34.0639 101.521 33.9006C101.812 33.7372 101.958 33.4531 101.958 33.0483V32.9631C101.958 31.9119 101.67 31.0952 101.095 30.5128C100.527 29.9304 99.6637 29.6392 98.506 29.6392C97.3058 29.6392 96.3647 29.902 95.6829 30.4276C95.0011 30.9531 94.5217 31.5142 94.2447 32.1108L91.8583 31.2585C92.2844 30.2642 92.8526 29.4901 93.5629 28.9361C94.2802 28.375 95.0614 27.9844 95.9066 27.7642C96.7589 27.5369 97.5969 27.4233 98.4208 27.4233C98.9464 27.4233 99.5501 27.4872 100.232 27.6151C100.921 27.7358 101.585 27.9879 102.224 28.3714C102.87 28.755 103.407 29.3338 103.833 30.108C104.259 30.8821 104.472 31.919 104.472 33.2188V44H101.958V41.7841H101.83C101.659 42.1392 101.375 42.5192 100.978 42.924C100.58 43.3288 100.051 43.6733 99.3903 43.9574C98.7298 44.2415 97.9237 44.3835 96.9719 44.3835ZM97.3555 42.125C98.3498 42.125 99.1879 41.9297 99.8697 41.5391C100.559 41.1484 101.077 40.6442 101.425 40.0263C101.78 39.4084 101.958 38.7585 101.958 38.0767V35.7756C101.851 35.9034 101.617 36.0206 101.255 36.1271C100.9 36.2266 100.488 36.3153 100.019 36.3935C99.5572 36.4645 99.1062 36.5284 98.6658 36.5852C98.2326 36.6349 97.881 36.6776 97.6112 36.7131C96.9577 36.7983 96.3469 36.9368 95.7788 37.1286C95.2177 37.3132 94.7631 37.5937 94.4151 37.9702C94.0742 38.3395 93.9038 38.8437 93.9038 39.483C93.9038 40.3565 94.2269 41.017 94.8732 41.4645C95.5266 41.9048 96.354 42.125 97.3555 42.125ZM119.373 37.3097V27.6364H121.888V44H119.373V41.2301H119.203C118.819 42.0611 118.223 42.7678 117.413 43.3501C116.604 43.9254 115.581 44.2131 114.345 44.2131C113.322 44.2131 112.413 43.9893 111.618 43.5419C110.822 43.0874 110.197 42.4055 109.743 41.4964C109.288 40.5803 109.061 39.4261 109.061 38.0341V27.6364H111.575V37.8636C111.575 39.0568 111.909 40.0085 112.577 40.7188C113.251 41.429 114.111 41.7841 115.155 41.7841C115.78 41.7841 116.415 41.6243 117.062 41.3047C117.715 40.9851 118.262 40.495 118.702 39.8345C119.15 39.174 119.373 38.3324 119.373 37.3097ZM138.083 31.3011L135.825 31.9403C135.683 31.5639 135.473 31.1982 135.196 30.843C134.926 30.4808 134.557 30.1825 134.088 29.9482C133.62 29.7138 133.02 29.5966 132.288 29.5966C131.287 29.5966 130.452 29.8274 129.784 30.2891C129.124 30.7436 128.794 31.3224 128.794 32.0256C128.794 32.6506 129.021 33.1442 129.475 33.5064C129.93 33.8686 130.64 34.1705 131.606 34.4119L134.035 35.0085C135.498 35.3636 136.588 35.907 137.306 36.6385C138.023 37.3629 138.382 38.2969 138.382 39.4403C138.382 40.3778 138.112 41.2159 137.572 41.9545C137.039 42.6932 136.294 43.2756 135.335 43.7017C134.376 44.1278 133.261 44.3409 131.99 44.3409C130.321 44.3409 128.939 43.9787 127.846 43.2543C126.752 42.5298 126.059 41.4716 125.768 40.0795L128.154 39.483C128.382 40.3636 128.811 41.0241 129.444 41.4645C130.083 41.9048 130.917 42.125 131.947 42.125C133.119 42.125 134.049 41.8764 134.738 41.3793C135.434 40.875 135.782 40.2713 135.782 39.5682C135.782 39 135.583 38.5241 135.186 38.1406C134.788 37.75 134.177 37.4588 133.353 37.267L130.626 36.6278C129.127 36.2727 128.027 35.7223 127.324 34.9766C126.627 34.2237 126.279 33.2827 126.279 32.1534C126.279 31.2301 126.539 30.4134 127.057 29.7031C127.583 28.9929 128.297 28.4354 129.199 28.0305C130.108 27.6257 131.137 27.4233 132.288 27.4233C133.907 27.4233 135.179 27.7784 136.102 28.4886C137.032 29.1989 137.693 30.1364 138.083 31.3011ZM149.283 27.6364V29.767H140.803V27.6364H149.283ZM143.274 23.7159H145.789V39.3125C145.789 40.0227 145.892 40.5554 146.097 40.9105C146.311 41.2585 146.58 41.4929 146.907 41.6136C147.241 41.7273 147.593 41.7841 147.962 41.7841C148.239 41.7841 148.466 41.7699 148.644 41.7415C148.821 41.706 148.963 41.6776 149.07 41.6562L149.581 43.9148C149.411 43.9787 149.173 44.0426 148.867 44.1065C148.562 44.1776 148.175 44.2131 147.706 44.2131C146.996 44.2131 146.3 44.0604 145.618 43.755C144.943 43.4496 144.382 42.9844 143.935 42.3594C143.494 41.7344 143.274 40.946 143.274 39.9943V23.7159ZM159.75 44.3409C158.173 44.3409 156.813 43.9929 155.67 43.2969C154.533 42.5938 153.656 41.6136 153.038 40.3565C152.427 39.0923 152.122 37.6222 152.122 35.946C152.122 34.2699 152.427 32.7926 153.038 31.5142C153.656 30.2287 154.515 29.2273 155.616 28.5099C156.724 27.7855 158.017 27.4233 159.494 27.4233C160.346 27.4233 161.188 27.5653 162.019 27.8494C162.85 28.1335 163.606 28.5952 164.288 29.2344C164.97 29.8665 165.513 30.7045 165.918 31.7486C166.323 32.7926 166.525 34.0781 166.525 35.6051V36.6705H153.912V34.4972H163.969C163.969 33.5739 163.784 32.75 163.415 32.0256C163.052 31.3011 162.534 30.7294 161.859 30.3104C161.192 29.8913 160.403 29.6818 159.494 29.6818C158.493 29.6818 157.626 29.9304 156.895 30.4276C156.17 30.9176 155.613 31.5568 155.222 32.3452C154.831 33.1335 154.636 33.9787 154.636 34.8807V36.3295C154.636 37.5653 154.849 38.6129 155.275 39.4723C155.709 40.3246 156.309 40.9744 157.076 41.4219C157.843 41.8622 158.734 42.0824 159.75 42.0824C160.41 42.0824 161.007 41.9901 161.54 41.8054C162.079 41.6136 162.545 41.3295 162.935 40.9531C163.326 40.5696 163.628 40.0937 163.841 39.5256L166.27 40.2074C166.014 41.0312 165.584 41.7557 164.981 42.3807C164.377 42.9986 163.631 43.4815 162.743 43.8295C161.856 44.1705 160.858 44.3409 159.75 44.3409ZM176.529 44.3409C175.165 44.3409 173.961 43.9964 172.917 43.3075C171.873 42.6115 171.057 41.6314 170.467 40.3672C169.878 39.0959 169.583 37.5938 169.583 35.8608C169.583 34.142 169.878 32.6506 170.467 31.3864C171.057 30.1222 171.877 29.1456 172.928 28.4567C173.979 27.7678 175.194 27.4233 176.572 27.4233C177.637 27.4233 178.479 27.6009 179.096 27.956C179.721 28.304 180.197 28.7017 180.524 29.1491C180.858 29.5895 181.117 29.9517 181.302 30.2358H181.515V22.1818H184.029V44H181.6V41.4858H181.302C181.117 41.7841 180.854 42.1605 180.513 42.6151C180.172 43.0625 179.686 43.4638 179.054 43.8189C178.422 44.1669 177.58 44.3409 176.529 44.3409ZM176.87 42.0824C177.878 42.0824 178.731 41.8196 179.427 41.294C180.123 40.7614 180.652 40.0263 181.014 39.0888C181.376 38.1442 181.557 37.054 181.557 35.8182C181.557 34.5966 181.38 33.5277 181.025 32.6115C180.67 31.6882 180.144 30.9709 179.448 30.4595C178.752 29.9411 177.893 29.6818 176.87 29.6818C175.805 29.6818 174.917 29.9553 174.206 30.5021C173.503 31.0419 172.974 31.777 172.619 32.7074C172.271 33.6307 172.097 34.6676 172.097 35.8182C172.097 36.983 172.275 38.0412 172.63 38.9929C172.992 39.9375 173.525 40.6903 174.228 41.2514C174.938 41.8054 175.819 42.0824 176.87 42.0824Z" fill="black"/>
</g>
<defs>
<clipPath id="clip0_359_656">
<rect width="225.317" height="254.621" fill="white"/>
</clipPath>
</defs>
</svg>
