<svg width="228" height="255" viewBox="0 0 228 255" fill="none" xmlns="http://www.w3.org/2000/svg">
<g clip-path="url(#clip0_785_1023)">
<path d="M139.384 2H85.9326C39.5053 2 1.86865 39.6367 1.86865 86.0639V168.82C1.86865 215.247 39.5053 252.883 85.9326 252.883H139.384C185.811 252.883 223.447 215.247 223.447 168.82V86.0639C223.447 39.6367 185.811 2 139.384 2Z" fill="#FFEAEA" stroke="black" stroke-width="3.73783" stroke-miterlimit="10"/>
<path d="M38.7976 48.4523C38.7976 48.4523 104.023 91.101 186.517 43.4062" stroke="#0C0C0C" stroke-width="3.73783" stroke-miterlimit="10" stroke-linecap="round"/>
<path d="M73.5568 26C73.3224 25.2827 73.0135 24.6399 72.63 24.0717C72.2536 23.4964 71.8026 23.0064 71.277 22.6016C70.7585 22.1967 70.169 21.8878 69.5085 21.6747C68.848 21.4616 68.1236 21.3551 67.3352 21.3551C66.0426 21.3551 64.8672 21.6889 63.8089 22.3565C62.7507 23.0241 61.9091 24.0078 61.2841 25.3075C60.6591 26.6072 60.3466 28.2017 60.3466 30.0909C60.3466 31.9801 60.6626 33.5746 61.2947 34.8743C61.9268 36.174 62.7827 37.1577 63.8622 37.8253C64.9418 38.4929 66.1563 38.8267 67.5057 38.8267C68.7557 38.8267 69.8565 38.5604 70.8082 38.0277C71.767 37.4879 72.5128 36.728 73.0455 35.7479C73.5852 34.7607 73.8551 33.5994 73.8551 32.2642L74.6648 32.4347H68.1023V30.0909H76.4119V32.4347C76.4119 34.2315 76.0284 35.794 75.2614 37.1222C74.5014 38.4503 73.4503 39.4801 72.108 40.2116C70.7727 40.9361 69.2386 41.2983 67.5057 41.2983C65.5739 41.2983 63.8764 40.8438 62.4134 39.9347C60.9574 39.0256 59.821 37.733 59.0043 36.0568C58.1946 34.3807 57.7898 32.392 57.7898 30.0909C57.7898 28.3651 58.0206 26.8132 58.4822 25.4354C58.951 24.0504 59.6115 22.8714 60.4638 21.8984C61.3161 20.9254 62.3246 20.1797 63.4893 19.6612C64.6541 19.1428 65.9361 18.8835 67.3352 18.8835C68.4858 18.8835 69.5582 19.0575 70.5526 19.4055C71.554 19.7464 72.4453 20.233 73.2266 20.8651C74.0149 21.4901 74.6719 22.2393 75.1974 23.1129C75.723 23.9794 76.0852 24.9418 76.2841 26H73.5568ZM80.5961 41V24.6364H83.025V27.108H83.1955C83.4938 26.2983 84.0336 25.6413 84.8148 25.1371C85.5961 24.6328 86.4767 24.3807 87.4569 24.3807C87.6415 24.3807 87.8723 24.3842 88.1493 24.3913C88.4263 24.3984 88.6358 24.4091 88.7779 24.4233V26.9801C88.6926 26.9588 88.4973 26.9268 88.1919 26.8842C87.8936 26.8345 87.5776 26.8097 87.2438 26.8097C86.4483 26.8097 85.7381 26.9766 85.1131 27.3104C84.4952 27.6371 84.0051 28.0916 83.6429 28.674C83.2878 29.2493 83.1103 29.9062 83.1103 30.6449V41H80.5961ZM96.5735 41.3835C95.5366 41.3835 94.5955 41.1882 93.7504 40.7976C92.9052 40.3999 92.234 39.8281 91.7369 39.0824C91.2397 38.3295 90.9911 37.4205 90.9911 36.3551C90.9911 35.4176 91.1758 34.6577 91.5451 34.0753C91.9144 33.4858 92.408 33.0241 93.0259 32.6903C93.6438 32.3565 94.3256 32.108 95.0714 31.9446C95.8242 31.7741 96.5806 31.6392 97.3406 31.5398C98.3349 31.4119 99.141 31.3161 99.7589 31.2521C100.384 31.1811 100.838 31.0639 101.123 30.9006C101.414 30.7372 101.559 30.4531 101.559 30.0483V29.9631C101.559 28.9119 101.272 28.0952 100.696 27.5128C100.128 26.9304 99.2653 26.6392 98.1076 26.6392C96.9073 26.6392 95.9663 26.902 95.2844 27.4276C94.6026 27.9531 94.1232 28.5142 93.8462 29.1108L91.4599 28.2585C91.886 27.2642 92.4542 26.4901 93.1644 25.9361C93.8817 25.375 94.663 24.9844 95.5082 24.7642C96.3604 24.5369 97.1985 24.4233 98.0224 24.4233C98.5479 24.4233 99.1516 24.4872 99.8335 24.6151C100.522 24.7358 101.186 24.9879 101.826 25.3714C102.472 25.755 103.008 26.3338 103.434 27.108C103.86 27.8821 104.074 28.919 104.074 30.2188V41H101.559V38.7841H101.431C101.261 39.1392 100.977 39.5192 100.579 39.924C100.181 40.3288 99.6523 40.6733 98.9918 40.9574C98.3313 41.2415 97.5252 41.3835 96.5735 41.3835ZM96.957 39.125C97.9513 39.125 98.7894 38.9297 99.4712 38.5391C100.16 38.1484 100.679 37.6442 101.027 37.0263C101.382 36.4084 101.559 35.7585 101.559 35.0767V32.7756C101.453 32.9034 101.218 33.0206 100.856 33.1271C100.501 33.2266 100.089 33.3153 99.6204 33.3935C99.1587 33.4645 98.7077 33.5284 98.2674 33.5852C97.8342 33.6349 97.4826 33.6776 97.2127 33.7131C96.5593 33.7983 95.9485 33.9368 95.3803 34.1286C94.8192 34.3132 94.3647 34.5937 94.0167 34.9702C93.6758 35.3395 93.5053 35.8437 93.5053 36.483C93.5053 37.3565 93.8285 38.017 94.4748 38.4645C95.1282 38.9048 95.9556 39.125 96.957 39.125ZM115.779 24.6364V26.767H107.299V24.6364H115.779ZM109.77 20.7159H112.285V36.3125C112.285 37.0227 112.388 37.5554 112.594 37.9105C112.807 38.2585 113.077 38.4929 113.403 38.6136C113.737 38.7273 114.089 38.7841 114.458 38.7841C114.735 38.7841 114.962 38.7699 115.14 38.7415C115.317 38.706 115.459 38.6776 115.566 38.6562L116.077 40.9148C115.907 40.9787 115.669 41.0426 115.363 41.1065C115.058 41.1776 114.671 41.2131 114.202 41.2131C113.492 41.2131 112.796 41.0604 112.114 40.755C111.439 40.4496 110.878 39.9844 110.431 39.3594C109.991 38.7344 109.77 37.946 109.77 36.9943V20.7159ZM126.246 41.3409C124.669 41.3409 123.309 40.9929 122.166 40.2969C121.029 39.5938 120.152 38.6136 119.534 37.3565C118.923 36.0923 118.618 34.6222 118.618 32.946C118.618 31.2699 118.923 29.7926 119.534 28.5142C120.152 27.2287 121.012 26.2273 122.112 25.5099C123.22 24.7855 124.513 24.4233 125.99 24.4233C126.843 24.4233 127.684 24.5653 128.515 24.8494C129.346 25.1335 130.102 25.5952 130.784 26.2344C131.466 26.8665 132.009 27.7045 132.414 28.7486C132.819 29.7926 133.021 31.0781 133.021 32.6051V33.6705H120.408V31.4972H130.465C130.465 30.5739 130.28 29.75 129.911 29.0256C129.548 28.3011 129.03 27.7294 128.355 27.3104C127.688 26.8913 126.899 26.6818 125.99 26.6818C124.989 26.6818 124.122 26.9304 123.391 27.4276C122.666 27.9176 122.109 28.5568 121.718 29.3452C121.328 30.1335 121.132 30.9787 121.132 31.8807V33.3295C121.132 34.5653 121.345 35.6129 121.771 36.4723C122.205 37.3246 122.805 37.9744 123.572 38.4219C124.339 38.8622 125.23 39.0824 126.246 39.0824C126.906 39.0824 127.503 38.9901 128.036 38.8054C128.575 38.6136 129.041 38.3295 129.431 37.9531C129.822 37.5696 130.124 37.0937 130.337 36.5256L132.766 37.2074C132.51 38.0312 132.08 38.7557 131.477 39.3807C130.873 39.9986 130.127 40.4815 129.24 40.8295C128.352 41.1705 127.354 41.3409 126.246 41.3409ZM144.133 24.6364V26.767H135.312V24.6364H144.133ZM137.954 41V22.3778C137.954 21.4403 138.174 20.6591 138.615 20.0341C139.055 19.4091 139.627 18.9403 140.33 18.6278C141.033 18.3153 141.775 18.1591 142.556 18.1591C143.174 18.1591 143.678 18.2088 144.069 18.3082C144.46 18.4077 144.751 18.5 144.943 18.5852L144.218 20.7585C144.09 20.7159 143.913 20.6626 143.686 20.5987C143.465 20.5348 143.174 20.5028 142.812 20.5028C141.981 20.5028 141.381 20.7124 141.012 21.1314C140.649 21.5504 140.468 22.1648 140.468 22.9744V41H137.954ZM157.969 34.3097V24.6364H160.483V41H157.969V38.2301H157.799C157.415 39.0611 156.819 39.7678 156.009 40.3501C155.199 40.9254 154.176 41.2131 152.941 41.2131C151.918 41.2131 151.009 40.9893 150.213 40.5419C149.418 40.0874 148.793 39.4055 148.338 38.4964C147.884 37.5803 147.657 36.4261 147.657 35.0341V24.6364H150.171V34.8636C150.171 36.0568 150.505 37.0085 151.172 37.7188C151.847 38.429 152.706 38.7841 153.75 38.7841C154.375 38.7841 155.011 38.6243 155.657 38.3047C156.311 37.9851 156.858 37.495 157.298 36.8345C157.745 36.174 157.969 35.3324 157.969 34.3097ZM167.602 19.1818V41H165.088V19.1818H167.602Z" fill="black"/>
<path d="M79.0183 148.958C79.0183 148.958 99.509 215.797 147.017 150.063" stroke="black" stroke-width="3.73783" stroke-miterlimit="10" stroke-linecap="round"/>
<path d="M131.845 125.225C137.282 125.225 141.69 118.907 141.69 111.113C141.69 103.318 137.282 97 131.845 97C126.408 97 122 103.318 122 111.113C122 118.907 126.408 125.225 131.845 125.225Z" fill="black"/>
<path d="M87.8451 127.225C93.2824 127.225 97.6902 120.907 97.6902 113.113C97.6902 105.318 93.2824 99 87.8451 99C82.4078 99 78 105.318 78 113.113C78 120.907 82.4078 127.225 87.8451 127.225Z" fill="black"/>
<path d="M97.1493 186.942C87.9942 196.321 100.871 205.364 109.43 208.435C110.547 208.853 113.338 209.551 113.617 209.551C113.841 209.551 116.874 207.318 118.362 206.202C123.759 202.201 132.653 191.799 125.061 182.197C115.571 170.195 110.547 196.153 110.547 191.966C110.547 187.78 108.593 175.219 97.1493 186.942Z" fill="#FD4B4B" stroke="black" stroke-width="2.23296"/>
</g>
<path d="M103.211 199.131C89.3928 225.311 32.2595 223.026 5.4201 218.611C7.48232 216.654 11.6781 212.85 11.9634 213.288" stroke="black" stroke-width="3.69022" stroke-linecap="round" stroke-linejoin="round"/>
<path d="M118 198.784C137.547 230.334 198.079 218.133 225.902 208.089C223.343 205.897 218.169 201.667 217.944 202.278" stroke="black" stroke-width="3.99971" stroke-linecap="round" stroke-linejoin="round"/>
<defs>
<clipPath id="clip0_785_1023">
<rect width="225.317" height="254.621" fill="white"/>
</clipPath>
</defs>
</svg>
