<svg width="226" height="255" viewBox="0 0 226 255" fill="none" xmlns="http://www.w3.org/2000/svg">
<g clip-path="url(#clip0_761_1231)">
<path d="M139.591 1.87158H86.0606C39.5644 1.87158 1.8717 39.5642 1.8717 86.0605V168.939C1.8717 215.436 39.5644 253.128 86.0606 253.128H139.591C186.087 253.128 223.78 215.436 223.78 168.939V86.0605C223.78 39.5642 186.087 1.87158 139.591 1.87158Z" fill="#FFF4BA" stroke="black" stroke-width="3.74339" stroke-miterlimit="10"/>
<path d="M73.2964 124.842C78.7337 124.842 83.1415 118.524 83.1415 110.73C83.1415 102.936 78.7337 96.6172 73.2964 96.6172C67.8591 96.6172 63.4513 102.936 63.4513 110.73C63.4513 118.524 67.8591 124.842 73.2964 124.842Z" fill="black"/>
<path d="M146.029 124.842C151.467 124.842 155.874 118.524 155.874 110.73C155.874 102.936 151.467 96.6172 146.029 96.6172C140.592 96.6172 136.184 102.936 136.184 110.73C136.184 118.524 140.592 124.842 146.029 124.842Z" fill="black"/>
<path d="M81.3823 144.495C81.3823 144.495 102.57 215.058 140.865 148.089" stroke="black" stroke-width="3.74339" stroke-miterlimit="10" stroke-linecap="round"/>
<path d="M69.642 48V26.1818H72.2841V35.8977H83.9176V26.1818H86.5597V48H83.9176V38.2415H72.2841V48H69.642ZM96.3235 48.3835C95.2866 48.3835 94.3455 48.1882 93.5004 47.7976C92.6552 47.3999 91.984 46.8281 91.4869 46.0824C90.9897 45.3295 90.7411 44.4205 90.7411 43.3551C90.7411 42.4176 90.9258 41.6577 91.2951 41.0753C91.6644 40.4858 92.158 40.0241 92.7759 39.6903C93.3938 39.3565 94.0756 39.108 94.8214 38.9446C95.5742 38.7741 96.3306 38.6392 97.0906 38.5398C98.0849 38.4119 98.891 38.3161 99.5089 38.2521C100.134 38.1811 100.588 38.0639 100.873 37.9006C101.164 37.7372 101.309 37.4531 101.309 37.0483V36.9631C101.309 35.9119 101.022 35.0952 100.446 34.5128C99.8782 33.9304 99.0153 33.6392 97.8576 33.6392C96.6573 33.6392 95.7163 33.902 95.0344 34.4276C94.3526 34.9531 93.8732 35.5142 93.5962 36.1108L91.2099 35.2585C91.636 34.2642 92.2042 33.4901 92.9144 32.9361C93.6317 32.375 94.413 31.9844 95.2582 31.7642C96.1104 31.5369 96.9485 31.4233 97.7724 31.4233C98.2979 31.4233 98.9016 31.4872 99.5835 31.6151C100.272 31.7358 100.936 31.9879 101.576 32.3714C102.222 32.755 102.758 33.3338 103.184 34.108C103.61 34.8821 103.824 35.919 103.824 37.2188V48H101.309V45.7841H101.181C101.011 46.1392 100.727 46.5192 100.329 46.924C99.9315 47.3288 99.4023 47.6733 98.7418 47.9574C98.0813 48.2415 97.2752 48.3835 96.3235 48.3835ZM96.707 46.125C97.7013 46.125 98.5394 45.9297 99.2212 45.5391C99.9102 45.1484 100.429 44.6442 100.777 44.0263C101.132 43.4084 101.309 42.7585 101.309 42.0767V39.7756C101.203 39.9034 100.968 40.0206 100.606 40.1271C100.251 40.2266 99.8391 40.3153 99.3704 40.3935C98.9087 40.4645 98.4577 40.5284 98.0174 40.5852C97.5842 40.6349 97.2326 40.6776 96.9627 40.7131C96.3093 40.7983 95.6985 40.9368 95.1303 41.1286C94.5692 41.3132 94.1147 41.5937 93.7667 41.9702C93.4258 42.3395 93.2553 42.8437 93.2553 43.483C93.2553 44.3565 93.5785 45.017 94.2248 45.4645C94.8782 45.9048 95.7056 46.125 96.707 46.125ZM108.412 54.1364V31.6364H110.841V34.2358H111.14C111.324 33.9517 111.58 33.5895 111.907 33.1491C112.241 32.7017 112.716 32.304 113.334 31.956C113.959 31.6009 114.805 31.4233 115.87 31.4233C117.248 31.4233 118.462 31.7678 119.513 32.4567C120.564 33.1456 121.385 34.1222 121.974 35.3864C122.564 36.6506 122.858 38.142 122.858 39.8608C122.858 41.5938 122.564 43.0959 121.974 44.3672C121.385 45.6314 120.568 46.6115 119.524 47.3075C118.48 47.9964 117.276 48.3409 115.912 48.3409C114.861 48.3409 114.02 48.1669 113.388 47.8189C112.756 47.4638 112.269 47.0625 111.928 46.6151C111.587 46.1605 111.324 45.7841 111.14 45.4858H110.927V54.1364H108.412ZM110.884 39.8182C110.884 41.054 111.065 42.1442 111.427 43.0888C111.79 44.0263 112.319 44.7614 113.015 45.294C113.711 45.8196 114.563 46.0824 115.572 46.0824C116.623 46.0824 117.5 45.8054 118.203 45.2514C118.913 44.6903 119.446 43.9375 119.801 42.9929C120.163 42.0412 120.344 40.983 120.344 39.8182C120.344 38.6676 120.167 37.6307 119.812 36.7074C119.464 35.777 118.934 35.0419 118.224 34.5021C117.521 33.9553 116.637 33.6818 115.572 33.6818C114.549 33.6818 113.689 33.9411 112.993 34.4595C112.297 34.9709 111.772 35.6882 111.417 36.6115C111.062 37.5277 110.884 38.5966 110.884 39.8182ZM126.694 54.1364V31.6364H129.123V34.2358H129.421C129.606 33.9517 129.861 33.5895 130.188 33.1491C130.522 32.7017 130.998 32.304 131.616 31.956C132.241 31.6009 133.086 31.4233 134.151 31.4233C135.529 31.4233 136.743 31.7678 137.795 32.4567C138.846 33.1456 139.666 34.1222 140.256 35.3864C140.845 36.6506 141.14 38.142 141.14 39.8608C141.14 41.5938 140.845 43.0959 140.256 44.3672C139.666 45.6314 138.849 46.6115 137.805 47.3075C136.761 47.9964 135.557 48.3409 134.194 48.3409C133.143 48.3409 132.301 48.1669 131.669 47.8189C131.037 47.4638 130.55 47.0625 130.209 46.6151C129.868 46.1605 129.606 45.7841 129.421 45.4858H129.208V54.1364H126.694ZM129.165 39.8182C129.165 41.054 129.346 42.1442 129.709 43.0888C130.071 44.0263 130.6 44.7614 131.296 45.294C131.992 45.8196 132.844 46.0824 133.853 46.0824C134.904 46.0824 135.781 45.8054 136.484 45.2514C137.194 44.6903 137.727 43.9375 138.082 42.9929C138.444 42.0412 138.626 40.983 138.626 39.8182C138.626 38.6676 138.448 37.6307 138.093 36.7074C137.745 35.777 137.216 35.0419 136.506 34.5021C135.802 33.9553 134.918 33.6818 133.853 33.6818C132.83 33.6818 131.971 33.9411 131.275 34.4595C130.579 34.9709 130.053 35.6882 129.698 36.6115C129.343 37.5277 129.165 38.5966 129.165 39.8182ZM146.008 54.1364C145.582 54.1364 145.202 54.1009 144.868 54.0298C144.535 53.9659 144.304 53.902 144.176 53.8381L144.815 51.6222C145.426 51.7784 145.966 51.8352 146.434 51.7926C146.903 51.75 147.319 51.5405 147.681 51.1641C148.05 50.7947 148.388 50.1946 148.693 49.3636L149.162 48.0852L143.111 31.6364H145.838L150.355 44.6761H150.525L155.042 31.6364H157.77L150.824 50.3864C150.511 51.2315 150.124 51.9311 149.662 52.4851C149.201 53.0462 148.665 53.4616 148.054 53.7315C147.45 54.0014 146.768 54.1364 146.008 54.1364Z" fill="black"/>
<path d="M37 53.0461C37 53.0461 102.225 95.6948 184.719 48" stroke="#0C0C0C" stroke-width="3.73783" stroke-miterlimit="10" stroke-linecap="round"/>
</g>
<defs>
<clipPath id="clip0_761_1231">
<rect width="225.652" height="255" fill="white"/>
</clipPath>
</defs>
</svg>
