<svg width="226" height="255" viewBox="0 0 226 255" fill="none" xmlns="http://www.w3.org/2000/svg">
<g clip-path="url(#clip0_289_582)">
<path d="M139.384 1.86865H85.9328C39.5056 1.86865 1.8689 39.5053 1.8689 85.9326V168.688C1.8689 215.115 39.5056 252.752 85.9328 252.752H139.384C185.811 252.752 223.448 215.115 223.448 168.688V85.9326C223.448 39.5053 185.811 1.86865 139.384 1.86865Z" fill="#E2E2E2" stroke="black" stroke-width="3.73783" stroke-miterlimit="10"/>
<path d="M38.7986 41.4518C38.7986 41.4518 104.024 84.1005 186.518 36.4058" stroke="#0C0C0C" stroke-width="3.73783" stroke-miterlimit="10" stroke-linecap="round"/>
<path d="M65.0004 125.105C67.5809 125.105 69.6727 119.951 69.6727 113.593C69.6727 107.234 67.5809 102.08 65.0004 102.08C62.42 102.08 60.3281 107.234 60.3281 113.593C60.3281 119.951 62.42 125.105 65.0004 125.105Z" fill="black"/>
<path d="M54.7964 102.939H76.4385" stroke="black" stroke-width="1.86892" stroke-miterlimit="10" stroke-linecap="round"/>
<path d="M54.7964 162.296H156.914" stroke="black" stroke-width="3.73783" stroke-miterlimit="10" stroke-linecap="round"/>
<path d="M143.271 125.105C145.852 125.105 147.943 119.951 147.943 113.593C147.943 107.234 145.852 102.08 143.271 102.08C140.691 102.08 138.599 107.234 138.599 113.593C138.599 119.951 140.691 125.105 143.271 125.105Z" fill="black"/>
<path d="M133.03 102.939H154.71" stroke="black" stroke-width="1.86892" stroke-miterlimit="10" stroke-linecap="round"/>
<path d="M89.2841 19.1818V41H86.642V19.1818H89.2841ZM101.314 41H94.5815V19.1818H101.613C103.729 19.1818 105.54 19.6186 107.046 20.4922C108.552 21.3587 109.706 22.6051 110.508 24.2315C111.311 25.8509 111.712 27.7898 111.712 30.0483C111.712 32.321 111.307 34.2777 110.498 35.9183C109.688 37.5518 108.509 38.8089 106.961 39.6896C105.412 40.5632 103.53 41 101.314 41ZM97.2235 38.6562H101.144C102.948 38.6562 104.443 38.3082 105.629 37.6122C106.815 36.9162 107.699 35.9254 108.282 34.6399C108.864 33.3544 109.155 31.8239 109.155 30.0483C109.155 28.2869 108.868 26.7706 108.292 25.4993C107.717 24.2209 106.858 23.2408 105.714 22.5589C104.571 21.87 103.147 21.5256 101.442 21.5256H97.2235V38.6562ZM116.144 41V19.1818H118.786V30.0057H119.042L128.843 19.1818H132.295L123.133 29.0256L132.295 41H129.099L121.513 30.858L118.786 33.9261V41H116.144Z" fill="black"/>
</g>
<defs>
<clipPath id="clip0_289_582">
<rect width="225.317" height="254.621" fill="white"/>
</clipPath>
</defs>
</svg>
