<svg width="226" height="264" viewBox="0 0 226 264" fill="none" xmlns="http://www.w3.org/2000/svg">
<g clip-path="url(#clip0_289_538)">
<path d="M139.384 10.9517H85.9327C39.5055 10.9517 1.86877 48.5884 1.86877 95.0156V177.771C1.86877 224.198 39.5055 261.835 85.9327 261.835H139.384C185.811 261.835 223.448 224.198 223.448 177.771V95.0156C223.448 48.5884 185.811 10.9517 139.384 10.9517Z" fill="#DBD3FF" stroke="black" stroke-width="3.73783" stroke-miterlimit="10"/>
<path d="M38.7986 59.5729C38.7986 59.5729 104.024 102.222 186.518 54.5269" stroke="#0C0C0C" stroke-width="3.73783" stroke-miterlimit="10" stroke-linecap="round"/>
<path d="M137.926 128.282C141.951 128.282 145.215 122.358 145.215 115.05C145.215 107.743 141.951 101.818 137.926 101.818C133.9 101.818 130.637 107.743 130.637 115.05C130.637 122.358 133.9 128.282 137.926 128.282Z" fill="#FEFFF5" stroke="black" stroke-width="3.73783" stroke-miterlimit="10" stroke-linecap="round"/>
<path d="M86.7554 128.282C90.7809 128.282 94.0442 122.358 94.0442 115.05C94.0442 107.743 90.7809 101.818 86.7554 101.818C82.73 101.818 79.4667 107.743 79.4667 115.05C79.4667 122.358 82.73 128.282 86.7554 128.282Z" fill="#FEFFF5" stroke="black" stroke-width="3.73783" stroke-miterlimit="10" stroke-linecap="round"/>
<path d="M157.736 153.438H74.8686C69.0265 153.438 64.2905 158.174 64.2905 164.017V178.781C64.2905 184.623 69.0265 189.359 74.8686 189.359H157.736C163.579 189.359 168.314 184.623 168.314 178.781V164.017C168.314 158.174 163.579 153.438 157.736 153.438Z" fill="#FEFFF5" stroke="black" stroke-width="3.73783" stroke-miterlimit="10" stroke-linecap="round"/>
<path d="M192.685 7.36328V45.4892" stroke="black" stroke-width="3.73783" stroke-miterlimit="10" stroke-linecap="round"/>
<path d="M201.656 17.9419V56.8154" stroke="black" stroke-width="3.73783" stroke-miterlimit="10" stroke-linecap="round"/>
<path d="M207.935 1.86865V55.2076" stroke="black" stroke-width="3.73783" stroke-miterlimit="10" stroke-linecap="round"/>
<path d="M64.642 52V30.1818H72.0142C73.7259 30.1818 75.125 30.4908 76.2116 31.1087C77.3054 31.7195 78.1151 32.5469 78.6406 33.5909C79.1662 34.6349 79.429 35.7997 79.429 37.0852C79.429 38.3707 79.1662 39.5391 78.6406 40.5902C78.1222 41.6413 77.3196 42.4794 76.233 43.1044C75.1463 43.7223 73.7543 44.0312 72.0568 44.0312H66.7727V41.6875H71.9716C73.1435 41.6875 74.0845 41.4851 74.7947 41.0803C75.505 40.6754 76.0199 40.1286 76.3395 39.4396C76.6662 38.7436 76.8295 37.9588 76.8295 37.0852C76.8295 36.2116 76.6662 35.4304 76.3395 34.7415C76.0199 34.0526 75.5014 33.5128 74.7841 33.1222C74.0668 32.7244 73.1151 32.5256 71.929 32.5256H67.2841V52H64.642ZM88.1594 52.3835C87.1225 52.3835 86.1815 52.1882 85.3363 51.7976C84.4911 51.3999 83.82 50.8281 83.3228 50.0824C82.8256 49.3295 82.5771 48.4205 82.5771 47.3551C82.5771 46.4176 82.7617 45.6577 83.131 45.0753C83.5004 44.4858 83.994 44.0241 84.6119 43.6903C85.2298 43.3565 85.9116 43.108 86.6573 42.9446C87.4102 42.7741 88.1665 42.6392 88.9265 42.5398C89.9208 42.4119 90.7269 42.3161 91.3448 42.2521C91.9698 42.1811 92.4244 42.0639 92.7085 41.9006C92.9996 41.7372 93.1452 41.4531 93.1452 41.0483V40.9631C93.1452 39.9119 92.8576 39.0952 92.2823 38.5128C91.7141 37.9304 90.8512 37.6392 89.6935 37.6392C88.4933 37.6392 87.5522 37.902 86.8704 38.4276C86.1886 38.9531 85.7092 39.5142 85.4322 40.1108L83.0458 39.2585C83.4719 38.2642 84.0401 37.4901 84.7504 36.9361C85.4677 36.375 86.2489 35.9844 87.0941 35.7642C87.9464 35.5369 88.7844 35.4233 89.6083 35.4233C90.1339 35.4233 90.7376 35.4872 91.4194 35.6151C92.1083 35.7358 92.7724 35.9879 93.4116 36.3714C94.0579 36.755 94.5941 37.3338 95.0202 38.108C95.4464 38.8821 95.6594 39.919 95.6594 41.2188V52H93.1452V49.7841H93.0174C92.8469 50.1392 92.5629 50.5192 92.1651 50.924C91.7674 51.3288 91.2383 51.6733 90.5778 51.9574C89.9173 52.2415 89.1112 52.3835 88.1594 52.3835ZM88.543 50.125C89.5373 50.125 90.3754 49.9297 91.0572 49.5391C91.7461 49.1484 92.2646 48.6442 92.6126 48.0263C92.9677 47.4084 93.1452 46.7585 93.1452 46.0767V43.7756C93.0387 43.9034 92.8043 44.0206 92.4421 44.1271C92.087 44.2266 91.6751 44.3153 91.2063 44.3935C90.7447 44.4645 90.2937 44.5284 89.8533 44.5852C89.4201 44.6349 89.0685 44.6776 88.7987 44.7131C88.1452 44.7983 87.5344 44.9368 86.9663 45.1286C86.4052 45.3132 85.9506 45.5937 85.6026 45.9702C85.2617 46.3395 85.0913 46.8437 85.0913 47.483C85.0913 48.3565 85.4144 49.017 86.0607 49.4645C86.7141 49.9048 87.5415 50.125 88.543 50.125ZM102.763 42.1562V52H100.248V35.6364H102.677V38.1932H102.89C103.274 37.3622 103.856 36.6946 104.638 36.1903C105.419 35.679 106.427 35.4233 107.663 35.4233C108.771 35.4233 109.741 35.6506 110.572 36.1051C111.403 36.5526 112.049 37.2344 112.51 38.1506C112.972 39.0597 113.203 40.2102 113.203 41.6023V52H110.689V41.7727C110.689 40.4872 110.355 39.4858 109.687 38.7685C109.02 38.044 108.104 37.6818 106.939 37.6818C106.136 37.6818 105.419 37.8558 104.787 38.2038C104.162 38.5518 103.668 39.0597 103.306 39.7273C102.944 40.3949 102.763 41.2045 102.763 42.1562ZM117.797 52V35.6364H120.311V52H117.797ZM119.076 32.9091C118.586 32.9091 118.163 32.7422 117.808 32.4084C117.46 32.0746 117.286 31.6733 117.286 31.2045C117.286 30.7358 117.46 30.3345 117.808 30.0007C118.163 29.6669 118.586 29.5 119.076 29.5C119.566 29.5 119.985 29.6669 120.333 30.0007C120.688 30.3345 120.865 30.7358 120.865 31.2045C120.865 31.6733 120.688 32.0746 120.333 32.4084C119.985 32.7422 119.566 32.9091 119.076 32.9091ZM131.564 52.3409C130.03 52.3409 128.709 51.9787 127.601 51.2543C126.493 50.5298 125.641 49.532 125.044 48.2607C124.448 46.9893 124.149 45.5369 124.149 43.9034C124.149 42.2415 124.455 40.7749 125.066 39.5036C125.683 38.2251 126.543 37.2273 127.644 36.5099C128.752 35.7855 130.044 35.4233 131.521 35.4233C132.672 35.4233 133.709 35.6364 134.632 36.0625C135.556 36.4886 136.312 37.0852 136.901 37.8523C137.491 38.6193 137.857 39.5142 137.999 40.5369H135.485C135.293 39.7912 134.867 39.1307 134.206 38.5554C133.553 37.973 132.672 37.6818 131.564 37.6818C130.584 37.6818 129.725 37.9375 128.986 38.4489C128.254 38.9531 127.683 39.6669 127.271 40.5902C126.866 41.5064 126.664 42.5824 126.664 43.8182C126.664 45.0824 126.862 46.1832 127.26 47.1207C127.665 48.0582 128.233 48.7862 128.965 49.3047C129.703 49.8232 130.57 50.0824 131.564 50.0824C132.218 50.0824 132.811 49.9688 133.343 49.7415C133.876 49.5142 134.327 49.1875 134.696 48.7614C135.066 48.3352 135.328 47.8239 135.485 47.2273H137.999C137.857 48.1932 137.505 49.0632 136.944 49.8374C136.39 50.6044 135.655 51.2152 134.739 51.6697C133.83 52.1172 132.771 52.3409 131.564 52.3409ZM144.018 46.0341L143.975 42.9233H144.487L151.646 35.6364H154.757L147.129 43.3494H146.916L144.018 46.0341ZM141.674 52V30.1818H144.188V52H141.674ZM152.072 52L145.68 43.9034L147.47 42.1562L155.268 52H152.072Z" fill="black"/>
</g>
<defs>
<clipPath id="clip0_289_538">
<rect width="225.317" height="263.704" fill="white"/>
</clipPath>
</defs>
</svg>
