<svg width="226" height="255" viewBox="0 0 226 255" fill="none" xmlns="http://www.w3.org/2000/svg">
<g clip-path="url(#clip0_359_680)">
<path d="M139.384 1.86865H85.9328C39.5056 1.86865 1.8689 39.5053 1.8689 85.9326V168.688C1.8689 215.115 39.5056 252.752 85.9328 252.752H139.384C185.811 252.752 223.448 215.115 223.448 168.688V85.9326C223.448 39.5053 185.811 1.86865 139.384 1.86865Z" fill="#B1D7FA" stroke="black" stroke-width="3.73783" stroke-miterlimit="10"/>
<path d="M38.7986 43.4518C38.7986 43.4518 104.024 86.1005 186.518 38.4058" stroke="#0C0C0C" stroke-width="3.73783" stroke-miterlimit="10" stroke-linecap="round"/>
<path d="M194.181 224.194C195.414 222.924 195.863 221.092 195.04 219.597C193.134 216.121 187.752 214.177 187.752 214.177C182.406 212.308 184.649 199.151 184.649 199.151C185.098 187.526 171.754 181.135 171.754 181.135C163.755 178.518 163.306 157.848 163.306 157.848C161.961 144.354 149.514 135.72 149.514 135.72C135.31 125.964 144.58 108.957 144.58 108.957L139.646 110.751C138.3 111.237 137.216 112.209 136.73 113.442C134.824 118.302 131.161 131.309 142.486 139.458C142.486 139.458 154.896 148.466 156.204 162.595C156.204 162.595 156.653 184.162 164.614 186.891C164.614 186.891 177.921 193.544 177.473 205.692C177.473 205.692 175.267 219.41 180.575 221.354C180.575 221.354 183.715 222.55 186.07 224.718C188.2 226.736 191.826 226.661 193.844 224.531L194.181 224.194Z" fill="#2997D5"/>
<path d="M24.4083 222.588C23.3617 221.205 23.1 219.373 23.9597 217.915C26.0155 214.589 31.2485 213.056 31.2485 213.056C36.4067 211.598 35.3975 198.329 35.3975 198.329C35.9208 186.704 48.9658 181.359 48.9658 181.359C56.7031 179.341 58.7963 158.82 58.7963 158.82C61.1512 145.476 73.5608 137.814 73.5608 137.814C87.7272 129.179 80.3636 111.537 80.3636 111.537L84.849 113.705C86.0825 114.303 87.017 115.349 87.3534 116.583C88.7738 121.591 91.166 134.823 79.8403 142.037C79.8403 142.037 67.4307 150.074 65.0385 164.016C65.0385 164.016 62.8706 185.471 55.1333 187.564C55.1333 187.564 42.0882 193.171 41.5275 205.319C41.5275 205.319 42.4994 219.149 37.3412 220.681C37.3412 220.681 34.2761 221.616 31.9213 223.634C29.7534 225.466 26.3519 225.129 24.6325 222.849L24.3709 222.476L24.4083 222.588Z" fill="#2997D5"/>
<path d="M145.693 102.84C146.596 97.2772 142.819 92.0356 137.256 91.1327C131.693 90.2297 126.451 94.0073 125.548 99.5701C124.645 105.133 128.423 110.375 133.986 111.278C139.549 112.181 144.79 108.403 145.693 102.84Z" fill="#FEFFF5" stroke="black" stroke-width="3.73783" stroke-miterlimit="10"/>
<path d="M98.9027 103.388C98.9027 109.032 94.3426 113.592 88.6984 113.592C83.0543 113.592 78.4941 109.032 78.4941 103.388C78.4941 97.7438 83.0543 93.1836 88.6984 93.1836C94.3426 93.1836 98.9027 97.7438 98.9027 103.388Z" fill="#FEFFF5" stroke="black" stroke-width="3.73783" stroke-miterlimit="10"/>
<path d="M91.876 76.1401C91.876 76.1401 73.2616 96.3618 65.3748 93.1847" stroke="black" stroke-width="3.73783" stroke-miterlimit="10" stroke-linecap="round"/>
<path d="M130.479 75.5107C130.479 75.5107 148.741 95.2866 156.479 92.1795" stroke="black" stroke-width="3.73783" stroke-miterlimit="10" stroke-linecap="round"/>
<path d="M84.0637 177.061C84.0637 177.061 108.547 88.1383 141.215 167.567" stroke="black" stroke-width="3.73783" stroke-miterlimit="10" stroke-linecap="round"/>
<path d="M95.5739 24.6364C95.446 23.5568 94.9276 22.7188 94.0185 22.1222C93.1094 21.5256 91.9943 21.2273 90.6733 21.2273C89.7074 21.2273 88.8622 21.3835 88.1378 21.696C87.4205 22.0085 86.8594 22.4382 86.4545 22.9851C86.0568 23.532 85.858 24.1534 85.858 24.8494C85.858 25.4318 85.9964 25.9325 86.2734 26.3516C86.5575 26.7635 86.9197 27.108 87.3601 27.3849C87.8004 27.6548 88.2621 27.8786 88.745 28.0561C89.228 28.2266 89.6719 28.3651 90.0767 28.4716L92.2926 29.0682C92.8608 29.2173 93.4929 29.4233 94.1889 29.6861C94.892 29.9489 95.5632 30.3075 96.2024 30.7621C96.8487 31.2095 97.3814 31.7848 97.8004 32.4879C98.2195 33.1911 98.429 34.054 98.429 35.0767C98.429 36.2557 98.12 37.321 97.5021 38.2727C96.8913 39.2244 95.9964 39.9808 94.8175 40.5419C93.6456 41.103 92.2216 41.3835 90.5455 41.3835C88.983 41.3835 87.63 41.1314 86.4865 40.6271C85.3501 40.1229 84.4553 39.4197 83.8018 38.5178C83.1555 37.6158 82.7898 36.5682 82.7045 35.375H85.4318C85.5028 36.1989 85.7798 36.8807 86.2628 37.4205C86.7528 37.9531 87.3707 38.3509 88.1165 38.6136C88.8693 38.8693 89.679 38.9972 90.5455 38.9972C91.554 38.9972 92.4595 38.8338 93.2621 38.5071C94.0646 38.1733 94.7003 37.7116 95.169 37.1222C95.6378 36.5256 95.8722 35.8295 95.8722 35.0341C95.8722 34.3097 95.6697 33.7202 95.2649 33.2656C94.8601 32.8111 94.3274 32.4418 93.6669 32.1577C93.0064 31.8736 92.2926 31.625 91.5256 31.4119L88.8409 30.6449C87.1364 30.1548 85.7869 29.4553 84.7926 28.5462C83.7983 27.6371 83.3011 26.4474 83.3011 24.9773C83.3011 23.7557 83.6314 22.6903 84.2919 21.7812C84.9595 20.8651 85.8544 20.1548 86.9766 19.6506C88.1058 19.1392 89.3665 18.8835 90.7585 18.8835C92.1648 18.8835 93.4148 19.1357 94.5085 19.6399C95.6023 20.1371 96.4688 20.8189 97.108 21.6854C97.7543 22.5518 98.0952 23.5355 98.1307 24.6364H95.5739ZM107.247 41.3835C106.21 41.3835 105.269 41.1882 104.424 40.7976C103.579 40.3999 102.908 39.8281 102.411 39.0824C101.914 38.3295 101.665 37.4205 101.665 36.3551C101.665 35.4176 101.85 34.6577 102.219 34.0753C102.588 33.4858 103.082 33.0241 103.7 32.6903C104.318 32.3565 104.999 32.108 105.745 31.9446C106.498 31.7741 107.254 31.6392 108.014 31.5398C109.009 31.4119 109.815 31.3161 110.433 31.2521C111.058 31.1811 111.512 31.0639 111.796 30.9006C112.088 30.7372 112.233 30.4531 112.233 30.0483V29.9631C112.233 28.9119 111.945 28.0952 111.37 27.5128C110.802 26.9304 109.939 26.6392 108.781 26.6392C107.581 26.6392 106.64 26.902 105.958 27.4276C105.276 27.9531 104.797 28.5142 104.52 29.1108L102.134 28.2585C102.56 27.2642 103.128 26.4901 103.838 25.9361C104.556 25.375 105.337 24.9844 106.182 24.7642C107.034 24.5369 107.872 24.4233 108.696 24.4233C109.222 24.4233 109.825 24.4872 110.507 24.6151C111.196 24.7358 111.86 24.9879 112.499 25.3714C113.146 25.755 113.682 26.3338 114.108 27.108C114.534 27.8821 114.747 28.919 114.747 30.2188V41H112.233V38.7841H112.105C111.935 39.1392 111.651 39.5192 111.253 39.924C110.855 40.3288 110.326 40.6733 109.666 40.9574C109.005 41.2415 108.199 41.3835 107.247 41.3835ZM107.631 39.125C108.625 39.125 109.463 38.9297 110.145 38.5391C110.834 38.1484 111.352 37.6442 111.7 37.0263C112.056 36.4084 112.233 35.7585 112.233 35.0767V32.7756C112.127 32.9034 111.892 33.0206 111.53 33.1271C111.175 33.2266 110.763 33.3153 110.294 33.3935C109.833 33.4645 109.382 33.5284 108.941 33.5852C108.508 33.6349 108.156 33.6776 107.887 33.7131C107.233 33.7983 106.622 33.9368 106.054 34.1286C105.493 34.3132 105.039 34.5937 104.691 34.9702C104.35 35.3395 104.179 35.8437 104.179 36.483C104.179 37.3565 104.502 38.017 105.149 38.4645C105.802 38.9048 106.629 39.125 107.631 39.125ZM125.515 41.3409C124.152 41.3409 122.948 40.9964 121.904 40.3075C120.86 39.6115 120.043 38.6314 119.453 37.3672C118.864 36.0959 118.569 34.5938 118.569 32.8608C118.569 31.142 118.864 29.6506 119.453 28.3864C120.043 27.1222 120.863 26.1456 121.914 25.4567C122.966 24.7678 124.18 24.4233 125.558 24.4233C126.623 24.4233 127.465 24.6009 128.083 24.956C128.708 25.304 129.184 25.7017 129.51 26.1491C129.844 26.5895 130.103 26.9517 130.288 27.2358H130.501V19.1818H133.015V41H130.586V38.4858H130.288C130.103 38.7841 129.841 39.1605 129.5 39.6151C129.159 40.0625 128.672 40.4638 128.04 40.8189C127.408 41.1669 126.566 41.3409 125.515 41.3409ZM125.856 39.0824C126.865 39.0824 127.717 38.8196 128.413 38.294C129.109 37.7614 129.638 37.0263 130 36.0888C130.363 35.1442 130.544 34.054 130.544 32.8182C130.544 31.5966 130.366 30.5277 130.011 29.6115C129.656 28.6882 129.13 27.9709 128.434 27.4595C127.738 26.9411 126.879 26.6818 125.856 26.6818C124.791 26.6818 123.903 26.9553 123.193 27.5021C122.49 28.0419 121.961 28.777 121.605 29.7074C121.257 30.6307 121.083 31.6676 121.083 32.8182C121.083 33.983 121.261 35.0412 121.616 35.9929C121.978 36.9375 122.511 37.6903 123.214 38.2514C123.924 38.8054 124.805 39.0824 125.856 39.0824Z" fill="black"/>
</g>
<defs>
<clipPath id="clip0_359_680">
<rect width="225.317" height="254.621" fill="white"/>
</clipPath>
</defs>
</svg>
