<svg width="226" height="255" viewBox="0 0 226 255" fill="none" xmlns="http://www.w3.org/2000/svg">
<g clip-path="url(#clip0_289_548)">
<path d="M139.384 1.86865H85.9328C39.5056 1.86865 1.8689 39.5053 1.8689 85.9326V168.688C1.8689 215.115 39.5056 252.752 85.9328 252.752H139.384C185.811 252.752 223.448 215.115 223.448 168.688V85.9326C223.448 39.5053 185.811 1.86865 139.384 1.86865Z" fill="#D9FFD8" stroke="black" stroke-width="3.73783" stroke-miterlimit="10"/>
<path d="M38.7986 45.4518C38.7986 45.4518 104.024 88.1005 186.518 40.4058" stroke="#0C0C0C" stroke-width="3.73783" stroke-miterlimit="10" stroke-linecap="round"/>
<path d="M185.733 141.477H35.0235C31.2045 141.477 28.1085 144.573 28.1085 148.392V214.739C28.1085 218.558 31.2045 221.654 35.0235 221.654H185.733C189.552 221.654 192.648 218.558 192.648 214.739V148.392C192.648 144.573 189.552 141.477 185.733 141.477Z" fill="#FCFCFC" stroke="black" stroke-width="1.86892" stroke-miterlimit="10" stroke-linecap="round"/>
<path d="M28.1085 172.09L40.9293 171.23" stroke="black" stroke-width="1.86892" stroke-miterlimit="10" stroke-linecap="round"/>
<path d="M29.0433 189.284L38.6122 187.789" stroke="black" stroke-width="1.86892" stroke-miterlimit="10" stroke-linecap="round"/>
<path d="M192.685 171.231L173.622 170.371" stroke="black" stroke-width="1.86892" stroke-miterlimit="10" stroke-linecap="round"/>
<path d="M191.265 184.611L178.743 185.882" stroke="black" stroke-width="1.86892" stroke-miterlimit="10" stroke-linecap="round"/>
<path d="M192.685 178.444L222.476 144.916" stroke="black" stroke-width="1.86892" stroke-miterlimit="10" stroke-linecap="round"/>
<path d="M28.1085 181.995L1.8689 151.382" stroke="black" stroke-width="1.86892" stroke-miterlimit="10" stroke-linecap="round"/>
<path d="M141.738 102.416L166.595 130.188" stroke="black" stroke-width="3.73783" stroke-miterlimit="10" stroke-linecap="round"/>
<path d="M139.421 130.189L168.053 103.65" stroke="black" stroke-width="3.73783" stroke-miterlimit="10" stroke-linecap="round"/>
<path d="M52.2175 103.65L77.0368 131.423" stroke="black" stroke-width="3.73783" stroke-miterlimit="10" stroke-linecap="round"/>
<path d="M49.8629 131.422L78.4947 104.884" stroke="black" stroke-width="3.73783" stroke-miterlimit="10" stroke-linecap="round"/>
<path d="M92.5739 24.6364C92.446 23.5568 91.9276 22.7188 91.0185 22.1222C90.1094 21.5256 88.9943 21.2273 87.6733 21.2273C86.7074 21.2273 85.8622 21.3835 85.1378 21.696C84.4205 22.0085 83.8594 22.4382 83.4545 22.9851C83.0568 23.532 82.858 24.1534 82.858 24.8494C82.858 25.4318 82.9964 25.9325 83.2734 26.3516C83.5575 26.7635 83.9197 27.108 84.3601 27.3849C84.8004 27.6548 85.2621 27.8786 85.745 28.0561C86.228 28.2266 86.6719 28.3651 87.0767 28.4716L89.2926 29.0682C89.8608 29.2173 90.4929 29.4233 91.1889 29.6861C91.892 29.9489 92.5632 30.3075 93.2024 30.7621C93.8487 31.2095 94.3814 31.7848 94.8004 32.4879C95.2195 33.1911 95.429 34.054 95.429 35.0767C95.429 36.2557 95.12 37.321 94.5021 38.2727C93.8913 39.2244 92.9964 39.9808 91.8175 40.5419C90.6456 41.103 89.2216 41.3835 87.5455 41.3835C85.983 41.3835 84.63 41.1314 83.4865 40.6271C82.3501 40.1229 81.4553 39.4197 80.8018 38.5178C80.1555 37.6158 79.7898 36.5682 79.7045 35.375H82.4318C82.5028 36.1989 82.7798 36.8807 83.2628 37.4205C83.7528 37.9531 84.3707 38.3509 85.1165 38.6136C85.8693 38.8693 86.679 38.9972 87.5455 38.9972C88.554 38.9972 89.4595 38.8338 90.2621 38.5071C91.0646 38.1733 91.7003 37.7116 92.169 37.1222C92.6378 36.5256 92.8722 35.8295 92.8722 35.0341C92.8722 34.3097 92.6697 33.7202 92.2649 33.2656C91.8601 32.8111 91.3274 32.4418 90.6669 32.1577C90.0064 31.8736 89.2926 31.625 88.5256 31.4119L85.8409 30.6449C84.1364 30.1548 82.7869 29.4553 81.7926 28.5462C80.7983 27.6371 80.3011 26.4474 80.3011 24.9773C80.3011 23.7557 80.6314 22.6903 81.2919 21.7812C81.9595 20.8651 82.8544 20.1548 83.9766 19.6506C85.1058 19.1392 86.3665 18.8835 87.7585 18.8835C89.1648 18.8835 90.4148 19.1357 91.5085 19.6399C92.6023 20.1371 93.4688 20.8189 94.108 21.6854C94.7543 22.5518 95.0952 23.5355 95.1307 24.6364H92.5739ZM99.432 41V24.6364H101.946V41H99.432ZM100.71 21.9091C100.22 21.9091 99.7978 21.7422 99.4426 21.4084C99.0946 21.0746 98.9206 20.6733 98.9206 20.2045C98.9206 19.7358 99.0946 19.3345 99.4426 19.0007C99.7978 18.6669 100.22 18.5 100.71 18.5C101.2 18.5 101.619 18.6669 101.968 19.0007C102.323 19.3345 102.5 19.7358 102.5 20.2045C102.5 20.6733 102.323 21.0746 101.968 21.4084C101.619 21.7422 101.2 21.9091 100.71 21.9091ZM113.199 41.3409C111.665 41.3409 110.344 40.9787 109.236 40.2543C108.128 39.5298 107.276 38.532 106.679 37.2607C106.082 35.9893 105.784 34.5369 105.784 32.9034C105.784 31.2415 106.089 29.7749 106.7 28.5036C107.318 27.2251 108.178 26.2273 109.278 25.5099C110.386 24.7855 111.679 24.4233 113.156 24.4233C114.307 24.4233 115.344 24.6364 116.267 25.0625C117.19 25.4886 117.947 26.0852 118.536 26.8523C119.126 27.6193 119.491 28.5142 119.634 29.5369H117.119C116.928 28.7912 116.501 28.1307 115.841 27.5554C115.188 26.973 114.307 26.6818 113.199 26.6818C112.219 26.6818 111.359 26.9375 110.621 27.4489C109.889 27.9531 109.317 28.6669 108.906 29.5902C108.501 30.5064 108.298 31.5824 108.298 32.8182C108.298 34.0824 108.497 35.1832 108.895 36.1207C109.3 37.0582 109.868 37.7862 110.599 38.3047C111.338 38.8232 112.205 39.0824 113.199 39.0824C113.852 39.0824 114.445 38.9688 114.978 38.7415C115.511 38.5142 115.962 38.1875 116.331 37.7614C116.7 37.3352 116.963 36.8239 117.119 36.2273H119.634C119.491 37.1932 119.14 38.0632 118.579 38.8374C118.025 39.6044 117.29 40.2152 116.374 40.6697C115.464 41.1172 114.406 41.3409 113.199 41.3409ZM125.653 35.0341L125.61 31.9233H126.121L133.281 24.6364H136.391L128.763 32.3494H128.55L125.653 35.0341ZM123.309 41V19.1818H125.823V41H123.309ZM133.707 41L127.315 32.9034L129.104 31.1562L136.903 41H133.707Z" fill="black"/>
</g>
<defs>
<clipPath id="clip0_289_548">
<rect width="225.317" height="254.621" fill="white"/>
</clipPath>
</defs>
</svg>
