<svg width="226" height="255" viewBox="0 0 226 255" fill="none" xmlns="http://www.w3.org/2000/svg">
<g clip-path="url(#clip0_359_607)">
<path d="M139.591 1.87158H86.0606C39.5644 1.87158 1.8717 39.5642 1.8717 86.0605V168.939C1.8717 215.436 39.5644 253.128 86.0606 253.128H139.591C186.087 253.128 223.78 215.436 223.78 168.939V86.0605C223.78 39.5642 186.087 1.87158 139.591 1.87158Z" fill="#FFABAB" stroke="black" stroke-width="3.74339" stroke-miterlimit="10"/>
<path d="M37 53.0461C37 53.0461 102.225 95.6948 184.719 48" stroke="#0C0C0C" stroke-width="3.73783" stroke-miterlimit="10" stroke-linecap="round"/>
<path d="M91.9045 116.304C91.9045 116.304 84.6531 112.827 77.9624 92.9795" stroke="black" stroke-width="3.73783" stroke-miterlimit="10" stroke-linecap="round"/>
<path d="M113.584 115.632C113.584 115.632 115.715 103.858 140.085 87" stroke="black" stroke-width="3.73783" stroke-miterlimit="10" stroke-linecap="round"/>
<path d="M127.04 129.91C129.93 129.91 132.273 127.266 132.273 124.004C132.273 120.742 129.93 118.098 127.04 118.098C124.15 118.098 121.807 120.742 121.807 124.004C121.807 127.266 124.15 129.91 127.04 129.91Z" fill="black"/>
<path d="M83.2325 132.115C86.1226 132.115 88.4655 129.471 88.4655 126.209C88.4655 122.948 86.1226 120.304 83.2325 120.304C80.3424 120.304 77.9995 122.948 77.9995 126.209C77.9995 129.471 80.3424 132.115 83.2325 132.115Z" fill="black"/>
<path d="M74 185.529C74 185.529 111.528 158.804 159.26 154.356" stroke="black" stroke-width="3.73783" stroke-miterlimit="10" stroke-linecap="round"/>
<path d="M72.5369 48H69.767L77.7784 26.1818H80.5057L88.517 48H85.7472L79.2273 29.6335H79.0568L72.5369 48ZM73.5597 39.4773H84.7244V41.821H73.5597V39.4773ZM94.0888 38.1562V48H91.5746V31.6364H94.0036V34.1932H94.2166C94.6001 33.3622 95.1825 32.6946 95.9638 32.1903C96.745 31.679 97.7536 31.4233 98.9893 31.4233C100.097 31.4233 101.067 31.6506 101.898 32.1051C102.729 32.5526 103.375 33.2344 103.837 34.1506C104.298 35.0597 104.529 36.2102 104.529 37.6023V48H102.015V37.7727C102.015 36.4872 101.681 35.4858 101.013 34.7685C100.346 34.044 99.4297 33.6818 98.2649 33.6818C97.4624 33.6818 96.745 33.8558 96.1129 34.2038C95.4879 34.5518 94.9943 35.0597 94.6321 35.7273C94.2699 36.3949 94.0888 37.2045 94.0888 38.1562ZM115.729 54.4773C114.514 54.4773 113.47 54.321 112.596 54.0085C111.723 53.7031 110.995 53.2983 110.412 52.794C109.837 52.2969 109.379 51.7642 109.038 51.196L111.041 49.7898C111.268 50.0881 111.556 50.429 111.904 50.8125C112.252 51.2031 112.728 51.5405 113.331 51.8246C113.942 52.1158 114.741 52.2614 115.729 52.2614C117.05 52.2614 118.14 51.9418 118.999 51.3026C119.858 50.6634 120.288 49.6619 120.288 48.2983V44.9744H120.075C119.89 45.2727 119.628 45.642 119.287 46.0824C118.953 46.5156 118.47 46.9027 117.838 47.2436C117.213 47.5774 116.368 47.7443 115.302 47.7443C113.981 47.7443 112.795 47.4318 111.744 46.8068C110.7 46.1818 109.873 45.2727 109.262 44.0795C108.658 42.8864 108.356 41.4375 108.356 39.733C108.356 38.0568 108.651 36.5973 109.241 35.3544C109.83 34.1044 110.65 33.1385 111.702 32.4567C112.753 31.7678 113.967 31.4233 115.345 31.4233C116.41 31.4233 117.256 31.6009 117.881 31.956C118.513 32.304 118.996 32.7017 119.329 33.1491C119.67 33.5895 119.933 33.9517 120.118 34.2358H120.373V31.6364H122.802V48.4688C122.802 49.875 122.483 51.0185 121.844 51.8991C121.211 52.7869 120.359 53.4368 119.287 53.8487C118.221 54.2678 117.035 54.4773 115.729 54.4773ZM115.643 45.4858C116.652 45.4858 117.504 45.255 118.2 44.7933C118.896 44.3317 119.425 43.6676 119.787 42.8011C120.15 41.9347 120.331 40.8977 120.331 39.6903C120.331 38.5114 120.153 37.4709 119.798 36.5689C119.443 35.6669 118.917 34.9602 118.221 34.4489C117.525 33.9375 116.666 33.6818 115.643 33.6818C114.578 33.6818 113.69 33.9517 112.98 34.4915C112.277 35.0312 111.748 35.7557 111.393 36.6648C111.045 37.5739 110.871 38.5824 110.871 39.6903C110.871 40.8267 111.048 41.8317 111.403 42.7053C111.765 43.5717 112.298 44.2536 113.001 44.7507C113.711 45.2408 114.592 45.4858 115.643 45.4858ZM127.405 48V31.6364H129.834V34.108H130.004C130.302 33.2983 130.842 32.6413 131.623 32.1371C132.405 31.6328 133.285 31.3807 134.265 31.3807C134.45 31.3807 134.681 31.3842 134.958 31.3913C135.235 31.3984 135.444 31.4091 135.586 31.4233V33.9801C135.501 33.9588 135.306 33.9268 135.001 33.8842C134.702 33.8345 134.386 33.8097 134.052 33.8097C133.257 33.8097 132.547 33.9766 131.922 34.3104C131.304 34.6371 130.814 35.0916 130.452 35.674C130.096 36.2493 129.919 36.9062 129.919 37.6449V48H127.405ZM140.684 54.1364C140.258 54.1364 139.878 54.1009 139.544 54.0298C139.21 53.9659 138.98 53.902 138.852 53.8381L139.491 51.6222C140.102 51.7784 140.642 51.8352 141.11 51.7926C141.579 51.75 141.994 51.5405 142.357 51.1641C142.726 50.7947 143.063 50.1946 143.369 49.3636L143.838 48.0852L137.786 31.6364H140.514L145.031 44.6761H145.201L149.718 31.6364H152.445L145.499 50.3864C145.187 51.2315 144.8 51.9311 144.338 52.4851C143.877 53.0462 143.34 53.4616 142.73 53.7315C142.126 54.0014 141.444 54.1364 140.684 54.1364Z" fill="black"/>
</g>
<defs>
<clipPath id="clip0_359_607">
<rect width="225.652" height="255" fill="white"/>
</clipPath>
</defs>
</svg>
