<svg width="226" height="264" viewBox="0 0 226 264" fill="none" xmlns="http://www.w3.org/2000/svg">
<g clip-path="url(#clip0_761_1261)">
<path d="M139.384 10.9517H85.9327C39.5055 10.9517 1.86877 48.5884 1.86877 95.0156V177.771C1.86877 224.198 39.5055 261.835 85.9327 261.835H139.384C185.811 261.835 223.448 224.198 223.448 177.771V95.0156C223.448 48.5884 185.811 10.9517 139.384 10.9517Z" fill="#CCC4EE" stroke="black" stroke-width="3.73783" stroke-miterlimit="10"/>
<path d="M38.7986 59.5729C38.7986 59.5729 104.024 102.222 186.518 54.5269" stroke="#0C0C0C" stroke-width="3.73783" stroke-miterlimit="10" stroke-linecap="round"/>
<path d="M137.926 128.282C141.951 128.282 145.215 122.358 145.215 115.05C145.215 107.743 141.951 101.818 137.926 101.818C133.9 101.818 130.637 107.743 130.637 115.05C130.637 122.358 133.9 128.282 137.926 128.282Z" fill="#FEFFF5" stroke="black" stroke-width="3.73783" stroke-miterlimit="10" stroke-linecap="round"/>
<path d="M86.7554 128.282C90.7809 128.282 94.0442 122.358 94.0442 115.05C94.0442 107.743 90.7809 101.818 86.7554 101.818C82.73 101.818 79.4667 107.743 79.4667 115.05C79.4667 122.358 82.73 128.282 86.7554 128.282Z" fill="#FEFFF5" stroke="black" stroke-width="3.73783" stroke-miterlimit="10" stroke-linecap="round"/>
<path d="M157.736 153.438H74.8686C69.0265 153.438 64.2905 158.174 64.2905 164.017V178.781C64.2905 184.623 69.0265 189.359 74.8686 189.359H157.736C163.579 189.359 168.314 184.623 168.314 178.781V164.017C168.314 158.174 163.579 153.438 157.736 153.438Z" fill="#FEFFF5" stroke="black" stroke-width="3.73783" stroke-miterlimit="10" stroke-linecap="round"/>
<path d="M192.685 7.36328V45.4892" stroke="black" stroke-width="3.73783" stroke-miterlimit="10" stroke-linecap="round"/>
<path d="M201.656 17.9419V56.8154" stroke="black" stroke-width="3.73783" stroke-miterlimit="10" stroke-linecap="round"/>
<path d="M207.935 1.86865V55.2076" stroke="black" stroke-width="3.73783" stroke-miterlimit="10" stroke-linecap="round"/>
<path d="M49.642 52V30.1818H57.0142C58.7259 30.1818 60.125 30.4908 61.2116 31.1087C62.3054 31.7195 63.1151 32.5469 63.6406 33.5909C64.1662 34.6349 64.429 35.7997 64.429 37.0852C64.429 38.3707 64.1662 39.5391 63.6406 40.5902C63.1222 41.6413 62.3196 42.4794 61.233 43.1044C60.1463 43.7223 58.7543 44.0312 57.0568 44.0312H51.7727V41.6875H56.9716C58.1435 41.6875 59.0845 41.4851 59.7947 41.0803C60.505 40.6754 61.0199 40.1286 61.3395 39.4396C61.6662 38.7436 61.8295 37.9588 61.8295 37.0852C61.8295 36.2116 61.6662 35.4304 61.3395 34.7415C61.0199 34.0526 60.5014 33.5128 59.7841 33.1222C59.0668 32.7244 58.1151 32.5256 56.929 32.5256H52.2841V52H49.642ZM73.1594 52.3835C72.1225 52.3835 71.1815 52.1882 70.3363 51.7976C69.4911 51.3999 68.82 50.8281 68.3228 50.0824C67.8256 49.3295 67.5771 48.4205 67.5771 47.3551C67.5771 46.4176 67.7617 45.6577 68.131 45.0753C68.5004 44.4858 68.994 44.0241 69.6119 43.6903C70.2298 43.3565 70.9116 43.108 71.6573 42.9446C72.4102 42.7741 73.1665 42.6392 73.9265 42.5398C74.9208 42.4119 75.7269 42.3161 76.3448 42.2521C76.9698 42.1811 77.4244 42.0639 77.7085 41.9006C77.9996 41.7372 78.1452 41.4531 78.1452 41.0483V40.9631C78.1452 39.9119 77.8576 39.0952 77.2823 38.5128C76.7141 37.9304 75.8512 37.6392 74.6935 37.6392C73.4933 37.6392 72.5522 37.902 71.8704 38.4276C71.1886 38.9531 70.7092 39.5142 70.4322 40.1108L68.0458 39.2585C68.4719 38.2642 69.0401 37.4901 69.7504 36.9361C70.4677 36.375 71.2489 35.9844 72.0941 35.7642C72.9464 35.5369 73.7844 35.4233 74.6083 35.4233C75.1339 35.4233 75.7376 35.4872 76.4194 35.6151C77.1083 35.7358 77.7724 35.9879 78.4116 36.3714C79.0579 36.755 79.5941 37.3338 80.0202 38.108C80.4464 38.8821 80.6594 39.919 80.6594 41.2188V52H78.1452V49.7841H78.0174C77.8469 50.1392 77.5629 50.5192 77.1651 50.924C76.7674 51.3288 76.2383 51.6733 75.5778 51.9574C74.9173 52.2415 74.1112 52.3835 73.1594 52.3835ZM73.543 50.125C74.5373 50.125 75.3754 49.9297 76.0572 49.5391C76.7461 49.1484 77.2646 48.6442 77.6126 48.0263C77.9677 47.4084 78.1452 46.7585 78.1452 46.0767V43.7756C78.0387 43.9034 77.8043 44.0206 77.4421 44.1271C77.087 44.2266 76.6751 44.3153 76.2063 44.3935C75.7447 44.4645 75.2937 44.5284 74.8533 44.5852C74.4201 44.6349 74.0685 44.6776 73.7987 44.7131C73.1452 44.7983 72.5344 44.9368 71.9663 45.1286C71.4052 45.3132 70.9506 45.5937 70.6026 45.9702C70.2617 46.3395 70.0913 46.8437 70.0913 47.483C70.0913 48.3565 70.4144 49.017 71.0607 49.4645C71.7141 49.9048 72.5415 50.125 73.543 50.125ZM87.7626 42.1562V52H85.2484V35.6364H87.6774V38.1932H87.8904C88.274 37.3622 88.8564 36.6946 89.6376 36.1903C90.4189 35.679 91.4274 35.4233 92.6632 35.4233C93.7711 35.4233 94.7406 35.6506 95.5716 36.1051C96.4025 36.5526 97.0488 37.2344 97.5105 38.1506C97.9721 39.0597 98.2029 40.2102 98.2029 41.6023V52H95.6887V41.7727C95.6887 40.4872 95.3549 39.4858 94.6873 38.7685C94.0197 38.044 93.1035 37.6818 91.9387 37.6818C91.1362 37.6818 90.4189 37.8558 89.7868 38.2038C89.1618 38.5518 88.6681 39.0597 88.3059 39.7273C87.9437 40.3949 87.7626 41.2045 87.7626 42.1562ZM102.797 52V35.6364H105.311V52H102.797ZM104.076 32.9091C103.586 32.9091 103.163 32.7422 102.808 32.4084C102.46 32.0746 102.286 31.6733 102.286 31.2045C102.286 30.7358 102.46 30.3345 102.808 30.0007C103.163 29.6669 103.586 29.5 104.076 29.5C104.566 29.5 104.985 29.6669 105.333 30.0007C105.688 30.3345 105.865 30.7358 105.865 31.2045C105.865 31.6733 105.688 32.0746 105.333 32.4084C104.985 32.7422 104.566 32.9091 104.076 32.9091ZM116.564 52.3409C115.03 52.3409 113.709 51.9787 112.601 51.2543C111.493 50.5298 110.641 49.532 110.044 48.2607C109.448 46.9893 109.149 45.5369 109.149 43.9034C109.149 42.2415 109.455 40.7749 110.066 39.5036C110.683 38.2251 111.543 37.2273 112.644 36.5099C113.752 35.7855 115.044 35.4233 116.521 35.4233C117.672 35.4233 118.709 35.6364 119.632 36.0625C120.556 36.4886 121.312 37.0852 121.901 37.8523C122.491 38.6193 122.857 39.5142 122.999 40.5369H120.485C120.293 39.7912 119.867 39.1307 119.206 38.5554C118.553 37.973 117.672 37.6818 116.564 37.6818C115.584 37.6818 114.725 37.9375 113.986 38.4489C113.254 38.9531 112.683 39.6669 112.271 40.5902C111.866 41.5064 111.664 42.5824 111.664 43.8182C111.664 45.0824 111.862 46.1832 112.26 47.1207C112.665 48.0582 113.233 48.7862 113.965 49.3047C114.703 49.8232 115.57 50.0824 116.564 50.0824C117.218 50.0824 117.811 49.9688 118.343 49.7415C118.876 49.5142 119.327 49.1875 119.696 48.7614C120.066 48.3352 120.328 47.8239 120.485 47.2273H122.999C122.857 48.1932 122.505 49.0632 121.944 49.8374C121.39 50.6044 120.655 51.2152 119.739 51.6697C118.83 52.1172 117.771 52.3409 116.564 52.3409ZM129.018 46.0341L128.975 42.9233H129.487L136.646 35.6364H139.757L132.129 43.3494H131.916L129.018 46.0341ZM126.674 52V30.1818H129.188V52H126.674ZM137.072 52L130.68 43.9034L132.47 42.1562L140.268 52H137.072ZM149.18 52.3409C147.603 52.3409 146.243 51.9929 145.099 51.2969C143.963 50.5938 143.086 49.6136 142.468 48.3565C141.857 47.0923 141.552 45.6222 141.552 43.946C141.552 42.2699 141.857 40.7926 142.468 39.5142C143.086 38.2287 143.945 37.2273 145.046 36.5099C146.154 35.7855 147.447 35.4233 148.924 35.4233C149.776 35.4233 150.618 35.5653 151.449 35.8494C152.28 36.1335 153.036 36.5952 153.718 37.2344C154.4 37.8665 154.943 38.7045 155.348 39.7486C155.753 40.7926 155.955 42.0781 155.955 43.6051V44.6705H143.341V42.4972H153.398C153.398 41.5739 153.214 40.75 152.844 40.0256C152.482 39.3011 151.964 38.7294 151.289 38.3104C150.621 37.8913 149.833 37.6818 148.924 37.6818C147.922 37.6818 147.056 37.9304 146.324 38.4276C145.6 38.9176 145.042 39.5568 144.652 40.3452C144.261 41.1335 144.066 41.9787 144.066 42.8807V44.3295C144.066 45.5653 144.279 46.6129 144.705 47.4723C145.138 48.3246 145.738 48.9744 146.506 49.4219C147.273 49.8622 148.164 50.0824 149.18 50.0824C149.84 50.0824 150.437 49.9901 150.969 49.8054C151.509 49.6136 151.974 49.3295 152.365 48.9531C152.756 48.5696 153.057 48.0937 153.27 47.5256L155.699 48.2074C155.444 49.0312 155.014 49.7557 154.41 50.3807C153.807 50.9986 153.061 51.4815 152.173 51.8295C151.285 52.1705 150.287 52.3409 149.18 52.3409ZM165.959 52.3409C164.595 52.3409 163.391 51.9964 162.347 51.3075C161.303 50.6115 160.486 49.6314 159.897 48.3672C159.307 47.0959 159.013 45.5938 159.013 43.8608C159.013 42.142 159.307 40.6506 159.897 39.3864C160.486 38.1222 161.307 37.1456 162.358 36.4567C163.409 35.7678 164.623 35.4233 166.001 35.4233C167.067 35.4233 167.908 35.6009 168.526 35.956C169.151 36.304 169.627 36.7017 169.954 37.1491C170.287 37.5895 170.547 37.9517 170.731 38.2358H170.944V30.1818H173.459V52H171.03V49.4858H170.731C170.547 49.7841 170.284 50.1605 169.943 50.6151C169.602 51.0625 169.116 51.4638 168.483 51.8189C167.851 52.1669 167.01 52.3409 165.959 52.3409ZM166.3 50.0824C167.308 50.0824 168.16 49.8196 168.856 49.294C169.552 48.7614 170.081 48.0263 170.444 47.0888C170.806 46.1442 170.987 45.054 170.987 43.8182C170.987 42.5966 170.809 41.5277 170.454 40.6115C170.099 39.6882 169.574 38.9709 168.878 38.4595C168.182 37.9411 167.322 37.6818 166.3 37.6818C165.234 37.6818 164.346 37.9553 163.636 38.5021C162.933 39.0419 162.404 39.777 162.049 40.7074C161.701 41.6307 161.527 42.6676 161.527 43.8182C161.527 44.983 161.704 46.0412 162.059 46.9929C162.422 47.9375 162.954 48.6903 163.657 49.2514C164.368 49.8054 165.248 50.0824 166.3 50.0824Z" fill="black"/>
</g>
<defs>
<clipPath id="clip0_761_1261">
<rect width="225.317" height="263.704" fill="white"/>
</clipPath>
</defs>
</svg>
