<svg width="226" height="255" viewBox="0 0 226 255" fill="none" xmlns="http://www.w3.org/2000/svg">
<g clip-path="url(#clip0_359_639)">
<path d="M139.384 1.86865H85.9326C39.5053 1.86865 1.86865 39.5053 1.86865 85.9326V168.688C1.86865 215.115 39.5053 252.752 85.9326 252.752H139.384C185.811 252.752 223.447 215.115 223.447 168.688V85.9326C223.447 39.5053 185.811 1.86865 139.384 1.86865Z" fill="#FEFFF5" stroke="black" stroke-width="3.73783" stroke-miterlimit="10"/>
<path d="M38.7976 48.4523C38.7976 48.4523 104.023 91.101 186.517 43.4062" stroke="#0C0C0C" stroke-width="3.73783" stroke-miterlimit="10" stroke-linecap="round"/>
<path d="M54.7584 104.51C54.7584 104.51 65.0001 131.572 88.5858 104.921" stroke="black" stroke-width="3.73783" stroke-miterlimit="10" stroke-linecap="round"/>
<path d="M120.096 104.51C120.096 104.51 130.338 131.572 153.924 104.921" stroke="black" stroke-width="3.73783" stroke-miterlimit="10" stroke-linecap="round"/>
<path d="M68.3275 150.074C68.3275 150.074 92.4365 191.638 148.018 150.709" stroke="black" stroke-width="3.73783" stroke-miterlimit="10" stroke-linecap="round"/>
<path d="M54.642 41V19.1818H62.0142C63.7259 19.1818 65.125 19.4908 66.2116 20.1087C67.3054 20.7195 68.1151 21.5469 68.6406 22.5909C69.1662 23.6349 69.429 24.7997 69.429 26.0852C69.429 27.3707 69.1662 28.5391 68.6406 29.5902C68.1222 30.6413 67.3196 31.4794 66.233 32.1044C65.1463 32.7223 63.7543 33.0312 62.0568 33.0312H56.7727V30.6875H61.9716C63.1435 30.6875 64.0845 30.4851 64.7947 30.0803C65.505 29.6754 66.0199 29.1286 66.3395 28.4396C66.6662 27.7436 66.8295 26.9588 66.8295 26.0852C66.8295 25.2116 66.6662 24.4304 66.3395 23.7415C66.0199 23.0526 65.5014 22.5128 64.7841 22.1222C64.0668 21.7244 63.1151 21.5256 61.929 21.5256H57.2841V41H54.642ZM80.0291 41.3409C78.4524 41.3409 77.0923 40.9929 75.9489 40.2969C74.8125 39.5938 73.9354 38.6136 73.3175 37.3565C72.7067 36.0923 72.4013 34.6222 72.4013 32.946C72.4013 31.2699 72.7067 29.7926 73.3175 28.5142C73.9354 27.2287 74.7947 26.2273 75.8956 25.5099C77.0036 24.7855 78.2962 24.4233 79.7734 24.4233C80.6257 24.4233 81.4673 24.5653 82.2983 24.8494C83.1293 25.1335 83.8857 25.5952 84.5675 26.2344C85.2493 26.8665 85.7926 27.7045 86.1974 28.7486C86.6023 29.7926 86.8047 31.0781 86.8047 32.6051V33.6705H74.1911V31.4972H84.2479C84.2479 30.5739 84.0632 29.75 83.6939 29.0256C83.3317 28.3011 82.8132 27.7294 82.1385 27.3104C81.4709 26.8913 80.6825 26.6818 79.7734 26.6818C78.772 26.6818 77.9055 26.9304 77.174 27.4276C76.4496 27.9176 75.892 28.5568 75.5014 29.3452C75.1108 30.1335 74.9155 30.9787 74.9155 31.8807V33.3295C74.9155 34.5653 75.1286 35.6129 75.5547 36.4723C75.9879 37.3246 76.5881 37.9744 77.3551 38.4219C78.1222 38.8622 79.0135 39.0824 80.0291 39.0824C80.6896 39.0824 81.2862 38.9901 81.8189 38.8054C82.3587 38.6136 82.8239 38.3295 83.2145 37.9531C83.6051 37.5696 83.907 37.0937 84.12 36.5256L86.549 37.2074C86.2933 38.0312 85.8636 38.7557 85.2599 39.3807C84.6563 39.9986 83.9105 40.4815 83.0227 40.8295C82.1349 41.1705 81.1371 41.3409 80.0291 41.3409ZM95.4446 41.3835C94.4077 41.3835 93.4666 41.1882 92.6214 40.7976C91.7763 40.3999 91.1051 39.8281 90.608 39.0824C90.1108 38.3295 89.8622 37.4205 89.8622 36.3551C89.8622 35.4176 90.0469 34.6577 90.4162 34.0753C90.7855 33.4858 91.2791 33.0241 91.897 32.6903C92.5149 32.3565 93.1967 32.108 93.9425 31.9446C94.6953 31.7741 95.4517 31.6392 96.2116 31.5398C97.206 31.4119 98.0121 31.3161 98.63 31.2521C99.255 31.1811 99.7095 31.0639 99.9936 30.9006C100.285 30.7372 100.43 30.4531 100.43 30.0483V29.9631C100.43 28.9119 100.143 28.0952 99.5675 27.5128C98.9993 26.9304 98.1364 26.6392 96.9787 26.6392C95.7784 26.6392 94.8374 26.902 94.1555 27.4276C93.4737 27.9531 92.9943 28.5142 92.7173 29.1108L90.331 28.2585C90.7571 27.2642 91.3253 26.4901 92.0355 25.9361C92.7528 25.375 93.5341 24.9844 94.3793 24.7642C95.2315 24.5369 96.0696 24.4233 96.8935 24.4233C97.419 24.4233 98.0227 24.4872 98.7045 24.6151C99.3935 24.7358 100.058 24.9879 100.697 25.3714C101.343 25.755 101.879 26.3338 102.305 27.108C102.732 27.8821 102.945 28.919 102.945 30.2188V41H100.43V38.7841H100.303C100.132 39.1392 99.848 39.5192 99.4503 39.924C99.0526 40.3288 98.5234 40.6733 97.8629 40.9574C97.2024 41.2415 96.3963 41.3835 95.4446 41.3835ZM95.8281 39.125C96.8224 39.125 97.6605 38.9297 98.3423 38.5391C99.0313 38.1484 99.5497 37.6442 99.8977 37.0263C100.253 36.4084 100.43 35.7585 100.43 35.0767V32.7756C100.324 32.9034 100.089 33.0206 99.7273 33.1271C99.3722 33.2266 98.9602 33.3153 98.4915 33.3935C98.0298 33.4645 97.5788 33.5284 97.1385 33.5852C96.7053 33.6349 96.3537 33.6776 96.0838 33.7131C95.4304 33.7983 94.8196 33.9368 94.2514 34.1286C93.6903 34.3132 93.2358 34.5937 92.8878 34.9702C92.5469 35.3395 92.3764 35.8437 92.3764 36.483C92.3764 37.3565 92.6996 38.017 93.3459 38.4645C93.9993 38.9048 94.8267 39.125 95.8281 39.125ZM114.181 41.3409C112.647 41.3409 111.326 40.9787 110.218 40.2543C109.11 39.5298 108.258 38.532 107.661 37.2607C107.065 35.9893 106.767 34.5369 106.767 32.9034C106.767 31.2415 107.072 29.7749 107.683 28.5036C108.301 27.2251 109.16 26.2273 110.261 25.5099C111.369 24.7855 112.661 24.4233 114.139 24.4233C115.289 24.4233 116.326 24.6364 117.249 25.0625C118.173 25.4886 118.929 26.0852 119.519 26.8523C120.108 27.6193 120.474 28.5142 120.616 29.5369H118.102C117.91 28.7912 117.484 28.1307 116.823 27.5554C116.17 26.973 115.289 26.6818 114.181 26.6818C113.201 26.6818 112.342 26.9375 111.603 27.4489C110.872 27.9531 110.3 28.6669 109.888 29.5902C109.483 30.5064 109.281 31.5824 109.281 32.8182C109.281 34.0824 109.48 35.1832 109.877 36.1207C110.282 37.0582 110.85 37.7862 111.582 38.3047C112.32 38.8232 113.187 39.0824 114.181 39.0824C114.835 39.0824 115.428 38.9688 115.96 38.7415C116.493 38.5142 116.944 38.1875 117.313 37.7614C117.683 37.3352 117.945 36.8239 118.102 36.2273H120.616C120.474 37.1932 120.122 38.0632 119.561 38.8374C119.007 39.6044 118.272 40.2152 117.356 40.6697C116.447 41.1172 115.389 41.3409 114.181 41.3409ZM131.152 41.3409C129.575 41.3409 128.215 40.9929 127.072 40.2969C125.936 39.5938 125.058 38.6136 124.441 37.3565C123.83 36.0923 123.524 34.6222 123.524 32.946C123.524 31.2699 123.83 29.7926 124.441 28.5142C125.058 27.2287 125.918 26.2273 127.019 25.5099C128.127 24.7855 129.419 24.4233 130.896 24.4233C131.749 24.4233 132.59 24.5653 133.421 24.8494C134.252 25.1335 135.009 25.5952 135.691 26.2344C136.372 26.8665 136.916 27.7045 137.32 28.7486C137.725 29.7926 137.928 31.0781 137.928 32.6051V33.6705H125.314V31.4972H135.371C135.371 30.5739 135.186 29.75 134.817 29.0256C134.455 28.3011 133.936 27.7294 133.262 27.3104C132.594 26.8913 131.806 26.6818 130.896 26.6818C129.895 26.6818 129.029 26.9304 128.297 27.4276C127.573 27.9176 127.015 28.5568 126.624 29.3452C126.234 30.1335 126.039 30.9787 126.039 31.8807V33.3295C126.039 34.5653 126.252 35.6129 126.678 36.4723C127.111 37.3246 127.711 37.9744 128.478 38.4219C129.245 38.8622 130.137 39.0824 131.152 39.0824C131.813 39.0824 132.409 38.9901 132.942 38.8054C133.482 38.6136 133.947 38.3295 134.338 37.9531C134.728 37.5696 135.03 37.0937 135.243 36.5256L137.672 37.2074C137.416 38.0312 136.987 38.7557 136.383 39.3807C135.779 39.9986 135.034 40.4815 134.146 40.8295C133.258 41.1705 132.26 41.3409 131.152 41.3409ZM149.039 24.6364V26.767H140.218V24.6364H149.039ZM142.86 41V22.3778C142.86 21.4403 143.08 20.6591 143.521 20.0341C143.961 19.4091 144.533 18.9403 145.236 18.6278C145.939 18.3153 146.681 18.1591 147.463 18.1591C148.08 18.1591 148.585 18.2088 148.975 18.3082C149.366 18.4077 149.657 18.5 149.849 18.5852L149.124 20.7585C148.997 20.7159 148.819 20.6626 148.592 20.5987C148.372 20.5348 148.08 20.5028 147.718 20.5028C146.887 20.5028 146.287 20.7124 145.918 21.1314C145.556 21.5504 145.374 22.1648 145.374 22.9744V41H142.86ZM162.875 34.3097V24.6364H165.39V41H162.875V38.2301H162.705C162.321 39.0611 161.725 39.7678 160.915 40.3501C160.105 40.9254 159.083 41.2131 157.847 41.2131C156.824 41.2131 155.915 40.9893 155.12 40.5419C154.324 40.0874 153.699 39.4055 153.245 38.4964C152.79 37.5803 152.563 36.4261 152.563 35.0341V24.6364H155.077V34.8636C155.077 36.0568 155.411 37.0085 156.078 37.7188C156.753 38.429 157.613 38.7841 158.657 38.7841C159.282 38.7841 159.917 38.6243 160.564 38.3047C161.217 37.9851 161.764 37.495 162.204 36.8345C162.652 36.174 162.875 35.3324 162.875 34.3097ZM172.509 19.1818V41H169.994V19.1818H172.509Z" fill="black"/>
</g>
<defs>
<clipPath id="clip0_359_639">
<rect width="225.317" height="254.621" fill="white"/>
</clipPath>
</defs>
</svg>
