<svg width="226" height="255" viewBox="0 0 226 255" fill="none" xmlns="http://www.w3.org/2000/svg">
<g clip-path="url(#clip0_761_1315)">
<path d="M140.515 3H87.0639C40.6367 3 3 40.6367 3 87.0639V169.82C3 216.247 40.6367 253.883 87.0639 253.883H140.515C186.942 253.883 224.579 216.247 224.579 169.82V87.0639C224.579 40.6367 186.942 3 140.515 3Z" fill="#CDF3FF" stroke="black" stroke-width="3.73783" stroke-miterlimit="10"/>
<path d="M38.7976 48.4523C38.7976 48.4523 104.023 91.101 186.517 43.4062" stroke="#0C0C0C" stroke-width="3.73783" stroke-miterlimit="10" stroke-linecap="round"/>
<path d="M73.642 43V21.1818H81.0142C82.7259 21.1818 84.125 21.4908 85.2116 22.1087C86.3054 22.7195 87.1151 23.5469 87.6406 24.5909C88.1662 25.6349 88.429 26.7997 88.429 28.0852C88.429 29.3707 88.1662 30.5391 87.6406 31.5902C87.1222 32.6413 86.3196 33.4794 85.233 34.1044C84.1463 34.7223 82.7543 35.0312 81.0568 35.0312H75.7727V32.6875H80.9716C82.1435 32.6875 83.0845 32.4851 83.7947 32.0803C84.505 31.6754 85.0199 31.1286 85.3395 30.4396C85.6662 29.7436 85.8295 28.9588 85.8295 28.0852C85.8295 27.2116 85.6662 26.4304 85.3395 25.7415C85.0199 25.0526 84.5014 24.5128 83.7841 24.1222C83.0668 23.7244 82.1151 23.5256 80.929 23.5256H76.2841V43H73.642ZM92.3441 43V26.6364H94.7731V29.108H94.9435C95.2418 28.2983 95.7816 27.6413 96.5629 27.1371C97.3441 26.6328 98.2248 26.3807 99.2049 26.3807C99.3896 26.3807 99.6204 26.3842 99.8974 26.3913C100.174 26.3984 100.384 26.4091 100.526 26.4233V28.9801C100.441 28.9588 100.245 28.9268 99.94 28.8842C99.6417 28.8345 99.3256 28.8097 98.9918 28.8097C98.1964 28.8097 97.4862 28.9766 96.8612 29.3104C96.2433 29.6371 95.7532 30.0916 95.391 30.674C95.0359 31.2493 94.8583 31.9062 94.8583 32.6449V43H92.3441ZM109.656 43.3409C108.179 43.3409 106.882 42.9893 105.767 42.2862C104.659 41.5831 103.793 40.5994 103.168 39.3352C102.55 38.071 102.241 36.5937 102.241 34.9034C102.241 33.1989 102.55 31.7109 103.168 30.4396C103.793 29.1683 104.659 28.1811 105.767 27.478C106.882 26.7749 108.179 26.4233 109.656 26.4233C111.133 26.4233 112.426 26.7749 113.534 27.478C114.649 28.1811 115.515 29.1683 116.133 30.4396C116.758 31.7109 117.071 33.1989 117.071 34.9034C117.071 36.5937 116.758 38.071 116.133 39.3352C115.515 40.5994 114.649 41.5831 113.534 42.2862C112.426 42.9893 111.133 43.3409 109.656 43.3409ZM109.656 41.0824C110.778 41.0824 111.701 40.7947 112.426 40.2195C113.15 39.6442 113.686 38.8878 114.034 37.9503C114.382 37.0128 114.556 35.9972 114.556 34.9034C114.556 33.8097 114.382 32.7905 114.034 31.8459C113.686 30.9013 113.15 30.1378 112.426 29.5554C111.701 28.973 110.778 28.6818 109.656 28.6818C108.534 28.6818 107.61 28.973 106.886 29.5554C106.162 30.1378 105.625 30.9013 105.277 31.8459C104.929 32.7905 104.755 33.8097 104.755 34.9034C104.755 35.9972 104.929 37.0128 105.277 37.9503C105.625 38.8878 106.162 39.6442 106.886 40.2195C107.61 40.7947 108.534 41.0824 109.656 41.0824ZM131.221 36.3097V26.6364H133.735V43H131.221V40.2301H131.051C130.667 41.0611 130.07 41.7678 129.261 42.3501C128.451 42.9254 127.428 43.2131 126.193 43.2131C125.17 43.2131 124.261 42.9893 123.465 42.5419C122.67 42.0874 122.045 41.4055 121.59 40.4964C121.136 39.5803 120.909 38.4261 120.909 37.0341V26.6364H123.423V36.8636C123.423 38.0568 123.757 39.0085 124.424 39.7188C125.099 40.429 125.958 40.7841 127.002 40.7841C127.627 40.7841 128.263 40.6243 128.909 40.3047C129.563 39.9851 130.11 39.495 130.55 38.8345C130.997 38.174 131.221 37.3324 131.221 36.3097ZM144.519 43.3409C143.156 43.3409 141.952 42.9964 140.908 42.3075C139.864 41.6115 139.047 40.6314 138.457 39.3672C137.868 38.0959 137.573 36.5938 137.573 34.8608C137.573 33.142 137.868 31.6506 138.457 30.3864C139.047 29.1222 139.867 28.1456 140.918 27.4567C141.969 26.7678 143.184 26.4233 144.562 26.4233C145.627 26.4233 146.469 26.6009 147.087 26.956C147.712 27.304 148.188 27.7017 148.514 28.1491C148.848 28.5895 149.107 28.9517 149.292 29.2358H149.505V21.1818H152.019V43H149.59V40.4858H149.292C149.107 40.7841 148.844 41.1605 148.504 41.6151C148.163 42.0625 147.676 42.4638 147.044 42.8189C146.412 43.1669 145.57 43.3409 144.519 43.3409ZM144.86 41.0824C145.869 41.0824 146.721 40.8196 147.417 40.294C148.113 39.7614 148.642 39.0263 149.004 38.0888C149.366 37.1442 149.548 36.054 149.548 34.8182C149.548 33.5966 149.37 32.5277 149.015 31.6115C148.66 30.6882 148.134 29.9709 147.438 29.4595C146.742 28.9411 145.883 28.6818 144.86 28.6818C143.795 28.6818 142.907 28.9553 142.197 29.5021C141.494 30.0419 140.964 30.777 140.609 31.7074C140.261 32.6307 140.087 33.6676 140.087 34.8182C140.087 35.983 140.265 37.0412 140.62 37.9929C140.982 38.9375 141.515 39.6903 142.218 40.2514C142.928 40.8054 143.809 41.0824 144.86 41.0824Z" fill="black"/>
<path d="M59 108.867C59 108.867 73.8875 148.655 92.6773 105.622" stroke="black" stroke-width="3.73783" stroke-miterlimit="10" stroke-linecap="round"/>
<path d="M128 108.867C128 108.867 142.887 148.655 161.677 105.622" stroke="black" stroke-width="3.73783" stroke-miterlimit="10" stroke-linecap="round"/>
<path d="M77 149C77 149 96.3621 275.946 141 150.941" stroke="black" stroke-width="3.73783" stroke-miterlimit="10" stroke-linecap="round"/>
<path d="M121.815 138.293C106.649 136.96 75.0153 133.693 69.8153 131.293C63.3153 128.293 97.3153 149.293 113.815 148.793" stroke="black" stroke-width="1.48698"/>
</g>
<defs>
<clipPath id="clip0_761_1315">
<rect width="225.317" height="254.621" fill="white"/>
</clipPath>
</defs>
</svg>
