<svg width="226" height="255" viewBox="0 0 226 255" fill="none" xmlns="http://www.w3.org/2000/svg">
<g clip-path="url(#clip0_757_1145)">
<path d="M139.384 1.86865H85.9328C39.5056 1.86865 1.8689 39.5053 1.8689 85.9326V168.688C1.8689 215.115 39.5056 252.752 85.9328 252.752H139.384C185.811 252.752 223.448 215.115 223.448 168.688V85.9326C223.448 39.5053 185.811 1.86865 139.384 1.86865Z" fill="#FBCFB6" stroke="black" stroke-width="3.73783" stroke-miterlimit="10"/>
<path d="M38.7986 53.4523C38.7986 53.4523 104.024 96.101 186.518 48.4062" stroke="#0C0C0C" stroke-width="3.73783" stroke-miterlimit="10" stroke-linecap="round"/>
<path d="M73.1862 124.657C78.6155 124.657 83.0167 118.348 83.0167 110.566C83.0167 102.783 78.6155 96.4741 73.1862 96.4741C67.757 96.4741 63.3557 102.783 63.3557 110.566C63.3557 118.348 67.757 124.657 73.1862 124.657Z" fill="black"/>
<path d="M145.812 124.657C151.241 124.657 155.643 118.348 155.643 110.566C155.643 102.783 151.241 96.4741 145.812 96.4741C140.383 96.4741 135.982 102.783 135.982 110.566C135.982 118.348 140.383 124.657 145.812 124.657Z" fill="black"/>
<path d="M63.3557 166.894C63.3557 166.894 145.479 138 153.886 164.876" stroke="black" stroke-width="3.73783" stroke-miterlimit="10" stroke-linecap="round"/>
<path d="M83.9602 26.1818H86.6023V40.6278C86.6023 42.1193 86.2507 43.451 85.5476 44.6229C84.8516 45.7876 83.8679 46.7074 82.5966 47.3821C81.3253 48.0497 79.8338 48.3835 78.1222 48.3835C76.4105 48.3835 74.919 48.0497 73.6477 47.3821C72.3764 46.7074 71.3892 45.7876 70.6861 44.6229C69.9901 43.451 69.642 42.1193 69.642 40.6278V26.1818H72.2841V40.4148C72.2841 41.4801 72.5185 42.4283 72.9872 43.2592C73.456 44.0831 74.1236 44.733 74.9901 45.2088C75.8636 45.6776 76.9077 45.9119 78.1222 45.9119C79.3366 45.9119 80.3807 45.6776 81.2543 45.2088C82.1278 44.733 82.7955 44.0831 83.2571 43.2592C83.7259 42.4283 83.9602 41.4801 83.9602 40.4148V26.1818ZM91.5375 54.1364V31.6364H93.9664V34.2358H94.2647C94.4494 33.9517 94.7051 33.5895 95.0318 33.1491C95.3656 32.7017 95.8414 32.304 96.4593 31.956C97.0843 31.6009 97.9295 31.4233 98.9949 31.4233C100.373 31.4233 101.587 31.7678 102.638 32.4567C103.689 33.1456 104.51 34.1222 105.099 35.3864C105.689 36.6506 105.983 38.142 105.983 39.8608C105.983 41.5938 105.689 43.0959 105.099 44.3672C104.51 45.6314 103.693 46.6115 102.649 47.3075C101.605 47.9964 100.401 48.3409 99.0375 48.3409C97.9863 48.3409 97.1447 48.1669 96.5126 47.8189C95.8805 47.4638 95.394 47.0625 95.0531 46.6151C94.7122 46.1605 94.4494 45.7841 94.2647 45.4858H94.0517V54.1364H91.5375ZM94.0091 39.8182C94.0091 41.054 94.1902 42.1442 94.5524 43.0888C94.9146 44.0263 95.4437 44.7614 96.1397 45.294C96.8358 45.8196 97.688 46.0824 98.6966 46.0824C99.7477 46.0824 100.625 45.8054 101.328 45.2514C102.038 44.6903 102.571 43.9375 102.926 42.9929C103.288 42.0412 103.469 40.983 103.469 39.8182C103.469 38.6676 103.292 37.6307 102.937 36.7074C102.589 35.777 102.059 35.0419 101.349 34.5021C100.646 33.9553 99.7619 33.6818 98.6966 33.6818C97.6738 33.6818 96.8145 33.9411 96.1184 34.4595C95.4224 34.9709 94.8968 35.6882 94.5417 36.6115C94.1866 37.5277 94.0091 38.5966 94.0091 39.8182ZM121.41 35.3011L119.151 35.9403C119.009 35.5639 118.8 35.1982 118.523 34.843C118.253 34.4808 117.883 34.1825 117.415 33.9482C116.946 33.7138 116.346 33.5966 115.614 33.5966C114.613 33.5966 113.778 33.8274 113.111 34.2891C112.45 34.7436 112.12 35.3224 112.12 36.0256C112.12 36.6506 112.347 37.1442 112.802 37.5064C113.256 37.8686 113.966 38.1705 114.932 38.4119L117.361 39.0085C118.824 39.3636 119.915 39.907 120.632 40.6385C121.349 41.3629 121.708 42.2969 121.708 43.4403C121.708 44.3778 121.438 45.2159 120.898 45.9545C120.366 46.6932 119.62 47.2756 118.661 47.7017C117.702 48.1278 116.587 48.3409 115.316 48.3409C113.647 48.3409 112.265 47.9787 111.172 47.2543C110.078 46.5298 109.385 45.4716 109.094 44.0795L111.481 43.483C111.708 44.3636 112.138 45.0241 112.77 45.4645C113.409 45.9048 114.243 46.125 115.273 46.125C116.445 46.125 117.376 45.8764 118.064 45.3793C118.76 44.875 119.108 44.2713 119.108 43.5682C119.108 43 118.91 42.5241 118.512 42.1406C118.114 41.75 117.503 41.4588 116.68 41.267L113.952 40.6278C112.454 40.2727 111.353 39.7223 110.65 38.9766C109.954 38.2237 109.606 37.2827 109.606 36.1534C109.606 35.2301 109.865 34.4134 110.383 33.7031C110.909 32.9929 111.623 32.4354 112.525 32.0305C113.434 31.6257 114.464 31.4233 115.614 31.4233C117.233 31.4233 118.505 31.7784 119.428 32.4886C120.358 33.1989 121.019 34.1364 121.41 35.3011ZM132.353 48.3409C130.777 48.3409 129.417 47.9929 128.273 47.2969C127.137 46.5938 126.26 45.6136 125.642 44.3565C125.031 43.0923 124.725 41.6222 124.725 39.946C124.725 38.2699 125.031 36.7926 125.642 35.5142C126.26 34.2287 127.119 33.2273 128.22 32.5099C129.328 31.7855 130.62 31.4233 132.098 31.4233C132.95 31.4233 133.792 31.5653 134.623 31.8494C135.453 32.1335 136.21 32.5952 136.892 33.2344C137.574 33.8665 138.117 34.7045 138.522 35.7486C138.926 36.7926 139.129 38.0781 139.129 39.6051V40.6705H126.515V38.4972H136.572C136.572 37.5739 136.387 36.75 136.018 36.0256C135.656 35.3011 135.137 34.7294 134.463 34.3104C133.795 33.8913 133.007 33.6818 132.098 33.6818C131.096 33.6818 130.23 33.9304 129.498 34.4276C128.774 34.9176 128.216 35.5568 127.826 36.3452C127.435 37.1335 127.24 37.9787 127.24 38.8807V40.3295C127.24 41.5653 127.453 42.6129 127.879 43.4723C128.312 44.3246 128.912 44.9744 129.679 45.4219C130.446 45.8622 131.338 46.0824 132.353 46.0824C133.014 46.0824 133.61 45.9901 134.143 45.8054C134.683 45.6136 135.148 45.3295 135.539 44.9531C135.929 44.5696 136.231 44.0937 136.444 43.5256L138.873 44.2074C138.618 45.0312 138.188 45.7557 137.584 46.3807C136.98 46.9986 136.235 47.4815 135.347 47.8295C134.459 48.1705 133.461 48.3409 132.353 48.3409ZM150.07 31.6364V33.767H141.59V31.6364H150.07ZM144.061 27.7159H146.576V43.3125C146.576 44.0227 146.679 44.5554 146.885 44.9105C147.098 45.2585 147.368 45.4929 147.694 45.6136C148.028 45.7273 148.38 45.7841 148.749 45.7841C149.026 45.7841 149.253 45.7699 149.431 45.7415C149.608 45.706 149.75 45.6776 149.857 45.6562L150.368 47.9148C150.198 47.9787 149.96 48.0426 149.654 48.1065C149.349 48.1776 148.962 48.2131 148.493 48.2131C147.783 48.2131 147.087 48.0604 146.405 47.755C145.73 47.4496 145.169 46.9844 144.722 46.3594C144.282 45.7344 144.061 44.946 144.061 43.9943V27.7159Z" fill="black"/>
</g>
<defs>
<clipPath id="clip0_757_1145">
<rect width="225.317" height="254.621" fill="white"/>
</clipPath>
</defs>
</svg>
