<svg width="319" height="126" viewBox="0 0 319 126" fill="none" xmlns="http://www.w3.org/2000/svg">
<path d="M34.5132 64H21.4868C10.1723 64 1 73.1723 1 84.4868V104.655C1 115.969 10.1723 125.142 21.4868 125.142H34.5132C45.8277 125.142 55 115.969 55 104.655V84.4868C55 73.1723 45.8277 64 34.5132 64Z" fill="#B1D7FA" stroke="black" stroke-width="0.910931" stroke-miterlimit="10"/>
<path d="M9.99805 74.1345C9.99805 74.1345 25.8938 84.5283 45.9981 72.9048" stroke="#0C0C0C" stroke-width="0.910931" stroke-miterlimit="10" stroke-linecap="round"/>
<path d="M47.8683 118.183C48.1689 117.873 48.2782 117.427 48.0778 117.062C47.6132 116.215 46.3015 115.741 46.3015 115.741C44.9988 115.286 45.5454 112.079 45.5454 112.079C45.6547 109.246 42.4027 107.689 42.4027 107.689C40.4533 107.051 40.344 102.014 40.344 102.014C40.016 98.7252 36.9826 96.6209 36.9826 96.6209C33.5211 94.2434 35.7802 90.0986 35.7802 90.0986L34.5778 90.5359C34.2498 90.6543 33.9857 90.8911 33.8672 91.1918C33.4027 92.376 32.51 95.546 35.2701 97.5318C35.2701 97.5318 38.2944 99.7272 38.6132 103.17C38.6132 103.17 38.7225 108.427 40.6628 109.092C40.6628 109.092 43.9057 110.713 43.7964 113.674C43.7964 113.674 43.2589 117.017 44.5525 117.49C44.5525 117.49 45.3176 117.782 45.8915 118.31C46.4108 118.802 47.2944 118.784 47.7863 118.265L47.8683 118.183Z" fill="#2997D5"/>
<path d="M6.49266 117.791C6.2376 117.454 6.17384 117.007 6.38335 116.652C6.88436 115.841 8.15967 115.468 8.15967 115.468C9.41675 115.113 9.1708 111.879 9.1708 111.879C9.29833 109.046 12.4775 107.743 12.4775 107.743C14.3631 107.251 14.8732 102.25 14.8732 102.25C15.4471 98.9983 18.4714 97.1309 18.4714 97.1309C21.9238 95.0266 20.1293 90.7271 20.1293 90.7271L21.2224 91.2554C21.523 91.4011 21.7508 91.6562 21.8327 91.9568C22.1789 93.1775 22.7619 96.4022 20.0018 98.1602C20.0018 98.1602 16.9775 100.119 16.3945 103.517C16.3945 103.517 15.8661 108.745 13.9805 109.255C13.9805 109.255 10.8014 110.622 10.6647 113.582C10.6647 113.582 10.9016 116.953 9.64449 117.326C9.64449 117.326 8.89752 117.554 8.32364 118.046C7.7953 118.492 6.96635 118.41 6.54732 117.855L6.48355 117.763L6.49266 117.791Z" fill="#2997D5"/>
<path d="M36.052 88.6073C36.2721 87.2516 35.3515 85.9742 33.9958 85.7542C32.6401 85.5341 31.3627 86.4547 31.1426 87.8104C30.9225 89.1661 31.8432 90.4435 33.1989 90.6636C34.5546 90.8837 35.832 89.963 36.052 88.6073Z" fill="#FEFFF5" stroke="black" stroke-width="0.910931" stroke-miterlimit="10"/>
<path d="M24.6475 88.7407C24.6475 90.1163 23.5362 91.2276 22.1607 91.2276C20.7852 91.2276 19.6738 90.1163 19.6738 88.7407C19.6738 87.3652 20.7852 86.2539 22.1607 86.2539C23.5362 86.2539 24.6475 87.3652 24.6475 88.7407Z" fill="#FEFFF5" stroke="black" stroke-width="0.910931" stroke-miterlimit="10"/>
<path d="M22.937 82.1011C22.937 82.1011 18.4006 87.0292 16.4785 86.2549" stroke="black" stroke-width="0.910931" stroke-miterlimit="10" stroke-linecap="round"/>
<path d="M32.3414 81.9473C32.3414 81.9473 36.792 86.7668 38.6777 86.0095" stroke="black" stroke-width="0.910931" stroke-miterlimit="10" stroke-linecap="round"/>
<path d="M21.0312 106.696C21.0312 106.696 26.9978 85.0248 34.9594 104.382" stroke="black" stroke-width="0.910931" stroke-miterlimit="10" stroke-linecap="round"/>
<path d="M55.5 40C55.5 18.1848 73.1848 0.5 95 0.5H287C304.397 0.5 318.5 14.603 318.5 32C318.5 49.397 304.397 63.5 287 63.5H55.5V40Z" stroke="black"/>
<path d="M106.75 22.6406V34.0273H105.053V29.0215H101.207V27.625H105.053V22.6406H106.75ZM100.412 34.6289C104.387 34.6289 106.814 35.918 106.814 38.1738C106.814 40.4297 104.387 41.7188 100.412 41.7402C96.4375 41.7188 94.0098 40.4297 94.0098 38.1738C94.0098 35.918 96.4375 34.6289 100.412 34.6289ZM100.412 35.9395C97.4902 35.9395 95.6641 36.7773 95.6855 38.1738C95.6641 39.5488 97.4902 40.3867 100.412 40.3867C103.334 40.3867 105.139 39.5488 105.139 38.1738C105.139 36.7773 103.334 35.9395 100.412 35.9395ZM97.5547 26.1426C97.5547 28.6348 99.4668 30.998 102.26 31.9648L101.379 33.3184C99.2305 32.5449 97.5654 30.9443 96.7598 28.957C95.9219 31.2021 94.1494 32.9961 91.8828 33.8555L91.002 32.502C93.8379 31.4707 95.8574 28.8926 95.8574 26.1641V25.4551H91.5391V24.0371H101.83V25.4551H97.5547V26.1426ZM124.861 22.6406V26.7871H127.74V28.2051H124.861V32.373H123.186V22.6406H124.861ZM119.576 23.7363V31.3633H110.746V23.7363H119.576ZM112.4 25.1113V30.0098H117.943V25.1113H112.4ZM124.861 33.2754V37.9375H114.377V40.1289H125.57V41.4824H112.723V36.6484H123.186V34.6289H112.68V33.2754H124.861ZM144.154 23.6074V24.9824H137.043V27.0449H143.789V28.3555H137.043V30.5684C140.846 30.5684 142.919 30.4932 145.465 30.0742L145.637 31.4277C142.973 31.8789 140.803 31.9434 136.807 31.9434H135.367V23.6074H144.154ZM149.396 22.6406V26.8301H152.275V28.2266H149.396V32.6309H147.721V22.6406H149.396ZM149.396 33.5547V38.0449H138.912V40.1719H150.105V41.5254H137.258V36.7559H147.721V34.9082H137.215V33.5547H149.396ZM165.059 31.8574V33.2324H160.74V36.3262C162.577 36.2402 164.446 36.0898 166.197 35.832L166.326 37.0781C161.965 37.873 157.26 37.873 153.822 37.8945L153.586 36.4766C155.187 36.4658 157.077 36.4658 159.064 36.3906V33.2324H155.047V24.3809H164.973V25.7559H156.744V28.0977H164.564V29.4297H156.744V31.8574H165.059ZM169.141 22.6406V41.7832H167.465V22.6406H169.141ZM187.273 22.6406V30.5254H190.475V31.9219H187.273V41.7402H185.598V22.6406H187.273ZM183.75 25.7129V27.1094H172.385V25.7129H177.305V22.877H178.98V25.7129H183.75ZM178.164 28.6992C180.871 28.6992 182.826 30.5039 182.848 33.082C182.826 35.6602 180.871 37.4648 178.164 37.4648C175.436 37.4648 173.459 35.6602 173.48 33.082C173.459 30.5039 175.436 28.6992 178.164 28.6992ZM178.164 30.1172C176.381 30.1172 175.07 31.3633 175.092 33.082C175.07 34.8223 176.381 36.0469 178.164 36.0254C179.926 36.0469 181.215 34.8223 181.236 33.082C181.215 31.3633 179.926 30.1172 178.164 30.1172ZM207.254 22.6406V32.5449H205.6V22.6406H207.254ZM207.275 33.5117V38.0879H196.555V40.1504H207.963V41.5254H194.9V36.7773H205.6V34.8652H194.857V33.5117H207.275ZM198.273 24.6602C198.252 27.3672 200.314 29.752 203.15 30.6758L202.312 31.9863C200.078 31.2236 198.295 29.623 197.436 27.5605C196.576 29.7842 194.782 31.5352 192.516 32.3516L191.635 31.0195C194.514 30.0098 196.555 27.4746 196.555 24.6602V23.1992H198.273V24.6602ZM231.875 22.6621V36.7773H230.178V29.9668H225.945V28.5488H230.178V22.6621H231.875ZM226.031 24.123C226.01 29.0215 222.508 32.7598 217.072 34.543L216.342 33.1895C220.746 31.7393 223.808 29 224.184 25.541H217.309V24.123H226.031ZM232.369 39.9141V41.332H219.715V35.3379H221.434V39.9141H232.369ZM249.836 22.6406V30.418H252.93V31.8359H249.836V41.7402H248.16V22.6406H249.836ZM244.895 24.7031C244.895 30.1172 242.359 35.0371 236.129 38.1094L235.184 36.7773C240.125 34.3174 242.811 30.6436 243.197 26.1211H236.064V24.7031H244.895ZM271.557 37.873V39.291H254.068V37.873H258.408V32.7168C256.775 31.8682 255.787 30.4932 255.787 28.7637C255.787 25.7988 258.688 23.8652 262.77 23.8438C266.852 23.8652 269.752 25.7988 269.752 28.7637C269.752 30.4609 268.796 31.8252 267.217 32.6738V37.873H271.557ZM262.77 25.2402C259.633 25.2188 257.42 26.6367 257.42 28.7637C257.42 30.8906 259.633 32.3301 262.77 32.3301C265.885 32.3301 268.119 30.8906 268.119 28.7637C268.119 26.6367 265.885 25.2188 262.77 25.2402ZM260.062 37.873H265.52V33.3184C264.692 33.5439 263.769 33.6621 262.77 33.6621C261.792 33.6621 260.879 33.5547 260.062 33.3398V37.873ZM276.133 35.5098C276.154 32.6309 277.035 31.75 278.518 30.8477C279.398 30.3105 280.086 29.4512 280.086 28.248C280.086 26.7871 278.947 25.8633 277.529 25.8633C276.305 25.8633 275.08 26.5938 274.951 28.3555H272.996C273.104 25.7559 275.08 24.2305 277.529 24.2305C280.215 24.2305 281.977 25.9707 281.977 28.334C281.977 30.0098 281.182 31.1914 279.85 32.0078C278.518 32.8242 278.023 33.6406 277.98 35.5098V35.6172H276.133V35.5098ZM277.121 40.1289C276.369 40.1289 275.725 39.5059 275.746 38.7324C275.725 37.9805 276.369 37.3574 277.121 37.3574C277.873 37.3574 278.496 37.9805 278.496 38.7324C278.496 39.5059 277.873 40.1289 277.121 40.1289Z" fill="black"/>
</svg>
