<svg width="168" height="117" viewBox="0 0 168 117" fill="none" xmlns="http://www.w3.org/2000/svg">
<g filter="url(#filter0_i_433_532)">
<rect width="144.024" height="4.5822" rx="2.2911" transform="matrix(0.966719 -0.255842 0.338658 0.94091 0.607422 78.4629)" fill="#4C2705"/>
</g>
<path d="M94.9538 60.1159L91.3809 51.5511C88.2775 44.1118 79.4531 40.0795 71.6709 42.5448L57.7994 46.939C50.0173 49.4043 46.2244 57.4335 49.3278 64.8728L52.9007 73.4376C56.0041 80.8769 64.8285 84.9092 72.6107 82.4439L86.4822 78.0496C94.2643 75.5844 98.0572 67.5552 94.9538 60.1159Z" fill="#FEFFF5" stroke="black" stroke-width="0.51197" stroke-miterlimit="10"/>
<path d="M72.3522 67.2755L68.7793 58.7108C65.6759 51.2715 56.8515 47.2392 49.0694 49.7045L35.1979 54.0987C27.4157 56.564 23.6229 64.5932 26.7263 72.0325L30.2991 80.5973C33.4025 88.0366 42.227 92.0688 50.0091 89.6036L63.8806 85.2093C71.6627 82.7441 75.4556 74.7148 72.3522 67.2755Z" fill="#FEFFF5" stroke="black" stroke-width="0.51197" stroke-miterlimit="10"/>
<path d="M72.3522 67.2755L68.7793 58.7108C65.6759 51.2715 56.8515 47.2392 49.0694 49.7045L35.1979 54.0987C27.4157 56.564 23.6229 64.5932 26.7263 72.0325L30.2991 80.5973C33.4025 88.0366 42.227 92.0688 50.0091 89.6036L63.8806 85.2093C71.6627 82.7441 75.4556 74.7148 72.3522 67.2755Z" fill="#FEFFF5" stroke="black" stroke-width="0.51197" stroke-miterlimit="10"/>
<path d="M119.391 52.3742L115.818 43.8094C112.715 36.3701 103.891 32.3378 96.1084 34.8031L82.2369 39.1973C74.4548 41.6626 70.6619 49.6918 73.7653 57.1311L77.3382 65.6959C80.4416 73.1352 89.266 77.1675 97.0482 74.7022L110.92 70.3079C118.702 67.8427 122.495 59.8135 119.391 52.3742Z" fill="#FEFFF5" stroke="black" stroke-width="0.51197" stroke-miterlimit="10"/>
<path d="M94.9538 60.1159L91.3809 51.5511C88.2775 44.1118 79.4531 40.0795 71.6709 42.5448L57.7994 46.939C50.0173 49.4043 46.2244 57.4335 49.3278 64.8728L52.9007 73.4376C56.0041 80.8769 64.8285 84.9092 72.6107 82.4439L86.4822 78.0496C94.2643 75.5844 98.0572 67.5552 94.9538 60.1159Z" fill="#FEFFF5" stroke="black" stroke-width="0.51197" stroke-miterlimit="10"/>
<path d="M119.391 52.3742L115.818 43.8094C112.715 36.3701 103.891 32.3378 96.1084 34.8031L82.2369 39.1973C74.4548 41.6626 70.6619 49.6918 73.7653 57.1311L77.3382 65.6959C80.4416 73.1352 89.266 77.1675 97.0482 74.7022L110.92 70.3079C118.702 67.8427 122.495 59.8135 119.391 52.3742Z" fill="#FEFFF5" stroke="black" stroke-width="0.51197" stroke-miterlimit="10"/>
<path d="M106.031 38.3593C106.031 38.3593 103.242 51.0753 116.751 61.7612" stroke="#0C0C0C" stroke-width="0.51197" stroke-miterlimit="10" stroke-linecap="round"/>
<g filter="url(#filter1_d_433_532)">
<ellipse cx="2.66517" cy="0.597333" rx="2.66517" ry="0.597333" transform="matrix(0.314483 0.949263 -0.972675 0.232172 112.275 48.5527)" fill="#E6E8D2"/>
</g>
<g filter="url(#filter2_i_433_532)">
<path d="M111.67 49.0699L137.625 42.2008C138.848 41.877 140.187 42.5797 140.616 43.7703C141.044 44.9609 140.4 46.1885 139.177 46.5122L113.221 53.3813L112.932 52.885C112.238 51.6936 111.808 50.3932 111.67 49.0699Z" fill="#4C2705"/>
</g>
<mask id="path-11-outside-1_433_532" maskUnits="userSpaceOnUse" x="24.6427" y="36.9729" width="95.5449" height="48.1113" fill="black">
<rect fill="white" x="24.6427" y="36.9729" width="95.5449" height="48.1113"/>
<path d="M38.5687 40.9769L41.5579 40.9418L47.4612 50.2746L53.1439 40.8059L56.1332 40.7708L56.3303 57.5726L52.5783 57.6166L52.4702 48.4014L48.6495 54.8998L46.3818 54.9264L42.4097 48.5194L42.5178 57.7346L38.7658 57.7786L38.5687 40.9769ZM64.8457 45.1015C66.0689 45.0872 67.1716 45.3492 68.1539 45.8875C69.136 46.412 69.9076 47.1521 70.4686 48.1077C71.0296 49.0633 71.3173 50.1459 71.3315 51.3553C71.3456 52.5648 71.0835 53.6538 70.545 54.6223C70.0066 55.5908 69.2526 56.3488 68.2831 56.8962C67.3137 57.4574 66.2174 57.7452 64.9942 57.7596C63.771 57.7739 62.6683 57.5119 61.6861 56.9736C60.704 56.4491 59.9324 55.709 59.3714 54.7534C58.8103 53.7978 58.5227 52.7152 58.5085 51.5058C58.4943 50.2963 58.7565 49.2073 59.2949 48.2388C59.8334 47.2703 60.5874 46.5123 61.5569 45.9649C62.5263 45.4037 63.6225 45.1159 64.8457 45.1015ZM64.8825 48.2351C64.0304 48.2451 63.3399 48.5556 62.811 49.1666C62.2956 49.7638 62.0434 50.5296 62.0544 51.4642C62.0654 52.3988 62.3355 53.1653 62.8649 53.7639C63.4078 54.3486 64.1054 54.636 64.9575 54.626C65.8096 54.616 66.4933 54.3124 67.0086 53.7153C67.5376 53.1043 67.7965 52.3315 67.7856 51.3969C67.7746 50.4624 67.4976 49.7027 66.9547 49.118C66.4253 48.5194 65.7346 48.2251 64.8825 48.2351ZM79.2002 44.9331C80.4234 44.9188 81.5261 45.1808 82.5084 45.7191C83.4905 46.2436 84.262 46.9837 84.8231 47.9393C85.3841 48.8949 85.6717 49.9775 85.6859 51.1869C85.7001 52.3964 85.438 53.4854 84.8995 54.4539C84.361 55.4224 83.607 56.1804 82.6375 56.7278C81.6682 57.289 80.5719 57.5768 79.3487 57.5911C78.1255 57.6055 77.0228 57.3435 76.0405 56.8052C75.0584 56.2807 74.2869 55.5406 73.7258 54.585C73.1648 53.6293 72.8772 52.5468 72.863 51.3374C72.8488 50.1279 73.1109 49.0389 73.6494 48.0704C74.1878 47.1019 74.9418 46.3439 75.9114 45.7965C76.8807 45.2353 77.977 44.9475 79.2002 44.9331ZM79.237 48.0667C78.3848 48.0767 77.6943 48.3872 77.1654 48.9982C76.6501 49.5953 76.3979 50.3612 76.4089 51.2958C76.4198 52.2303 76.69 52.9969 77.2194 53.5955C77.7623 54.1802 78.4598 54.4676 79.3119 54.4576C80.164 54.4476 80.8478 54.144 81.3631 53.5469C81.892 52.9359 82.151 52.1631 82.14 51.2285C82.1291 50.2939 81.8521 49.5343 81.3092 48.9496C80.7798 48.351 80.0891 48.0567 79.237 48.0667ZM93.1672 57.429C92.0264 57.4424 91.0062 57.1795 90.1064 56.6402C89.2067 56.1147 88.5039 55.3738 87.9978 54.4175C87.4918 53.4613 87.2316 52.3784 87.2174 51.1689C87.2032 49.9595 87.4379 48.8708 87.9214 47.903C88.4049 46.9351 89.0901 46.1779 89.9772 45.6314C90.8641 45.0712 91.8779 44.7844 93.0186 44.771C94.5717 44.7528 95.7321 45.2478 96.5 46.2559L96.424 39.7826L100.094 39.7396L100.297 57.0567L96.6272 57.0998L96.6127 55.8628C95.8687 56.8887 94.7202 57.4108 93.1672 57.429ZM93.7076 54.2887C94.601 54.2782 95.3122 53.9743 95.8413 53.377C96.3702 52.766 96.6291 51.9932 96.6182 51.0587C96.6072 50.1241 96.3303 49.3644 95.7873 48.7797C95.2442 48.1813 94.526 47.8873 93.6326 47.8978C92.7668 47.908 92.0763 48.2185 91.5611 48.8293C91.0458 49.4264 90.7936 50.1923 90.8046 51.1269C90.8155 52.0614 91.0857 52.828 91.615 53.4266C92.1442 54.0115 92.8418 54.2988 93.7076 54.2887ZM42.563 68.2512L37.0999 68.3153L37.2581 81.798L33.506 81.842L33.3478 68.3593L27.8847 68.4234L27.8457 65.1043L42.5241 64.9321L42.563 68.2512ZM42.678 69.6519L46.3476 69.6089L46.3621 70.8458C47.1061 69.8199 48.2271 69.2982 49.7252 69.2806C50.3849 69.2729 50.9149 69.3354 51.315 69.4681L51.3967 72.9105C50.8712 72.6417 50.2442 72.5116 49.5158 72.5202C48.54 72.5316 47.7734 72.8018 47.216 73.3306C46.6724 73.8594 46.406 74.5841 46.4168 75.505L46.4894 81.6897L42.8198 81.7327L42.678 69.6519ZM58.0659 81.8425C56.9251 81.8559 55.9049 81.5929 55.0051 81.0537C54.1054 80.5281 53.4026 79.7873 52.8965 78.831C52.3905 77.8747 52.1303 76.7919 52.1162 75.5824C52.102 74.373 52.3366 73.2843 52.8201 72.3164C53.3036 71.3486 53.9889 70.5914 54.8759 70.0449C55.7628 69.4847 56.7766 69.1979 57.9174 69.1845C59.4704 69.1663 60.6309 69.6612 61.3987 70.6694L61.3842 69.4325L65.0538 69.3894L65.1955 81.4702L61.5259 81.5132L61.5114 80.2763C60.7674 81.3022 59.6189 81.8243 58.0659 81.8425ZM58.6063 78.7021C59.4997 78.6917 60.2109 78.3878 60.74 77.7905C61.2689 77.1795 61.5279 76.4067 61.5169 75.4721C61.5059 74.5376 61.229 73.7779 60.686 73.1932C60.1429 72.5948 59.4247 72.3008 58.5314 72.3113C57.6655 72.3215 56.975 72.632 56.4598 73.2428C55.9445 73.8399 55.6923 74.6058 55.7033 75.5403C55.7142 76.4749 55.9844 77.2415 56.5138 77.8401C57.043 78.425 57.7405 78.7123 58.6063 78.7021ZM79.727 76.9492C79.4273 78.3548 78.7395 79.4831 77.6636 80.3342C76.5879 81.1991 75.2872 81.6405 73.7616 81.6584C72.5384 81.6727 71.4357 81.4107 70.4535 80.8724C69.4714 80.3479 68.6998 79.6078 68.1388 78.6522C67.5777 77.6966 67.2901 76.614 67.2759 75.4046C67.2617 74.1951 67.5239 73.1061 68.0623 72.1376C68.6008 71.1691 69.3548 70.4111 70.3243 69.8637C71.2937 69.3025 72.3899 69.0147 73.6131 69.0003C74.6439 68.9882 75.5878 69.1833 76.4447 69.5857C77.3015 69.9742 78.0089 70.5158 78.5669 71.2102C79.1249 71.9047 79.4776 72.6772 79.625 73.5277L75.9142 73.5713C75.758 73.147 75.4792 72.8135 75.0777 72.5708C74.6898 72.3142 74.2141 72.1891 73.6506 72.1958C72.7985 72.2058 72.1148 72.5093 71.5995 73.1064C71.0977 73.6896 70.8522 74.4416 70.863 75.3625C70.8738 76.2833 71.137 77.0362 71.6524 77.6213C72.1815 78.1924 72.872 78.4729 73.7242 78.4629C74.2876 78.4563 74.7671 78.3201 75.1627 78.0543C75.5719 77.7883 75.8564 77.4345 76.0162 76.9927L79.727 76.9492ZM86.8373 76.7833L85.3929 78.4497L85.4256 81.2328L81.756 81.2759L81.5528 63.9587L85.2224 63.9157L85.3417 74.0792L89.5513 69.102L93.6332 69.0541L89.0551 74.2624L94.0223 81.132L89.8373 81.1811L86.8373 76.7833ZM100.313 81.3468C99.104 81.361 98.0151 81.0989 97.0465 80.5604C96.0919 80.0355 95.341 79.2952 94.7937 78.3394C94.2464 77.3837 93.9656 76.301 93.9515 75.0916C93.9373 73.8821 94.1925 72.7932 94.7173 71.8249C95.242 70.8565 95.9753 70.0988 96.9174 69.5517C97.873 68.9906 98.9555 68.703 100.165 68.6888C101.374 68.6746 102.457 68.9368 103.411 69.4755C104.38 70.0002 105.137 70.7404 105.685 71.6962C106.232 72.652 106.513 73.7346 106.527 74.944C106.532 75.3426 106.509 75.7346 106.458 76.1201L97.6142 76.2239C97.7599 76.9232 98.0686 77.4625 98.5404 77.8419C99.0122 78.2212 99.5917 78.4069 100.279 78.3988C100.801 78.3927 101.261 78.3048 101.657 78.1352C102.067 77.9517 102.346 77.7147 102.494 77.4243L106.184 77.3811C105.987 78.1531 105.61 78.8311 105.054 79.4149C104.497 80.0125 103.808 80.4811 102.988 80.8206C102.167 81.1601 101.276 81.3355 100.313 81.3468ZM102.926 73.7904C102.766 73.0638 102.45 72.5177 101.979 72.1521C101.507 71.7727 100.914 71.5872 100.199 71.5956C99.4844 71.604 98.9026 71.8033 98.4535 72.1934C98.0043 72.5698 97.7084 73.1231 97.5658 73.8533L102.926 73.7904ZM108.612 68.8784L112.282 68.8353L112.296 70.0723C113.04 69.0463 114.161 68.5246 115.659 68.507C116.319 68.4993 116.849 68.5618 117.249 68.6946L117.331 72.1369C116.805 71.8681 116.178 71.738 115.45 71.7466C114.474 71.758 113.707 72.0282 113.15 72.5571C112.606 73.0858 112.34 73.8106 112.351 74.7314L112.423 80.9161L108.754 80.9591L108.612 68.8784Z"/>
</mask>
<path d="M38.5687 40.9769L41.5579 40.9418L47.4612 50.2746L53.1439 40.8059L56.1332 40.7708L56.3303 57.5726L52.5783 57.6166L52.4702 48.4014L48.6495 54.8998L46.3818 54.9264L42.4097 48.5194L42.5178 57.7346L38.7658 57.7786L38.5687 40.9769ZM64.8457 45.1015C66.0689 45.0872 67.1716 45.3492 68.1539 45.8875C69.136 46.412 69.9076 47.1521 70.4686 48.1077C71.0296 49.0633 71.3173 50.1459 71.3315 51.3553C71.3456 52.5648 71.0835 53.6538 70.545 54.6223C70.0066 55.5908 69.2526 56.3488 68.2831 56.8962C67.3137 57.4574 66.2174 57.7452 64.9942 57.7596C63.771 57.7739 62.6683 57.5119 61.6861 56.9736C60.704 56.4491 59.9324 55.709 59.3714 54.7534C58.8103 53.7978 58.5227 52.7152 58.5085 51.5058C58.4943 50.2963 58.7565 49.2073 59.2949 48.2388C59.8334 47.2703 60.5874 46.5123 61.5569 45.9649C62.5263 45.4037 63.6225 45.1159 64.8457 45.1015ZM64.8825 48.2351C64.0304 48.2451 63.3399 48.5556 62.811 49.1666C62.2956 49.7638 62.0434 50.5296 62.0544 51.4642C62.0654 52.3988 62.3355 53.1653 62.8649 53.7639C63.4078 54.3486 64.1054 54.636 64.9575 54.626C65.8096 54.616 66.4933 54.3124 67.0086 53.7153C67.5376 53.1043 67.7965 52.3315 67.7856 51.3969C67.7746 50.4624 67.4976 49.7027 66.9547 49.118C66.4253 48.5194 65.7346 48.2251 64.8825 48.2351ZM79.2002 44.9331C80.4234 44.9188 81.5261 45.1808 82.5084 45.7191C83.4905 46.2436 84.262 46.9837 84.8231 47.9393C85.3841 48.8949 85.6717 49.9775 85.6859 51.1869C85.7001 52.3964 85.438 53.4854 84.8995 54.4539C84.361 55.4224 83.607 56.1804 82.6375 56.7278C81.6682 57.289 80.5719 57.5768 79.3487 57.5911C78.1255 57.6055 77.0228 57.3435 76.0405 56.8052C75.0584 56.2807 74.2869 55.5406 73.7258 54.585C73.1648 53.6293 72.8772 52.5468 72.863 51.3374C72.8488 50.1279 73.1109 49.0389 73.6494 48.0704C74.1878 47.1019 74.9418 46.3439 75.9114 45.7965C76.8807 45.2353 77.977 44.9475 79.2002 44.9331ZM79.237 48.0667C78.3848 48.0767 77.6943 48.3872 77.1654 48.9982C76.6501 49.5953 76.3979 50.3612 76.4089 51.2958C76.4198 52.2303 76.69 52.9969 77.2194 53.5955C77.7623 54.1802 78.4598 54.4676 79.3119 54.4576C80.164 54.4476 80.8478 54.144 81.3631 53.5469C81.892 52.9359 82.151 52.1631 82.14 51.2285C82.1291 50.2939 81.8521 49.5343 81.3092 48.9496C80.7798 48.351 80.0891 48.0567 79.237 48.0667ZM93.1672 57.429C92.0264 57.4424 91.0062 57.1795 90.1064 56.6402C89.2067 56.1147 88.5039 55.3738 87.9978 54.4175C87.4918 53.4613 87.2316 52.3784 87.2174 51.1689C87.2032 49.9595 87.4379 48.8708 87.9214 47.903C88.4049 46.9351 89.0901 46.1779 89.9772 45.6314C90.8641 45.0712 91.8779 44.7844 93.0186 44.771C94.5717 44.7528 95.7321 45.2478 96.5 46.2559L96.424 39.7826L100.094 39.7396L100.297 57.0567L96.6272 57.0998L96.6127 55.8628C95.8687 56.8887 94.7202 57.4108 93.1672 57.429ZM93.7076 54.2887C94.601 54.2782 95.3122 53.9743 95.8413 53.377C96.3702 52.766 96.6291 51.9932 96.6182 51.0587C96.6072 50.1241 96.3303 49.3644 95.7873 48.7797C95.2442 48.1813 94.526 47.8873 93.6326 47.8978C92.7668 47.908 92.0763 48.2185 91.5611 48.8293C91.0458 49.4264 90.7936 50.1923 90.8046 51.1269C90.8155 52.0614 91.0857 52.828 91.615 53.4266C92.1442 54.0115 92.8418 54.2988 93.7076 54.2887ZM42.563 68.2512L37.0999 68.3153L37.2581 81.798L33.506 81.842L33.3478 68.3593L27.8847 68.4234L27.8457 65.1043L42.5241 64.9321L42.563 68.2512ZM42.678 69.6519L46.3476 69.6089L46.3621 70.8458C47.1061 69.8199 48.2271 69.2982 49.7252 69.2806C50.3849 69.2729 50.9149 69.3354 51.315 69.4681L51.3967 72.9105C50.8712 72.6417 50.2442 72.5116 49.5158 72.5202C48.54 72.5316 47.7734 72.8018 47.216 73.3306C46.6724 73.8594 46.406 74.5841 46.4168 75.505L46.4894 81.6897L42.8198 81.7327L42.678 69.6519ZM58.0659 81.8425C56.9251 81.8559 55.9049 81.5929 55.0051 81.0537C54.1054 80.5281 53.4026 79.7873 52.8965 78.831C52.3905 77.8747 52.1303 76.7919 52.1162 75.5824C52.102 74.373 52.3366 73.2843 52.8201 72.3164C53.3036 71.3486 53.9889 70.5914 54.8759 70.0449C55.7628 69.4847 56.7766 69.1979 57.9174 69.1845C59.4704 69.1663 60.6309 69.6612 61.3987 70.6694L61.3842 69.4325L65.0538 69.3894L65.1955 81.4702L61.5259 81.5132L61.5114 80.2763C60.7674 81.3022 59.6189 81.8243 58.0659 81.8425ZM58.6063 78.7021C59.4997 78.6917 60.2109 78.3878 60.74 77.7905C61.2689 77.1795 61.5279 76.4067 61.5169 75.4721C61.5059 74.5376 61.229 73.7779 60.686 73.1932C60.1429 72.5948 59.4247 72.3008 58.5314 72.3113C57.6655 72.3215 56.975 72.632 56.4598 73.2428C55.9445 73.8399 55.6923 74.6058 55.7033 75.5403C55.7142 76.4749 55.9844 77.2415 56.5138 77.8401C57.043 78.425 57.7405 78.7123 58.6063 78.7021ZM79.727 76.9492C79.4273 78.3548 78.7395 79.4831 77.6636 80.3342C76.5879 81.1991 75.2872 81.6405 73.7616 81.6584C72.5384 81.6727 71.4357 81.4107 70.4535 80.8724C69.4714 80.3479 68.6998 79.6078 68.1388 78.6522C67.5777 77.6966 67.2901 76.614 67.2759 75.4046C67.2617 74.1951 67.5239 73.1061 68.0623 72.1376C68.6008 71.1691 69.3548 70.4111 70.3243 69.8637C71.2937 69.3025 72.3899 69.0147 73.6131 69.0003C74.6439 68.9882 75.5878 69.1833 76.4447 69.5857C77.3015 69.9742 78.0089 70.5158 78.5669 71.2102C79.1249 71.9047 79.4776 72.6772 79.625 73.5277L75.9142 73.5713C75.758 73.147 75.4792 72.8135 75.0777 72.5708C74.6898 72.3142 74.2141 72.1891 73.6506 72.1958C72.7985 72.2058 72.1148 72.5093 71.5995 73.1064C71.0977 73.6896 70.8522 74.4416 70.863 75.3625C70.8738 76.2833 71.137 77.0362 71.6524 77.6213C72.1815 78.1924 72.872 78.4729 73.7242 78.4629C74.2876 78.4563 74.7671 78.3201 75.1627 78.0543C75.5719 77.7883 75.8564 77.4345 76.0162 76.9927L79.727 76.9492ZM86.8373 76.7833L85.3929 78.4497L85.4256 81.2328L81.756 81.2759L81.5528 63.9587L85.2224 63.9157L85.3417 74.0792L89.5513 69.102L93.6332 69.0541L89.0551 74.2624L94.0223 81.132L89.8373 81.1811L86.8373 76.7833ZM100.313 81.3468C99.104 81.361 98.0151 81.0989 97.0465 80.5604C96.0919 80.0355 95.341 79.2952 94.7937 78.3394C94.2464 77.3837 93.9656 76.301 93.9515 75.0916C93.9373 73.8821 94.1925 72.7932 94.7173 71.8249C95.242 70.8565 95.9753 70.0988 96.9174 69.5517C97.873 68.9906 98.9555 68.703 100.165 68.6888C101.374 68.6746 102.457 68.9368 103.411 69.4755C104.38 70.0002 105.137 70.7404 105.685 71.6962C106.232 72.652 106.513 73.7346 106.527 74.944C106.532 75.3426 106.509 75.7346 106.458 76.1201L97.6142 76.2239C97.7599 76.9232 98.0686 77.4625 98.5404 77.8419C99.0122 78.2212 99.5917 78.4069 100.279 78.3988C100.801 78.3927 101.261 78.3048 101.657 78.1352C102.067 77.9517 102.346 77.7147 102.494 77.4243L106.184 77.3811C105.987 78.1531 105.61 78.8311 105.054 79.4149C104.497 80.0125 103.808 80.4811 102.988 80.8206C102.167 81.1601 101.276 81.3355 100.313 81.3468ZM102.926 73.7904C102.766 73.0638 102.45 72.5177 101.979 72.1521C101.507 71.7727 100.914 71.5872 100.199 71.5956C99.4844 71.604 98.9026 71.8033 98.4535 72.1934C98.0043 72.5698 97.7084 73.1231 97.5658 73.8533L102.926 73.7904ZM108.612 68.8784L112.282 68.8353L112.296 70.0723C113.04 69.0463 114.161 68.5246 115.659 68.507C116.319 68.4993 116.849 68.5618 117.249 68.6946L117.331 72.1369C116.805 71.8681 116.178 71.738 115.45 71.7466C114.474 71.758 113.707 72.0282 113.15 72.5571C112.606 73.0858 112.34 73.8106 112.351 74.7314L112.423 80.9161L108.754 80.9591L108.612 68.8784Z" fill="white"/>
<path d="M38.5687 40.9769L38.5429 38.7815L36.3475 38.8072L36.3733 41.0026L38.5687 40.9769ZM41.5579 40.9418L43.4135 39.7681L42.7581 38.732L41.5322 38.7464L41.5579 40.9418ZM47.4612 50.2746L45.6057 51.4482L47.5103 54.4593L49.3438 51.4044L47.4612 50.2746ZM53.1439 40.8059L53.1182 38.6105L51.8923 38.6248L51.2614 39.676L53.1439 40.8059ZM56.1332 40.7708L58.3286 40.745L58.3029 38.5496L56.1075 38.5754L56.1332 40.7708ZM56.3303 57.5726L56.3561 59.768L58.5515 59.7422L58.5257 57.5468L56.3303 57.5726ZM52.5783 57.6166L50.3829 57.6423L50.4086 59.8377L52.604 59.812L52.5783 57.6166ZM52.4702 48.4014L54.6656 48.3756L54.5731 40.4927L50.5775 47.2886L52.4702 48.4014ZM48.6495 54.8998L48.6753 57.0952L49.9142 57.0807L50.5422 56.0126L48.6495 54.8998ZM46.3818 54.9264L44.5158 56.0833L45.1686 57.1363L46.4076 57.1218L46.3818 54.9264ZM42.4097 48.5194L44.2758 47.3625L40.1218 40.6622L40.2143 48.5452L42.4097 48.5194ZM42.5178 57.7346L42.5436 59.93L44.739 59.9043L44.7132 57.7089L42.5178 57.7346ZM38.7658 57.7786L36.5704 57.8044L36.5961 59.9998L38.7916 59.974L38.7658 57.7786ZM38.5944 43.1723L41.5837 43.1372L41.5322 38.7464L38.5429 38.7815L38.5944 43.1723ZM39.7024 42.1155L45.6057 51.4482L49.3167 49.1009L43.4135 39.7681L39.7024 42.1155ZM49.3438 51.4044L55.0265 41.9357L51.2614 39.676L45.5787 49.1447L49.3438 51.4044ZM53.1697 43.0013L56.159 42.9662L56.1075 38.5754L53.1182 38.6105L53.1697 43.0013ZM53.9378 40.7965L54.1349 57.5983L58.5257 57.5468L58.3286 40.745L53.9378 40.7965ZM56.3046 55.3772L52.5525 55.4212L52.604 59.812L56.3561 59.768L56.3046 55.3772ZM54.7737 57.5908L54.6656 48.3756L50.2748 48.4271L50.3829 57.6423L54.7737 57.5908ZM50.5775 47.2886L46.7568 53.787L50.5422 56.0126L54.3628 49.5141L50.5775 47.2886ZM48.6238 52.7044L46.356 52.731L46.4076 57.1218L48.6753 57.0952L48.6238 52.7044ZM48.2478 53.7695L44.2758 47.3625L40.5437 49.6763L44.5158 56.0833L48.2478 53.7695ZM40.2143 48.5452L40.3224 57.7604L44.7132 57.7089L44.6051 48.4936L40.2143 48.5452ZM42.4921 55.5392L38.74 55.5832L38.7916 59.974L42.5436 59.93L42.4921 55.5392ZM40.9612 57.7529L40.7641 40.9511L36.3733 41.0026L36.5704 57.8044L40.9612 57.7529ZM68.1539 45.8875L67.0987 47.8129L67.1091 47.8185L67.1195 47.8241L68.1539 45.8875ZM70.4686 48.1077L68.5752 49.2193L68.5752 49.2193L70.4686 48.1077ZM70.545 54.6223L68.6261 53.5554L68.6261 53.5554L70.545 54.6223ZM68.2831 56.8962L67.2035 54.9844L67.1932 54.9902L67.183 54.9961L68.2831 56.8962ZM61.6861 56.9736L62.7412 55.0483L62.7309 55.0426L62.7204 55.037L61.6861 56.9736ZM59.3714 54.7534L61.2647 53.6418L59.3714 54.7534ZM59.2949 48.2388L57.376 47.172L57.376 47.172L59.2949 48.2388ZM61.5569 45.9649L62.6364 47.8767L62.6467 47.8709L62.6569 47.865L61.5569 45.9649ZM62.8109 49.1666L61.1509 47.7297L61.1488 47.7322L62.8109 49.1666ZM62.8649 53.7639L61.2202 55.2184L61.2379 55.2384L61.256 55.2579L62.8649 53.7639ZM67.0086 53.7153L65.3486 52.2784L65.3465 52.2808L67.0086 53.7153ZM66.9547 49.118L65.31 50.5725L65.3277 50.5925L65.3458 50.612L66.9547 49.118ZM64.8715 47.2969C65.7529 47.2866 66.4776 47.4724 67.0987 47.8129L69.2091 43.9621C67.8657 43.2259 66.385 42.8878 64.82 42.9061L64.8715 47.2969ZM67.1195 47.8241C67.7465 48.159 68.2201 48.6144 68.5752 49.2193L72.362 46.9961C71.5951 45.6899 70.5255 44.6651 69.1883 43.9509L67.1195 47.8241ZM68.5752 49.2193C68.9254 49.8158 69.1259 50.5177 69.1361 51.3811L73.5269 51.3296C73.5086 49.774 73.1339 48.3109 72.362 46.9961L68.5752 49.2193ZM69.1361 51.3811C69.1462 52.2444 68.9622 52.9509 68.6261 53.5554L72.464 55.6891C73.2048 54.3566 73.5451 52.8851 73.5269 51.3296L69.1361 51.3811ZM68.6261 53.5554C68.2852 54.1685 67.8225 54.6349 67.2035 54.9844L69.3626 58.8081C70.6827 58.0627 71.7279 57.013 72.464 55.6891L68.6261 53.5554ZM67.183 54.9961C66.57 55.351 65.8499 55.5538 64.9685 55.5642L65.02 59.955C66.585 59.9366 68.0574 59.5638 69.3831 58.7963L67.183 54.9961ZM64.9685 55.5642C64.0871 55.5745 63.3624 55.3887 62.7412 55.0483L60.6309 58.899C61.9742 59.6352 63.455 59.9733 65.02 59.955L64.9685 55.5642ZM62.7204 55.037C62.0934 54.7021 61.6199 54.2468 61.2647 53.6418L57.478 55.865C58.2449 57.1712 59.3145 58.196 60.6517 58.9103L62.7204 55.037ZM61.2647 53.6418C60.9146 53.0454 60.714 52.3434 60.7039 51.48L56.3131 51.5315C56.3314 53.0871 56.7061 54.5502 57.478 55.865L61.2647 53.6418ZM60.7039 51.48C60.6938 50.6167 60.8778 49.9102 61.2138 49.3057L57.376 47.172C56.6351 48.5045 56.2949 49.976 56.3131 51.5315L60.7039 51.48ZM61.2138 49.3057C61.5547 48.6926 62.0174 48.2262 62.6364 47.8767L60.4774 44.0531C59.1573 44.7984 58.112 45.8481 57.376 47.172L61.2138 49.3057ZM62.6569 47.865C63.27 47.5101 63.9901 47.3073 64.8715 47.2969L64.82 42.9061C63.255 42.9245 61.7825 43.2973 60.4569 44.0648L62.6569 47.865ZM64.8567 46.0397C63.4153 46.0566 62.1157 46.6151 61.1509 47.7297L64.471 50.6036C64.564 50.4961 64.6455 50.4336 64.9083 50.4305L64.8567 46.0397ZM61.1488 47.7322C60.2209 48.8074 59.843 50.1244 59.859 51.4899L64.2498 51.4384C64.2439 50.9348 64.3704 50.7201 64.4731 50.6011L61.1488 47.7322ZM59.859 51.4899C59.875 52.857 60.284 54.1597 61.2202 55.2184L64.5096 52.3095C64.3871 52.171 64.2557 51.9405 64.2498 51.4384L59.859 51.4899ZM61.256 55.2579C62.2517 56.3302 63.5591 56.8381 64.9832 56.8214L64.9317 52.4306C64.6516 52.4339 64.564 52.3671 64.4738 52.27L61.256 55.2579ZM64.9832 56.8214C66.4076 56.8047 67.7084 56.2649 68.6708 55.1498L65.3465 52.2808C65.2782 52.36 65.2116 52.4273 64.9317 52.4306L64.9832 56.8214ZM68.6686 55.1523C69.6032 54.0727 69.9972 52.7531 69.981 51.3712L65.5902 51.4227C65.5959 51.91 65.4719 52.1359 65.3486 52.2784L68.6686 55.1523ZM69.981 51.3712C69.9648 49.9906 69.54 48.6756 68.5636 47.624L65.3458 50.612C65.4553 50.7299 65.5844 50.9341 65.5902 51.4227L69.981 51.3712ZM68.5994 47.6636C67.6165 46.5521 66.2988 46.0228 64.8567 46.0397L64.9083 50.4305C65.1705 50.4275 65.2342 50.4868 65.31 50.5725L68.5994 47.6636ZM82.5084 45.7191L81.4532 47.6444L81.4636 47.6501L81.474 47.6557L82.5084 45.7191ZM84.8231 47.9393L82.9297 49.0509L82.9297 49.0509L84.8231 47.9393ZM84.8995 54.4539L82.9806 53.387L82.9806 53.387L84.8995 54.4539ZM82.6375 56.7278L81.558 54.816L81.5477 54.8218L81.5375 54.8277L82.6375 56.7278ZM76.0405 56.8052L77.0957 54.8798L77.0853 54.8742L77.0749 54.8686L76.0405 56.8052ZM73.7258 54.585L75.6192 53.4734L73.7258 54.585ZM73.6494 48.0704L71.7305 47.0036L71.7305 47.0036L73.6494 48.0704ZM75.9114 45.7965L76.9909 47.7083L77.0012 47.7025L77.0114 47.6966L75.9114 45.7965ZM77.1654 48.9982L75.5054 47.5613L75.5033 47.5637L77.1654 48.9982ZM77.2193 53.5955L75.5747 55.05L75.5923 55.07L75.6105 55.0895L77.2193 53.5955ZM81.3631 53.5469L79.7031 52.11L79.701 52.1124L81.3631 53.5469ZM81.3092 48.9496L79.6645 50.4041L79.6821 50.424L79.7003 50.4436L81.3092 48.9496ZM79.2259 47.1285C80.1073 47.1182 80.832 47.304 81.4532 47.6444L83.5635 43.7937C82.2202 43.0575 80.7394 42.7194 79.1744 42.7377L79.2259 47.1285ZM81.474 47.6557C82.101 47.9906 82.5745 48.4459 82.9297 49.0509L86.7164 46.8277C85.9495 45.5215 84.8799 44.4966 83.5428 43.7824L81.474 47.6557ZM82.9297 49.0509C83.2799 49.6473 83.4804 50.3493 83.4905 51.2127L87.8813 51.1612C87.8631 49.6056 87.4883 48.1425 86.7164 46.8277L82.9297 49.0509ZM83.4905 51.2127C83.5006 52.076 83.3167 52.7825 82.9806 53.387L86.8184 55.5207C87.5593 54.1882 87.8996 52.7167 87.8813 51.1612L83.4905 51.2127ZM82.9806 53.387C82.6397 54.0001 82.177 54.4665 81.558 54.816L83.7171 58.6396C85.0371 57.8943 86.0824 56.8446 86.8184 55.5207L82.9806 53.387ZM81.5375 54.8277C80.9245 55.1826 80.2043 55.3854 79.3229 55.3957L79.3745 59.7866C80.9395 59.7682 82.4119 59.3954 83.7376 58.6279L81.5375 54.8277ZM79.3229 55.3957C78.4415 55.4061 77.7169 55.2203 77.0957 54.8798L74.9854 58.7306C76.3287 59.4668 77.8095 59.8049 79.3745 59.7866L79.3229 55.3957ZM77.0749 54.8686C76.4479 54.5337 75.9743 54.0783 75.6192 53.4734L71.8324 55.6966C72.5994 57.0028 73.669 58.0276 75.0061 58.7418L77.0749 54.8686ZM75.6192 53.4734C75.269 52.8769 75.0685 52.175 75.0584 51.3116L70.6676 51.3631C70.6858 52.9187 71.0605 54.3818 71.8324 55.6966L75.6192 53.4734ZM75.0584 51.3116C75.0482 50.4483 75.2322 49.7418 75.5683 49.1373L71.7305 47.0036C70.9896 48.3361 70.6493 49.8076 70.6676 51.3631L75.0584 51.3116ZM75.5683 49.1373C75.9092 48.5241 76.3719 48.0578 76.9909 47.7083L74.8318 43.8846C73.5118 44.63 72.4665 45.6796 71.7305 47.0036L75.5683 49.1373ZM77.0114 47.6966C77.6244 47.3416 78.3446 47.1389 79.2259 47.1285L79.1744 42.7377C77.6094 42.7561 76.137 43.1289 74.8113 43.8964L77.0114 47.6966ZM79.2112 45.8713C77.7697 45.8882 76.4702 46.4467 75.5054 47.5613L78.8254 50.4352C78.9184 50.3277 79 50.2652 79.2627 50.2621L79.2112 45.8713ZM75.5033 47.5637C74.5753 48.639 74.1974 49.9559 74.2135 51.3215L78.6043 51.27C78.5984 50.7664 78.7249 50.5517 78.8275 50.4327L75.5033 47.5637ZM74.2135 51.3215C74.2295 52.6886 74.6384 53.9913 75.5747 55.05L78.864 52.1411C78.7416 52.0026 78.6102 51.7721 78.6043 51.27L74.2135 51.3215ZM75.6105 55.0895C76.6062 56.1618 77.9136 56.6697 79.3377 56.653L79.2862 52.2622C79.0061 52.2655 78.9184 52.1987 78.8282 52.1015L75.6105 55.0895ZM79.3377 56.653C80.7621 56.6363 82.0629 56.0965 83.0252 54.9814L79.701 52.1124C79.6327 52.1915 79.566 52.2589 79.2862 52.2622L79.3377 56.653ZM83.0231 54.9839C83.9576 53.9043 84.3516 52.5846 84.3354 51.2028L79.9446 51.2543C79.9503 51.7415 79.8264 51.9675 79.7031 52.11L83.0231 54.9839ZM84.3354 51.2028C84.3192 49.8222 83.8945 48.5072 82.918 47.4556L79.7003 50.4436C79.8097 50.5615 79.9389 50.7657 79.9446 51.2543L84.3354 51.2028ZM82.9539 47.4952C81.9709 46.3837 80.6532 45.8544 79.2112 45.8713L79.2627 50.2621C79.5249 50.259 79.5887 50.3184 79.6645 50.4041L82.9539 47.4952ZM90.1064 56.6402L91.235 54.757L91.2245 54.7506L91.2138 54.7444L90.1064 56.6402ZM87.9978 54.4175L89.9384 53.3905L89.9384 53.3905L87.9978 54.4175ZM87.9214 47.903L85.9573 46.9218L87.9214 47.903ZM89.9772 45.6314L91.1288 47.5007L91.1393 47.4942L91.1497 47.4877L89.9772 45.6314ZM96.5 46.2559L94.7533 47.5862L98.7732 52.8643L98.6954 46.2302L96.5 46.2559ZM96.424 39.7826L96.3983 37.5872L94.2029 37.613L94.2286 39.8084L96.424 39.7826ZM100.094 39.7396L102.289 39.7138L102.263 37.5184L100.068 37.5442L100.094 39.7396ZM100.297 57.0567L100.323 59.2521L102.518 59.2264L102.492 57.031L100.297 57.0567ZM96.6272 57.0998L94.4318 57.1255L94.4576 59.3209L96.653 59.2952L96.6272 57.0998ZM96.6127 55.8628L98.8081 55.8371L98.7303 49.2029L94.8353 54.5739L96.6127 55.8628ZM95.8413 53.377L97.4847 54.8329L97.4931 54.8235L97.5013 54.814L95.8413 53.377ZM95.7873 48.7797L94.1615 50.2552L94.1699 50.2645L94.1785 50.2737L95.7873 48.7797ZM91.5611 48.8293L93.2232 50.2638L93.2314 50.2544L93.2395 50.2448L91.5611 48.8293ZM91.615 53.4266L89.9704 54.8811L89.9786 54.8904L89.987 54.8997L91.615 53.4266ZM93.1414 55.2336C92.3701 55.2427 91.756 55.0692 91.235 54.757L88.9777 58.5234C90.2563 59.2897 91.6827 59.6421 93.1929 59.6244L93.1414 55.2336ZM91.2138 54.7444C90.6814 54.4334 90.2608 53.9998 89.9384 53.3905L86.0573 55.4445C86.7469 56.7477 87.7321 57.796 88.9989 58.536L91.2138 54.7444ZM89.9384 53.3905C89.6142 52.7779 89.4234 52.0451 89.4128 51.1432L85.022 51.1947C85.0398 52.7117 85.3693 54.1446 86.0573 55.4445L89.9384 53.3905ZM89.4128 51.1432C89.4023 50.2413 89.5758 49.5042 89.8855 48.8841L85.9573 46.9218C85.3 48.2375 85.0042 49.6777 85.022 51.1947L89.4128 51.1432ZM89.8855 48.8841C90.1936 48.2674 90.6038 47.8241 91.1288 47.5007L88.8256 43.7621C87.5765 44.5317 86.6162 45.6027 85.9573 46.9218L89.8855 48.8841ZM91.1497 47.4877C91.6632 47.1633 92.2731 46.9755 93.0444 46.9664L92.9929 42.5756C91.4827 42.5933 90.0649 42.9791 88.8047 43.7752L91.1497 47.4877ZM93.0444 46.9664C94.0782 46.9543 94.5021 47.2564 94.7533 47.5862L98.2466 44.9256C96.9621 43.2391 95.0651 42.5513 92.9929 42.5756L93.0444 46.9664ZM98.6954 46.2302L98.6194 39.7569L94.2286 39.8084L94.3046 46.2817L98.6954 46.2302ZM96.4498 41.978L100.119 41.935L100.068 37.5442L96.3983 37.5872L96.4498 41.978ZM97.8982 39.7653L98.1014 57.0825L102.492 57.031L102.289 39.7138L97.8982 39.7653ZM100.271 54.8613L96.6014 54.9044L96.653 59.2952L100.323 59.2521L100.271 54.8613ZM98.8226 57.074L98.8081 55.8371L94.4173 55.8886L94.4318 57.1255L98.8226 57.074ZM94.8353 54.5739C94.5919 54.9095 94.1752 55.2215 93.1414 55.2336L93.1929 59.6244C95.2652 59.6001 97.1455 58.868 98.3901 57.1518L94.8353 54.5739ZM93.7334 56.4841C95.1638 56.4673 96.4933 55.9521 97.4847 54.8329L94.1978 51.9212C94.1311 51.9965 94.0381 52.0891 93.6819 52.0933L93.7334 56.4841ZM97.5013 54.814C98.4358 53.7344 98.8298 52.4148 98.8136 51.0329L94.4228 51.0844C94.4285 51.5717 94.3046 51.7976 94.1813 51.9401L97.5013 54.814ZM98.8136 51.0329C98.7974 49.6523 98.3726 48.3373 97.3962 47.2858L94.1785 50.2737C94.2879 50.3916 94.417 50.5958 94.4228 51.0844L98.8136 51.0329ZM97.4132 47.3042C96.4005 46.1884 95.0542 45.6854 93.6069 45.7024L93.6584 50.0932C93.9977 50.0892 94.088 50.1743 94.1615 50.2552L97.4132 47.3042ZM93.6069 45.7024C92.1633 45.7193 90.8466 46.2709 89.8827 47.4139L93.2395 50.2448C93.3059 50.166 93.3703 50.0966 93.6584 50.0932L93.6069 45.7024ZM89.899 47.3948C88.971 48.4701 88.5931 49.787 88.6092 51.1526L93 51.1011C92.9941 50.5975 93.1205 50.3828 93.2232 50.2638L89.899 47.3948ZM88.6092 51.1526C88.6252 52.5197 89.0341 53.8224 89.9704 54.8811L93.2597 51.9722C93.1373 51.8337 93.0059 51.6032 93 51.1011L88.6092 51.1526ZM89.987 54.8997C90.9827 56.0001 92.3073 56.5008 93.7334 56.4841L93.6819 52.0933C93.3762 52.0969 93.3058 52.0228 93.2431 51.9535L89.987 54.8997ZM42.563 68.2512L42.5888 70.4466L44.7842 70.4209L44.7584 68.2255L42.563 68.2512ZM37.0999 68.3153L37.0741 66.1199L34.8787 66.1457L34.9045 68.3411L37.0999 68.3153ZM37.2581 81.798L37.2838 83.9934L39.4792 83.9676L39.4535 81.7722L37.2581 81.798ZM33.506 81.842L31.3106 81.8678L31.3364 84.0632L33.5318 84.0374L33.506 81.842ZM33.3478 68.3593L35.5432 68.3336L35.5175 66.1382L33.3221 66.1639L33.3478 68.3593ZM27.8847 68.4234L25.6893 68.4492L25.715 70.6446L27.9104 70.6188L27.8847 68.4234ZM27.8457 65.1043L27.82 62.9089L25.6246 62.9347L25.6503 65.1301L27.8457 65.1043ZM42.5241 64.9321L44.7195 64.9063L44.6937 62.7109L42.4983 62.7367L42.5241 64.9321ZM42.5373 66.0558L37.0741 66.1199L37.1256 70.5107L42.5888 70.4466L42.5373 66.0558ZM34.9045 68.3411L35.0627 81.8237L39.4535 81.7722L39.2953 68.2896L34.9045 68.3411ZM37.2323 79.6026L33.4803 79.6466L33.5318 84.0374L37.2838 83.9934L37.2323 79.6026ZM35.7014 81.8162L35.5432 68.3336L31.1524 68.3851L31.3106 81.8678L35.7014 81.8162ZM33.3221 66.1639L27.8589 66.228L27.9104 70.6188L33.3736 70.5547L33.3221 66.1639ZM30.0801 68.3977L30.0411 65.0786L25.6503 65.1301L25.6893 68.4492L30.0801 68.3977ZM27.8715 67.2997L42.5498 67.1275L42.4983 62.7367L27.82 62.9089L27.8715 67.2997ZM40.3287 64.9579L40.3676 68.277L44.7584 68.2255L44.7195 64.9063L40.3287 64.9579ZM42.678 69.6519L42.6523 67.4565L40.4569 67.4823L40.4826 69.6777L42.678 69.6519ZM46.3476 69.6089L48.543 69.5831L48.5173 67.3877L46.3219 67.4135L46.3476 69.6089ZM46.3621 70.8458L44.1667 70.8716L44.2446 77.5057L48.1395 72.1348L46.3621 70.8458ZM51.315 69.4681L53.51 69.4161L53.4733 67.8709L52.0064 67.3843L51.315 69.4681ZM51.3967 72.9105L50.397 74.8652L53.679 76.5437L53.5916 72.8584L51.3967 72.9105ZM47.216 73.3306L45.7048 71.738L45.695 71.7473L45.6853 71.7567L47.216 73.3306ZM46.4894 81.6897L46.5151 83.8851L48.7105 83.8593L48.6848 81.6639L46.4894 81.6897ZM42.8198 81.7327L40.6244 81.7585L40.6501 83.9539L42.8455 83.9281L42.8198 81.7327ZM42.7038 71.8473L46.3734 71.8043L46.3219 67.4135L42.6523 67.4565L42.7038 71.8473ZM44.1522 69.6346L44.1667 70.8716L48.5575 70.8201L48.543 69.5831L44.1522 69.6346ZM48.1395 72.1348C48.3985 71.7776 48.8041 71.4871 49.751 71.476L49.6995 67.0852C47.6501 67.1092 45.8137 67.8622 44.5848 69.5569L48.1395 72.1348ZM49.751 71.476C50.2886 71.4697 50.5472 71.5266 50.6237 71.552L52.0064 67.3843C51.2826 67.1441 50.4812 67.076 49.6995 67.0852L49.751 71.476ZM49.1201 69.5202L49.2017 72.9625L53.5916 72.8584L53.51 69.4161L49.1201 69.5202ZM52.3964 70.9557C51.4878 70.491 50.4926 70.313 49.49 70.3248L49.5416 74.7156C49.9959 74.7102 50.2546 74.7924 50.397 74.8652L52.3964 70.9557ZM49.49 70.3248C48.116 70.3409 46.7636 70.7333 45.7048 71.738L48.7273 74.9233C48.7832 74.8703 48.9639 74.7223 49.5416 74.7156L49.49 70.3248ZM45.6853 71.7567C44.62 72.7928 44.2052 74.1468 44.2214 75.5307L48.6122 75.4792C48.6068 75.0215 48.7248 74.9259 48.7468 74.9046L45.6853 71.7567ZM44.2214 75.5307L44.294 81.7154L48.6848 81.6639L48.6122 75.4792L44.2214 75.5307ZM46.4636 79.4943L42.794 79.5373L42.8455 83.9281L46.5151 83.8851L46.4636 79.4943ZM45.0152 81.707L44.8734 69.6262L40.4826 69.6777L40.6244 81.7585L45.0152 81.707ZM55.0051 81.0537L56.1337 79.1704L56.1232 79.1641L56.1125 79.1579L55.0051 81.0537ZM52.8965 78.831L54.8371 77.804L52.8965 78.831ZM52.8201 72.3164L50.856 71.3353L52.8201 72.3164ZM54.8759 70.0449L56.0275 71.9142L56.038 71.9077L56.0485 71.9011L54.8759 70.0449ZM61.3987 70.6694L59.652 71.9997L63.6719 77.2778L63.5941 70.6437L61.3987 70.6694ZM61.3842 69.4325L61.3584 67.2371L59.163 67.2628L59.1888 69.4582L61.3842 69.4325ZM65.0538 69.3894L67.2492 69.3637L67.2234 67.1683L65.028 67.194L65.0538 69.3894ZM65.1955 81.4702L65.2213 83.6656L67.4167 83.6398L67.3909 81.4444L65.1955 81.4702ZM61.5259 81.5132L59.3305 81.539L59.3563 83.7344L61.5517 83.7086L61.5259 81.5132ZM61.5114 80.2763L63.7068 80.2505L63.629 73.6164L59.734 78.9874L61.5114 80.2763ZM60.74 77.7905L62.3835 79.2463L62.3918 79.237L62.4 79.2275L60.74 77.7905ZM60.686 73.1932L59.0602 74.6687L59.0686 74.678L59.0772 74.6872L60.686 73.1932ZM56.4598 73.2428L58.122 74.6773L58.1301 74.6678L58.1382 74.6583L56.4598 73.2428ZM56.5138 77.8401L54.8691 79.2946L54.8774 79.3039L54.8857 79.3132L56.5138 77.8401ZM58.0401 79.6471C57.2688 79.6561 56.6547 79.4827 56.1337 79.1704L53.8764 82.9369C55.155 83.7032 56.5815 84.0556 58.0916 84.0379L58.0401 79.6471ZM56.1125 79.1579C55.5801 78.8469 55.1595 78.4133 54.8371 77.804L50.956 79.858C51.6457 81.1612 52.6308 82.2094 53.8976 82.9495L56.1125 79.1579ZM54.8371 77.804C54.5129 77.1914 54.3221 76.4586 54.3116 75.5567L49.9208 75.6082C49.9385 77.1252 50.2681 78.5581 50.956 79.858L54.8371 77.804ZM54.3116 75.5567C54.301 74.6547 54.4745 73.9177 54.7842 73.2976L50.856 71.3353C50.1988 72.6509 49.903 74.0912 49.9208 75.6082L54.3116 75.5567ZM54.7842 73.2976C55.0923 72.6809 55.5026 72.2376 56.0275 71.9142L53.7243 68.1756C52.4752 68.9452 51.5149 70.0162 50.856 71.3353L54.7842 73.2976ZM56.0485 71.9011C56.562 71.5768 57.1718 71.3889 57.9431 71.3799L57.8916 66.9891C56.3814 67.0068 54.9637 67.3926 53.7034 68.1887L56.0485 71.9011ZM57.9431 71.3799C58.977 71.3678 59.4009 71.6699 59.652 71.9997L63.1453 69.3391C61.8609 67.6526 59.9639 66.9648 57.8916 66.9891L57.9431 71.3799ZM63.5941 70.6437L63.5796 69.4067L59.1888 69.4582L59.2033 70.6952L63.5941 70.6437ZM61.4099 71.6279L65.0795 71.5848L65.028 67.194L61.3584 67.2371L61.4099 71.6279ZM62.8584 69.4152L63.0001 81.496L67.3909 81.4444L67.2492 69.3637L62.8584 69.4152ZM65.1698 79.2748L61.5002 79.3178L61.5517 83.7086L65.2213 83.6656L65.1698 79.2748ZM63.7213 81.4875L63.7068 80.2505L59.316 80.3021L59.3305 81.539L63.7213 81.4875ZM59.734 78.9874C59.4906 79.323 59.074 79.635 58.0401 79.6471L58.0916 84.0379C60.1639 84.0136 62.0442 83.2815 63.2888 81.5652L59.734 78.9874ZM58.6321 80.8976C60.0625 80.8808 61.392 80.3656 62.3835 79.2463L59.0965 76.3347C59.0298 76.41 58.9368 76.5026 58.5806 76.5067L58.6321 80.8976ZM62.4 79.2275C63.3345 78.1479 63.7285 76.8283 63.7123 75.4464L59.3215 75.4979C59.3272 75.9852 59.2033 76.2111 59.08 76.3536L62.4 79.2275ZM63.7123 75.4464C63.6961 74.0658 63.2714 72.7508 62.2949 71.6992L59.0772 74.6872C59.1866 74.8051 59.3158 75.0093 59.3215 75.4979L63.7123 75.4464ZM62.3119 71.7177C61.2992 70.6018 59.953 70.0989 58.5056 70.1159L58.5571 74.5067C58.8965 74.5027 58.9867 74.5877 59.0602 74.6687L62.3119 71.7177ZM58.5056 70.1159C57.062 70.1328 55.7454 70.6844 54.7815 71.8273L58.1382 74.6583C58.2046 74.5795 58.269 74.5101 58.5571 74.5067L58.5056 70.1159ZM54.7977 71.8083C53.8697 72.8835 53.4919 74.2005 53.5079 75.5661L57.8987 75.5146C57.8928 75.011 58.0193 74.7963 58.122 74.6773L54.7977 71.8083ZM53.5079 75.5661C53.5239 76.9332 53.9328 78.2359 54.8691 79.2946L58.1585 76.3857C58.036 76.2471 57.9046 76.0166 57.8987 75.5146L53.5079 75.5661ZM54.8857 79.3132C55.8814 80.4136 57.206 80.9143 58.6321 80.8976L58.5806 76.5067C58.275 76.5103 58.2045 76.4363 58.1418 76.367L54.8857 79.3132ZM79.727 76.9492L81.8743 77.407L82.4468 74.7216L79.7012 74.7538L79.727 76.9492ZM77.6636 80.3342L76.3015 78.6123L76.2947 78.6177L76.288 78.6231L77.6636 80.3342ZM70.4535 80.8724L71.5086 78.947L71.4983 78.9414L71.4878 78.9358L70.4535 80.8724ZM68.1388 78.6522L70.0321 77.5406L68.1388 78.6522ZM68.0623 72.1376L66.1434 71.0708L68.0623 72.1376ZM70.3243 69.8637L71.4038 71.7755L71.4141 71.7697L71.4243 71.7638L70.3243 69.8637ZM76.4447 69.5857L75.5117 71.5731L75.5248 71.5792L75.5379 71.5852L76.4447 69.5857ZM78.5669 71.2102L76.8553 72.5854L76.8553 72.5854L78.5669 71.2102ZM79.625 73.5277L79.6508 75.7231L82.2286 75.6929L81.7883 73.1527L79.625 73.5277ZM75.9142 73.5713L73.8538 74.3297L74.3894 75.7849L75.9399 75.7667L75.9142 73.5713ZM75.0777 72.5708L73.8663 74.4019L73.9036 74.4265L73.9418 74.4497L75.0777 72.5708ZM71.5995 73.1064L69.9373 71.6719L69.9351 71.6745L71.5995 73.1064ZM71.6524 77.6213L70.0051 79.0727L70.0232 79.0932L70.0417 79.1133L71.6524 77.6213ZM75.1627 78.0543L73.9662 76.2134L73.952 76.2226L73.938 76.232L75.1627 78.0543ZM76.0162 76.9927L75.9904 74.7973L74.469 74.8152L73.9515 76.246L76.0162 76.9927ZM77.5797 76.4914C77.3811 77.4228 76.9563 78.0943 76.3015 78.6123L79.0258 82.0562C80.5228 80.8719 81.4735 79.2867 81.8743 77.407L77.5797 76.4914ZM76.288 78.6231C75.636 79.1473 74.8248 79.4502 73.7359 79.4629L73.7874 83.8538C75.7496 83.8307 77.5398 83.2509 79.0393 82.0454L76.288 78.6231ZM73.7359 79.4629C72.8545 79.4733 72.1298 79.2875 71.5086 78.947L69.3983 82.7978C70.7416 83.534 72.2224 83.8721 73.7874 83.8538L73.7359 79.4629ZM71.4878 78.9358C70.8608 78.6009 70.3873 78.1455 70.0321 77.5406L66.2454 79.7638C67.0123 81.07 68.0819 82.0948 69.4191 82.809L71.4878 78.9358ZM70.0321 77.5406C69.682 76.9441 69.4814 76.2422 69.4713 75.3788L65.0805 75.4303C65.0988 76.9859 65.4735 78.449 66.2454 79.7638L70.0321 77.5406ZM69.4713 75.3788C69.4612 74.5155 69.6452 73.809 69.9812 73.2045L66.1434 71.0708C65.4026 72.4033 65.0623 73.8748 65.0805 75.4303L69.4713 75.3788ZM69.9812 73.2045C70.3221 72.5913 70.7849 72.125 71.4038 71.7755L69.2448 67.9518C67.9247 68.6972 66.8795 69.7469 66.1434 71.0708L69.9812 73.2045ZM71.4243 71.7638C72.0374 71.4089 72.7575 71.2061 73.6389 71.1957L73.5874 66.8049C72.0224 66.8233 70.5499 67.1961 69.2243 67.9636L71.4243 71.7638ZM73.6389 71.1957C74.3684 71.1872 74.9805 71.3237 75.5117 71.5731L77.3778 67.5982C76.195 67.043 74.9194 66.7893 73.5874 66.8049L73.6389 71.1957ZM75.5379 71.5852C76.0993 71.8398 76.525 72.1743 76.8553 72.5854L80.2784 69.8351C79.4928 68.8573 78.5038 68.1087 77.3516 67.5861L75.5379 71.5852ZM76.8553 72.5854C77.1883 72.9998 77.3798 73.4305 77.4617 73.9027L81.7883 73.1527C81.5753 71.9239 81.0615 70.8097 80.2784 69.8351L76.8553 72.5854ZM79.5992 71.3323L75.8884 71.3759L75.9399 75.7667L79.6508 75.7231L79.5992 71.3323ZM77.9746 72.8128C77.6394 71.9023 77.0241 71.1819 76.2136 70.6919L73.9418 74.4497C73.9514 74.4555 73.9316 74.4447 73.9035 74.4112C73.8748 74.3768 73.8593 74.3446 73.8538 74.3297L77.9746 72.8128ZM76.2891 70.7397C75.4631 70.1932 74.5336 69.9897 73.6249 70.0004L73.6764 74.3912C73.7892 74.3898 73.85 74.4022 73.872 74.408C73.891 74.413 73.884 74.4136 73.8663 74.4019L76.2891 70.7397ZM73.6249 70.0004C72.2005 70.0171 70.8997 70.5568 69.9373 71.6719L73.2616 74.5409C73.3299 74.4618 73.3965 74.3944 73.6764 74.3912L73.6249 70.0004ZM69.9351 71.6745C69.0189 72.7395 68.6519 74.0437 68.6676 75.3882L73.0584 75.3367C73.0526 74.8396 73.1765 74.6398 73.2638 74.5383L69.9351 71.6745ZM68.6676 75.3882C68.6834 76.7345 69.0813 78.0242 70.0051 79.0727L73.2998 76.1698C73.1927 76.0482 73.0643 75.8322 73.0584 75.3367L68.6676 75.3882ZM70.0417 79.1133C71.035 80.1856 72.3431 80.6748 73.7499 80.6583L73.6984 76.2675C73.401 76.271 73.3279 76.1992 73.2631 76.1292L70.0417 79.1133ZM73.7499 80.6583C74.6614 80.6476 75.5764 80.4216 76.3873 79.8765L73.938 76.232C73.9378 76.2322 73.9375 76.2323 73.9371 76.2326C73.9366 76.2329 73.9355 76.2334 73.9337 76.2343C73.9302 76.2359 73.9217 76.2395 73.9065 76.2438C73.8761 76.2524 73.8108 76.2662 73.6984 76.2675L73.7499 80.6583ZM76.3591 79.8952C77.1523 79.3797 77.7518 78.6492 78.0808 77.7395L73.9515 76.246C73.9507 76.2482 73.9519 76.2445 73.956 76.2371C73.9602 76.2296 73.9657 76.2214 73.9719 76.2137C73.978 76.206 73.9825 76.2018 73.9834 76.2011C73.9841 76.2004 73.9793 76.2049 73.9662 76.2134L76.3591 79.8952ZM76.0419 79.1881L79.7528 79.1446L79.7012 74.7538L75.9904 74.7973L76.0419 79.1881ZM86.8373 76.7833L88.651 75.546L87.0449 73.1916L85.1782 75.3453L86.8373 76.7833ZM85.3929 78.4497L83.7338 77.0117L83.1878 77.6418L83.1975 78.4755L85.3929 78.4497ZM85.4256 81.2328L85.4514 83.4282L87.6468 83.4025L87.621 81.2071L85.4256 81.2328ZM81.756 81.2759L79.5606 81.3017L79.5864 83.4971L81.7818 83.4713L81.756 81.2759ZM81.5528 63.9587L81.5271 61.7633L79.3317 61.7891L79.3574 63.9845L81.5528 63.9587ZM85.2224 63.9157L87.4178 63.8899L87.3921 61.6945L85.1967 61.7203L85.2224 63.9157ZM85.3417 74.0792L83.1463 74.105L83.2153 79.9931L87.018 75.497L85.3417 74.0792ZM89.5513 69.102L89.5255 66.9066L88.5226 66.9184L87.8749 67.6842L89.5513 69.102ZM93.6332 69.0541L95.2823 70.5036L98.5369 66.8009L93.6074 66.8587L93.6332 69.0541ZM89.0551 74.2624L87.4061 72.8129L86.2493 74.129L87.276 75.5489L89.0551 74.2624ZM94.0223 81.132L94.0481 83.3274L98.2832 83.2777L95.8015 79.8455L94.0223 81.132ZM89.8373 81.1811L88.0236 82.4184L88.6866 83.3903L89.8631 83.3765L89.8373 81.1811ZM85.1782 75.3453L83.7338 77.0117L87.052 79.8877L88.4964 78.2213L85.1782 75.3453ZM83.1975 78.4755L83.2302 81.2586L87.621 81.2071L87.5883 78.424L83.1975 78.4755ZM85.3998 79.0374L81.7302 79.0805L81.7818 83.4713L85.4514 83.4282L85.3998 79.0374ZM83.9514 81.2501L83.7482 63.933L79.3574 63.9845L79.5606 81.3017L83.9514 81.2501ZM81.5786 66.1541L85.2482 66.1111L85.1967 61.7203L81.5271 61.7633L81.5786 66.1541ZM83.027 63.9414L83.1463 74.105L87.5371 74.0534L87.4178 63.8899L83.027 63.9414ZM87.018 75.497L91.2277 70.5198L87.8749 67.6842L83.6653 72.6614L87.018 75.497ZM89.5771 71.2974L93.659 71.2495L93.6074 66.8587L89.5255 66.9066L89.5771 71.2974ZM91.9841 67.6046L87.4061 72.8129L90.7042 75.7119L95.2823 70.5036L91.9841 67.6046ZM87.276 75.5489L92.2432 82.4185L95.8015 79.8455L90.8343 72.976L87.276 75.5489ZM93.9966 78.9366L89.8116 78.9857L89.8631 83.3765L94.0481 83.3274L93.9966 78.9366ZM91.6511 79.9438L88.651 75.546L85.0236 78.0206L88.0236 82.4184L91.6511 79.9438ZM97.0465 80.5604L98.1134 78.6415L98.1044 78.6365L97.0465 80.5604ZM94.7937 78.3394L96.699 77.2484L94.7937 78.3394ZM94.7173 71.8249L92.7869 70.7789L94.7173 71.8249ZM96.9174 69.5517L98.0201 71.4502L98.029 71.445L96.9174 69.5517ZM103.411 69.4755L102.333 71.3877L102.349 71.3969L102.365 71.4058L103.411 69.4755ZM105.685 71.6962L107.59 70.6052L105.685 71.6962ZM106.458 76.1201L106.484 78.3155L108.388 78.2932L108.635 76.4051L106.458 76.1201ZM97.6142 76.2239L97.5885 74.0285L94.9208 74.0598L95.4648 76.6716L97.6142 76.2239ZM98.5404 77.8419L97.1647 79.5529L98.5404 77.8419ZM101.657 78.1352L102.52 80.1539L102.537 80.1468L102.554 80.1394L101.657 78.1352ZM102.494 77.4243L102.469 75.2289L101.14 75.2445L100.538 76.4285L102.494 77.4243ZM106.184 77.381L108.312 77.9242L109.02 75.1521L106.159 75.1856L106.184 77.381ZM105.054 79.4149L103.465 77.8998L103.456 77.9091L103.447 77.9186L105.054 79.4149ZM102.988 80.8206L103.827 82.8494L103.827 82.8494L102.988 80.8206ZM102.926 73.7904L102.952 75.9858L105.649 75.9542L105.07 73.3191L102.926 73.7904ZM101.979 72.1521L100.603 73.8631L100.618 73.8754L100.634 73.8873L101.979 72.1521ZM98.4535 72.1934L99.8637 73.8763L99.8787 73.8636L99.8935 73.8508L98.4535 72.1934ZM97.5658 73.8533L95.411 73.4324L94.8937 76.0804L97.5915 76.0487L97.5658 73.8533ZM100.288 79.1514C99.4244 79.1616 98.7179 78.9776 98.1134 78.6415L95.9797 82.4793C97.3122 83.2202 98.7837 83.5605 100.339 83.5422L100.288 79.1514ZM98.1044 78.6365C97.5075 78.3083 97.048 77.858 96.699 77.2484L92.8884 79.4304C93.6339 80.7324 94.6763 81.7627 95.9887 82.4843L98.1044 78.6365ZM96.699 77.2484C96.3554 76.6484 96.1571 75.9389 96.1469 75.0658L91.7561 75.1173C91.7742 76.6632 92.1374 78.1189 92.8884 79.4304L96.699 77.2484ZM96.1469 75.0658C96.1366 74.1928 96.3182 73.4788 96.6476 72.8709L92.7869 70.7789C92.0669 72.1077 91.7379 73.5715 91.7561 75.1173L96.1469 75.0658ZM96.6476 72.8709C96.9823 72.2533 97.4311 71.7923 98.0201 71.4502L95.8147 67.6531C94.5196 68.4053 93.5017 69.4598 92.7869 70.7789L96.6476 72.8709ZM98.029 71.445C98.6254 71.0949 99.3274 70.8943 100.191 70.8842L100.139 66.4934C98.5837 66.5117 97.1206 66.8864 95.8058 67.6583L98.029 71.445ZM100.191 70.8842C101.055 70.8741 101.749 71.0583 102.333 71.3877L104.49 67.5632C103.164 66.8154 101.694 66.4752 100.139 66.4934L100.191 70.8842ZM102.365 71.4058C102.975 71.7361 103.435 72.1857 103.779 72.7872L107.59 70.6052C106.84 69.2952 105.785 68.2643 104.457 67.5451L102.365 71.4058ZM103.779 72.7872C104.123 73.3873 104.321 74.0967 104.332 74.9698L108.722 74.9183C108.704 73.3725 108.341 71.9167 107.59 70.6052L103.779 72.7872ZM104.332 74.9698C104.335 75.2671 104.318 75.5552 104.281 75.8351L108.635 76.4051C108.7 75.914 108.728 75.4181 108.722 74.9183L104.332 74.9698ZM106.433 73.9247L97.5885 74.0285L97.64 78.4193L106.484 78.3155L106.433 73.9247ZM95.4648 76.6716C95.6947 77.7752 96.2277 78.7996 97.1647 79.5529L99.9162 76.1308C99.9095 76.1255 99.8251 76.0712 99.7636 75.7762L95.4648 76.6716ZM97.1647 79.5529C98.0866 80.2942 99.1811 80.6074 100.305 80.5942L100.253 76.2034C100.002 76.2063 99.9378 76.1482 99.9162 76.1308L97.1647 79.5529ZM100.305 80.5942C101.056 80.5854 101.809 80.458 102.52 80.1539L100.794 76.1165C100.712 76.1516 100.547 76.1999 100.253 76.2034L100.305 80.5942ZM102.554 80.1394C103.25 79.8278 104.003 79.3012 104.451 78.4202L100.538 76.4285C100.69 76.1282 100.885 76.0756 100.761 76.131L102.554 80.1394ZM102.52 79.6197L106.21 79.5765L106.159 75.1856L102.469 75.2289L102.52 79.6197ZM104.057 76.8379C103.954 77.2405 103.765 77.5849 103.465 77.8998L106.643 80.9301C107.456 80.0773 108.02 79.0658 108.312 77.9242L104.057 76.8379ZM103.447 77.9186C103.123 78.2661 102.704 78.562 102.148 78.7918L103.827 82.8494C104.913 82.4002 105.871 81.759 106.66 80.9113L103.447 77.9186ZM102.148 78.7918C101.607 79.016 100.994 79.1431 100.288 79.1514L100.339 83.5422C101.557 83.5279 102.727 83.3043 103.827 82.8494L102.148 78.7918ZM105.07 73.3191C104.828 72.2181 104.294 71.1688 103.324 70.4168L100.634 73.8873C100.635 73.8886 100.638 73.8904 100.642 73.8951C100.646 73.8999 100.655 73.9118 100.668 73.9346C100.695 73.9809 100.742 74.0804 100.782 74.2618L105.07 73.3191ZM103.355 70.441C102.417 69.6871 101.301 69.387 100.173 69.4002L100.225 73.791C100.527 73.7875 100.597 73.8584 100.603 73.8631L103.355 70.441ZM100.173 69.4002C99.0479 69.4134 97.9307 69.7391 97.0135 70.5361L99.8935 73.8508C99.8972 73.8476 99.9055 73.8396 99.938 73.8285C99.9757 73.8156 100.064 73.7929 100.225 73.791L100.173 69.4002ZM97.0434 70.5106C96.1147 71.2887 95.6235 72.3443 95.411 73.4324L99.7206 74.2742C99.7576 74.0851 99.803 73.9781 99.8308 73.9261C99.8444 73.9007 99.8543 73.8873 99.8586 73.8819C99.8609 73.8791 99.8623 73.8776 99.8629 73.877C99.8634 73.8765 99.8636 73.8763 99.8637 73.8763L97.0434 70.5106ZM97.5915 76.0487L102.952 75.9858L102.9 71.595L97.54 71.6579L97.5915 76.0487ZM108.612 68.8784L108.586 66.683L106.391 66.7087L106.417 68.9041L108.612 68.8784ZM112.282 68.8353L114.477 68.8096L114.451 66.6142L112.256 66.6399L112.282 68.8353ZM112.296 70.0723L110.101 70.098L110.178 76.7322L114.073 71.3612L112.296 70.0723ZM117.249 68.6946L119.444 68.6425L119.407 67.0974L117.94 66.6107L117.249 68.6946ZM117.331 72.1369L116.331 74.0916L119.613 75.7701L119.525 72.0848L117.331 72.1369ZM113.15 72.5571L111.639 70.9644L111.629 70.9737L111.619 70.9831L113.15 72.5571ZM112.423 80.9161L112.449 83.1115L114.644 83.0857L114.619 80.8903L112.423 80.9161ZM108.754 80.9591L106.558 80.9849L106.584 83.1803L108.779 83.1545L108.754 80.9591ZM108.638 71.0738L112.307 71.0307L112.256 66.6399L108.586 66.683L108.638 71.0738ZM110.086 68.8611L110.101 70.098L114.491 70.0465L114.477 68.8096L110.086 68.8611ZM114.073 71.3612C114.332 71.004 114.738 70.7135 115.685 70.7024L115.633 66.3116C113.584 66.3357 111.748 67.0887 110.519 68.7833L114.073 71.3612ZM115.685 70.7024C116.222 70.6961 116.481 70.753 116.558 70.7784L117.94 66.6107C117.216 66.3706 116.415 66.3024 115.633 66.3116L115.685 70.7024ZM115.054 68.7466L115.136 72.1889L119.525 72.0848L119.444 68.6425L115.054 68.7466ZM118.33 70.1821C117.422 69.7175 116.426 69.5394 115.424 69.5512L115.475 73.942C115.93 73.9367 116.188 74.0188 116.331 74.0916L118.33 70.1821ZM115.424 69.5512C114.05 69.5673 112.698 69.9597 111.639 70.9644L114.661 74.1497C114.717 74.0967 114.898 73.9488 115.475 73.942L115.424 69.5512ZM111.619 70.9831C110.554 72.0192 110.139 73.3732 110.155 74.7572L114.546 74.7056C114.541 74.2479 114.659 74.1523 114.681 74.131L111.619 70.9831ZM110.155 74.7572L110.228 80.9418L114.619 80.8903L114.546 74.7056L110.155 74.7572ZM112.398 78.7207L108.728 78.7637L108.779 83.1545L112.449 83.1115L112.398 78.7207ZM110.949 80.9334L110.807 68.8526L106.417 68.9041L106.558 80.9849L110.949 80.9334Z" fill="#9E73FF" mask="url(#path-11-outside-1_433_532)"/>
<path d="M43.3148 104.323V99.6034C43.3148 99.1466 43.5022 98.7484 44.1698 98.7484C44.8373 98.7484 45.0247 99.1466 45.0247 99.6034V104.323C45.0247 104.78 44.8373 105.178 44.1698 105.178C43.5022 105.178 43.3148 104.78 43.3148 104.323ZM43.2797 97.2845C43.2797 96.7926 43.6779 96.3944 44.1698 96.3944C44.6617 96.3944 45.0598 96.7926 45.0598 97.2845C45.0598 97.7764 44.6617 98.1746 44.1698 98.1746C43.6779 98.1746 43.2797 97.7764 43.2797 97.2845ZM46.4807 104.323V99.6034C46.4807 99.0881 46.7149 98.7484 47.2537 98.7484C47.7924 98.7484 48.0266 99.0881 48.0266 99.6034V99.8259H48.0501C48.5302 99.1935 49.151 98.7484 50.123 98.7484C51.1536 98.7484 52.278 99.2638 52.278 100.997V104.323C52.278 104.78 52.0906 105.178 51.423 105.178C50.7554 105.178 50.5681 104.78 50.5681 104.323V101.337C50.5681 100.646 50.2284 100.154 49.4906 100.154C48.8933 100.154 48.1906 100.646 48.1906 101.501V104.323C48.1906 104.78 48.0032 105.178 47.3357 105.178C46.6681 105.178 46.4807 104.78 46.4807 104.323ZM53.371 100.657C53.371 99.2638 54.753 98.7484 55.9358 98.7484C57.2358 98.7484 58.5475 99.2638 58.5475 100.048C58.5475 100.447 58.2782 100.798 57.8331 100.798C57.1656 100.798 57.1421 100.013 56.0647 100.013C55.4674 100.013 55.0809 100.177 55.0809 100.54C55.0809 100.939 55.4674 101.032 55.9944 101.149L56.7088 101.313C57.6809 101.536 58.8403 101.946 58.8403 103.14C58.8403 104.534 57.4935 105.178 56.2052 105.178C54.6593 105.178 53.371 104.487 53.371 103.644C53.371 103.269 53.5818 102.929 54.062 102.929C54.7998 102.929 54.8701 103.984 56.1349 103.984C56.7439 103.984 57.1304 103.714 57.1304 103.363C57.1304 102.929 56.7556 102.859 56.1466 102.707L55.1394 102.461C54.144 102.215 53.371 101.805 53.371 100.657ZM60.0245 104.323V99.6034C60.0245 99.1466 60.2119 98.7484 60.8794 98.7484C61.547 98.7484 61.7344 99.1466 61.7344 99.6034V104.323C61.7344 104.78 61.547 105.178 60.8794 105.178C60.2119 105.178 60.0245 104.78 60.0245 104.323ZM59.9893 97.2845C59.9893 96.7926 60.3875 96.3944 60.8794 96.3944C61.3713 96.3944 61.7695 96.7926 61.7695 97.2845C61.7695 97.7764 61.3713 98.1746 60.8794 98.1746C60.3875 98.1746 59.9893 97.7764 59.9893 97.2845ZM68.9876 97.2962V104.37C68.9876 104.897 68.7417 105.178 68.2147 105.178C67.7111 105.178 67.4417 104.897 67.4417 104.37V104.101H67.4183C67.1372 104.827 66.4462 105.178 65.6147 105.178C64.1859 105.178 62.9327 104.136 62.9327 101.922C62.9327 100.283 63.7642 98.7484 65.5678 98.7484C66.3291 98.7484 66.9147 99.0647 67.2543 99.6151H67.2777V97.2962C67.2777 96.734 67.6174 96.4413 68.1327 96.4413C68.648 96.4413 68.9876 96.734 68.9876 97.2962ZM64.6426 101.981C64.6426 102.988 65.0877 103.82 66.0012 103.843C66.9966 103.843 67.3714 102.953 67.3714 101.981C67.3714 101.102 67.0435 100.072 66.0012 100.084C64.912 100.084 64.6426 101.184 64.6426 101.981ZM75.6671 102.285H71.8023C71.8023 103.187 72.3878 103.843 73.3833 103.843C74.6716 103.843 74.6716 103 75.3626 103C75.7725 103 76.0653 103.351 76.0653 103.667C76.0653 104.698 74.414 105.178 73.3833 105.178C70.9942 105.178 70.0924 103.562 70.0924 102.075C70.0924 100.084 71.2987 98.7484 73.3248 98.7484C75.2923 98.7484 76.4166 100.142 76.4166 101.548C76.4166 102.133 76.241 102.285 75.6671 102.285ZM71.8023 101.302H74.8004C74.7067 100.517 74.1212 99.943 73.3599 99.943C72.505 99.943 71.9896 100.47 71.8023 101.302ZM82.5532 101.957C82.5532 103 82.9865 103.913 84.0054 103.913C85.0243 103.913 85.4577 103 85.4577 101.957C85.4577 100.845 85.0009 100.013 84.0054 100.013C83.0099 100.013 82.5532 100.845 82.5532 101.957ZM80.8433 101.957C80.8433 100.154 81.9442 98.7484 84.0054 98.7484C86.0667 98.7484 87.1676 100.154 87.1676 101.957C87.1676 103.667 86.336 105.178 84.0054 105.178C81.6748 105.178 80.8433 103.667 80.8433 101.957ZM94.0693 99.6034V104.323C94.0693 104.838 93.835 105.178 93.2963 105.178C92.7576 105.178 92.5233 104.838 92.5233 104.323V104.101H92.4999C92.0197 104.733 91.399 105.178 90.427 105.178C89.3963 105.178 88.272 104.663 88.272 102.929V99.6034C88.272 99.1466 88.4594 98.7484 89.127 98.7484C89.7945 98.7484 89.9819 99.1466 89.9819 99.6034V102.59C89.9819 103.281 90.3215 103.773 91.0594 103.773C91.6567 103.773 92.3594 103.281 92.3594 102.426V99.6034C92.3594 99.1466 92.5468 98.7484 93.2143 98.7484C93.8819 98.7484 94.0693 99.1466 94.0693 99.6034ZM95.8767 103.656V100.025H95.5839C95.1037 100.025 94.9046 99.8376 94.9046 99.4629C94.9046 99.0881 95.1037 98.9007 95.5839 98.9007H95.8767V97.8584C95.8767 97.2962 96.2163 97.0034 96.7317 97.0034C97.247 97.0034 97.5866 97.2962 97.5866 97.8584V98.9007H98.1019C98.6055 98.9007 98.8749 99.0529 98.8749 99.4629C98.8749 99.8728 98.6055 100.025 98.1019 100.025H97.5866V103.445C97.5866 103.702 97.7271 103.843 98.0316 103.843H98.2776C98.6524 103.843 98.8749 104.054 98.8749 104.417C98.8749 104.909 98.4533 105.178 97.6334 105.178C96.392 105.178 95.8767 104.663 95.8767 103.656Z" fill="#77604C"/>
<defs>
<filter id="filter0_i_433_532" x="1.25" y="40.3077" width="141.493" height="41.9594" filterUnits="userSpaceOnUse" color-interpolation-filters="sRGB">
<feFlood flood-opacity="0" result="BackgroundImageFix"/>
<feBlend mode="normal" in="SourceGraphic" in2="BackgroundImageFix" result="shape"/>
<feColorMatrix in="SourceAlpha" type="matrix" values="0 0 0 0 0 0 0 0 0 0 0 0 0 0 0 0 0 0 127 0" result="hardAlpha"/>
<feOffset dx="7.26155" dy="-1.81539"/>
<feGaussianBlur stdDeviation="0.998463"/>
<feComposite in2="hardAlpha" operator="arithmetic" k2="-1" k3="1"/>
<feColorMatrix type="matrix" values="0 0 0 0 0.719889 0 0 0 0 0.719889 0 0 0 0 0.719889 0 0 0 0.4 0"/>
<feBlend mode="normal" in2="shape" result="effect1_innerShadow_433_532"/>
</filter>
<filter id="filter1_d_433_532" x="111.512" y="30.7152" width="56.3211" height="44.6433" filterUnits="userSpaceOnUse" color-interpolation-filters="sRGB">
<feFlood flood-opacity="0" result="BackgroundImageFix"/>
<feColorMatrix in="SourceAlpha" type="matrix" values="0 0 0 0 0 0 0 0 0 0 0 0 0 0 0 0 0 0 127 0" result="hardAlpha"/>
<feOffset dx="34.4924" dy="1.81539"/>
<feGaussianBlur stdDeviation="9.89386"/>
<feComposite in2="hardAlpha" operator="out"/>
<feColorMatrix type="matrix" values="0 0 0 0 0 0 0 0 0 0 0 0 0 0 0 0 0 0 0.85 0"/>
<feBlend mode="normal" in2="BackgroundImageFix" result="effect1_dropShadow_433_532"/>
<feBlend mode="normal" in="SourceGraphic" in2="effect1_dropShadow_433_532" result="shape"/>
</filter>
<filter id="filter2_i_433_532" x="111.67" y="40.3067" width="31.0751" height="13.0747" filterUnits="userSpaceOnUse" color-interpolation-filters="sRGB">
<feFlood flood-opacity="0" result="BackgroundImageFix"/>
<feBlend mode="normal" in="SourceGraphic" in2="BackgroundImageFix" result="shape"/>
<feColorMatrix in="SourceAlpha" type="matrix" values="0 0 0 0 0 0 0 0 0 0 0 0 0 0 0 0 0 0 127 0" result="hardAlpha"/>
<feOffset dx="7.26155" dy="-1.81539"/>
<feGaussianBlur stdDeviation="0.998463"/>
<feComposite in2="hardAlpha" operator="arithmetic" k2="-1" k3="1"/>
<feColorMatrix type="matrix" values="0 0 0 0 0.719889 0 0 0 0 0.719889 0 0 0 0 0.719889 0 0 0 0.4 0"/>
<feBlend mode="normal" in2="shape" result="effect1_innerShadow_433_532"/>
</filter>
</defs>
</svg>
