<svg width="169" height="125" viewBox="0 0 169 125" fill="none" xmlns="http://www.w3.org/2000/svg">
<g filter="url(#filter0_i_433_504)">
<rect width="144.024" height="4.5822" rx="2.2911" transform="matrix(0.966719 -0.255842 0.338658 0.94091 1.23633 78.4639)" fill="#4C2705"/>
</g>
<path d="M95.5788 60.1154L92.0059 51.5506C88.9025 44.1113 80.0781 40.079 72.2959 42.5443L58.4244 46.9386C50.6423 49.4038 46.8494 57.433 49.9528 64.8723L53.5257 73.4371C56.6291 80.8764 65.4535 84.9087 73.2357 82.4434L87.1072 78.0492C94.8893 75.5839 98.6822 67.5547 95.5788 60.1154Z" fill="#FEFFF5" stroke="black" stroke-width="0.51197" stroke-miterlimit="10"/>
<path d="M72.9772 67.275L69.4043 58.7103C66.3009 51.271 57.4765 47.2387 49.6944 49.704L35.8229 54.0982C28.0407 56.5635 24.2479 64.5927 27.3513 72.032L30.9241 80.5968C34.0275 88.0361 42.852 92.0683 50.6341 89.6031L64.5056 85.2088C72.2877 82.7436 76.0806 74.7143 72.9772 67.275Z" fill="#FEFFF5" stroke="black" stroke-width="0.51197" stroke-miterlimit="10"/>
<path d="M72.9772 67.275L69.4043 58.7103C66.3009 51.271 57.4765 47.2387 49.6944 49.704L35.8229 54.0982C28.0407 56.5635 24.2479 64.5927 27.3513 72.032L30.9241 80.5968C34.0275 88.0361 42.852 92.0683 50.6341 89.6031L64.5056 85.2088C72.2877 82.7436 76.0806 74.7143 72.9772 67.275Z" fill="#FEFFF5" stroke="black" stroke-width="0.51197" stroke-miterlimit="10"/>
<path d="M120.016 52.3737L116.443 43.8089C113.34 36.3696 104.516 32.3373 96.7334 34.8026L82.8619 39.1969C75.0798 41.6621 71.2869 49.6913 74.3903 57.1306L77.9632 65.6954C81.0666 73.1347 89.891 77.167 97.6732 74.7017L111.545 70.3075C119.327 67.8422 123.12 59.813 120.016 52.3737Z" fill="#FEFFF5" stroke="black" stroke-width="0.51197" stroke-miterlimit="10"/>
<path d="M95.5788 60.1154L92.0059 51.5506C88.9025 44.1113 80.0781 40.079 72.2959 42.5443L58.4244 46.9386C50.6423 49.4038 46.8494 57.433 49.9528 64.8723L53.5257 73.4371C56.6291 80.8764 65.4535 84.9087 73.2357 82.4434L87.1072 78.0492C94.8893 75.5839 98.6822 67.5547 95.5788 60.1154Z" fill="#FEFFF5" stroke="black" stroke-width="0.51197" stroke-miterlimit="10"/>
<path d="M120.016 52.3737L116.443 43.8089C113.34 36.3696 104.516 32.3373 96.7334 34.8026L82.8619 39.1969C75.0798 41.6621 71.2869 49.6913 74.3903 57.1306L77.9632 65.6954C81.0666 73.1347 89.891 77.167 97.6732 74.7017L111.545 70.3075C119.327 67.8422 123.12 59.813 120.016 52.3737Z" fill="#FEFFF5" stroke="black" stroke-width="0.51197" stroke-miterlimit="10"/>
<path d="M106.656 38.3588C106.656 38.3588 103.867 51.0748 117.376 61.7607" stroke="#0C0C0C" stroke-width="0.51197" stroke-miterlimit="10" stroke-linecap="round"/>
<g filter="url(#filter1_d_433_504)">
<ellipse cx="2.66517" cy="0.597333" rx="2.66517" ry="0.597333" transform="matrix(0.314483 0.949263 -0.972675 0.232172 112.902 48.5522)" fill="#E6E8D2"/>
</g>
<g filter="url(#filter2_i_433_504)">
<path d="M112.299 49.0699L138.254 42.2008C139.477 41.877 140.816 42.5797 141.245 43.7703V43.7703C141.673 44.9609 141.029 46.1885 139.806 46.5122L113.85 53.3813L113.561 52.885C112.867 51.6936 112.437 50.3932 112.299 49.0699V49.0699Z" fill="#4C2705"/>
</g>
<mask id="path-11-outside-1_433_504" maskUnits="userSpaceOnUse" x="27.2715" y="36.9504" width="95.5449" height="48.1113" fill="black">
<rect fill="white" x="27.2715" y="36.9504" width="95.5449" height="48.1113"/>
<path d="M40.8671 40.9583L43.8564 40.9232L49.7597 50.256L55.4424 40.7872L58.4316 40.7522L58.6288 57.5539L54.8767 57.598L54.7686 48.3828L50.9479 54.8812L48.6802 54.9078L44.7082 48.5008L44.8163 57.716L41.0642 57.76L40.8671 40.9583ZM67.1442 45.0829C68.3674 45.0686 69.4701 45.3306 70.4523 45.8689C71.4344 46.3934 72.206 47.1335 72.767 48.0891C73.3281 49.0447 73.6157 50.1273 73.6299 51.3367C73.6441 52.5462 73.3819 53.6352 72.8435 54.6037C72.305 55.5722 71.551 56.3302 70.5815 56.8776C69.6121 57.4388 68.5159 57.7266 67.2927 57.741C66.0695 57.7553 64.9667 57.4933 63.9845 56.955C63.0024 56.4305 62.2308 55.6904 61.6698 54.7348C61.1087 53.7792 60.8211 52.6966 60.8069 51.4872C60.7928 50.2777 61.0549 49.1887 61.5934 48.2202C62.1318 47.2517 62.8858 46.4937 63.8553 45.9463C64.8247 45.3851 65.921 45.0973 67.1442 45.0829ZM67.1809 48.2165C66.3288 48.2265 65.6383 48.537 65.1094 49.148C64.5941 49.7451 64.3419 50.511 64.3528 51.4456C64.3638 52.3801 64.634 53.1467 65.1633 53.7453C65.7063 54.33 66.4038 54.6174 67.2559 54.6074C68.108 54.5974 68.7917 54.2938 69.3071 53.6967C69.836 53.0857 70.095 52.3129 70.084 51.3783C70.073 50.4437 69.7961 49.6841 69.2531 49.0994C68.7238 48.5008 68.033 48.2065 67.1809 48.2165ZM81.4986 44.9145C82.7218 44.9002 83.8245 45.1621 84.8068 45.7004C85.7889 46.225 86.5605 46.9651 87.1215 47.9207C87.6825 48.8763 87.9702 49.9589 87.9843 51.1683C87.9985 52.3778 87.7364 53.4667 87.1979 54.4353C86.6595 55.4038 85.9055 56.1618 84.936 56.7092C83.9666 57.2704 82.8703 57.5582 81.6471 57.5725C80.4239 57.5869 79.3212 57.3249 78.3389 56.7866C77.3569 56.2621 76.5853 55.522 76.0242 54.5664C75.4632 53.6107 75.1756 52.5282 75.1614 51.3188C75.1472 50.1093 75.4093 49.0203 75.9478 48.0518C76.4863 47.0833 77.2403 46.3253 78.2098 45.7778C79.1791 45.2166 80.2754 44.9289 81.4986 44.9145ZM81.5354 48.0481C80.6833 48.0581 79.9928 48.3686 79.4638 48.9796C78.9485 49.5767 78.6963 50.3426 78.7073 51.2771C78.7183 52.2117 78.9884 52.9783 79.5178 53.5769C80.0607 54.1616 80.7583 54.449 81.6104 54.439C82.4625 54.429 83.1462 54.1254 83.6615 53.5283C84.1904 52.9173 84.4494 52.1445 84.4385 51.2099C84.4275 50.2753 84.1505 49.5157 83.6076 48.931C83.0782 48.3324 82.3875 48.0381 81.5354 48.0481ZM95.4656 57.4104C94.3249 57.4238 93.3046 57.1609 92.4048 56.6216C91.5052 56.0961 90.8023 55.3552 90.2962 54.3989C89.7902 53.4426 89.5301 52.3598 89.5159 51.1503C89.5017 49.9409 89.7363 48.8522 90.2198 47.8844C90.7033 46.9165 91.3886 46.1593 92.2756 45.6128C93.1625 45.0526 94.1763 44.7658 95.3171 44.7524C96.8701 44.7342 98.0306 45.2291 98.7984 46.2373L98.7225 39.764L102.392 39.7209L102.595 57.0381L98.9256 57.0812L98.9111 55.8442C98.1671 56.8701 97.0186 57.3922 95.4656 57.4104ZM96.0061 54.2701C96.8994 54.2596 97.6106 53.9557 98.1397 53.3584C98.6686 52.7474 98.9276 51.9746 98.9166 51.04C98.9056 50.1055 98.6287 49.3458 98.0858 48.7611C97.5426 48.1627 96.8244 47.8687 95.9311 47.8792C95.0652 47.8894 94.3747 48.1999 93.8595 48.8107C93.3442 49.4078 93.092 50.1737 93.103 51.1083C93.114 52.0428 93.3841 52.8094 93.9135 53.408C94.4427 53.9929 95.1402 54.2802 96.0061 54.2701ZM44.8615 68.2326L39.3983 68.2967L39.5565 81.7794L35.8044 81.8234L35.6463 68.3407L30.1831 68.4048L30.1442 65.0857L44.8225 64.9135L44.8615 68.2326ZM44.9765 69.6333L48.6461 69.5903L48.6606 70.8272C49.4045 69.8013 50.5256 69.2796 52.0236 69.262C52.6833 69.2542 53.2133 69.3168 53.6135 69.4495L53.6951 72.8919C53.1696 72.6231 52.5426 72.493 51.8142 72.5015C50.8384 72.513 50.0718 72.7832 49.5145 73.312C48.9708 73.8407 48.7044 74.5655 48.7152 75.4864L48.7878 81.6711L45.1182 81.7141L44.9765 69.6333ZM60.3643 81.8239C59.2236 81.8373 58.2033 81.5743 57.3035 81.0351C56.4039 80.5095 55.701 79.7686 55.195 78.8124C54.6889 77.8561 54.4288 76.7733 54.4146 75.5638C54.4004 74.3544 54.635 73.2657 55.1185 72.2978C55.602 71.33 56.2873 70.5728 57.1744 70.0263C58.0612 69.4661 59.0751 69.1793 60.2158 69.1659C61.7688 69.1477 62.9293 69.6426 63.6971 70.6508L63.6826 69.4139L67.3522 69.3708L67.4939 81.4516L63.8244 81.4946L63.8098 80.2577C63.0659 81.2836 61.9174 81.8057 60.3643 81.8239ZM60.9048 78.6835C61.7981 78.6731 62.5093 78.3692 63.0384 77.7719C63.5673 77.1609 63.8263 76.3881 63.8153 75.4535C63.8044 74.5189 63.5274 73.7593 62.9845 73.1746C62.4414 72.5762 61.7231 72.2822 60.8298 72.2927C59.9639 72.3028 59.2734 72.6133 58.7583 73.2242C58.2429 73.8213 57.9907 74.5872 58.0017 75.5217C58.0127 76.4563 58.2828 77.2229 58.8122 77.8215C59.3414 78.4063 60.0389 78.6937 60.9048 78.6835ZM82.0254 76.9306C81.7258 78.3362 81.038 79.4645 79.9621 80.3156C78.8863 81.1805 77.5856 81.6218 76.0601 81.6397C74.8369 81.6541 73.7341 81.3921 72.7519 80.8538C71.7698 80.3293 70.9982 79.5892 70.4372 78.6336C69.8761 77.6779 69.5885 76.5954 69.5743 75.386C69.5602 74.1765 69.8223 73.0875 70.3608 72.119C70.8992 71.1505 71.6532 70.3925 72.6227 69.845C73.5921 69.2838 74.6884 68.9961 75.9116 68.9817C76.9423 68.9696 77.8862 69.1647 78.7432 69.5671C79.6 69.9556 80.3073 70.4972 80.8653 71.1916C81.4233 71.8861 81.776 72.6586 81.9234 73.5091L78.2126 73.5527C78.0564 73.1284 77.7776 72.7949 77.3761 72.5522C76.9882 72.2955 76.5125 72.1705 75.9491 72.1771C75.0969 72.1871 74.4132 72.4907 73.8979 73.0878C73.3961 73.671 73.1507 74.423 73.1615 75.3439C73.1723 76.2647 73.4354 77.0176 73.9509 77.6026C74.4799 78.1738 75.1705 78.4543 76.0226 78.4443C76.5861 78.4377 77.0656 78.3015 77.4611 78.0357C77.8703 77.7697 78.1548 77.4159 78.3146 76.9741L82.0254 76.9306ZM89.1357 76.7647L87.6914 78.4311L87.724 81.2142L84.0544 81.2573L83.8513 63.9401L87.5209 63.8971L87.6401 74.0606L91.8497 69.0834L95.9316 69.0355L91.3536 74.2438L96.3208 81.1134L92.1358 81.1625L89.1357 76.7647ZM102.612 81.3282C101.402 81.3424 100.313 81.0803 99.345 80.5418C98.3904 80.0169 97.6394 79.2766 97.0921 78.3208C96.5448 77.365 96.2641 76.2824 96.2499 75.073C96.2357 73.8635 96.491 72.7746 97.0157 71.8063C97.5404 70.8379 98.2738 70.0802 99.2158 69.533C100.171 68.972 101.254 68.6844 102.463 68.6702C103.673 68.656 104.755 68.9182 105.71 69.4569C106.678 69.9816 107.436 70.7218 107.983 71.6776C108.531 72.6334 108.811 73.716 108.825 74.9254C108.83 75.324 108.807 75.716 108.757 76.1015L99.9126 76.2053C100.058 76.9046 100.367 77.4439 100.839 77.8233C101.311 78.2026 101.89 78.3882 102.577 78.3802C103.1 78.3741 103.559 78.2862 103.956 78.1166C104.366 77.9331 104.645 77.6961 104.793 77.4057L108.483 77.3624C108.286 78.1345 107.909 78.8125 107.352 79.3963C106.796 79.9939 106.107 80.4625 105.286 80.802C104.465 81.1415 103.574 81.3169 102.612 81.3282ZM105.224 73.7718C105.065 73.0452 104.749 72.499 104.277 72.1334C103.805 71.7541 103.212 71.5686 102.498 71.577C101.783 71.5854 101.201 71.7847 100.752 72.1748C100.303 72.5512 100.007 73.1045 99.8642 73.8347L105.224 73.7718ZM110.91 68.8598L114.58 68.8167L114.594 70.0536C115.338 69.0277 116.459 68.506 117.958 68.4884C118.617 68.4807 119.147 68.5432 119.547 68.6759L119.629 72.1183C119.103 71.8495 118.477 71.7194 117.748 71.728C116.772 71.7394 116.006 72.0096 115.448 72.5385C114.905 73.0672 114.638 73.7919 114.649 74.7128L114.722 80.8975L111.052 80.9405L110.91 68.8598Z"/>
</mask>
<path d="M40.8671 40.9583L43.8564 40.9232L49.7597 50.256L55.4424 40.7872L58.4316 40.7522L58.6288 57.5539L54.8767 57.598L54.7686 48.3828L50.9479 54.8812L48.6802 54.9078L44.7082 48.5008L44.8163 57.716L41.0642 57.76L40.8671 40.9583ZM67.1442 45.0829C68.3674 45.0686 69.4701 45.3306 70.4523 45.8689C71.4344 46.3934 72.206 47.1335 72.767 48.0891C73.3281 49.0447 73.6157 50.1273 73.6299 51.3367C73.6441 52.5462 73.3819 53.6352 72.8435 54.6037C72.305 55.5722 71.551 56.3302 70.5815 56.8776C69.6121 57.4388 68.5159 57.7266 67.2927 57.741C66.0695 57.7553 64.9667 57.4933 63.9845 56.955C63.0024 56.4305 62.2308 55.6904 61.6698 54.7348C61.1087 53.7792 60.8211 52.6966 60.8069 51.4872C60.7928 50.2777 61.0549 49.1887 61.5934 48.2202C62.1318 47.2517 62.8858 46.4937 63.8553 45.9463C64.8247 45.3851 65.921 45.0973 67.1442 45.0829ZM67.1809 48.2165C66.3288 48.2265 65.6383 48.537 65.1094 49.148C64.5941 49.7451 64.3419 50.511 64.3528 51.4456C64.3638 52.3801 64.634 53.1467 65.1633 53.7453C65.7063 54.33 66.4038 54.6174 67.2559 54.6074C68.108 54.5974 68.7917 54.2938 69.3071 53.6967C69.836 53.0857 70.095 52.3129 70.084 51.3783C70.073 50.4437 69.7961 49.6841 69.2531 49.0994C68.7238 48.5008 68.033 48.2065 67.1809 48.2165ZM81.4986 44.9145C82.7218 44.9002 83.8245 45.1621 84.8068 45.7004C85.7889 46.225 86.5605 46.9651 87.1215 47.9207C87.6825 48.8763 87.9702 49.9589 87.9843 51.1683C87.9985 52.3778 87.7364 53.4667 87.1979 54.4353C86.6595 55.4038 85.9055 56.1618 84.936 56.7092C83.9666 57.2704 82.8703 57.5582 81.6471 57.5725C80.4239 57.5869 79.3212 57.3249 78.3389 56.7866C77.3569 56.2621 76.5853 55.522 76.0242 54.5664C75.4632 53.6107 75.1756 52.5282 75.1614 51.3188C75.1472 50.1093 75.4093 49.0203 75.9478 48.0518C76.4863 47.0833 77.2403 46.3253 78.2098 45.7778C79.1791 45.2166 80.2754 44.9289 81.4986 44.9145ZM81.5354 48.0481C80.6833 48.0581 79.9928 48.3686 79.4638 48.9796C78.9485 49.5767 78.6963 50.3426 78.7073 51.2771C78.7183 52.2117 78.9884 52.9783 79.5178 53.5769C80.0607 54.1616 80.7583 54.449 81.6104 54.439C82.4625 54.429 83.1462 54.1254 83.6615 53.5283C84.1904 52.9173 84.4494 52.1445 84.4385 51.2099C84.4275 50.2753 84.1505 49.5157 83.6076 48.931C83.0782 48.3324 82.3875 48.0381 81.5354 48.0481ZM95.4656 57.4104C94.3249 57.4238 93.3046 57.1609 92.4048 56.6216C91.5052 56.0961 90.8023 55.3552 90.2962 54.3989C89.7902 53.4426 89.5301 52.3598 89.5159 51.1503C89.5017 49.9409 89.7363 48.8522 90.2198 47.8844C90.7033 46.9165 91.3886 46.1593 92.2756 45.6128C93.1625 45.0526 94.1763 44.7658 95.3171 44.7524C96.8701 44.7342 98.0306 45.2291 98.7984 46.2373L98.7225 39.764L102.392 39.7209L102.595 57.0381L98.9256 57.0812L98.9111 55.8442C98.1671 56.8701 97.0186 57.3922 95.4656 57.4104ZM96.0061 54.2701C96.8994 54.2596 97.6106 53.9557 98.1397 53.3584C98.6686 52.7474 98.9276 51.9746 98.9166 51.04C98.9056 50.1055 98.6287 49.3458 98.0858 48.7611C97.5426 48.1627 96.8244 47.8687 95.9311 47.8792C95.0652 47.8894 94.3747 48.1999 93.8595 48.8107C93.3442 49.4078 93.092 50.1737 93.103 51.1083C93.114 52.0428 93.3841 52.8094 93.9135 53.408C94.4427 53.9929 95.1402 54.2802 96.0061 54.2701ZM44.8615 68.2326L39.3983 68.2967L39.5565 81.7794L35.8044 81.8234L35.6463 68.3407L30.1831 68.4048L30.1442 65.0857L44.8225 64.9135L44.8615 68.2326ZM44.9765 69.6333L48.6461 69.5903L48.6606 70.8272C49.4045 69.8013 50.5256 69.2796 52.0236 69.262C52.6833 69.2542 53.2133 69.3168 53.6135 69.4495L53.6951 72.8919C53.1696 72.6231 52.5426 72.493 51.8142 72.5015C50.8384 72.513 50.0718 72.7832 49.5145 73.312C48.9708 73.8407 48.7044 74.5655 48.7152 75.4864L48.7878 81.6711L45.1182 81.7141L44.9765 69.6333ZM60.3643 81.8239C59.2236 81.8373 58.2033 81.5743 57.3035 81.0351C56.4039 80.5095 55.701 79.7686 55.195 78.8124C54.6889 77.8561 54.4288 76.7733 54.4146 75.5638C54.4004 74.3544 54.635 73.2657 55.1185 72.2978C55.602 71.33 56.2873 70.5728 57.1744 70.0263C58.0612 69.4661 59.0751 69.1793 60.2158 69.1659C61.7688 69.1477 62.9293 69.6426 63.6971 70.6508L63.6826 69.4139L67.3522 69.3708L67.4939 81.4516L63.8244 81.4946L63.8098 80.2577C63.0659 81.2836 61.9174 81.8057 60.3643 81.8239ZM60.9048 78.6835C61.7981 78.6731 62.5093 78.3692 63.0384 77.7719C63.5673 77.1609 63.8263 76.3881 63.8153 75.4535C63.8044 74.5189 63.5274 73.7593 62.9845 73.1746C62.4414 72.5762 61.7231 72.2822 60.8298 72.2927C59.9639 72.3028 59.2734 72.6133 58.7583 73.2242C58.2429 73.8213 57.9907 74.5872 58.0017 75.5217C58.0127 76.4563 58.2828 77.2229 58.8122 77.8215C59.3414 78.4063 60.0389 78.6937 60.9048 78.6835ZM82.0254 76.9306C81.7258 78.3362 81.038 79.4645 79.9621 80.3156C78.8863 81.1805 77.5856 81.6218 76.0601 81.6397C74.8369 81.6541 73.7341 81.3921 72.7519 80.8538C71.7698 80.3293 70.9982 79.5892 70.4372 78.6336C69.8761 77.6779 69.5885 76.5954 69.5743 75.386C69.5602 74.1765 69.8223 73.0875 70.3608 72.119C70.8992 71.1505 71.6532 70.3925 72.6227 69.845C73.5921 69.2838 74.6884 68.9961 75.9116 68.9817C76.9423 68.9696 77.8862 69.1647 78.7432 69.5671C79.6 69.9556 80.3073 70.4972 80.8653 71.1916C81.4233 71.8861 81.776 72.6586 81.9234 73.5091L78.2126 73.5527C78.0564 73.1284 77.7776 72.7949 77.3761 72.5522C76.9882 72.2955 76.5125 72.1705 75.9491 72.1771C75.0969 72.1871 74.4132 72.4907 73.8979 73.0878C73.3961 73.671 73.1507 74.423 73.1615 75.3439C73.1723 76.2647 73.4354 77.0176 73.9509 77.6026C74.4799 78.1738 75.1705 78.4543 76.0226 78.4443C76.5861 78.4377 77.0656 78.3015 77.4611 78.0357C77.8703 77.7697 78.1548 77.4159 78.3146 76.9741L82.0254 76.9306ZM89.1357 76.7647L87.6914 78.4311L87.724 81.2142L84.0544 81.2573L83.8513 63.9401L87.5209 63.8971L87.6401 74.0606L91.8497 69.0834L95.9316 69.0355L91.3536 74.2438L96.3208 81.1134L92.1358 81.1625L89.1357 76.7647ZM102.612 81.3282C101.402 81.3424 100.313 81.0803 99.345 80.5418C98.3904 80.0169 97.6394 79.2766 97.0921 78.3208C96.5448 77.365 96.2641 76.2824 96.2499 75.073C96.2357 73.8635 96.491 72.7746 97.0157 71.8063C97.5404 70.8379 98.2738 70.0802 99.2158 69.533C100.171 68.972 101.254 68.6844 102.463 68.6702C103.673 68.656 104.755 68.9182 105.71 69.4569C106.678 69.9816 107.436 70.7218 107.983 71.6776C108.531 72.6334 108.811 73.716 108.825 74.9254C108.83 75.324 108.807 75.716 108.757 76.1015L99.9126 76.2053C100.058 76.9046 100.367 77.4439 100.839 77.8233C101.311 78.2026 101.89 78.3882 102.577 78.3802C103.1 78.3741 103.559 78.2862 103.956 78.1166C104.366 77.9331 104.645 77.6961 104.793 77.4057L108.483 77.3624C108.286 78.1345 107.909 78.8125 107.352 79.3963C106.796 79.9939 106.107 80.4625 105.286 80.802C104.465 81.1415 103.574 81.3169 102.612 81.3282ZM105.224 73.7718C105.065 73.0452 104.749 72.499 104.277 72.1334C103.805 71.7541 103.212 71.5686 102.498 71.577C101.783 71.5854 101.201 71.7847 100.752 72.1748C100.303 72.5512 100.007 73.1045 99.8642 73.8347L105.224 73.7718ZM110.91 68.8598L114.58 68.8167L114.594 70.0536C115.338 69.0277 116.459 68.506 117.958 68.4884C118.617 68.4807 119.147 68.5432 119.547 68.6759L119.629 72.1183C119.103 71.8495 118.477 71.7194 117.748 71.728C116.772 71.7394 116.006 72.0096 115.448 72.5385C114.905 73.0672 114.638 73.7919 114.649 74.7128L114.722 80.8975L111.052 80.9405L110.91 68.8598Z" fill="white"/>
<path d="M40.8671 40.9583L40.8413 38.7629L38.6459 38.7886L38.6717 40.984L40.8671 40.9583ZM43.8564 40.9232L45.7119 39.7495L45.0565 38.7134L43.8306 38.7278L43.8564 40.9232ZM49.7597 50.256L47.9041 51.4296L49.8088 54.4407L51.6422 51.3858L49.7597 50.256ZM55.4424 40.7872L55.4166 38.5918L54.1907 38.6062L53.5598 39.6574L55.4424 40.7872ZM58.4316 40.7522L60.627 40.7264L60.6013 38.531L58.4059 38.5568L58.4316 40.7522ZM58.6288 57.5539L58.6545 59.7493L60.8499 59.7236L60.8242 57.5282L58.6288 57.5539ZM54.8767 57.598L52.6813 57.6237L52.7071 59.8191L54.9025 59.7934L54.8767 57.598ZM54.7686 48.3828L56.964 48.357L56.8715 40.474L52.8759 47.27L54.7686 48.3828ZM50.9479 54.8812L50.9737 57.0766L52.2126 57.062L52.8406 55.9939L50.9479 54.8812ZM48.6802 54.9078L46.8142 56.0647L47.467 57.1177L48.706 57.1032L48.6802 54.9078ZM44.7082 48.5008L46.5742 47.3439L42.4203 40.6436L42.5128 48.5266L44.7082 48.5008ZM44.8163 57.716L44.842 59.9114L47.0374 59.8856L47.0117 57.6902L44.8163 57.716ZM41.0642 57.76L38.8688 57.7858L38.8946 59.9812L41.09 59.9554L41.0642 57.76ZM40.8929 43.1537L43.8821 43.1186L43.8306 38.7278L40.8413 38.7629L40.8929 43.1537ZM42.0009 42.0969L47.9041 51.4296L51.6152 49.0823L45.7119 39.7495L42.0009 42.0969ZM51.6422 51.3858L57.3249 41.9171L53.5598 39.6574L47.8771 49.1261L51.6422 51.3858ZM55.4681 42.9827L58.4574 42.9476L58.4059 38.5568L55.4166 38.5918L55.4681 42.9827ZM56.2362 40.7779L56.4334 57.5797L60.8242 57.5282L60.627 40.7264L56.2362 40.7779ZM58.603 55.3585L54.851 55.4026L54.9025 59.7934L58.6545 59.7493L58.603 55.3585ZM57.0721 57.5722L56.964 48.357L52.5732 48.4085L52.6813 57.6237L57.0721 57.5722ZM52.8759 47.27L49.0553 53.7684L52.8406 55.9939L56.6613 49.4955L52.8759 47.27ZM50.9222 52.6858L48.6545 52.7124L48.706 57.1032L50.9737 57.0766L50.9222 52.6858ZM50.5463 53.7509L46.5742 47.3439L42.8421 49.6577L46.8142 56.0647L50.5463 53.7509ZM42.5128 48.5266L42.6209 57.7418L47.0117 57.6902L46.9036 48.475L42.5128 48.5266ZM44.7905 55.5206L41.0385 55.5646L41.09 59.9554L44.842 59.9114L44.7905 55.5206ZM43.2596 57.7343L43.0625 40.9325L38.6717 40.984L38.8688 57.7858L43.2596 57.7343ZM70.4523 45.8689L69.3972 47.7942L69.4075 47.7999L69.4179 47.8055L70.4523 45.8689ZM72.767 48.0891L70.8737 49.2007L70.8737 49.2007L72.767 48.0891ZM72.8435 54.6037L70.9246 53.5368L70.9246 53.5368L72.8435 54.6037ZM70.5815 56.8776L69.502 54.9658L69.4917 54.9716L69.4815 54.9775L70.5815 56.8776ZM63.9845 56.955L65.0396 55.0296L65.0293 55.024L65.0189 55.0184L63.9845 56.955ZM61.6698 54.7348L63.5631 53.6232L63.5631 53.6232L61.6698 54.7348ZM61.5934 48.2202L59.6744 47.1534L59.6744 47.1534L61.5934 48.2202ZM63.8553 45.9463L64.9349 47.8581L64.9451 47.8523L64.9554 47.8464L63.8553 45.9463ZM65.1094 49.148L63.4494 47.7111L63.4472 47.7135L65.1094 49.148ZM65.1633 53.7453L63.5186 55.1998L63.5363 55.2198L63.5544 55.2393L65.1633 53.7453ZM69.3071 53.6967L67.6471 52.2598L67.6449 52.2622L69.3071 53.6967ZM69.2531 49.0994L67.6084 50.5539L67.6261 50.5739L67.6443 50.5934L69.2531 49.0994ZM67.1699 47.2783C68.0513 47.268 68.776 47.4538 69.3972 47.7942L71.5075 43.9435C70.1642 43.2073 68.6834 42.8692 67.1184 42.8875L67.1699 47.2783ZM69.4179 47.8055C70.045 48.1404 70.5185 48.5957 70.8737 49.2007L74.6604 46.9775C73.8935 45.6713 72.8239 44.6465 71.4867 43.9322L69.4179 47.8055ZM70.8737 49.2007C71.2238 49.7971 71.4244 50.4991 71.4345 51.3625L75.8253 51.311C75.807 49.7554 75.4323 48.2923 74.6604 46.9775L70.8737 49.2007ZM71.4345 51.3625C71.4446 52.2258 71.2606 52.9323 70.9246 53.5368L74.7624 55.6705C75.5032 54.338 75.8435 52.8665 75.8253 51.311L71.4345 51.3625ZM70.9246 53.5368C70.5837 54.1499 70.1209 54.6163 69.502 54.9658L71.661 58.7894C72.9811 58.0441 74.0263 56.9944 74.7624 55.6705L70.9246 53.5368ZM69.4815 54.9775C68.8684 55.3324 68.1483 55.5352 67.2669 55.5456L67.3184 59.9364C68.8834 59.918 70.3558 59.5452 71.6815 58.7777L69.4815 54.9775ZM67.2669 55.5456C66.3855 55.5559 65.6608 55.3701 65.0396 55.0296L62.9293 58.8804C64.2727 59.6166 65.7534 59.9547 67.3184 59.9364L67.2669 55.5456ZM65.0189 55.0184C64.3919 54.6835 63.9183 54.2281 63.5631 53.6232L59.7764 55.8464C60.5433 57.1526 61.6129 58.1774 62.9501 58.8916L65.0189 55.0184ZM63.5631 53.6232C63.213 53.0267 63.0125 52.3248 63.0023 51.4614L58.6115 51.5129C58.6298 53.0685 59.0045 54.5316 59.7764 55.8464L63.5631 53.6232ZM63.0023 51.4614C62.9922 50.5981 63.1762 49.8916 63.5123 49.2871L59.6744 47.1534C58.9336 48.4859 58.5933 49.9574 58.6115 51.5129L63.0023 51.4614ZM63.5123 49.2871C63.8532 48.6739 64.3159 48.2076 64.9349 47.8581L62.7758 44.0344C61.4557 44.7798 60.4105 45.8295 59.6744 47.1534L63.5123 49.2871ZM64.9554 47.8464C65.5684 47.4915 66.2885 47.2887 67.1699 47.2783L67.1184 42.8875C65.5534 42.9059 64.081 43.2787 62.7553 44.0462L64.9554 47.8464ZM67.1552 46.0211C65.7137 46.038 64.4142 46.5965 63.4494 47.7111L66.7694 50.585C66.8624 50.4775 66.9439 50.415 67.2067 50.4119L67.1552 46.0211ZM63.4472 47.7135C62.5193 48.7888 62.1414 50.1057 62.1574 51.4713L66.5482 51.4198C66.5423 50.9162 66.6688 50.7015 66.7715 50.5825L63.4472 47.7135ZM62.1574 51.4713C62.1735 52.8384 62.5824 54.1411 63.5186 55.1998L66.808 52.2909C66.6855 52.1524 66.5541 51.9219 66.5482 51.4198L62.1574 51.4713ZM63.5544 55.2393C64.5501 56.3116 65.8575 56.8195 67.2817 56.8028L67.2301 52.412C66.95 52.4153 66.8624 52.3485 66.7722 52.2513L63.5544 55.2393ZM67.2817 56.8028C68.706 56.7861 70.0068 56.2463 70.9692 55.1312L67.6449 52.2622C67.5766 52.3413 67.51 52.4087 67.2301 52.412L67.2817 56.8028ZM70.9671 55.1337C71.9016 54.0541 72.2956 52.7344 72.2794 51.3526L67.8886 51.4041C67.8943 51.8914 67.7704 52.1173 67.6471 52.2598L70.9671 55.1337ZM72.2794 51.3526C72.2632 49.972 71.8384 48.657 70.862 47.6054L67.6443 50.5934C67.7537 50.7113 67.8829 50.9155 67.8886 51.4041L72.2794 51.3526ZM70.8978 47.645C69.9149 46.5335 68.5972 46.0042 67.1552 46.0211L67.2067 50.4119C67.4689 50.4088 67.5326 50.4682 67.6084 50.5539L70.8978 47.645ZM84.8068 45.7004L83.7516 47.6258L83.762 47.6315L83.7724 47.6371L84.8068 45.7004ZM87.1215 47.9207L85.2281 49.0323L85.2281 49.0323L87.1215 47.9207ZM87.1979 54.4353L85.279 53.3684L85.279 53.3684L87.1979 54.4353ZM84.936 56.7092L83.8564 54.7974L83.8461 54.8032L83.8359 54.8091L84.936 56.7092ZM78.3389 56.7866L79.3941 54.8612L79.3838 54.8556L79.3733 54.85L78.3389 56.7866ZM76.0242 54.5664L77.9176 53.4548L77.9176 53.4548L76.0242 54.5664ZM75.9478 48.0518L74.0289 46.9849L74.0289 46.9849L75.9478 48.0518ZM78.2098 45.7778L79.2893 47.6897L79.2996 47.6839L79.3098 47.6779L78.2098 45.7778ZM79.4638 48.9796L77.8038 47.5427L77.8017 47.5451L79.4638 48.9796ZM79.5178 53.5769L77.8731 55.0314L77.8908 55.0513L77.9089 55.0709L79.5178 53.5769ZM83.6615 53.5283L82.0015 52.0913L81.9994 52.0938L83.6615 53.5283ZM83.6076 48.931L81.9629 50.3855L81.9806 50.4054L81.9987 50.425L83.6076 48.931ZM81.5244 47.1099C82.4058 47.0996 83.1305 47.2854 83.7516 47.6258L85.862 43.7751C84.5186 43.0389 83.0379 42.7008 81.4729 42.7191L81.5244 47.1099ZM83.7724 47.6371C84.3994 47.972 84.873 48.4273 85.2281 49.0323L89.0149 46.8091C88.248 45.5028 87.1784 44.478 85.8412 43.7638L83.7724 47.6371ZM85.2281 49.0323C85.5783 49.6287 85.7788 50.3307 85.7889 51.1941L90.1797 51.1425C90.1615 49.587 89.7868 48.1239 89.0149 46.8091L85.2281 49.0323ZM85.7889 51.1941C85.7991 52.0574 85.6151 52.7639 85.279 53.3684L89.1169 55.5021C89.8577 54.1696 90.198 52.6981 90.1797 51.1425L85.7889 51.1941ZM85.279 53.3684C84.9381 53.9815 84.4754 54.4479 83.8564 54.7974L86.0155 58.621C87.3356 57.8756 88.3808 56.826 89.1169 55.5021L85.279 53.3684ZM83.8359 54.8091C83.2229 55.164 82.5028 55.3668 81.6214 55.3771L81.6729 59.7679C83.2379 59.7496 84.7103 59.3768 86.036 58.6093L83.8359 54.8091ZM81.6214 55.3771C80.74 55.3875 80.0153 55.2017 79.3941 54.8612L77.2838 58.712C78.6271 59.4482 80.1079 59.7863 81.6729 59.7679L81.6214 55.3771ZM79.3733 54.85C78.7463 54.5151 78.2728 54.0597 77.9176 53.4548L74.1309 55.6779C74.8978 56.9842 75.9674 58.009 77.3046 58.7232L79.3733 54.85ZM77.9176 53.4548C77.5674 52.8583 77.3669 52.1563 77.3568 51.293L72.966 51.3445C72.9842 52.9001 73.359 54.3631 74.1309 55.6779L77.9176 53.4548ZM77.3568 51.293C77.3467 50.4296 77.5307 49.7231 77.8667 49.1187L74.0289 46.9849C73.288 48.3175 72.9477 49.789 72.966 51.3445L77.3568 51.293ZM77.8667 49.1187C78.2076 48.5055 78.6703 48.0392 79.2893 47.6897L77.1302 43.866C75.8102 44.6114 74.7649 45.661 74.0289 46.9849L77.8667 49.1187ZM79.3098 47.6779C79.9229 47.323 80.643 47.1203 81.5244 47.1099L81.4729 42.7191C79.9079 42.7375 78.4354 43.1103 77.1097 43.8777L79.3098 47.6779ZM81.5096 45.8527C80.0681 45.8696 78.7686 46.4281 77.8038 47.5427L81.1239 50.4166C81.2169 50.3091 81.2984 50.2466 81.5611 50.2435L81.5096 45.8527ZM77.8017 47.5451C76.8737 48.6204 76.4959 49.9373 76.5119 51.3029L80.9027 51.2514C80.8968 50.7478 81.0233 50.5331 81.126 50.4141L77.8017 47.5451ZM76.5119 51.3029C76.5279 52.67 76.9369 53.9727 77.8731 55.0314L81.1625 52.1225C81.04 51.984 80.9086 51.7534 80.9027 51.2514L76.5119 51.3029ZM77.9089 55.0709C78.9046 56.1432 80.212 56.6511 81.6361 56.6344L81.5846 52.2436C81.3045 52.2468 81.2168 52.1801 81.1267 52.0829L77.9089 55.0709ZM81.6361 56.6344C83.0605 56.6176 84.3613 56.0779 85.3237 54.9628L81.9994 52.0938C81.9311 52.1729 81.8644 52.2403 81.5846 52.2436L81.6361 56.6344ZM85.3215 54.9652C86.256 53.8857 86.6501 52.566 86.6339 51.1842L82.243 51.2357C82.2488 51.7229 82.1248 51.9489 82.0015 52.0913L85.3215 54.9652ZM86.6339 51.1842C86.6177 49.8036 86.1929 48.4885 85.2165 47.437L81.9987 50.425C82.1082 50.5428 82.2373 50.7471 82.243 51.2357L86.6339 51.1842ZM85.2523 47.4765C84.2694 46.3651 82.9516 45.8358 81.5096 45.8527L81.5611 50.2435C81.8233 50.2404 81.8871 50.2998 81.9629 50.3855L85.2523 47.4765ZM92.4048 56.6216L93.5335 54.7384L93.5229 54.732L93.5122 54.7258L92.4048 56.6216ZM90.2962 54.3989L92.2368 53.3719L92.2368 53.3719L90.2962 54.3989ZM90.2198 47.8844L88.2557 46.9032L88.2557 46.9032L90.2198 47.8844ZM92.2756 45.6128L93.4272 47.4821L93.4377 47.4756L93.4482 47.469L92.2756 45.6128ZM98.7984 46.2373L97.0518 47.5676L101.072 52.8457L100.994 46.2116L98.7984 46.2373ZM98.7225 39.764L98.6967 37.5686L96.5013 37.5944L96.5271 39.7898L98.7225 39.764ZM102.392 39.7209L104.587 39.6952L104.562 37.4998L102.366 37.5255L102.392 39.7209ZM102.595 57.0381L102.621 59.2335L104.816 59.2077L104.791 57.0123L102.595 57.0381ZM98.9256 57.0812L96.7302 57.1069L96.756 59.3023L98.9514 59.2766L98.9256 57.0812ZM98.9111 55.8442L101.107 55.8185L101.029 49.1843L97.1337 54.5553L98.9111 55.8442ZM98.1397 53.3584L99.7832 54.8143L99.7915 54.8049L99.7997 54.7954L98.1397 53.3584ZM98.0858 48.7611L96.4599 50.2366L96.4683 50.2459L96.4769 50.2551L98.0858 48.7611ZM93.8595 48.8107L95.5217 50.2452L95.5298 50.2357L95.5379 50.2262L93.8595 48.8107ZM93.9135 53.408L92.2688 54.8625L92.2771 54.8718L92.2855 54.8811L93.9135 53.408ZM95.4398 55.215C94.6685 55.2241 94.0544 55.0506 93.5335 54.7384L91.2761 58.5048C92.5547 59.2711 93.9812 59.6235 95.4913 59.6058L95.4398 55.215ZM93.5122 54.7258C92.9798 54.4148 92.5593 53.9812 92.2368 53.3719L88.3557 55.4259C89.0454 56.7291 90.0305 57.7773 91.2974 58.5174L93.5122 54.7258ZM92.2368 53.3719C91.9126 52.7593 91.7219 52.0265 91.7113 51.1246L87.3205 51.1761C87.3383 52.6931 87.6678 54.126 88.3557 55.4259L92.2368 53.3719ZM91.7113 51.1246C91.7007 50.2227 91.8742 49.4856 92.1839 48.8655L88.2557 46.9032C87.5985 48.2188 87.3027 49.6591 87.3205 51.1761L91.7113 51.1246ZM92.1839 48.8655C92.492 48.2488 92.9023 47.8055 93.4272 47.4821L91.124 43.7435C89.8749 44.5131 88.9146 45.5841 88.2557 46.9032L92.1839 48.8655ZM93.4482 47.469C93.9617 47.1447 94.5715 46.9568 95.3428 46.9478L95.2913 42.557C93.7812 42.5747 92.3634 42.9605 91.1031 43.7566L93.4482 47.469ZM95.3428 46.9478C96.3767 46.9357 96.8006 47.2378 97.0518 47.5676L100.545 44.907C99.2606 43.2205 97.3636 42.5327 95.2913 42.557L95.3428 46.9478ZM100.994 46.2116L100.918 39.7382L96.5271 39.7898L96.603 46.2631L100.994 46.2116ZM98.7482 41.9594L102.418 41.9163L102.366 37.5255L98.6967 37.5686L98.7482 41.9594ZM100.197 39.7467L100.4 57.0639L104.791 57.0123L104.587 39.6952L100.197 39.7467ZM102.569 54.8427L98.8999 54.8858L98.9514 59.2766L102.621 59.2335L102.569 54.8427ZM101.121 57.0554L101.107 55.8185L96.7157 55.87L96.7302 57.1069L101.121 57.0554ZM97.1337 54.5553C96.8904 54.8909 96.4737 55.2029 95.4398 55.215L95.4913 59.6058C97.5636 59.5815 99.4439 58.8494 100.689 57.1332L97.1337 54.5553ZM96.0318 56.4655C97.4623 56.4487 98.7917 55.9335 99.7832 54.8143L96.4962 51.9026C96.4295 51.9779 96.3366 52.0705 95.9803 52.0747L96.0318 56.4655ZM99.7997 54.7954C100.734 53.7158 101.128 52.3962 101.112 51.0143L96.7212 51.0658C96.7269 51.5531 96.603 51.779 96.4797 51.9215L99.7997 54.7954ZM101.112 51.0143C101.096 49.6337 100.671 48.3187 99.6946 47.2672L96.4769 50.2551C96.5863 50.373 96.7155 50.5772 96.7212 51.0658L101.112 51.0143ZM99.7116 47.2856C98.6989 46.1698 97.3527 45.6668 95.9053 45.6838L95.9568 50.0746C96.2962 50.0706 96.3864 50.1556 96.4599 50.2366L99.7116 47.2856ZM95.9053 45.6838C94.4617 45.7007 93.1451 46.2523 92.1812 47.3953L95.5379 50.2262C95.6044 50.1474 95.6687 50.078 95.9568 50.0746L95.9053 45.6838ZM92.1974 47.3762C91.2694 48.4515 90.8916 49.7684 90.9076 51.134L95.2984 51.0825C95.2925 50.5789 95.419 50.3642 95.5217 50.2452L92.1974 47.3762ZM90.9076 51.134C90.9236 52.5011 91.3326 53.8038 92.2688 54.8625L95.5582 51.9536C95.4357 51.8151 95.3043 51.5845 95.2984 51.0825L90.9076 51.134ZM92.2855 54.8811C93.2811 55.9815 94.6057 56.4822 96.0318 56.4655L95.9803 52.0747C95.6747 52.0782 95.6042 52.0042 95.5415 51.9349L92.2855 54.8811ZM44.8615 68.2326L44.8872 70.428L47.0826 70.4023L47.0569 68.2069L44.8615 68.2326ZM39.3983 68.2967L39.3725 66.1013L37.1771 66.1271L37.2029 68.3225L39.3983 68.2967ZM39.5565 81.7794L39.5822 83.9748L41.7777 83.949L41.7519 81.7536L39.5565 81.7794ZM35.8044 81.8234L33.609 81.8491L33.6348 84.0445L35.8302 84.0188L35.8044 81.8234ZM35.6463 68.3407L37.8417 68.315L37.8159 66.1196L35.6205 66.1453L35.6463 68.3407ZM30.1831 68.4048L27.9877 68.4306L28.0135 70.626L30.2089 70.6002L30.1831 68.4048ZM30.1442 65.0857L30.1184 62.8903L27.923 62.9161L27.9488 65.1115L30.1442 65.0857ZM44.8225 64.9135L47.0179 64.8877L46.9922 62.6923L44.7968 62.7181L44.8225 64.9135ZM44.8357 66.0372L39.3725 66.1013L39.4241 70.4921L44.8872 70.428L44.8357 66.0372ZM37.2029 68.3225L37.3611 81.8051L41.7519 81.7536L41.5937 68.271L37.2029 68.3225ZM39.5307 79.584L35.7787 79.628L35.8302 84.0188L39.5822 83.9748L39.5307 79.584ZM37.9998 81.7976L37.8417 68.315L33.4509 68.3665L33.609 81.8491L37.9998 81.7976ZM35.6205 66.1453L30.1573 66.2094L30.2089 70.6002L35.672 70.5361L35.6205 66.1453ZM32.3785 68.3791L32.3396 65.06L27.9488 65.1115L27.9877 68.4306L32.3785 68.3791ZM30.1699 67.2811L44.8483 67.1089L44.7968 62.7181L30.1184 62.8903L30.1699 67.2811ZM42.6271 64.9393L42.6661 68.2584L47.0569 68.2069L47.0179 64.8877L42.6271 64.9393ZM44.9765 69.6333L44.9507 67.4379L42.7553 67.4637L42.7811 69.6591L44.9765 69.6333ZM48.6461 69.5903L50.8415 69.5645L50.8157 67.3691L48.6203 67.3949L48.6461 69.5903ZM48.6606 70.8272L46.4652 70.853L46.543 77.4871L50.438 72.1162L48.6606 70.8272ZM53.6135 69.4495L55.8084 69.3975L55.7718 67.8523L54.3048 67.3657L53.6135 69.4495ZM53.6951 72.8919L52.6954 74.8466L55.9774 76.5251L55.89 72.8398L53.6951 72.8919ZM49.5145 73.312L48.0032 71.7194L47.9934 71.7287L47.9837 71.7381L49.5145 73.312ZM48.7878 81.6711L48.8136 83.8665L51.009 83.8407L50.9832 81.6453L48.7878 81.6711ZM45.1182 81.7141L42.9228 81.7399L42.9486 83.9353L45.144 83.9095L45.1182 81.7141ZM45.0022 71.8287L48.6718 71.7857L48.6203 67.3949L44.9507 67.4379L45.0022 71.8287ZM46.4507 69.616L46.4652 70.853L50.856 70.8015L50.8415 69.5645L46.4507 69.616ZM50.438 72.1162C50.697 71.759 51.1026 71.4685 52.0494 71.4574L51.9979 67.0666C49.9486 67.0906 48.1121 67.8436 46.8832 69.5383L50.438 72.1162ZM52.0494 71.4574C52.587 71.4511 52.8456 71.508 52.9221 71.5334L54.3048 67.3657C53.581 67.1255 52.7797 67.0574 51.9979 67.0666L52.0494 71.4574ZM51.4185 69.5016L51.5002 72.9439L55.89 72.8398L55.8084 69.3975L51.4185 69.5016ZM54.6948 70.9371C53.7862 70.4724 52.791 70.2944 51.7885 70.3061L51.84 74.697C52.2943 74.6916 52.553 74.7738 52.6954 74.8466L54.6948 70.9371ZM51.7885 70.3061C50.4145 70.3223 49.0621 70.7147 48.0032 71.7194L51.0257 74.9047C51.0816 74.8517 51.2624 74.7037 51.84 74.697L51.7885 70.3061ZM47.9837 71.7381C46.9184 72.7742 46.5036 74.1282 46.5198 75.5121L50.9106 75.4606C50.9053 75.0029 51.0233 74.9073 51.0452 74.886L47.9837 71.7381ZM46.5198 75.5121L46.5924 81.6968L50.9832 81.6453L50.9106 75.4606L46.5198 75.5121ZM48.762 79.4757L45.0925 79.5187L45.144 83.9095L48.8136 83.8665L48.762 79.4757ZM47.3136 81.6884L47.1719 69.6076L42.7811 69.6591L42.9228 81.7399L47.3136 81.6884ZM57.3035 81.0351L58.4322 79.1518L58.4216 79.1455L58.4109 79.1393L57.3035 81.0351ZM55.195 78.8124L57.1355 77.7854L57.1355 77.7854L55.195 78.8124ZM55.1185 72.2978L53.1544 71.3167L53.1544 71.3167L55.1185 72.2978ZM57.1744 70.0263L58.326 71.8956L58.3365 71.8891L58.3469 71.8825L57.1744 70.0263ZM63.6971 70.6508L61.9505 71.9811L65.9704 77.2592L65.8925 70.625L63.6971 70.6508ZM63.6826 69.4139L63.6569 67.2185L61.4615 67.2442L61.4872 69.4396L63.6826 69.4139ZM67.3522 69.3708L69.5476 69.345L69.5218 67.1496L67.3264 67.1754L67.3522 69.3708ZM67.4939 81.4516L67.5197 83.647L69.7151 83.6212L69.6893 81.4258L67.4939 81.4516ZM63.8244 81.4946L61.6289 81.5204L61.6547 83.7158L63.8501 83.69L63.8244 81.4946ZM63.8098 80.2577L66.0052 80.2319L65.9274 73.5978L62.0325 78.9688L63.8098 80.2577ZM63.0384 77.7719L64.6819 79.2277L64.6902 79.2183L64.6984 79.2089L63.0384 77.7719ZM62.9845 73.1746L61.3586 74.6501L61.3671 74.6594L61.3756 74.6686L62.9845 73.1746ZM58.7583 73.2242L60.4204 74.6587L60.4286 74.6492L60.4366 74.6397L58.7583 73.2242ZM58.8122 77.8215L57.1675 79.2759L57.1758 79.2853L57.1842 79.2946L58.8122 77.8215ZM60.3385 79.6285C59.5672 79.6375 58.9532 79.4641 58.4322 79.1518L56.1748 82.9183C57.4535 83.6846 58.8799 84.037 60.3901 84.0193L60.3385 79.6285ZM58.4109 79.1393C57.8785 78.8283 57.458 78.3947 57.1355 77.7854L53.2544 79.8394C53.9441 81.1426 54.9292 82.1908 56.1961 82.9309L58.4109 79.1393ZM57.1355 77.7854C56.8113 77.1728 56.6206 76.44 56.61 75.5381L52.2192 75.5896C52.237 77.1066 52.5665 78.5395 53.2544 79.8394L57.1355 77.7854ZM56.61 75.5381C56.5994 74.6361 56.7729 73.8991 57.0827 73.279L53.1544 71.3167C52.4972 72.6323 52.2014 74.0726 52.2192 75.5896L56.61 75.5381ZM57.0827 73.279C57.3907 72.6623 57.801 72.219 58.326 71.8956L56.0227 68.157C54.7736 68.9266 53.8133 69.9976 53.1544 71.3167L57.0827 73.279ZM58.3469 71.8825C58.8604 71.5582 59.4703 71.3703 60.2416 71.3613L60.19 66.9705C58.6799 66.9882 57.2621 67.374 56.0018 68.1701L58.3469 71.8825ZM60.2416 71.3613C61.2754 71.3491 61.6993 71.6513 61.9505 71.9811L65.4438 69.3205C64.1593 67.634 62.2623 66.9462 60.19 66.9705L60.2416 71.3613ZM65.8925 70.625L65.878 69.3881L61.4872 69.4396L61.5017 70.6766L65.8925 70.625ZM63.7084 71.6093L67.378 71.5662L67.3264 67.1754L63.6569 67.2185L63.7084 71.6093ZM65.1568 69.3966L65.2985 81.4773L69.6893 81.4258L69.5476 69.345L65.1568 69.3966ZM67.4682 79.2562L63.7986 79.2992L63.8501 83.69L67.5197 83.647L67.4682 79.2562ZM66.0198 81.4689L66.0052 80.2319L61.6144 80.2835L61.6289 81.5204L66.0198 81.4689ZM62.0325 78.9688C61.7891 79.3044 61.3724 79.6164 60.3385 79.6285L60.3901 84.0193C62.4623 83.995 64.3426 83.2628 65.5872 81.5466L62.0325 78.9688ZM60.9305 80.8789C62.361 80.8622 63.6905 80.347 64.6819 79.2277L61.3949 76.3161C61.3282 76.3914 61.2353 76.484 60.879 76.4881L60.9305 80.8789ZM64.6984 79.2089C65.6329 78.1293 66.0269 76.8096 66.0107 75.4278L61.6199 75.4793C61.6256 75.9666 61.5017 76.1925 61.3784 76.335L64.6984 79.2089ZM66.0107 75.4278C65.9945 74.0472 65.5698 72.7322 64.5933 71.6806L61.3756 74.6686C61.485 74.7865 61.6142 74.9907 61.6199 75.4793L66.0107 75.4278ZM64.6103 71.6991C63.5976 70.5832 62.2514 70.0803 60.804 70.0973L60.8556 74.4881C61.1949 74.4841 61.2851 74.5691 61.3586 74.6501L64.6103 71.6991ZM60.804 70.0973C59.3605 70.1142 58.0438 70.6658 57.0799 71.8087L60.4366 74.6397C60.5031 74.5609 60.5674 74.4915 60.8556 74.4881L60.804 70.0973ZM57.0961 71.7897C56.1682 72.8649 55.7903 74.1819 55.8063 75.5475L60.1971 75.496C60.1912 74.9924 60.3177 74.7777 60.4204 74.6587L57.0961 71.7897ZM55.8063 75.5475C55.8223 76.9146 56.2313 78.2173 57.1675 79.2759L60.4569 76.367C60.3344 76.2285 60.203 75.998 60.1971 75.496L55.8063 75.5475ZM57.1842 79.2946C58.1799 80.395 59.5045 80.8957 60.9305 80.8789L60.879 76.4881C60.5734 76.4917 60.5029 76.4177 60.4402 76.3484L57.1842 79.2946ZM82.0254 76.9306L84.1727 77.3884L84.7452 74.703L81.9997 74.7352L82.0254 76.9306ZM79.9621 80.3156L78.5999 78.5937L78.5931 78.599L78.5864 78.6045L79.9621 80.3156ZM72.7519 80.8538L73.8071 78.9284L73.7967 78.9228L73.7863 78.9172L72.7519 80.8538ZM70.4372 78.6336L72.3306 77.522L72.3306 77.522L70.4372 78.6336ZM70.3608 72.119L68.4418 71.0521L68.4418 71.0521L70.3608 72.119ZM72.6227 69.845L73.7023 71.7569L73.7126 71.7511L73.7228 71.7451L72.6227 69.845ZM78.7432 69.5671L77.8101 71.5545L77.8232 71.5606L77.8363 71.5666L78.7432 69.5671ZM80.8653 71.1916L79.1537 72.5668L79.1537 72.5668L80.8653 71.1916ZM81.9234 73.5091L81.9492 75.7045L84.5271 75.6743L84.0867 73.1341L81.9234 73.5091ZM78.2126 73.5527L76.1522 74.3111L76.6879 75.7662L78.2384 75.7481L78.2126 73.5527ZM77.3761 72.5522L76.1647 74.3833L76.202 74.4079L76.2402 74.431L77.3761 72.5522ZM73.8979 73.0878L72.2357 71.6533L72.2335 71.6559L73.8979 73.0878ZM73.9509 77.6026L72.3035 79.0541L72.3216 79.0746L72.3402 79.0947L73.9509 77.6026ZM77.4611 78.0357L76.2647 76.1947L76.2505 76.204L76.2364 76.2134L77.4611 78.0357ZM78.3146 76.9741L78.2888 74.7787L76.7674 74.7966L76.2499 76.2274L78.3146 76.9741ZM79.8781 76.4728C79.6796 77.4042 79.2547 78.0757 78.5999 78.5937L81.3242 82.0375C82.8212 80.8533 83.772 79.2681 84.1727 77.3884L79.8781 76.4728ZM78.5864 78.6045C77.9344 79.1287 77.1232 79.4316 76.0343 79.4443L76.0858 83.8351C78.048 83.8121 79.8382 83.2323 81.3377 82.0268L78.5864 78.6045ZM76.0343 79.4443C75.1529 79.4547 74.4282 79.2689 73.8071 78.9284L71.6967 82.7792C73.0401 83.5154 74.5208 83.8535 76.0858 83.8351L76.0343 79.4443ZM73.7863 78.9172C73.1593 78.5823 72.6857 78.1269 72.3306 77.522L68.5438 79.7451C69.3107 81.0514 70.3803 82.0762 71.7175 82.7904L73.7863 78.9172ZM72.3306 77.522C71.9804 76.9255 71.7799 76.2235 71.7697 75.3602L67.3789 75.4117C67.3972 76.9673 67.7719 78.4303 68.5438 79.7451L72.3306 77.522ZM71.7697 75.3602C71.7596 74.4968 71.9436 73.7904 72.2797 73.1859L68.4418 71.0521C67.701 72.3847 67.3607 73.8562 67.3789 75.4117L71.7697 75.3602ZM72.2797 73.1859C72.6206 72.5727 73.0833 72.1064 73.7023 71.7569L71.5432 67.9332C70.2231 68.6786 69.1779 69.7282 68.4418 71.0521L72.2797 73.1859ZM73.7228 71.7451C74.3358 71.3902 75.0559 71.1875 75.9373 71.1771L75.8858 66.7863C74.3208 66.8047 72.8484 67.1775 71.5227 67.945L73.7228 71.7451ZM75.9373 71.1771C76.6668 71.1686 77.2789 71.3051 77.8101 71.5545L79.6762 67.5796C78.4935 67.0244 77.2179 66.7707 75.8858 66.7863L75.9373 71.1771ZM77.8363 71.5666C78.3977 71.8212 78.8234 72.1557 79.1537 72.5668L82.5769 69.8165C81.7912 68.8386 80.8022 68.0901 79.65 67.5675L77.8363 71.5666ZM79.1537 72.5668C79.4867 72.9812 79.6783 73.4119 79.7601 73.8841L84.0867 73.1341C83.8737 71.9053 83.3599 70.7911 82.5769 69.8165L79.1537 72.5668ZM81.8977 71.3137L78.1869 71.3572L78.2384 75.7481L81.9492 75.7045L81.8977 71.3137ZM80.273 72.7942C79.9378 71.8837 79.3225 71.1633 78.512 70.6733L76.2402 74.431C76.2499 74.4369 76.23 74.4261 76.2019 74.3926C76.1732 74.3582 76.1577 74.3259 76.1522 74.3111L80.273 72.7942ZM78.5875 70.7211C77.7615 70.1746 76.832 69.9711 75.9233 69.9817L75.9748 74.3726C76.0877 74.3712 76.1484 74.3836 76.1704 74.3894C76.1894 74.3944 76.1824 74.3949 76.1647 74.3833L78.5875 70.7211ZM75.9233 69.9817C74.4989 69.9985 73.1981 70.5382 72.2358 71.6533L75.56 74.5223C75.6283 74.4432 75.695 74.3758 75.9748 74.3726L75.9233 69.9817ZM72.2335 71.6559C71.3173 72.7209 70.9503 74.0251 70.9661 75.3696L75.3569 75.3181C75.351 74.821 75.475 74.6212 75.5623 74.5197L72.2335 71.6559ZM70.9661 75.3696C70.9819 76.7159 71.3797 78.0056 72.3035 79.0541L75.5982 76.1512C75.4911 76.0296 75.3627 75.8135 75.3569 75.3181L70.9661 75.3696ZM72.3402 79.0947C73.3335 80.167 74.6415 80.6562 76.0483 80.6397L75.9968 76.2489C75.6994 76.2524 75.6263 76.1805 75.5615 76.1106L72.3402 79.0947ZM76.0483 80.6397C76.9599 80.629 77.8748 80.4029 78.6858 79.8579L76.2364 76.2134C76.2362 76.2135 76.236 76.2137 76.2355 76.214C76.235 76.2142 76.2339 76.2148 76.2321 76.2157C76.2286 76.2173 76.2202 76.2209 76.2049 76.2252C76.1745 76.2338 76.1092 76.2476 75.9968 76.2489L76.0483 80.6397ZM78.6575 79.8766C79.4508 79.3611 80.0502 78.6306 80.3793 77.7209L76.2499 76.2274C76.2492 76.2296 76.2503 76.2259 76.2545 76.2185C76.2587 76.211 76.2641 76.2028 76.2703 76.1951C76.2765 76.1874 76.281 76.1832 76.2818 76.1824C76.2826 76.1818 76.2777 76.1863 76.2647 76.1947L78.6575 79.8766ZM78.3404 79.1695L82.0512 79.126L81.9997 74.7352L78.2888 74.7787L78.3404 79.1695ZM89.1357 76.7647L90.9495 75.5274L89.3433 73.173L87.4766 75.3267L89.1357 76.7647ZM87.6914 78.4311L86.0323 76.9931L85.4862 77.6232L85.496 78.4569L87.6914 78.4311ZM87.724 81.2142L87.7498 83.4096L89.9452 83.3839L89.9194 81.1885L87.724 81.2142ZM84.0544 81.2573L81.859 81.283L81.8848 83.4784L84.0802 83.4527L84.0544 81.2573ZM83.8513 63.9401L83.8255 61.7447L81.6301 61.7705L81.6559 63.9659L83.8513 63.9401ZM87.5209 63.8971L89.7163 63.8713L89.6905 61.6759L87.4951 61.7017L87.5209 63.8971ZM87.6401 74.0606L85.4447 74.0864L85.5138 79.9745L89.3165 75.4784L87.6401 74.0606ZM91.8497 69.0834L91.824 66.888L90.8211 66.8997L90.1734 67.6655L91.8497 69.0834ZM95.9316 69.0355L97.5807 70.485L100.835 66.7823L95.9059 66.8401L95.9316 69.0355ZM91.3536 74.2438L89.7045 72.7943L88.5477 74.1104L89.5744 75.5303L91.3536 74.2438ZM96.3208 81.1134L96.3465 83.3088L100.582 83.2591L98.0999 79.8269L96.3208 81.1134ZM92.1358 81.1625L90.3221 82.3997L90.9851 83.3717L92.1615 83.3579L92.1358 81.1625ZM87.4766 75.3267L86.0323 76.9931L89.3505 79.8691L90.7948 78.2027L87.4766 75.3267ZM85.496 78.4569L85.5286 81.24L89.9194 81.1885L89.8868 78.4054L85.496 78.4569ZM87.6983 79.0188L84.0287 79.0619L84.0802 83.4527L87.7498 83.4096L87.6983 79.0188ZM86.2498 81.2315L86.0467 63.9144L81.6559 63.9659L81.859 81.283L86.2498 81.2315ZM83.877 66.1355L87.5466 66.0925L87.4951 61.7017L83.8255 61.7447L83.877 66.1355ZM85.3254 63.9228L85.4447 74.0864L89.8355 74.0348L89.7163 63.8713L85.3254 63.9228ZM89.3165 75.4784L93.5261 70.5012L90.1734 67.6655L85.9637 72.6428L89.3165 75.4784ZM91.8755 71.2788L95.9574 71.2309L95.9059 66.8401L91.824 66.888L91.8755 71.2788ZM94.2826 67.586L89.7045 72.7943L93.0026 75.6933L97.5807 70.485L94.2826 67.586ZM89.5744 75.5303L94.5416 82.3998L98.0999 79.8269L93.1327 72.9574L89.5744 75.5303ZM96.295 78.918L92.11 78.9671L92.1615 83.3579L96.3465 83.3088L96.295 78.918ZM93.9495 79.9252L90.9495 75.5274L87.322 78.002L90.3221 82.3997L93.9495 79.9252ZM99.345 80.5418L100.412 78.6229L100.403 78.6179L99.345 80.5418ZM97.0921 78.3208L98.9974 77.2298L98.9974 77.2298L97.0921 78.3208ZM97.0157 71.8063L95.0853 70.7603L95.0853 70.7603L97.0157 71.8063ZM99.2158 69.533L100.319 71.4316L100.327 71.4264L99.2158 69.533ZM105.71 69.4569L104.631 71.3691L104.647 71.3783L104.664 71.3872L105.71 69.4569ZM107.983 71.6776L109.889 70.5866L109.889 70.5866L107.983 71.6776ZM108.757 76.1015L108.783 78.2969L110.687 78.2746L110.934 76.3865L108.757 76.1015ZM99.9126 76.2053L99.8869 74.0099L97.2192 74.0412L97.7632 76.653L99.9126 76.2053ZM100.839 77.8233L99.4631 79.5343L99.4631 79.5343L100.839 77.8233ZM103.956 78.1166L104.819 80.1353L104.836 80.1282L104.852 80.1207L103.956 78.1166ZM104.793 77.4057L104.767 75.2103L103.439 75.2259L102.836 76.4099L104.793 77.4057ZM108.483 77.3624L110.61 77.9056L111.318 75.1335L108.457 75.167L108.483 77.3624ZM107.352 79.3963L105.763 77.8812L105.754 77.8905L105.745 77.9L107.352 79.3963ZM105.286 80.802L106.125 82.8308L106.125 82.8308L105.286 80.802ZM105.224 73.7718L105.25 75.9672L107.948 75.9356L107.369 73.3005L105.224 73.7718ZM104.277 72.1334L102.901 73.8445L102.917 73.8567L102.932 73.8687L104.277 72.1334ZM100.752 72.1748L102.162 73.8576L102.177 73.845L102.192 73.8322L100.752 72.1748ZM99.8642 73.8347L97.7094 73.4138L97.1921 76.0618L99.89 76.0301L99.8642 73.8347ZM102.586 79.1328C101.723 79.1429 101.016 78.959 100.412 78.6229L98.2781 82.4607C99.6107 83.2016 101.082 83.5419 102.638 83.5236L102.586 79.1328ZM100.403 78.6179C99.806 78.2897 99.3465 77.8394 98.9974 77.2298L95.1868 79.4118C95.9323 80.7138 96.9748 81.7441 98.2871 82.4657L100.403 78.6179ZM98.9974 77.2298C98.6538 76.6298 98.4555 75.9203 98.4453 75.0472L94.0545 75.0987C94.0726 76.6446 94.4358 78.1003 95.1868 79.4118L98.9974 77.2298ZM98.4453 75.0472C98.435 74.1741 98.6166 73.4602 98.9461 72.8523L95.0853 70.7603C94.3653 72.089 94.0363 73.5529 94.0545 75.0987L98.4453 75.0472ZM98.9461 72.8523C99.2807 72.2347 99.7295 71.7737 100.318 71.4316L98.1131 67.6345C96.818 68.3867 95.8001 69.4412 95.0853 70.7603L98.9461 72.8523ZM100.327 71.4264C100.924 71.0762 101.626 70.8757 102.489 70.8656L102.438 66.4748C100.882 66.493 99.419 66.8678 98.1042 67.6397L100.327 71.4264ZM102.489 70.8656C103.353 70.8555 104.047 71.0397 104.631 71.3691L106.789 67.5446C105.463 66.7968 103.993 66.4566 102.438 66.4748L102.489 70.8656ZM104.664 71.3872C105.273 71.7175 105.733 72.1671 106.078 72.7686L109.889 70.5866C109.138 69.2766 108.083 68.2457 106.756 67.5265L104.664 71.3872ZM106.078 72.7686C106.422 73.3686 106.62 74.0781 106.63 74.9512L111.021 74.8997C111.003 73.3539 110.64 71.8981 109.889 70.5866L106.078 72.7686ZM106.63 74.9512C106.634 75.2485 106.616 75.5366 106.58 75.8165L110.934 76.3865C110.998 75.8954 111.027 75.3995 111.021 74.8997L106.63 74.9512ZM108.731 73.9061L99.8869 74.0099L99.9384 78.4007L108.783 78.2969L108.731 73.9061ZM97.7632 76.653C97.9931 77.7566 98.5261 78.781 99.4631 79.5343L102.215 76.1122C102.208 76.1069 102.124 76.0526 102.062 75.7576L97.7632 76.653ZM99.4631 79.5343C100.385 80.2756 101.48 80.5888 102.603 80.5756L102.552 76.1848C102.301 76.1877 102.236 76.1296 102.215 76.1122L99.4631 79.5343ZM102.603 80.5756C103.354 80.5668 104.108 80.4394 104.819 80.1353L103.092 76.0978C103.01 76.133 102.845 76.1813 102.552 76.1848L102.603 80.5756ZM104.852 80.1207C105.549 79.8092 106.301 79.2826 106.749 78.4016L102.836 76.4099C102.989 76.1096 103.183 76.057 103.059 76.1124L104.852 80.1207ZM104.818 79.6011L108.509 79.5578L108.457 75.167L104.767 75.2103L104.818 79.6011ZM106.356 76.8193C106.253 77.2218 106.063 77.5663 105.763 77.8812L108.941 80.9115C109.754 80.0587 110.319 79.0472 110.61 77.9056L106.356 76.8193ZM105.745 77.9C105.422 78.2475 105.002 78.5434 104.447 78.7732L106.125 82.8308C107.211 82.3816 108.169 81.7404 108.959 80.8927L105.745 77.9ZM104.447 78.7732C103.905 78.9973 103.292 79.1245 102.586 79.1328L102.638 83.5236C103.856 83.5093 105.026 83.2857 106.125 82.8308L104.447 78.7732ZM107.369 73.3005C107.127 72.1995 106.593 71.1502 105.622 70.3982L102.932 73.8687C102.934 73.8699 102.936 73.8718 102.94 73.8765C102.944 73.8813 102.954 73.8932 102.967 73.916C102.994 73.9623 103.04 74.0618 103.08 74.2432L107.369 73.3005ZM105.653 70.4224C104.715 69.6685 103.599 69.3684 102.472 69.3816L102.523 73.7724C102.825 73.7689 102.896 73.8397 102.901 73.8445L105.653 70.4224ZM102.472 69.3816C101.346 69.3948 100.229 69.7205 99.3119 70.5175L102.192 73.8322C102.196 73.829 102.204 73.821 102.236 73.8099C102.274 73.797 102.362 73.7743 102.523 73.7724L102.472 69.3816ZM99.3418 70.492C98.4132 71.2701 97.9219 72.3257 97.7094 73.4138L102.019 74.2556C102.056 74.0665 102.101 73.9595 102.129 73.9075C102.143 73.882 102.153 73.8687 102.157 73.8633C102.159 73.8605 102.161 73.859 102.161 73.8584C102.162 73.8579 102.162 73.8577 102.162 73.8576L99.3418 70.492ZM99.89 76.0301L105.25 75.9672L105.199 71.5764L99.8385 71.6393L99.89 76.0301ZM110.91 68.8598L110.885 66.6644L108.689 66.6901L108.715 68.8855L110.91 68.8598ZM114.58 68.8167L116.775 68.7909L116.75 66.5955L114.554 66.6213L114.58 68.8167ZM114.594 70.0536L112.399 70.0794L112.477 76.7135L116.372 71.3426L114.594 70.0536ZM119.547 68.6759L121.742 68.6239L121.706 67.0787L120.239 66.5921L119.547 68.6759ZM119.629 72.1183L118.629 74.073L121.911 75.7515L121.824 72.0662L119.629 72.1183ZM115.448 72.5385L113.937 70.9458L113.927 70.9551L113.918 70.9645L115.448 72.5385ZM114.722 80.8975L114.747 83.0929L116.943 83.0671L116.917 80.8717L114.722 80.8975ZM111.052 80.9405L108.857 80.9663L108.882 83.1617L111.078 83.1359L111.052 80.9405ZM110.936 71.0552L114.606 71.0121L114.554 66.6213L110.885 66.6644L110.936 71.0552ZM112.385 68.8425L112.399 70.0794L116.79 70.0279L116.775 68.7909L112.385 68.8425ZM116.372 71.3426C116.631 70.9854 117.036 70.6949 117.983 70.6838L117.932 66.293C115.882 66.3171 114.046 67.07 112.817 68.7647L116.372 71.3426ZM117.983 70.6838C118.521 70.6775 118.779 70.7344 118.856 70.7598L120.239 66.5921C119.515 66.3519 118.714 66.2838 117.932 66.293L117.983 70.6838ZM117.352 68.728L117.434 72.1703L121.824 72.0662L121.742 68.6239L117.352 68.728ZM120.629 70.1635C119.72 69.6989 118.725 69.5208 117.722 69.5326L117.774 73.9234C118.228 73.918 118.487 74.0002 118.629 74.073L120.629 70.1635ZM117.722 69.5326C116.348 69.5487 114.996 69.9411 113.937 70.9458L116.96 74.1311C117.015 74.0781 117.196 73.9302 117.774 73.9234L117.722 69.5326ZM113.918 70.9645C112.852 72.0006 112.437 73.3546 112.454 74.7385L116.845 74.687C116.839 74.2293 116.957 74.1337 116.979 74.1124L113.918 70.9645ZM112.454 74.7385L112.526 80.9232L116.917 80.8717L116.845 74.687L112.454 74.7385ZM114.696 78.7021L111.026 78.7451L111.078 83.1359L114.747 83.0929L114.696 78.7021ZM113.248 80.9148L113.106 68.834L108.715 68.8855L108.857 80.9663L113.248 80.9148Z" fill="#9E73FF" mask="url(#path-11-outside-1_433_504)"/>
<defs>
<filter id="filter0_i_433_504" x="1.87891" y="40.3086" width="141.493" height="41.9594" filterUnits="userSpaceOnUse" color-interpolation-filters="sRGB">
<feFlood flood-opacity="0" result="BackgroundImageFix"/>
<feBlend mode="normal" in="SourceGraphic" in2="BackgroundImageFix" result="shape"/>
<feColorMatrix in="SourceAlpha" type="matrix" values="0 0 0 0 0 0 0 0 0 0 0 0 0 0 0 0 0 0 127 0" result="hardAlpha"/>
<feOffset dx="7.26155" dy="-1.81539"/>
<feGaussianBlur stdDeviation="0.998463"/>
<feComposite in2="hardAlpha" operator="arithmetic" k2="-1" k3="1"/>
<feColorMatrix type="matrix" values="0 0 0 0 0.719889 0 0 0 0 0.719889 0 0 0 0 0.719889 0 0 0 0.4 0"/>
<feBlend mode="normal" in2="shape" result="effect1_innerShadow_433_504"/>
</filter>
<filter id="filter1_d_433_504" x="112.139" y="30.7147" width="56.3211" height="44.6433" filterUnits="userSpaceOnUse" color-interpolation-filters="sRGB">
<feFlood flood-opacity="0" result="BackgroundImageFix"/>
<feColorMatrix in="SourceAlpha" type="matrix" values="0 0 0 0 0 0 0 0 0 0 0 0 0 0 0 0 0 0 127 0" result="hardAlpha"/>
<feOffset dx="34.4924" dy="1.81539"/>
<feGaussianBlur stdDeviation="9.89386"/>
<feComposite in2="hardAlpha" operator="out"/>
<feColorMatrix type="matrix" values="0 0 0 0 0 0 0 0 0 0 0 0 0 0 0 0 0 0 0.85 0"/>
<feBlend mode="normal" in2="BackgroundImageFix" result="effect1_dropShadow_433_504"/>
<feBlend mode="normal" in="SourceGraphic" in2="effect1_dropShadow_433_504" result="shape"/>
</filter>
<filter id="filter2_i_433_504" x="112.299" y="40.3067" width="31.0751" height="13.0747" filterUnits="userSpaceOnUse" color-interpolation-filters="sRGB">
<feFlood flood-opacity="0" result="BackgroundImageFix"/>
<feBlend mode="normal" in="SourceGraphic" in2="BackgroundImageFix" result="shape"/>
<feColorMatrix in="SourceAlpha" type="matrix" values="0 0 0 0 0 0 0 0 0 0 0 0 0 0 0 0 0 0 127 0" result="hardAlpha"/>
<feOffset dx="7.26155" dy="-1.81539"/>
<feGaussianBlur stdDeviation="0.998463"/>
<feComposite in2="hardAlpha" operator="arithmetic" k2="-1" k3="1"/>
<feColorMatrix type="matrix" values="0 0 0 0 0.719889 0 0 0 0 0.719889 0 0 0 0 0.719889 0 0 0 0.4 0"/>
<feBlend mode="normal" in2="shape" result="effect1_innerShadow_433_504"/>
</filter>
</defs>
</svg>
