<svg width="31" height="44" viewBox="0 0 31 44" fill="none" xmlns="http://www.w3.org/2000/svg">
<path fill-rule="evenodd" clip-rule="evenodd" d="M10.0706 18.6027H5C2.23858 18.6027 0 20.8413 0 23.6027V38.6412C0 41.4026 2.23858 43.6412 5 43.6412H26C28.7614 43.6412 31 41.4026 31 38.6412V23.6027C31 20.8413 28.7614 18.6027 26 18.6027H21.0767L15.4505 11L10.0706 18.6027Z" fill="#855CF8"/>
<path d="M9.38086 32.9167V31.9095L11.9707 27.8724H13.5703V31.8926H14.349V32.9167H13.5703V34H12.36V32.9167H9.38086ZM10.6673 31.8926H12.377V29.2689H12.3177L10.6673 31.8418V31.8926ZM21.416 27.0768V31.5286H20.3411V29.7344H19.1224V28.8542H20.3411V27.0768H21.416ZM21.416 31.8503V34.694H16.2363V31.8503H21.416ZM17.3197 32.6966V33.8307H20.3581V32.6966H17.3197ZM19.3678 27.4661V28.3379H17.8359C17.8529 29.2139 18.3988 30.1491 19.6048 30.5469L19.0716 31.4017C18.2168 31.1182 17.6286 30.5596 17.2943 29.8613C16.9515 30.6315 16.3379 31.2451 15.4323 31.5371L14.8822 30.6908C16.1263 30.293 16.7061 29.3112 16.7357 28.3379H15.1868V27.4661H19.3678Z" fill="white"/>
<path d="M12.5234 8.07812C11.3437 8.07812 10.4844 7.38281 10.4609 6.40625H11.6016C11.625 6.85156 12.0312 7.14844 12.5234 7.14844C13.1094 7.14844 13.5234 6.73438 13.5234 6.14844C13.5234 5.54688 13.1016 5.13281 12.5078 5.125C12.0859 5.125 11.7891 5.28125 11.6172 5.60156H10.5547L10.8594 2.34375H14.3437V3.30469H11.8281L11.6719 4.73438H11.7187C11.9297 4.45313 12.3516 4.25781 12.8516 4.25781C13.8906 4.25781 14.6641 5.03125 14.6641 6.11719C14.6641 7.25781 13.7969 8.07812 12.5234 8.07812ZM21.25 1.61719V5.73438H20.25V5.50781H18.9609V4.90625H20.25V1.61719H21.25ZM15.2266 4.11719C16.6016 4.125 18.3047 4.10938 19.8281 3.96875L19.875 4.58594C19.2461 4.67188 18.6016 4.72656 17.9687 4.75781V5.75H16.9844V4.79688C16.4023 4.8125 15.8437 4.8125 15.3281 4.80469L15.2266 4.11719ZM21.25 5.94531V7.60938H17.25V7.97656H21.4141V8.67187H16.2734V6.96875H20.2578V6.61719H16.2422V5.94531H21.25ZM17.5156 1.71094C18.5703 1.71094 19.2969 2.14063 19.3047 2.78125C19.2969 3.44531 18.5703 3.84375 17.5156 3.84375C16.4297 3.84375 15.7109 3.44531 15.7109 2.78125C15.7109 2.14063 16.4297 1.71094 17.5156 1.71094ZM17.5156 2.36719C16.9766 2.35938 16.6484 2.52344 16.6562 2.78125C16.6484 3.04688 16.9766 3.19531 17.5156 3.19531C18.0391 3.19531 18.375 3.04688 18.375 2.78125C18.375 2.52344 18.0391 2.35938 17.5156 2.36719Z" fill="#855CF8"/>
</svg>
