<svg width="207" height="72" viewBox="0 0 207 72" fill="none" xmlns="http://www.w3.org/2000/svg">
<g filter="url(#filter0_d_782_1760)">
<rect x="3.18359" width="66.2116" height="66.2116" rx="19.8635" fill="white"/>
<g clip-path="url(#clip0_782_1760)">
<path d="M41.0394 12.8213H32.3727C24.8448 12.8213 18.7422 18.9239 18.7422 26.4518V39.8701C18.7422 47.398 24.8448 53.5006 32.3727 53.5006H41.0394C48.5673 53.5006 54.6699 47.398 54.6699 39.8701V26.4518C54.6699 18.9239 48.5673 12.8213 41.0394 12.8213Z" fill="#CDF3FF" stroke="black" stroke-width="0.606068" stroke-miterlimit="10"/>
<path d="M24.5488 20.1903C24.5488 20.1903 35.1247 27.1055 48.5006 19.3721" stroke="#0C0C0C" stroke-width="0.606068" stroke-miterlimit="10" stroke-linecap="round"/>
<path d="M30.1979 19.6045V16.0668H31.3933C31.6708 16.0668 31.8977 16.1169 32.0739 16.2171C32.2512 16.3161 32.3825 16.4503 32.4677 16.6196C32.5529 16.7889 32.5955 16.9777 32.5955 17.1861C32.5955 17.3946 32.5529 17.584 32.4677 17.7545C32.3836 17.9249 32.2535 18.0608 32.0773 18.1621C31.9011 18.2623 31.6754 18.3124 31.4002 18.3124H30.5434V17.9324H31.3864C31.5764 17.9324 31.729 17.8996 31.8441 17.8339C31.9593 17.7683 32.0428 17.6796 32.0946 17.5679C32.1476 17.455 32.1741 17.3278 32.1741 17.1861C32.1741 17.0445 32.1476 16.9178 32.0946 16.8061C32.0428 16.6944 31.9587 16.6069 31.8424 16.5436C31.7261 16.4791 31.5718 16.4468 31.3795 16.4468H30.6263V19.6045H30.1979ZM33.2304 19.6045V16.9512H33.6242V17.352H33.6518C33.7002 17.2207 33.7877 17.1142 33.9144 17.0324C34.0411 16.9506 34.1839 16.9098 34.3428 16.9098C34.3727 16.9098 34.4102 16.9103 34.4551 16.9115C34.5 16.9126 34.534 16.9144 34.557 16.9167V17.3313C34.5432 17.3278 34.5115 17.3226 34.462 17.3157C34.4136 17.3076 34.3624 17.3036 34.3082 17.3036C34.1793 17.3036 34.0641 17.3307 33.9628 17.3848C33.8626 17.4378 33.7831 17.5115 33.7244 17.6059C33.6668 17.6992 33.638 17.8057 33.638 17.9255V19.6045H33.2304ZM36.0374 19.6598C35.7978 19.6598 35.5877 19.6028 35.4069 19.4888C35.2272 19.3747 35.0867 19.2153 34.9854 19.0103C34.8852 18.8053 34.8351 18.5658 34.8351 18.2917C34.8351 18.0153 34.8852 17.774 34.9854 17.5679C35.0867 17.3618 35.2272 17.2017 35.4069 17.0877C35.5877 16.9737 35.7978 16.9167 36.0374 16.9167C36.2769 16.9167 36.4865 16.9737 36.6661 17.0877C36.8469 17.2017 36.9874 17.3618 37.0876 17.5679C37.1889 17.774 37.2396 18.0153 37.2396 18.2917C37.2396 18.5658 37.1889 18.8053 37.0876 19.0103C36.9874 19.2153 36.8469 19.3747 36.6661 19.4888C36.4865 19.6028 36.2769 19.6598 36.0374 19.6598ZM36.0374 19.2936C36.2193 19.2936 36.369 19.2469 36.4865 19.1536C36.6039 19.0604 36.6909 18.9377 36.7473 18.7857C36.8037 18.6337 36.832 18.469 36.832 18.2917C36.832 18.1143 36.8037 17.9491 36.7473 17.7959C36.6909 17.6428 36.6039 17.519 36.4865 17.4245C36.369 17.3301 36.2193 17.2829 36.0374 17.2829C35.8554 17.2829 35.7057 17.3301 35.5882 17.4245C35.4708 17.519 35.3838 17.6428 35.3274 17.7959C35.271 17.9491 35.2428 18.1143 35.2428 18.2917C35.2428 18.469 35.271 18.6337 35.3274 18.7857C35.3838 18.9377 35.4708 19.0604 35.5882 19.1536C35.7057 19.2469 35.8554 19.2936 36.0374 19.2936ZM39.534 18.5197V16.9512H39.9417V19.6045H39.534V19.1554H39.5064C39.4442 19.2901 39.3475 19.4047 39.2162 19.4991C39.0849 19.5924 38.9191 19.639 38.7187 19.639C38.5529 19.639 38.4055 19.6028 38.2765 19.5302C38.1475 19.4565 38.0462 19.346 37.9725 19.1986C37.8988 19.05 37.8619 18.8629 37.8619 18.6372V16.9512H38.2696V18.6095C38.2696 18.803 38.3237 18.9573 38.4319 19.0725C38.5413 19.1876 38.6807 19.2452 38.85 19.2452C38.9513 19.2452 39.0544 19.2193 39.1592 19.1675C39.2651 19.1156 39.3538 19.0362 39.4252 18.9291C39.4977 18.822 39.534 18.6855 39.534 18.5197ZM41.6902 19.6598C41.4691 19.6598 41.2739 19.6039 41.1046 19.4922C40.9354 19.3794 40.8029 19.2204 40.7073 19.0155C40.6118 18.8093 40.564 18.5658 40.564 18.2848C40.564 18.0061 40.6118 17.7642 40.7073 17.5593C40.8029 17.3543 40.9359 17.1959 41.1064 17.0842C41.2768 16.9725 41.4737 16.9167 41.6971 16.9167C41.8699 16.9167 42.0063 16.9455 42.1065 17.003C42.2079 17.0595 42.285 17.124 42.338 17.1965C42.3921 17.2679 42.4342 17.3266 42.4641 17.3727H42.4986V16.0668H42.9063V19.6045H42.5125V19.1968H42.4641C42.4342 19.2452 42.3916 19.3062 42.3363 19.3799C42.281 19.4525 42.2021 19.5175 42.0996 19.5751C41.9971 19.6316 41.8607 19.6598 41.6902 19.6598ZM41.7455 19.2936C41.909 19.2936 42.0472 19.251 42.1601 19.1657C42.2729 19.0794 42.3587 18.9602 42.4175 18.8082C42.4762 18.655 42.5056 18.4782 42.5056 18.2779C42.5056 18.0798 42.4768 17.9065 42.4192 17.7579C42.3616 17.6082 42.2764 17.4919 42.1635 17.409C42.0507 17.3249 41.9113 17.2829 41.7455 17.2829C41.5728 17.2829 41.4288 17.3272 41.3137 17.4159C41.1997 17.5034 41.1139 17.6226 41.0563 17.7735C40.9999 17.9232 40.9716 18.0913 40.9716 18.2779C40.9716 18.4667 41.0004 18.6383 41.058 18.7926C41.1167 18.9458 41.2031 19.0679 41.3171 19.1588C41.4323 19.2487 41.5751 19.2936 41.7455 19.2936Z" fill="black"/>
<path d="M27.8223 29.9844C27.8223 29.9844 30.2362 36.4359 33.2828 29.4583" stroke="black" stroke-width="0.606068" stroke-miterlimit="10" stroke-linecap="round"/>
<path d="M39.0098 29.9844C39.0098 29.9844 41.4237 36.4359 44.4703 29.4583" stroke="black" stroke-width="0.606068" stroke-miterlimit="10" stroke-linecap="round"/>
<path d="M30.7363 36.4922C30.7363 36.4922 33.8758 57.0758 41.1136 36.8069" stroke="black" stroke-width="0.606068" stroke-miterlimit="10" stroke-linecap="round"/>
<path d="M38.0051 34.7588C35.5459 34.5426 30.4168 34.0129 29.5736 33.6238C28.5197 33.1373 34.0326 36.5424 36.7079 36.4613" stroke="black" stroke-width="0.241104"/>
</g>
</g>
<g filter="url(#filter1_d_782_1760)">
<rect x="70.3945" width="66.2116" height="66.2116" rx="19.8635" fill="white"/>
<g clip-path="url(#clip1_782_1760)">
<path d="M107.354 14.8389H99.5274C92.7295 14.8389 87.2188 20.3496 87.2188 27.1475V39.2646C87.2188 46.0624 92.7295 51.5732 99.5274 51.5732H107.354C114.152 51.5732 119.662 46.0624 119.662 39.2646V27.1475C119.662 20.3496 114.152 14.8389 107.354 14.8389Z" fill="#E2E2E2" stroke="black" stroke-width="0.547293" stroke-miterlimit="10"/>
<path d="M92.627 20.6353C92.627 20.6353 102.177 26.8799 114.256 19.8965" stroke="#0C0C0C" stroke-width="0.547293" stroke-miterlimit="10" stroke-linecap="round"/>
<path d="M96.4634 32.885C96.8412 32.885 97.1475 32.1303 97.1475 31.1993C97.1475 30.2684 96.8412 29.5137 96.4634 29.5137C96.0856 29.5137 95.7793 30.2684 95.7793 31.1993C95.7793 32.1303 96.0856 32.885 96.4634 32.885Z" fill="black"/>
<path d="M94.9707 29.6387H98.1395" stroke="black" stroke-width="0.273647" stroke-miterlimit="10" stroke-linecap="round"/>
<path d="M94.9707 38.3301H109.923" stroke="black" stroke-width="0.547293" stroke-miterlimit="10" stroke-linecap="round"/>
<path d="M107.924 32.885C108.302 32.885 108.608 32.1303 108.608 31.1993C108.608 30.2684 108.302 29.5137 107.924 29.5137C107.547 29.5137 107.24 30.2684 107.24 31.1993C107.24 32.1303 107.547 32.885 107.924 32.885Z" fill="black"/>
<path d="M106.424 29.6387H109.598" stroke="black" stroke-width="0.273647" stroke-miterlimit="10" stroke-linecap="round"/>
<path d="M100.02 17.1286V20.3232H99.6329V17.1286H100.02ZM101.781 20.3232H100.795V17.1286H101.825C102.135 17.1286 102.4 17.1926 102.62 17.3205C102.841 17.4474 103.01 17.6299 103.127 17.868C103.245 18.1051 103.304 18.389 103.304 18.7197C103.304 19.0525 103.244 19.339 103.126 19.5792C103.007 19.8184 102.835 20.0024 102.608 20.1314C102.381 20.2593 102.106 20.3232 101.781 20.3232ZM101.182 19.9801H101.756C102.02 19.9801 102.239 19.9291 102.413 19.8272C102.587 19.7253 102.716 19.5802 102.801 19.392C102.887 19.2038 102.929 18.9797 102.929 18.7197C102.929 18.4618 102.887 18.2398 102.803 18.0536C102.719 17.8664 102.593 17.7229 102.426 17.6231C102.258 17.5222 102.05 17.4718 101.8 17.4718H101.182V19.9801ZM103.953 20.3232V17.1286H104.339V18.7135H104.377L105.812 17.1286H106.317L104.976 18.5699L106.317 20.3232H105.849L104.739 18.8382L104.339 19.2875V20.3232H103.953Z" fill="black"/>
</g>
</g>
<g filter="url(#filter2_d_782_1760)">
<rect x="137.607" width="66.2116" height="66.2116" rx="19.8635" fill="white"/>
<g clip-path="url(#clip2_782_1760)">
<path d="M174.95 12.6348H166.283C158.755 12.6348 152.652 18.7373 152.652 26.2652V39.6836C152.652 47.2115 158.755 53.314 166.283 53.314H174.95C182.477 53.314 188.58 47.2115 188.58 39.6836V26.2652C188.58 18.7373 182.477 12.6348 174.95 12.6348Z" fill="#FFF9D7" stroke="black" stroke-width="0.606068" stroke-miterlimit="10"/>
<path d="M158.645 20.1883C158.645 20.1883 169.22 27.1035 182.596 19.3701" stroke="#0C0C0C" stroke-width="0.606068" stroke-miterlimit="10" stroke-linecap="round"/>
<path d="M162.673 19.2773V15.7397H164.808V16.1197H163.101V17.315H164.697V17.6951H163.101V18.8973H164.835V19.2773H162.673ZM165.828 16.6241L166.464 17.7089L167.1 16.6241H167.57L166.713 17.9507L167.57 19.2773H167.1L166.464 18.2478L165.828 19.2773H165.359L166.202 17.9507L165.359 16.6241H165.828ZM169.12 19.3326C168.871 19.3326 168.657 19.2739 168.477 19.1564C168.298 19.039 168.16 18.8772 168.063 18.671C167.966 18.4649 167.918 18.2294 167.918 17.9645C167.918 17.6951 167.967 17.4573 168.066 17.2511C168.166 17.0438 168.306 16.882 168.484 16.7657C168.664 16.6483 168.874 16.5895 169.113 16.5895C169.3 16.5895 169.468 16.6241 169.617 16.6932C169.767 16.7623 169.89 16.859 169.985 16.9834C170.081 17.1077 170.14 17.2528 170.163 17.4187H169.756C169.725 17.2978 169.655 17.1907 169.548 17.0974C169.442 17.003 169.3 16.9557 169.12 16.9557C168.961 16.9557 168.822 16.9972 168.702 17.0801C168.583 17.1619 168.491 17.2776 168.424 17.4273C168.358 17.5759 168.325 17.7503 168.325 17.9507C168.325 18.1557 168.358 18.3342 168.422 18.4862C168.488 18.6382 168.58 18.7562 168.699 18.8403C168.818 18.9244 168.959 18.9664 169.12 18.9664C169.226 18.9664 169.322 18.948 169.408 18.9111C169.495 18.8743 169.568 18.8213 169.628 18.7522C169.688 18.6831 169.73 18.6002 169.756 18.5035H170.163C170.14 18.6601 170.083 18.8012 169.992 18.9267C169.903 19.0511 169.783 19.1501 169.635 19.2238C169.487 19.2963 169.316 19.3326 169.12 19.3326ZM170.759 19.2773V16.6241H171.167V19.2773H170.759ZM170.967 16.1819C170.887 16.1819 170.819 16.1548 170.761 16.1007C170.705 16.0466 170.676 15.9815 170.676 15.9055C170.676 15.8295 170.705 15.7644 170.761 15.7103C170.819 15.6562 170.887 15.6291 170.967 15.6291C171.046 15.6291 171.114 15.6562 171.17 15.7103C171.228 15.7644 171.257 15.8295 171.257 15.9055C171.257 15.9815 171.228 16.0466 171.17 16.1007C171.114 16.1548 171.046 16.1819 170.967 16.1819ZM173.068 16.6241V16.9696H171.693V16.6241H173.068ZM172.093 15.9884H172.501V18.5173C172.501 18.6325 172.518 18.7188 172.551 18.7764C172.586 18.8328 172.629 18.8708 172.682 18.8904C172.736 18.9088 172.793 18.918 172.853 18.918C172.898 18.918 172.935 18.9157 172.964 18.9111C172.993 18.9054 173.016 18.9008 173.033 18.8973L173.116 19.2635C173.088 19.2739 173.05 19.2843 173 19.2946C172.951 19.3061 172.888 19.3119 172.812 19.3119C172.697 19.3119 172.584 19.2871 172.473 19.2376C172.364 19.1881 172.273 19.1127 172.2 19.0113C172.129 18.91 172.093 18.7822 172.093 18.6278V15.9884ZM174.765 19.3326C174.509 19.3326 174.288 19.2762 174.103 19.1633C173.919 19.0493 173.777 18.8904 173.676 18.6866C173.577 18.4816 173.528 18.2432 173.528 17.9714C173.528 17.6997 173.577 17.4601 173.676 17.2528C173.777 17.0444 173.916 16.882 174.094 16.7657C174.274 16.6483 174.484 16.5895 174.723 16.5895C174.861 16.5895 174.998 16.6126 175.133 16.6586C175.267 16.7047 175.39 16.7795 175.501 16.8832C175.611 16.9857 175.699 17.1216 175.765 17.2908C175.83 17.4601 175.863 17.6686 175.863 17.9162V18.0889H173.818V17.7365H175.449C175.449 17.5868 175.419 17.4532 175.359 17.3358C175.3 17.2183 175.216 17.1256 175.107 17.0577C174.998 16.9897 174.871 16.9557 174.723 16.9557C174.561 16.9557 174.42 16.996 174.302 17.0767C174.184 17.1561 174.094 17.2598 174.031 17.3876C173.967 17.5154 173.936 17.6524 173.936 17.7987V18.0336C173.936 18.234 173.97 18.4039 174.039 18.5432C174.109 18.6814 174.207 18.7868 174.331 18.8593C174.455 18.9307 174.6 18.9664 174.765 18.9664C174.872 18.9664 174.969 18.9514 175.055 18.9215C175.142 18.8904 175.218 18.8443 175.281 18.7833C175.345 18.7211 175.393 18.644 175.428 18.5518L175.822 18.6624C175.78 18.796 175.711 18.9134 175.613 19.0148C175.515 19.115 175.394 19.1933 175.25 19.2497C175.106 19.305 174.944 19.3326 174.765 19.3326ZM177.485 19.3326C177.264 19.3326 177.069 19.2768 176.9 19.1651C176.73 19.0522 176.598 18.8933 176.502 18.6883C176.407 18.4822 176.359 18.2386 176.359 17.9576C176.359 17.6789 176.407 17.4371 176.502 17.2321C176.598 17.0271 176.731 16.8688 176.901 16.7571C177.072 16.6454 177.269 16.5895 177.492 16.5895C177.665 16.5895 177.801 16.6183 177.902 16.6759C178.003 16.7323 178.08 16.7968 178.133 16.8694C178.187 16.9408 178.229 16.9995 178.259 17.0456H178.294V15.7397H178.701V19.2773H178.308V18.8697H178.259C178.229 18.918 178.187 18.9791 178.131 19.0528C178.076 19.1253 177.997 19.1904 177.895 19.248C177.792 19.3044 177.656 19.3326 177.485 19.3326ZM177.541 18.9664C177.704 18.9664 177.842 18.9238 177.955 18.8386C178.068 18.7522 178.154 18.633 178.213 18.481C178.271 18.3279 178.301 18.1511 178.301 17.9507C178.301 17.7526 178.272 17.5793 178.214 17.4308C178.157 17.2811 178.071 17.1647 177.959 17.0818C177.846 16.9978 177.706 16.9557 177.541 16.9557C177.368 16.9557 177.224 17.0001 177.109 17.0887C176.995 17.1763 176.909 17.2955 176.851 17.4463C176.795 17.596 176.767 17.7642 176.767 17.9507C176.767 18.1396 176.796 18.3112 176.853 18.4655C176.912 18.6186 176.998 18.7407 177.112 18.8317C177.227 18.9215 177.37 18.9664 177.541 18.9664Z" fill="black"/>
<path d="M160.133 34.1865C160.133 34.1865 172.462 33.1369 160.591 28.7176" stroke="black" stroke-width="0.606068" stroke-miterlimit="10" stroke-linecap="round"/>
<path d="M177.736 28.708C177.736 28.708 165.883 32.2587 178.407 34.155" stroke="black" stroke-width="0.606068" stroke-miterlimit="10" stroke-linecap="round"/>
<path d="M163.047 38.2754C163.047 38.2754 166.956 45.0149 175.968 38.3784" stroke="black" stroke-width="0.606068" stroke-miterlimit="10" stroke-linecap="round"/>
</g>
</g>
<defs>
<filter id="filter0_d_782_1760" x="0.535131" y="0" width="71.5079" height="71.5088" filterUnits="userSpaceOnUse" color-interpolation-filters="sRGB">
<feFlood flood-opacity="0" result="BackgroundImageFix"/>
<feColorMatrix in="SourceAlpha" type="matrix" values="0 0 0 0 0 0 0 0 0 0 0 0 0 0 0 0 0 0 127 0" result="hardAlpha"/>
<feOffset dy="2.64846"/>
<feGaussianBlur stdDeviation="1.32423"/>
<feComposite in2="hardAlpha" operator="out"/>
<feColorMatrix type="matrix" values="0 0 0 0 0 0 0 0 0 0 0 0 0 0 0 0 0 0 0.25 0"/>
<feBlend mode="normal" in2="BackgroundImageFix" result="effect1_dropShadow_782_1760"/>
<feBlend mode="normal" in="SourceGraphic" in2="effect1_dropShadow_782_1760" result="shape"/>
</filter>
<filter id="filter1_d_782_1760" x="67.7461" y="0" width="71.5079" height="71.5088" filterUnits="userSpaceOnUse" color-interpolation-filters="sRGB">
<feFlood flood-opacity="0" result="BackgroundImageFix"/>
<feColorMatrix in="SourceAlpha" type="matrix" values="0 0 0 0 0 0 0 0 0 0 0 0 0 0 0 0 0 0 127 0" result="hardAlpha"/>
<feOffset dy="2.64846"/>
<feGaussianBlur stdDeviation="1.32423"/>
<feComposite in2="hardAlpha" operator="out"/>
<feColorMatrix type="matrix" values="0 0 0 0 0 0 0 0 0 0 0 0 0 0 0 0 0 0 0.25 0"/>
<feBlend mode="normal" in2="BackgroundImageFix" result="effect1_dropShadow_782_1760"/>
<feBlend mode="normal" in="SourceGraphic" in2="effect1_dropShadow_782_1760" result="shape"/>
</filter>
<filter id="filter2_d_782_1760" x="134.959" y="0" width="71.5079" height="71.5088" filterUnits="userSpaceOnUse" color-interpolation-filters="sRGB">
<feFlood flood-opacity="0" result="BackgroundImageFix"/>
<feColorMatrix in="SourceAlpha" type="matrix" values="0 0 0 0 0 0 0 0 0 0 0 0 0 0 0 0 0 0 127 0" result="hardAlpha"/>
<feOffset dy="2.64846"/>
<feGaussianBlur stdDeviation="1.32423"/>
<feComposite in2="hardAlpha" operator="out"/>
<feColorMatrix type="matrix" values="0 0 0 0 0 0 0 0 0 0 0 0 0 0 0 0 0 0 0.25 0"/>
<feBlend mode="normal" in2="BackgroundImageFix" result="effect1_dropShadow_782_1760"/>
<feBlend mode="normal" in="SourceGraphic" in2="effect1_dropShadow_782_1760" result="shape"/>
</filter>
<clipPath id="clip0_782_1760">
<rect width="36.5338" height="41.2853" fill="white" transform="translate(18.2578 12.332)"/>
</clipPath>
<clipPath id="clip1_782_1760">
<rect width="32.9908" height="37.2816" fill="white" transform="translate(86.9453 14.5654)"/>
</clipPath>
<clipPath id="clip2_782_1760">
<rect width="36.5338" height="41.2853" fill="white" transform="translate(152.352 12.332)"/>
</clipPath>
</defs>
</svg>
