<svg width="31" height="44" viewBox="0 0 31 44" fill="none" xmlns="http://www.w3.org/2000/svg">
<path fill-rule="evenodd" clip-rule="evenodd" d="M20.9294 25.0389L26 25.0389C28.7614 25.0389 31 22.8003 31 20.0389L31 5.00043C31 2.23901 28.7614 0.000431061 26 0.000431061L5 0.000431061C2.23858 0.000431061 0 2.23901 0 5.00043L0 20.0389C0 22.8003 2.23858 25.0389 5 25.0389H9.92333L15.5495 32.6416L20.9294 25.0389Z" fill="#855CF8"/>
<path d="M13.123 9.51497L13.123 15.6426H11.8451L11.8451 10.7253H11.8112L10.4062 11.6055V10.4798L11.9212 9.51497H13.123ZM20.7826 8.7194V13.1712L19.7077 13.1712V11.377H18.4889V10.4967H19.7077V8.7194H20.7826ZM20.7826 13.4928V16.3366H15.6029L15.6029 13.4928L20.7826 13.4928ZM16.6862 14.3392V15.4733H19.7246V14.3392H16.6862ZM18.7344 9.10872V9.98047H17.2025C17.2194 10.8564 17.7653 11.7917 18.9714 12.1895L18.4382 13.0443C17.5833 12.7607 16.9951 12.2021 16.6608 11.5039C16.318 12.2741 15.7044 12.8877 14.7988 13.1797L14.2487 12.3333C15.4928 11.9355 16.0726 10.9538 16.1022 9.98047L14.5534 9.98047V9.10872L18.7344 9.10872Z" fill="white"/>
<path d="M11.6211 41.7207C10.3789 41.7207 9.48828 41.0332 9.46484 40.0488H10.6523C10.6758 40.4707 11.082 40.752 11.6289 40.752C12.1914 40.752 12.5977 40.4316 12.5898 39.9785C12.5977 39.5176 12.1836 39.1895 11.5195 39.1895H10.9961V38.3223H11.5195C12.0742 38.3223 12.4648 38.0176 12.4648 37.5723C12.4648 37.1426 12.1367 36.8457 11.6367 36.8457C11.1367 36.8457 10.7227 37.127 10.707 37.5566H9.58203C9.59766 36.5801 10.4805 35.9082 11.6367 35.9082C12.8164 35.9082 13.6055 36.6035 13.5977 37.502C13.6055 38.1348 13.1602 38.5879 12.5273 38.6973V38.7441C13.3555 38.8457 13.8164 39.3535 13.8086 40.0566C13.8164 41.0254 12.8945 41.7207 11.6211 41.7207ZM20.4258 35.2598V39.377H19.4258V39.1504H18.1367V38.5488H19.4258V35.2598H20.4258ZM14.4023 37.7598C15.7773 37.7676 17.4805 37.752 19.0039 37.6113L19.0508 38.2285C18.4219 38.3145 17.7773 38.3691 17.1445 38.4004V39.3926H16.1602V38.4395C15.5781 38.4551 15.0195 38.4551 14.5039 38.4473L14.4023 37.7598ZM20.4258 39.5879V41.252H16.4258V41.6191H20.5898V42.3145H15.4492V40.6113H19.4336V40.2598H15.418L15.418 39.5879H20.4258ZM16.6914 35.3535C17.7461 35.3535 18.4727 35.7832 18.4805 36.4238C18.4727 37.0879 17.7461 37.4863 16.6914 37.4863C15.6055 37.4863 14.8867 37.0879 14.8867 36.4238C14.8867 35.7832 15.6055 35.3535 16.6914 35.3535ZM16.6914 36.0098C16.1523 36.002 15.8242 36.166 15.832 36.4238C15.8242 36.6895 16.1523 36.8379 16.6914 36.8379C17.2148 36.8379 17.5508 36.6895 17.5508 36.4238C17.5508 36.166 17.2148 36.002 16.6914 36.0098Z" fill="#855CF8"/>
</svg>
